<?xml version="1.0" encoding="utf-8"?>
<!-- Generator: Adobe Illustrator 20.1.0, SVG Export Plug-In . SVG Version: 6.00 Build 0)  -->
<svg version="1.1" id="Isolation_Mode" xmlns="http://www.w3.org/2000/svg" xmlns:xlink="http://www.w3.org/1999/xlink" x="0px"
	 y="0px" viewBox="0 0 141.7 138.5" style="enable-background:new 0 0 141.7 138.5;" xml:space="preserve">
<style type="text/css">
	.st0{fill:#91C848;}
</style>
<g>
	<g>
		<path class="st0" d="M128.3,33.7c-6.7-7.8-15.4-13.8-24.8-18C89.3,4.4,71-1.4,52.6,0.3c-6.8,0.6-13.5,2.3-19.9,4.8
			c-0.3,0.1,0.4,0.9,0.7,0.8c22.1-8.3,48.1-5.3,67.2,8.5c-0.8-0.3-1.5-0.6-2.3-0.9C72.6,3.9,41.2,6.2,20.6,25.7
			C2.2,43.1-5,70.2,3.7,94.2c8.4,23,28.8,40.6,53.2,43.7c5.8,0.7,11.5,0.7,17.1,0c9.7-0.1,19.4-2.2,28.2-6.4
			c23.1-11.1,39.4-35.4,39.4-61.2C141.7,56.7,137.1,43.9,128.3,33.7z M39.7,131.7c-11.4-4.8-20.9-13.3-27.5-23.8
			c-6.5-10.3-9.7-22-9.7-33.7c1.9,18.9,11.6,36.9,26.7,48.6c8.4,6.5,18.2,11,28.5,13.3C51.5,135.6,45.4,134.1,39.7,131.7z
			 M47.1,131.2c-24.2-9-40.3-32-42.3-57.6c-0.5-5.9-0.2-11.8,0.8-17.6c0-0.1,0-0.3-0.2-0.5c1.6-5,3.8-9.9,6.7-14.5
			c6.2-9.9,14.9-18.2,25.3-23.5c12.6-6.4,27-8.2,40.9-6.7c9.1,1,18.5,3.4,27,7.5c0.6,0.6,1.2,1.1,1.9,1.7
			c18.2,17.4,26,44.1,19.3,68.5c-6.6,23.8-25.5,42-49.8,46.8C66.8,136,56.7,134.7,47.1,131.2z M115.5,118.9
			c-5.5,4.8-11.7,8.6-18.2,11.3c10.3-5.7,19-14.2,24.9-24.9c12.8-23.2,10.9-51.7-3.8-73.6c-3-4.5-6.5-8.6-10.4-12.2
			c12.9,6.7,23.5,17,28.3,31.1C144.5,75,134.4,102.3,115.5,118.9z"/>
	</g>
</g>
</svg>
