<?xml version="1.0" standalone="no"?>
<!DOCTYPE svg PUBLIC "-//W3C//DTD SVG 1.1//EN" "http://www.w3.org/Graphics/SVG/1.1/DTD/svg11.dtd" >
<svg>
<metadata>
Created by FontForge 20090622 at Wed May 18 08:52:38 2016
 By deploy user
Copyright (c) 2005 Parachute&#194;&#168;, www.parachute.gr.  All rights reserved. (ver. 1.2)
</metadata>
<defs>
<font id="PFHandbookPro-Medium" horiz-adv-x="1818" >
  <font-face 
    font-family="PF Handbook Pro Medium"
    font-weight="500"
    font-stretch="normal"
    units-per-em="1000"
    panose-1="2 0 5 6 5 0 0 2 0 4"
    ascent="750"
    descent="-250"
    x-height="440"
    cap-height="617"
    bbox="-167.5 -232 1760 1524.79"
    underline-thickness="70"
    underline-position="-50"
    unicode-range="U+0020-U+FB05"
  />
<missing-glyph horiz-adv-x="444" 
d="M0 0v700h444v-700h-444zM92 59h260l-130 237zM222 404l130 237h-260zM256 350l129 -233v466zM59 583v-466l128 233z" />
    <glyph glyph-name="fj" unicode="fj" horiz-adv-x="461" 
d="M238 558q-32 0 -49 -18.5t-17 -48.5v-50h224q12 0 12 -12v-482q0 -58 -29 -94t-90 -36q-34 0 -60 7q-18 5 -15 19l11 54q3 14 22 10q14 -4 29 -4q24 0 31.5 14.5t7.5 40.5v405h-143v-351q0 -12 -13 -12h-68q-13 0 -13 12v351h-51q-11 0 -11 13v53q0 12 13 12h50v69
q0 63 41 99t114 36q81 -3 124 -29q13 -9 9 -19l-23 -51q-6 -13 -24 -5q-40 17 -82 17z" />
    <glyph glyph-name="ffj" unicode="ffj" horiz-adv-x="699" 
d="M527 -183q-34 0 -60 7q-18 5 -15 19l11 54q3 14 22 10q14 -4 29 -4q24 0 31.5 14.5t7.5 40.5q0 67 -0.5 202t-0.5 203h-141v-351q0 -12 -13 -12h-69q-12 0 -12 12v350h-145v-350q0 -12 -13 -12h-68q-13 0 -13 12v350h-51q-11 0 -11 13v54q0 12 13 12h50v57q0 57 42 95.5
t113 38.5q70 0 111 -26q49 44 132 44q81 0 129 -29q13 -9 9 -19l-23 -51q-6 -13 -24 -5q-40 17 -93 17q-31 0 -47.5 -17t-16.5 -45v-60h223q12 0 12 -12v-482q0 -58 -29 -94t-90 -36zM172 441h144v88q-34 15 -78 15q-33 0 -49.5 -18.5t-16.5 -48.5v-36z" />
    <glyph glyph-name="ff" unicode="ff" horiz-adv-x="529" 
d="M476 564q-31 0 -48 -18t-17 -45v-60h91q13 0 13 -13v-53q0 -12 -13 -12h-91v-351q0 -12 -13 -12h-69q-12 0 -12 12v350h-145v-350q0 -12 -13 -12h-68q-13 0 -13 12v350h-51q-11 0 -11 13v54q0 12 13 12h50v57q0 57 42 95.5t113 38.5q68 0 111 -26q49 46 128 46
q55 0 101 -23q9 -5 9 -12q0 -3 -2 -9l-18 -45q-5 -12 -13 -12q-3 0 -9 2q-33 11 -65 11zM172 441h144v88q-34 15 -78 15q-33 0 -49.5 -18.5t-16.5 -48.5v-36z" />
    <glyph glyph-name="fi" unicode="fi" horiz-adv-x="462" 
d="M238 559q-66 0 -66 -66v-52h218q18 0 18 -19v-410q0 -12 -13 -12h-68q-12 0 -12 12v351h-143v-351q0 -12 -13 -12h-68q-13 0 -13 12v351h-51q-11 0 -11 13v53q0 12 13 12h50v82q2 58 43.5 91t111.5 33q79 0 124 -30q8 -6 9.5 -9.5t-2.5 -13.5l-21 -46q-4 -9 -11 -9
q-6 0 -13 4q-42 16 -82 16z" />
    <glyph glyph-name="fl" unicode="fl" horiz-adv-x="496" 
d="M264 363h-92v-351q0 -12 -13 -12h-68q-13 0 -13 12v351h-51q-11 0 -11 13v53q0 12 13 12h50v80q2 58 43.5 91.5t111.5 33.5q47 0 102 -19l56 11h2l2 1q12 0 12 -14v-493q0 -31 9 -41.5t33 -10.5h12q12 0 12 -16v-55q0 -4 -1.5 -7t-5 -5t-6.5 -3t-8.5 -1.5t-8 -0.5h-8.5
h-7q-71 0 -93 37t-22 125v390q-42 14 -76 14q-66 0 -66 -66v-51h90q13 0 13 -12v-53q0 -13 -11 -13z" />
    <glyph glyph-name="ffi" unicode="ffi" horiz-adv-x="700" 
d="M234 632q68 0 111 -26q47 44 130 44q43 0 87 -14t44 -26l-9 -24l-15 -33q-5 -13 -20 -7q-54 17 -84 17t-48.5 -18t-18.5 -44v-60h219q10 0 13 -4t3 -15v-410q0 -12 -13 -12h-68q-12 0 -12 12v351h-142v-351q0 -12 -13 -12h-69q-12 0 -12 12v350h-145v-350q0 -12 -13 -12
h-68q-13 0 -13 12v350h-51q-11 0 -11 13v54q0 12 13 12h50v57q0 57 42 95.5t113 38.5zM172 441h144v88q-34 15 -78 15q-33 0 -49.5 -18.5t-16.5 -48.5v-36z" />
    <glyph glyph-name="ffl" unicode="ffl" horiz-adv-x="713" 
d="M472 650q55 0 101 -18q12 2 57 11h3q13 0 13 -12v-499q0 -31 9 -41.5t33 -10.5h12q11 0 11 -16v-55q0 -4 -1.5 -7.5t-5 -5t-6.5 -3t-8 -1.5h-8h-8h-7q-66 0 -91 32.5t-25 104.5v420q-40 14 -76 14q-31 0 -47.5 -17t-16.5 -45v-60h86q13 0 13 -12v-54q0 -13 -11 -13
q-15 0 -44 0.5t-44 0.5v-351q0 -12 -13 -12h-69q-12 0 -12 12v350h-145v-350q0 -12 -13 -12h-68q-13 0 -13 12v350h-51q-11 0 -11 13v54q0 12 13 12h50v57q0 57 42 95.5t113 38.5q68 0 111 -26q47 44 127 44zM172 441h144v88q-34 15 -78 15q-33 0 -49.5 -18.5t-16.5 -48.5
v-36z" />
    <glyph glyph-name="ft" unicode="ft" horiz-adv-x="546" 
d="M411 136q0 -56 50 -56q24 0 46 6q8 2 10 2q10 0 12 -11l11 -53q1 -1 1 -4q0 -12 -16 -17q-38 -8 -79 -8q-65 0 -96 32t-32 88l-1 248h-145v-351q0 -12 -13 -12h-68q-13 0 -13 12v351h-51q-11 0 -11 13v53q0 12 13 12h49l1 77q2 53 36 89t93 36q37 0 73 -9q17 -5 14 -20
l-11 -54q-1 -10 -12 -10q-6 0 -10 1q-20 6 -41 6q-24 0 -36.5 -15.5t-12.5 -40.5v-61h145v91q0 12 13 15l65 16q16 4 16 -12v-110h98q13 0 13 -12v-53q0 -13 -13 -13l-98 1v-227z" />
    <glyph glyph-name=".notdef" horiz-adv-x="444" 
d="M0 0v700h444v-700h-444zM92 59h260l-130 237zM222 404l130 237h-260zM256 350l129 -233v466zM59 583v-466l128 233z" />
    <glyph glyph-name=".null" horiz-adv-x="0" 
 />
    <glyph glyph-name="nonmarkingreturn" horiz-adv-x="333" 
 />
    <glyph glyph-name="space" unicode=" " horiz-adv-x="228" 
 />
    <glyph glyph-name="exclam" unicode="!" horiz-adv-x="270" 
d="M193 606l-17 -429q0 -10 -9 -10h-44q-10 0 -10 9l-20 429q0 12 12 12h76q12 0 12 -11zM142 108q25 0 43 -17t19 -41q0 -24 -18 -41.5t-43 -17.5t-43 17.5t-18 40.5q0 24 18 41.5t42 17.5z" />
    <glyph glyph-name="quotedbl" unicode="&#x22;" horiz-adv-x="304" 
d="M252 422q0 -11 -12 -11h-50q-13 0 -13 11v183q0 12 13 12h50q5 0 9 -3t3 -7v-185zM130 422q0 -11 -13 -11h-49q-13 0 -13 11v183q0 12 12 12h51q5 0 9 -3t3 -7v-185z" />
    <glyph glyph-name="numbersign" unicode="#" horiz-adv-x="486" 
d="M456 377q-3 -12 -14 -12h-68l-29 -126h74q11 0 11 -9l-8 -45q-3 -12 -15 -12h-77l-27 -122q-1 -9 -11 -9h-46q-14 0 -14 10q0 1 0.5 2.5t0.5 2.5l27 117h-93l-26 -118q-3 -14 -23 -14h-38q-14 0 -14 12q0 -1 5.5 24l12.5 55.5t10 39.5h-64q-7 0 -9.5 3t-1.5 7l9 44
q3 12 14 12h65q11 42 31 126h-73q-14 0 -11 11l10 44q1 11 13 11h74l24 111q6 17 31 17h30q16 0 13 -14l-26 -114h92q20 80 29 120q1 8 12 8h45q13 0 13 -14l-25 -113h65q12 0 12 -11q0 -1 -10 -44zM273 239l28 126h-92l-28 -126h92z" />
    <glyph glyph-name="dollar" unicode="$" horiz-adv-x="486" 
d="M240 527q-37 0 -64 -23t-27 -64q0 -16 8 -29.5t16.5 -21t27 -16.5t27 -11.5t28.5 -9.5q37 -11 64.5 -22.5t56.5 -31t44.5 -49.5t15.5 -69q0 -71 -46.5 -116.5t-120.5 -52.5v-69q0 -12 -12 -12h-36q-12 0 -12 11v68q-84 7 -148 57q-12 10 -2 23l31 41q10 14 29 -1
q19 -17 52.5 -28.5t64.5 -11.5q46 0 76 22.5t30 63.5q0 38 -32 59.5t-84 37.5l-46.5 16t-43 20t-42.5 30.5t-26 42t-12 59.5q0 62 40.5 106.5t108.5 58.5v62q0 11 12 11h36q12 0 12 -11v-62q83 -8 138 -53q13 -10 2 -24l-29 -38q-10 -13 -30 3q-39 34 -107 34z" />
    <glyph glyph-name="percent" unicode="%" horiz-adv-x="730" 
d="M252 -22q-3 -8 -13 -8h-39q-14 0 -8 13l280 655q4 9 16 9h33q18 0 11 -16zM298 343q0 -52 -34 -80.5t-91 -28.5t-91.5 28t-34.5 81v169q0 51 34.5 80t91.5 29q56 0 90.5 -29t34.5 -80v-169zM223 343v169q0 21 -14 34t-36 13q-23 0 -37 -13t-14 -34v-169q0 -21 14 -34
t37 -13q22 0 36 13t14 34zM683 103q0 -52 -34 -80.5t-91 -28.5t-91.5 28t-34.5 81v169q0 51 34.5 80t91.5 29q56 0 90.5 -29t34.5 -80v-169zM608 103v169q0 21 -14 34t-36 13q-23 0 -37 -13t-14 -34v-169q0 -21 14 -34t37 -13q22 0 36 13t14 34z" />
    <glyph glyph-name="ampersand" unicode="&#x26;" horiz-adv-x="597" 
d="M374 290h-117q-11 0 -11 12v55q0 12 13 12h208q64 0 117 36q5 4 11 4q5 0 11 -6l22 -37q4 -5 4 -11q0 -7 -7 -12q-57 -51 -157 -53v-104q0 -86 -52.5 -139t-152.5 -53h-10q-101 0 -148.5 49.5t-47.5 135.5v220q0 77 55 124t138 47h146q14 0 14 -12v-57q0 -13 -13 -13
h-137q-47 0 -77.5 -23.5t-30.5 -64.5v-221q0 -47 20 -75t79 -28h17q59 0 82.5 32.5t23.5 77.5v104z" />
    <glyph glyph-name="quotesingle" unicode="'" horiz-adv-x="189" 
d="M134 607l-1 -185q0 -11 -13 -11h-49q-14 0 -14 11v183q0 12 13 12h51q13 0 13 -10z" />
    <glyph glyph-name="parenleft" unicode="(" horiz-adv-x="338" 
d="M295 649q-127 -201 -127 -382q0 -87 35.5 -193.5t82.5 -182.5q12 -19 -2 -26l-25 -16q-20 -13 -35 6q-66 86 -110.5 193t-44.5 219t48 223t111 196q10 14 27 5l34 -18q16 -8 6 -24z" />
    <glyph glyph-name="parenright" unicode=")" horiz-adv-x="324" 
d="M259 267q0 -112 -44.5 -219t-110.5 -193q-15 -19 -35 -6l-25 16q-14 7 -2 26q47 76 82.5 182.5t35.5 193.5q0 181 -127 382q-10 16 6 24l34 18q17 9 27 -5q63 -85 111 -196t48 -223z" />
    <glyph glyph-name="asterisk" unicode="*" horiz-adv-x="378" 
d="M344 527q6 -17 -10 -21l-100 -24l65 -76q13 -16 0 -25l-32 -21q-9 -7 -15 -6.5t-12 11.5l-51 87l-53 -88q-10 -15 -26 -4l-30 20q-17 13 -2 29l66 74l-99 24q-16 3 -11 19l11 37q6 19 25 11l92 -38l-10 102q-2 16 19 16h37q10 0 14.5 -4t3.5 -13l-11 -101l92 37
q18 9 24 -10z" />
    <glyph glyph-name="plus" unicode="+" horiz-adv-x="486" 
d="M446 232q0 -18 -18 -18h-150v-147q0 -16 -17 -16h-40q-18 0 -18 16v147h-146q-18 0 -18 17v35q0 17 18 17h146v147q0 17 18 17h39q18 0 18 -17v-147h150q18 0 18 -17v-34z" />
    <glyph glyph-name="comma" unicode="," horiz-adv-x="221" 
d="M172 82l-52 -179q-5 -18 -23 -18h-29q-17 0 -17 25l12 176q0 24 23 24h66q28 0 20 -28z" />
    <glyph glyph-name="hyphen" unicode="-" horiz-adv-x="332" 
d="M276 210q0 -12 -12 -12h-202q-13 0 -13 12v51q0 12 12 12h202q13 0 13 -11v-52z" />
    <glyph glyph-name="period" unicode="." horiz-adv-x="221" 
d="M166 51q0 -24 -18 -41.5t-43 -17.5q-24 0 -41.5 17.5t-17.5 41.5t17.5 41.5t41.5 17.5q26 0 43.5 -17t17.5 -42z" />
    <glyph glyph-name="slash" unicode="/" horiz-adv-x="311" 
d="M305 659l-234 -711q-3 -14 -20 -14h-35q-16 0 -11 18l232 709q5 14 25 14h31q17 0 12 -16z" />
    <glyph glyph-name="zero" unicode="0" horiz-adv-x="486" 
d="M428 166q0 -81 -51 -126.5t-134 -45.5q-84 0 -134.5 44.5t-50.5 127.5v288q0 80 51 126t133 46t134 -45.5t52 -126.5v-288zM332 166v288q0 40 -25 64.5t-64 24.5q-40 0 -65 -25t-25 -64v-288q0 -40 25 -65t64 -25q40 0 65 24.5t25 65.5z" />
    <glyph glyph-name="one" unicode="1" horiz-adv-x="486" 
d="M308 12q0 -12 -13 -12h-70q-12 0 -12 12v488l-82 -47q-7 -4 -17 -4q-9 0 -9 13v53q0 20 11 27l109 67q24 8 33 8h34q16 0 16 -17v-588z" />
    <glyph glyph-name="two" unicode="2" horiz-adv-x="486" 
d="M422 12q0 -12 -13 -12h-342q-17 0 -17 17v37q0 25 13 43l215 273q42 56 42 93q0 34 -21.5 57t-63.5 23q-54 0 -96 -46q-17 -19 -29 -9l-35 29q-17 11 -6 25q55 83 171 83q77 0 127 -41t50 -116q0 -62 -61 -140l-194 -246h247q13 0 13 -11v-59z" />
    <glyph glyph-name="three" unicode="3" horiz-adv-x="486" 
d="M406 171q0 -82 -50.5 -129.5t-134.5 -47.5q-79 0 -125 38q-31 26 -45 52q-6 13 7 20l52 30q12 8 19 -4q38 -54 90 -54q43 0 68 24t25 62v46q0 37 -22.5 62t-59.5 25h-69q-13 0 -13 12v57q0 12 12 12h63q39 0 62.5 22.5t23.5 58.5q0 39 -25 62.5t-63 23.5q-53 0 -88 -45
q-13 -17 -24 -10l-46 27q-16 10 -6 25q25 43 71.5 64.5t100.5 21.5q85 0 130 -43.5t45 -119.5q0 -39 -19 -76.5t-52 -49.5l2 -4q36 -10 53.5 -45.5t17.5 -72.5v-44z" />
    <glyph glyph-name="four" unicode="4" horiz-adv-x="486" 
d="M257 617h67q13 0 13 -12q0 -4 -1 -6l-199 -388h141v169q0 12 10 12h73q11 0 11 -12v-169h67q11 0 11 -11v-57q0 -11 -11 -11h-67v-121q0 -11 -11 -11h-73q-10 0 -10 11q0 20 -0.5 60t-0.5 61h-228q-13 0 -13 14v53q3 18 20 46l185 364q3 8 16 8z" />
    <glyph glyph-name="five" unicode="5" horiz-adv-x="486" 
d="M414 166q0 -79 -53.5 -125.5t-134.5 -46.5q-63 0 -101.5 20t-67.5 72q-8 13 5 19l54 29q10 6 19 -4q22 -29 40 -41.5t48 -12.5q41 0 68.5 24t27.5 62v75q0 39 -24.5 62.5t-68.5 23.5q-34 0 -59 -18q-19 -11 -34 -5l-38 17q-18 9 -18 25v262q0 13 13 13h294q13 0 13 -12
v-59q0 -11 -12 -11h-214v-144h4q29 16 64 16q81 0 128 -47t47 -123v-71z" />
    <glyph glyph-name="six" unicode="6" horiz-adv-x="486" 
d="M428 163q0 -79 -51.5 -124t-133.5 -45q-83 0 -135.5 44t-52.5 124v293q0 78 52 124.5t132 46.5q66 0 108 -26q41 -25 60 -66q6 -11 -5 -17l-49 -31q-13 -9 -23 7q-37 50 -90 50q-39 0 -65 -24.5t-26 -62.5v-93h4q17 16 45.5 26t50.5 10q80 0 129.5 -45t49.5 -122v-69z
M333 163v68q0 39 -26.5 62.5t-66.5 23.5q-37 0 -64 -24.5t-27 -60.5v-69q0 -39 27 -63t66 -24q38 0 64.5 24.5t26.5 62.5z" />
    <glyph glyph-name="seven" unicode="7" horiz-adv-x="486" 
d="M436 568q0 -10 -8 -34q-25 -50 -240 -523q-6 -11 -16 -11h-76q-7 0 -10.5 4t-0.5 11l238 519h-179v-54q0 -14 -12 -14h-56q-13 0 -13 13v125q0 13 12 13h338q23 0 23 -18v-31z" />
    <glyph glyph-name="eight" unicode="8" horiz-adv-x="486" 
d="M243 628q81 0 133.5 -47t52.5 -126q0 -34 -17 -67t-45 -55v-5q70 -34 70 -140q0 -90 -56 -142t-140 -52q-86 0 -139.5 46.5t-53.5 138.5q0 48 21 89t58 59v4q-32 15 -50 51.5t-18 71.5q0 77 53 125.5t131 48.5zM336 456q0 39 -25.5 65t-67.5 26q-39 0 -66 -26.5
t-27 -65.5q0 -37 26 -63.5t67 -26.5q40 0 66.5 26.5t26.5 64.5zM242 287q-39 0 -69.5 -30.5t-30.5 -77.5q0 -49 27 -76.5t71 -27.5q42 0 72.5 30t30.5 80q0 47 -29 74.5t-72 27.5z" />
    <glyph glyph-name="nine" unicode="9" horiz-adv-x="486" 
d="M424 165q0 -78 -52 -124.5t-133 -46.5q-67 0 -109 25q-41 26 -62 69q-5 11 6 17l54 30q10 6 20 -8q38 -51 90 -51q39 0 65 24.5t26 63.5v90h-4q-29 -33 -96 -33q-78 0 -129 46t-51 122v63q0 79 53.5 126.5t134.5 47.5q85 0 136 -45.5t51 -126.5v-289zM329 389v65
q0 38 -27.5 64t-66.5 26q-37 0 -64 -26t-27 -63v-66q0 -39 27 -62t67 -23q37 0 64 24.5t27 60.5z" />
    <glyph glyph-name="colon" unicode=":" horiz-adv-x="221" 
d="M171 330q0 -25 -18 -42.5t-43 -17.5q-24 0 -41.5 17t-17.5 42q0 23 17.5 41t41.5 18t42.5 -17.5t18.5 -40.5zM171 51q0 -24 -18 -41.5t-43 -17.5q-24 0 -41.5 17.5t-17.5 40.5q0 25 17.5 42.5t41.5 17.5q26 0 43.5 -17t17.5 -42z" />
    <glyph glyph-name="semicolon" unicode=";" horiz-adv-x="221" 
d="M171 329q0 -24 -18 -41.5t-43 -17.5t-42.5 17t-17.5 41t18 41.5t42 17.5q25 0 43 -17t18 -41zM165 81l-51 -178q-5 -18 -24 -18h-29q-18 0 -16 25l10 176q2 25 24 25h66q28 0 20 -30z" />
    <glyph glyph-name="less" unicode="&#x3c;" horiz-adv-x="486" 
d="M452 450q0 -20 -13 -26l-319 -164l320 -162q12 -6 12 -26v-50q-1 -7 -6.5 -11t-13.5 0l-380 200q-20 9 -20 25v44q0 17 16 26l383 201q7 5 14 2t7 -11v-48z" />
    <glyph glyph-name="equal" unicode="=" horiz-adv-x="486" 
d="M446 318q0 -22 -24 -22h-359q-24 0 -24 21v28q0 20 24 20h359q24 0 24 -20v-27zM446 143q0 -22 -24 -22h-359q-24 0 -24 21v28q0 20 24 20h359q24 0 24 -20v-27z" />
    <glyph glyph-name="greater" unicode="&#x3e;" horiz-adv-x="486" 
d="M34 450l-1 48q0 8 6.5 11t14.5 -2l383 -201q16 -9 16 -26v-44q0 -16 -19 -25l-381 -200q-8 -4 -14.5 0t-5.5 11v50q2 21 13 26l320 162l-320 164q-12 6 -12 26z" />
    <glyph glyph-name="question" unicode="?" horiz-adv-x="498" 
d="M437 464q0 -47 -28 -88t-74 -70q-43 -27 -64 -51t-21 -59v-19q0 -5 -4 -8.5t-9 -3.5h-66q-10 0 -13.5 3.5t-3.5 14.5v30q0 39 22.5 76.5t61.5 63.5q36 24 51 36t31 31.5t17 39.5q3 34 -21 59.5t-62 25.5q-32 0 -53 -13t-41 -41q-9 -12 -21 -4l-47 31q-11 8 -4 22
q51 87 165 87q81 0 132.5 -43t51.5 -120zM200 108q25 0 42.5 -16.5t18.5 -41.5q0 -24 -17.5 -41.5t-43.5 -17.5q-25 0 -42.5 17.5t-17.5 40.5q0 25 17.5 42t42.5 17z" />
    <glyph glyph-name="at" unicode="@" horiz-adv-x="743" 
d="M555 184q33 0 59 33t26 113q0 102 -76.5 165.5t-168.5 63.5q-116 0 -193.5 -77t-77.5 -190q0 -116 76 -193t198 -77q80 0 161 32q20 8 25 -7l9 -26q6 -18 -10 -25q-91 -32 -180 -32q-155 0 -249.5 88.5t-94.5 239.5q0 138 94.5 231t238.5 93q134 0 223.5 -80t89.5 -202
q0 -109 -45.5 -160t-106.5 -51q-72 0 -96 39h-2q-31 -37 -90 -37q-53 0 -87.5 31t-34.5 82q0 52 33.5 82.5t88.5 30.5q38 0 60 -16h2v16q0 45 -60 45q-27 0 -72 -17q-10 -4 -14 7l-11 34q-3 10 5 14q50 22 99 22q64 0 95.5 -33t31.5 -87v-93q0 -59 54 -59zM368 294
q-24 0 -39.5 -16t-15.5 -39t15.5 -39t39.5 -16t39.5 16t15.5 39q0 21 -14 38t-41 17z" />
    <glyph glyph-name="A" unicode="A" horiz-adv-x="469" 
d="M440 0h-74q-14 0 -15 9l-14 56t-16 68h-177q-8 -28 -30 -124q-1 -9 -14 -9h-69q-19 0 -13 17l147 587q4 13 18 13h99q14 0 18 -12l151 -586q3 -6 0 -12.5t-11 -6.5zM230 509q-4 -21 -13 -61t-13 -61l-40 -172h137l-40 169l-28 125h-3z" />
    <glyph glyph-name="B" unicode="B" horiz-adv-x="496" 
d="M459 185q0 -83 -50 -134t-135 -51h-202q-15 0 -15 14v589q0 14 14 14h191q83 0 130.5 -42t47.5 -120q0 -34 -19.5 -69.5t-50.5 -51.5v-4q46 -17 67.5 -57t21.5 -88zM360 183q0 45 -25 73.5t-79 28.5h-101v-199h110q44 0 69.5 26t25.5 71zM342 453q0 38 -24 58t-65 20h-98
v-161h105q39 0 60.5 23.5t21.5 59.5z" />
    <glyph glyph-name="C" unicode="C" horiz-adv-x="451" 
d="M251 -6q-86 0 -139.5 46.5t-53.5 126.5v285q0 79 52.5 126.5t135.5 47.5q115 0 178 -83q10 -13 -4 -24l-46 -36q-14 -10 -24 6q-37 50 -101 50q-44 0 -68 -25t-24 -64v-282q0 -38 25.5 -62.5t69.5 -24.5q54 0 97 47q14 16 25 9l50 -35q12 -8 5 -20q-62 -88 -178 -88z" />
    <glyph glyph-name="D" unicode="D" horiz-adv-x="510" 
d="M454 186q0 -90 -47.5 -138t-137.5 -48h-192q-15 0 -15 14v589q0 14 15 14h191q90 0 138 -47.5t48 -134.5v-249zM356 180v259q0 92 -98 92h-97v-445h103q46 0 69 24.5t23 69.5z" />
    <glyph glyph-name="E" unicode="E" horiz-adv-x="454" 
d="M422 15q0 -15 -14 -15h-333q-15 0 -15 14v589q0 14 15 14h328q14 0 14 -14v-57q0 -15 -14 -15h-244v-168h203q15 0 15 -15v-57q0 -15 -14 -15h-204v-190h249q14 0 14 -14v-57z" />
    <glyph glyph-name="F" unicode="F" horiz-adv-x="420" 
d="M408 545q0 -14 -15 -14h-236v-172h200q14 0 14 -14v-58q0 -14 -14 -14h-200q0 -43 0.5 -129t0.5 -129q0 -15 -14 -15h-69q-15 0 -15 14v589q0 14 15 14h318q15 0 15 -13v-59z" />
    <glyph glyph-name="G" unicode="G" horiz-adv-x="496" 
d="M252 626q128 0 179 -88q8 -12 -5 -22l-48 -36q-11 -6 -24 8q-36 50 -100 50q-46 0 -71.5 -26t-25.5 -67v-277q0 -39 26.5 -63t70.5 -24q40 0 65 23.5t25 64.5v86h-72q-15 0 -15 14v58q0 14 15 14h155q16 0 16 -14v-162q0 -77 -53.5 -124t-136.5 -47q-85 0 -139.5 46
t-54.5 126v287q0 78 55 125.5t138 47.5z" />
    <glyph glyph-name="H" unicode="H" horiz-adv-x="537" 
d="M476 14q0 -14 -16 -14h-68q-16 0 -16 13v262h-214v-261q0 -14 -15 -14h-69q-15 0 -15 13v591q0 13 14 13h69q16 0 16 -12v-244h214v243q0 13 15 13h69q16 0 16 -12v-591z" />
    <glyph glyph-name="I" unicode="I" horiz-adv-x="249" 
d="M173 14q0 -14 -15 -14h-70q-15 0 -15 13v590q0 14 15 14h70q15 0 15 -13v-590z" />
    <glyph glyph-name="J" unicode="J" horiz-adv-x="289" 
d="M9 -121l-16 51q-5 17 11 23q63 25 90.5 58.5t27.5 101.5v491q0 13 15 13h67q15 0 15 -13v-492q0 -99 -42 -159.5t-145 -87.5q-18 -5 -23 14z" />
    <glyph glyph-name="K" unicode="K" horiz-adv-x="516" 
d="M268 295q-50 0 -77.5 -30t-27.5 -77q0 -30 -0.5 -88t-0.5 -87q0 -13 -11 -13h-75q-13 0 -13 12v592q0 13 14 13h73q12 0 12 -12v-239h2l2 -1l198 242q8 10 20 10h77q12 0 12 -9q0 -5 -2 -7l-186 -230l2 -4q5 1 16 1q144 0 155 -166q4 -59 14 -189q0 -13 -12 -13h-70
q-13 0 -13 12l-14 202q-12 81 -95 81z" />
    <glyph glyph-name="L" unicode="L" horiz-adv-x="438" 
d="M420 15q0 -15 -13 -15h-326q-15 0 -15 14v590q0 13 14 13h69q14 0 14 -12v-519h244q13 0 13 -13v-58z" />
    <glyph glyph-name="M" unicode="M" horiz-adv-x="645" 
d="M593 14q0 -14 -15 -14h-65q-14 0 -14 13v355h-3l-43 -114l-85 -219q-9 -16 -22 -16h-42q-18 0 -24 14l-81 214l-42 119h-3v-353q0 -13 -15 -13h-64q-15 0 -15 14v583q0 20 19 20h51q13 0 18 -2.5t10 -13.5q3 -7 60.5 -159t61.5 -160l44 -123h5l46 125l121 317q8 16 27 16
h50q20 0 20 -19v-584z" />
    <glyph glyph-name="N" unicode="N" horiz-adv-x="534" 
d="M474 20q0 -20 -21 -20h-44q-21 0 -29 15l-221 396l-3 -1v-396q0 -14 -14 -14h-65q-15 0 -15 13v580q0 13 4.5 18.5t17.5 5.5h43q19 0 30 -17l221 -399l2 1v402q0 13 15 13h63q16 0 16 -13v-584z" />
    <glyph glyph-name="O" unicode="O" horiz-adv-x="513" 
d="M454 170q0 -81 -55 -128.5t-142 -47.5t-143 47t-56 129v279q0 81 56 129t142 48q85 0 141.5 -47.5t56.5 -129.5v-279zM355 172v276q0 39 -26.5 65t-71.5 26t-72.5 -26t-27.5 -65v-276q0 -41 26.5 -66t72.5 -25q45 0 72 25t27 66z" />
    <glyph glyph-name="P" unicode="P" horiz-adv-x="472" 
d="M447 433q0 -76 -54 -128t-135 -52h-97l1 -239q0 -14 -15 -14h-69q-15 0 -15 13v591q0 13 15 13h179q87 0 138.5 -51.5t51.5 -132.5zM349 434q0 39 -24.5 68t-67.5 29h-96v-193h96q41 0 66.5 26.5t25.5 69.5z" />
    <glyph glyph-name="Q" unicode="Q" horiz-adv-x="513" 
d="M454 170q0 -70 -42.5 -117t-114.5 -57q2 -51 39 -51q28 0 60 13q18 7 22 -6l15 -40q5 -14 -9 -22q-40 -24 -97 -24q-58 0 -88 35.5t-30 96.5q-73 10 -112 56t-39 116v279q0 81 56 129t142 48q85 0 141.5 -47.5t56.5 -129.5v-279zM355 172v276q0 39 -26.5 65t-71.5 26
t-72.5 -26t-27.5 -65v-276q0 -41 26.5 -66t72.5 -25q45 0 72 25t27 66z" />
    <glyph glyph-name="R" unicode="R" horiz-adv-x="498" 
d="M452 441q0 -48 -25 -94.5t-64 -78.5q-6 -6 1 -21l106 -225q10 -22 -12 -22h-64q-16 0 -23 5t-12 16l-102 224h-96q0 -39 0.5 -116t0.5 -115q0 -14 -15 -14h-68q-16 0 -16 13v590q0 14 15 14h187q90 0 138.5 -46.5t48.5 -129.5zM254 531h-93v-201h110q33 0 57.5 37
t24.5 78q0 36 -23.5 61t-75.5 25z" />
    <glyph glyph-name="S" unicode="S" horiz-adv-x="470" 
d="M436 174q0 -82 -59.5 -130.5t-153.5 -48.5q-127 0 -191 76q-12 13 1 26l38 39q10 10 27 -4q53 -51 123 -51q55 0 85.5 24t30.5 66q0 22 -9 38.5t-29.5 29t-37 19.5t-46.5 18q-36 13 -60.5 24.5t-53 31.5t-43 50.5t-14.5 69.5q0 79 53.5 126t133.5 47q103 0 172 -48
q6 -5 7.5 -10t0 -7.5l-5.5 -9.5l-25 -43q-8 -14 -28 -4q-64 36 -113 36q-97 0 -97 -88q0 -18 9 -32.5t29 -26t33 -17.5t40 -16q38 -14 54 -20.5t46.5 -23.5t44.5 -33.5t26 -44.5t12 -63z" />
    <glyph glyph-name="T" unicode="T" horiz-adv-x="429" 
d="M412 546q0 -15 -13 -15h-138v-517q0 -14 -15 -14h-69q-15 0 -15 13l1 518h-133q-14 0 -14 15v57q0 14 14 14h369q13 0 13 -13v-58z" />
    <glyph glyph-name="U" unicode="U" horiz-adv-x="513" 
d="M157 167q0 -37 28 -61.5t71 -24.5q45 0 72.5 25t27.5 63v435q0 13 15 13h68q16 0 16 -12v-438q0 -80 -57 -126.5t-141 -46.5t-141.5 46.5t-57.5 126.5v437q0 13 15 13h69q15 0 15 -12v-438z" />
    <glyph glyph-name="V" unicode="V" horiz-adv-x="462" 
d="M453 597l-162 -585q-4 -12 -19 -12h-77q-15 0 -19 12l-165 586q-6 19 16 19h71q14 0 17 -10l79 -316l39 -163h4l37 163l78 316q4 10 17 10h68q21 0 16 -20z" />
    <glyph glyph-name="W" unicode="W" horiz-adv-x="692" 
d="M683 598l-135 -586q-3 -12 -17 -12h-77q-14 0 -16 10l-63 293l-27 133l-3 1q-2 -15 -13 -68l-14 -68l-60 -291q-4 -10 -18 -10h-76q-14 0 -17 9l-137 592q-3 16 15 16h73q12 0 16 -14l61 -294l28 -148l4 -1l9 46t10.5 55t8.5 45l63 301q4 10 17 10h65q13 0 17 -12
q9 -46 35 -162l31 -139l29 -143l4 -1l27 147l60 298q1 12 16 12h68q20 0 16 -19z" />
    <glyph glyph-name="X" unicode="X" horiz-adv-x="465" 
d="M344 13l-107 217h-3l-107 -217q-7 -13 -26 -13h-72q-15 0 -15 9q0 3 4 11l161 301l-147 278q-3 5 -3 9q0 9 15 9h77q17 0 24 -14l90 -188h3l93 188q7 14 24 14h71q14 0 14 -9q0 -4 -3 -9l-144 -278l161 -302q3 -6 3 -10q0 -9 -14 -9h-73q-20 0 -26 13z" />
    <glyph glyph-name="Y" unicode="Y" horiz-adv-x="450" 
d="M96 617q19 0 25 -14l102 -261h4l100 259q8 16 27 16h65q22 0 14 -18l-154 -356q-6 -12 -6 -25v-203q0 -15 -15 -15h-68q-15 0 -15 14v206q0 12 -5 21l-154 357q-8 19 12 19h68z" />
    <glyph glyph-name="Z" unicode="Z" horiz-adv-x="430" 
d="M402 14q0 -14 -15 -14h-331q-24 0 -24 21v30q0 16 8 32q238 446 239 448h-216q-14 0 -14 15v58q0 13 15 13h306q24 0 24 -20v-32q0 -17 -13 -43q-2 -4 -39.5 -74.5l-76 -143l-75 -139.5l-42.5 -78h239q15 0 15 -14v-59z" />
    <glyph glyph-name="bracketleft" unicode="[" horiz-adv-x="339" 
d="M276 -136q0 -12 -12 -12h-155q-13 0 -13 12v811q0 13 13 13h154q13 0 13 -13v-55q0 -12 -12 -12h-73v-675h72q13 0 13 -13v-56z" />
    <glyph glyph-name="backslash" unicode="\" horiz-adv-x="311" 
d="M305 -48q5 -18 -11 -18h-35q-16 0 -21 14l-233 711q-5 16 11 16h32q20 0 25 -14z" />
    <glyph glyph-name="bracketright" unicode="]" horiz-adv-x="332" 
d="M50 -136v56q0 13 13 13h72v675h-73q-12 0 -12 12v55q0 13 13 13h154q13 0 13 -13v-811q0 -12 -13 -12h-155q-12 0 -12 12z" />
    <glyph glyph-name="asciicircum" unicode="^" horiz-adv-x="558" 
d="M472 416q12 -15 -5 -29l-23 -16q-10 -8 -29 11l-140 152l-135 -157q-17 -17 -30 -9l-27 17q-16 10 -2 27l151 203q10 12 25 12h43q15 0 25 -13z" />
    <glyph glyph-name="underscore" unicode="_" horiz-adv-x="500" 
d="M505 -143q0 -12 -12 -12h-486q-13 0 -13 11v47q0 11 13 11h485q13 0 13 -11v-46z" />
    <glyph glyph-name="grave" unicode="`" horiz-adv-x="402" 
d="M278 521q8 -11 -4 -19l-24 -15q-13 -8 -23 3l-107 119q-12 15 3 24l52 31q12 8 22 -8z" />
    <glyph glyph-name="a" unicode="a" horiz-adv-x="449" 
d="M227 449q90 0 128.5 -42.5t38.5 -123.5v-271q0 -12 -11 -12h-67q-10 0 -10 10v23l-3 1q-40 -40 -108 -40q-74 0 -114.5 41.5t-40.5 111.5q0 68 43 111.5t120 43.5q60 0 92 -25h3v23q0 35 -19.5 52.5t-64.5 17.5q-54 0 -101 -22q-14 -5 -18 6l-17 49q-4 13 6 16
q63 30 143 30zM128 150q0 -36 20 -58t62 -22q37 0 59.5 22.5t22.5 57.5q0 36 -21 58t-61 22q-37 0 -59.5 -22.5t-22.5 -57.5z" />
    <glyph glyph-name="b" unicode="b" horiz-adv-x="459" 
d="M417 163q0 -75 -43.5 -121.5t-123.5 -46.5q-70 0 -106 36l-2 -2v-18q0 -11 -13 -11h-63q-12 0 -12 12v612q0 13 13 13h69q12 0 12 -12v-208q1 -1 3 -1q41 31 104 31q82 0 122 -47.5t40 -122.5v-114zM322 163v107q0 96 -86 96q-38 0 -63 -26t-25 -63v-107q0 -41 22.5 -68
t64.5 -27q44 0 65.5 24t21.5 64z" />
    <glyph glyph-name="c" unicode="c" horiz-adv-x="412" 
d="M388 80q-58 -86 -162 -86q-83 0 -133 45.5t-50 122.5v114q0 78 52.5 125t132.5 47q100 0 157 -83q3 -4 2 -12t-7 -12l-45 -32q-15 -11 -27 9q-14 22 -38.5 35t-43.5 13q-38 0 -63 -24t-25 -61v-121q0 -36 25 -59.5t62 -23.5q51 0 88 50q11 13 25 4l41 -27q18 -12 9 -24z
" />
    <glyph glyph-name="d" unicode="d" horiz-adv-x="459" 
d="M407 12q0 -12 -11 -12h-65q-12 0 -12 11v21q-1 0 -2 0.5t-2 0.5q-34 -38 -112 -38q-74 0 -116.5 44t-42.5 122v116q0 74 44.5 122t123.5 48q61 0 97 -26l1 1h2v202q0 13 13 13h69q13 0 13 -12v-613zM312 163q0 18 0.5 53.5t0.5 53.5q0 41 -21.5 68t-65.5 27t-65.5 -24.5
t-21.5 -63.5v-107q0 -42 20.5 -68t63.5 -26q39 0 64 25t25 62z" />
    <glyph glyph-name="e" unicode="e" horiz-adv-x="448" 
d="M408 227q0 -12 -7.5 -19.5t-16.5 -7.5h-244v-35q0 -39 22 -64t65 -25q51 0 91 49q10 13 22 4l41 -28q16 -9 8 -24q-49 -83 -164 -83q-82 0 -131 45.5t-49 121.5v113q0 77 51 125.5t131 48.5q82 0 131.5 -48t49.5 -126v-47zM227 367q-38 0 -62 -22t-24 -60v-16h172v17
q0 35 -22.5 58t-63.5 23z" />
    <glyph glyph-name="f" unicode="f" horiz-adv-x="292" 
d="M295 614l-10 -53q-3 -15 -23 -9t-41 6q-49 0 -49 -56v-61h90q13 0 13 -12v-53q0 -13 -12 -13h-91v-351q0 -12 -13 -12h-68q-12 0 -12 12v351h-51q-12 0 -12 13v53q0 12 13 12h50v73q0 56 34.5 93t94.5 37q45 0 72 -9q18 -7 15 -21z" />
    <glyph glyph-name="g" unicode="g" horiz-adv-x="454" 
d="M102 150q-72 48 -72 136q0 68 52.5 115t124.5 47q79 0 123 -40q52 37 101 37q15 0 15 -15v-56q0 -12 -10 -12q-48 0 -64 -5q20 -35 20 -71q0 -70 -54 -116.5t-131 -46.5q-32 0 -58.5 -19t-28.5 -48q57 13 113 13q84 0 144 -31.5t60 -101.5q0 -42 -31.5 -79.5t-73.5 -56.5
q-19 -9 -26 4l-27 41q-8 12 8 21q54 32 54 66q0 54 -106 54q-51 0 -154 -15q-4 -1 -10 -1q-18 0 -28 26.5t-10 55.5q0 26 19 54t50 44zM298 282q0 34 -24.5 59t-61.5 25q-40 0 -65 -24.5t-25 -59.5t23.5 -59.5t62.5 -24.5q40 0 65 24.5t25 59.5z" />
    <glyph glyph-name="h" unicode="h" horiz-adv-x="473" 
d="M419 13q0 -13 -12 -13h-70q-13 0 -13 12v265q0 40 -21.5 64t-64.5 24q-39 0 -63 -25t-24 -63v-264q0 -13 -13 -13h-69q-13 0 -13 12v612q0 13 12 13h70q12 0 12 -13v-211l4 -1q39 35 108 35q76 0 116.5 -46t40.5 -123v-265z" />
    <glyph glyph-name="i" unicode="i" horiz-adv-x="213" 
d="M166 570q0 -22 -17.5 -39t-40.5 -17q-24 0 -41 16t-17 40q0 23 17 39.5t40 16.5q24 0 41.5 -16.5t17.5 -39.5zM154 12q2 -12 -12 -12h-70q-13 0 -13 12v416q0 13 12 13h70q13 0 13 -13v-416z" />
    <glyph glyph-name="j" unicode="j" horiz-adv-x="225" 
d="M175 570q0 -23 -17 -40t-41 -17t-40.5 16.5t-16.5 40.5q0 23 16.5 39.5t39.5 16.5q25 0 42 -16.5t17 -39.5zM164 -54q0 -58 -30 -94.5t-94 -36.5q-32 0 -56 6q-17 6 -15 20l10 53q3 14 22 10q16 -2 26 -2q43 1 43 55v472q0 12 13 12h69q12 0 12 -12v-483z" />
    <glyph glyph-name="k" unicode="k" horiz-adv-x="451" 
d="M424 18q0 -18 -15 -18h-65q-14 0 -16 15l-5 91q-4 44 -21 68.5t-64 24.5q-44 0 -65.5 -25.5t-21.5 -66.5v-95q0 -12 -12 -12h-71q-12 0 -12 12v612q0 13 12 13h70q12 0 12 -12v-353h2l2 -1l146 162q7 7 20 7h82q8 0 10.5 -4.5t0.5 -10t-6 -9.5l-132 -144q28 0 50.5 -7
t37.5 -16.5t26 -28.5t16.5 -33.5t9.5 -40.5t5 -41t2 -45t2 -42z" />
    <glyph glyph-name="l" unicode="l" horiz-adv-x="236" 
d="M62 627q0 10 9 10h76q10 0 10 -9v-495q0 -31 9 -41.5t33 -10.5h12q11 0 11 -17v-54q0 -14 -14 -16q-10 -2 -31 -2q-65 0 -90 32t-25 103v500z" />
    <glyph glyph-name="m" unicode="m" horiz-adv-x="713" 
d="M661 13q0 -13 -12 -13h-70q-13 0 -13 12v267q0 37 -21 62t-60 25q-33 0 -57 -26.5t-24 -60.5v-266q0 -13 -12 -13h-69q-13 0 -13 12v267q0 37 -20.5 62t-59.5 25q-38 0 -60 -25.5t-22 -61.5v-266q0 -13 -12 -13h-70q-13 0 -13 12v267q0 75 47 122t128 47q38 0 73 -16.5
t54 -44.5h3q20 27 57 44t77 17q83 0 126 -46t43 -123v-266z" />
    <glyph glyph-name="n" unicode="n" horiz-adv-x="471" 
d="M417 12q0 -12 -12 -12h-70q-13 0 -13 12v265q0 40 -21.5 63.5t-64.5 23.5q-37 0 -62 -24.5t-25 -61.5v-266q0 -12 -13 -12h-69q-13 0 -13 12v416q0 13 12 13h69q11 0 11 -12v-22l1 -1h2q43 40 113 40q74 0 114.5 -46t40.5 -122v-266z" />
    <glyph glyph-name="o" unicode="o" horiz-adv-x="458" 
d="M410 164q0 -81 -48 -125.5t-133 -44.5t-133.5 44.5t-48.5 123.5v117q0 76 50 123t131 47q84 0 133 -44.5t49 -124.5v-116zM142 278v-114q0 -40 22 -64t64 -24q40 0 63.5 24t23.5 64v114q0 40 -22.5 64t-63.5 24t-64 -24t-23 -64z" />
    <glyph glyph-name="p" unicode="p" horiz-adv-x="462" 
d="M53 429q0 12 12 12h64q13 0 13 -12v-24l1 -1h2q39 41 114 41q74 0 115.5 -44t41.5 -121v-117q0 -72 -43.5 -120.5t-121.5 -48.5q-63 0 -100 28l-3 -2v-188q0 -13 -13 -13h-69q-13 0 -13 12v598zM148 277v-104q0 -42 21 -70t65 -28t66 24.5t22 63.5v107q0 41 -21.5 67.5
t-63.5 26.5q-38 0 -63.5 -25t-25.5 -62z" />
    <glyph glyph-name="q" unicode="q" horiz-adv-x="462" 
d="M49 277q0 75 43 122t123 47q67 0 106 -39l2 2v20q0 12 13 12h63q13 0 13 -12v-604q0 -13 -14 -13h-69q-12 0 -12 12v201q-2 0 -3 1q-14 -14 -43.5 -23t-59.5 -9q-82 0 -122 47.5t-40 121.5v114zM143 270v-91q0 -105 87 -105q38 0 62.5 26t24.5 63v107q0 40 -23 67.5
t-64 27.5q-42 0 -64.5 -27.5t-22.5 -67.5z" />
    <glyph glyph-name="r" unicode="r" horiz-adv-x="310" 
d="M69 440h60q14 0 14 -11v-48h3q18 29 50.5 48t69.5 19q43 0 43 -15q0 -5 -1 -8l-14 -64q-3 -13 -11 -13q-6 0 -19 2t-18 2q-94 0 -94 -109v-231q0 -12 -12 -12h-70q-13 0 -13 12v416q0 12 12 12z" />
    <glyph glyph-name="s" unicode="s" horiz-adv-x="402" 
d="M366 124q0 -58 -45.5 -93.5t-118.5 -35.5q-56 0 -101 23t-67 71q-2 6 -2 8q0 6 6 9l52 26q11 5 19 -6q37 -54 98 -54q29 0 47.5 13t18.5 36q0 20 -13 31t-41 22l-64 22q-110 38 -110 122q0 61 45 94.5t111 34.5q95 0 151 -56q9 -9 0 -18l-33 -43q-5 -5 -9 -5q-6 0 -12 5
q-48 37 -95 37q-26 0 -46 -11t-20 -33q0 -32 54 -51l29 -10l32 -11t28 -11.5t28.5 -15l21.5 -17.5t20.5 -23t10.5 -26.5t5 -33.5z" />
    <glyph glyph-name="t" unicode="t" horiz-adv-x="315" 
d="M306 26q2 -15 -14 -21q-30 -11 -87 -11q-125 0 -125 125v244h-50q-14 0 -14 12v53q0 13 12 13h52v93q0 12 12 15l65 15q16 4 16 -11v-112h98q13 0 13 -12v-54q0 -12 -13 -12h-98v-226q0 -56 47 -56q13 0 52 6q22 5 25 -13z" />
    <glyph glyph-name="u" unicode="u" horiz-adv-x="466" 
d="M47 428q0 13 12 13h70q13 0 13 -12v-266q0 -39 21.5 -63t65.5 -24q37 0 61.5 25t24.5 62v265q0 13 13 13h69q13 0 13 -12v-417q0 -12 -12 -12h-69q-11 0 -11 11v22l-2 1q-42 -39 -114 -39q-75 0 -115 45.5t-40 121.5v266z" />
    <glyph glyph-name="v" unicode="v" horiz-adv-x="418" 
d="M405 424l-145 -412q-4 -12 -21 -12h-60q-10 0 -14 2.5t-7 11.5l-144 409q-7 18 11 18h64q20 0 24 -16l59 -188l36 -125h4l33 120l59 190q5 19 23 19h66q18 0 12 -17z" />
    <glyph glyph-name="w" unicode="w" horiz-adv-x="630" 
d="M614 424l-113 -408q-5 -16 -21 -16h-54q-18 0 -22 14l-57 181l-34 123h-2l-37 -130l-53 -175q-4 -13 -22 -13h-54q-17 0 -22 15l-112 409q-7 17 11 17h69q18 0 21 -16l35 -152l30 -136h3l39 133l46 152q6 19 21 19h54q16 0 21 -17l54 -177l32 -110h3l23 106l40 181
q5 17 23 17h67q17 0 11 -17z" />
    <glyph glyph-name="x" unicode="x" horiz-adv-x="401" 
d="M254 230l135 -212q6 -7 2 -12.5t-13 -5.5h-66q-19 0 -27 14l-84 146h-2l-84 -146q-9 -14 -27 -14h-65q-10 0 -13 5.5t2 12.5l133 212l-120 191q-6 6 -2 12.5t12 6.5h66q9 0 12 -0.5t6.5 -3t7.5 -9.5q12 -18 24 -39l26.5 -46.5l22.5 -39.5h3l71 125q7 13 26 13h66
q10 0 13 -6t-2 -13z" />
    <glyph glyph-name="y" unicode="y" horiz-adv-x="427" 
d="M117 425l48 -191l37 -150h2l108 338q6 19 25 19h59q15 0 15 -14q0 -4 -1 -7l-190 -581q-6 -21 -30 -21h-51q-11 0 -15.5 8t0.5 18l50 156h-22q-18 0 -24 20l-113 402q-1 2 -1 6q0 13 14 13h67q17 0 22 -16z" />
    <glyph glyph-name="z" unicode="z" horiz-adv-x="414" 
d="M381 13q0 -13 -13 -13h-313q-21 0 -21 19v28q0 18 9 30l198 283h-184q-13 0 -13 12v56q0 13 12 13h285q24 0 24 -20v-34q0 -19 -8 -30l-194 -276h205q13 0 13 -13v-55z" />
    <glyph glyph-name="braceleft" unicode="{" horiz-adv-x="351" 
d="M39 251v44q0 3 0.5 5l1 4t2 3.5t2 2.5t3.5 2.5l4 2t5 2t5 2.5q67 28 67 95v103q0 91 37 130t123 39h12q13 0 13 -12v-55q0 -13 -12 -13h-9q-42 0 -55.5 -14t-13.5 -54v-157q0 -67 -67 -105v-4q33 -15 50 -49.5t17 -70.5v-156q0 -42 13.5 -55t54.5 -13h9q13 0 13 -13v-54
q0 -13 -12 -13h-12q-83 0 -121.5 33t-38.5 112v143q0 69 -66 94q-25 10 -25 21z" />
    <glyph glyph-name="bar" unicode="|" horiz-adv-x="231" 
d="M149 665v-767q0 -13 -12 -13h-43q-14 0 -14 12v767q0 12 13 12h43q13 0 13 -11z" />
    <glyph glyph-name="braceright" unicode="}" horiz-adv-x="351" 
d="M312 295v-44q0 -11 -25 -21q-66 -25 -66 -94v-143q0 -79 -38.5 -112t-121.5 -33h-11q-13 0 -13 13v54q0 13 13 13h9q42 0 55.5 13t13.5 55v161q1 35 18 68t49 47v4q-64 36 -67 105v157q0 40 -13.5 54t-55.5 14h-9q-13 0 -13 13v55q0 12 14 12h11q79 0 118.5 -33.5
t41.5 -108.5v-130q0 -67 67 -95q1 -1 5 -2.5t5 -2l4 -2t3.5 -2.5t2 -2.5t2 -3.5l1 -4t0.5 -5z" />
    <glyph glyph-name="asciitilde" unicode="~" horiz-adv-x="486" 
d="M470 301q-48 -74 -125 -74q-41 0 -110 31t-92 31q-34 0 -65 -39q-11 -11 -22 -2l-40 33q-9 7 -2 19q17 34 54 55t75 21q37 0 102.5 -30t96.5 -30q7 0 13.5 1.5t11 4t11 7.5l9 7t8.5 8.5t7 7.5q14 15 28 3l33 -26q17 -14 7 -28z" />
    <glyph glyph-name="exclamdown" unicode="&#xa1;" horiz-adv-x="270" 
d="M93 -174l17 429q0 10 9 10h44q10 0 10 -9l20 -429q0 -12 -12 -12h-76q-12 0 -12 11zM144 324q-26 0 -44 16.5t-18 41.5q0 24 18 41.5t43 17.5t43 -17.5t18 -40.5q0 -24 -18 -41.5t-42 -17.5z" />
    <glyph glyph-name="cent" unicode="&#xa2;" horiz-adv-x="486" 
d="M418 82q-44 -77 -131 -86v-57q0 -11 -12 -11h-37q-12 0 -12 11v57q-75 7 -114 52t-39 114v114q0 69 41 116t112 56v56q0 11 12 11h37q12 0 12 -11v-58q85 -8 129 -84q4 -4 3 -12t-8 -12l-47 -30q-16 -9 -27 10q-29 48 -81 48q-38 0 -63.5 -24.5t-25.5 -61.5v-120
q0 -36 25.5 -59.5t62.5 -23.5q22 0 40.5 9.5t26 18t22.5 27.5q7 8 19 1l46 -27q18 -10 9 -24z" />
    <glyph glyph-name="sterling" unicode="&#xa3;" horiz-adv-x="486" 
d="M447 537q7 -13 -5 -20l-52 -31q-16 -9 -23 6q-30 51 -88 51q-38 0 -63.5 -24t-25.5 -61v-106h115q13 0 13 -13v-55q0 -12 -13 -12h-115v-70q0 -85 -20 -115l2 -5h238q13 0 13 -12v-57q0 -13 -12 -13h-366q-12 0 -12 12v55q0 13 14 15q47 15 47 86v104h-47q-12 0 -12 12
v55q0 12 12 12h47v94q0 79 50.5 130t129.5 51q125 0 173 -89z" />
    <glyph glyph-name="currency" unicode="&#xa4;" horiz-adv-x="492" 
d="M93 433q9 10 16 3l45 -50q40 27 90 27q51 0 88 -27l51 49q10 12 20 0l32 -32q11 -11 1 -20q-12 -9 -50 -47q28 -40 28 -92q0 -51 -27 -91l47 -45q10 -8 1 -19l-33 -33q-10 -10 -17 -2l-51 48q-42 -28 -88 -28q-50 0 -91 31l-48 -49q-9 -11 -19 -1l-34 32q-10 9 0 19
q1 2 24.5 26.5l25.5 26.5q-27 40 -27 87q0 49 26 88l-43 48q-9 11 0 19zM149 244q0 -40 28.5 -67.5t68.5 -27.5t67.5 27.5t27.5 67.5t-27.5 68t-67.5 28t-68.5 -28t-28.5 -68z" />
    <glyph glyph-name="yen" unicode="&#xa5;" horiz-adv-x="486" 
d="M433 303h-374q-13 0 -13 12v40q0 12 13 12h74l-99 231q-2 6 -2 9q0 10 13 10h69q17 0 23 -14l48 -115q5 -15 56 -139h3l61 145l44 107q7 16 25 16h64q14 0 14 -10q0 -5 -3 -8l-100 -232h84q12 0 12 -12v-39q0 -13 -12 -13zM59 258h374q12 0 12 -12v-40q0 -12 -12 -12
h-144v-182q0 -12 -13 -12h-69q-13 0 -13 12v181h-135q-13 0 -13 13v40q0 12 13 12z" />
    <glyph glyph-name="brokenbar" unicode="&#xa6;" horiz-adv-x="227" 
d="M149 310q-1 -9 -9 -9h-48q-10 0 -10 9v357q0 9 10 9h47q10 0 10 -8v-358zM149 -106q-1 -9 -9 -9h-48q-10 0 -10 9l1 354q0 9 10 9h47q10 0 10 -8z" />
    <glyph glyph-name="section" unicode="&#xa7;" horiz-adv-x="461" 
d="M243 587q-33 0 -54 -11t-21 -31q0 -24 17 -38.5t63 -30.5q78 -27 117.5 -56.5t39.5 -80.5q0 -83 -78 -117q-6 -2 -10 -2q-10 0 -12 6l-22 45q-1 1 -1 4q0 10 11 14q24 13 24 40t-23 41.5t-73 31.5q-72 25 -107.5 53.5t-35.5 79.5q0 56 45 91t121 35q43 0 85 -17t68 -51
q3 -3 3 -7q0 -6 -8 -14l-32 -31q-6 -6 -12 -6q-7 0 -15 10q-39 42 -90 42zM236 -71q-51 0 -98 18.5t-73 52.5q-3 3 -3 7q0 6 8 14l35 31q7 5 12 5q7 0 15 -9q18 -20 47.5 -33t59.5 -13q35 0 60.5 12.5t25.5 38.5q0 37 -79 63q-76 26 -121.5 59t-45.5 85q0 72 81 110
q8 4 11 4q8 0 14 -10l19 -37q2 -6 2 -9q0 -9 -10 -13q-30 -19 -30 -39q0 -35 83 -64q40 -14 64.5 -25t51 -28.5t39.5 -40.5t13 -52q0 -60 -51.5 -93.5t-129.5 -33.5z" />
    <glyph glyph-name="dieresis" unicode="&#xa8;" horiz-adv-x="463" 
d="M364 550q0 -22 -15 -37.5t-38 -15.5t-38.5 15t-15.5 38q0 22 15.5 37.5t37.5 15.5t38 -15.5t16 -37.5zM195 550q0 -22 -15.5 -37.5t-37.5 -15.5q-23 0 -38.5 15.5t-15.5 37.5t15.5 37.5t37.5 15.5t38 -15.5t16 -37.5z" />
    <glyph glyph-name="copyright" unicode="&#xa9;" horiz-adv-x="707" 
d="M652 240q0 -113 -82.5 -176.5t-214.5 -63.5q-131 0 -212.5 65t-81.5 175v136q0 110 81.5 175.5t212.5 65.5q132 0 214.5 -64t82.5 -177v-136zM601 238v141q0 84 -65 138.5t-182 54.5t-179.5 -55t-62.5 -138v-141q0 -82 63 -137.5t179 -55.5q117 0 182 55.5t65 137.5z
M468 182q-36 -56 -108 -56q-54 0 -86.5 29t-32.5 81v132q0 50 33.5 80t86.5 30q75 0 105 -55q4 -9 -4 -13l-30 -21q-9 -6 -14 4q-20 33 -57 33q-26 0 -43 -16.5t-17 -41.5v-132q0 -25 16.5 -41t42.5 -16q35 0 57 31q7 9 16 4l33 -21q3 -1 3.5 -5t-1.5 -6z" />
    <glyph glyph-name="ordfeminine" unicode="&#xaa;" horiz-adv-x="304" 
d="M271 252q0 -14 -12 -14h-45q-12 0 -12 11v9h-1q-24 -23 -69 -23q-52 0 -80 26.5t-28 73.5q0 46 31.5 73.5t83.5 27.5q36 0 55 -17h2v9q0 38 -49 38q-38 0 -73 -14q-10 -4 -14 7l-10 30q-4 10 8 17q39 20 96 20q117 0 117 -106v-168zM191 337q0 18 -13.5 30t-33.5 12
t-33 -12t-13 -30t13 -31t33 -13q22 0 34.5 12.5t12.5 31.5z" />
    <glyph glyph-name="guillemotleft" unicode="&#xab;" horiz-adv-x="513" 
d="M178 38l-113 139q-11 14 -11 23q0 10 10 22l116 144q12 16 33 16h56q17 0 17 -11q0 -5 -5 -10l-130 -161l128 -158q4 -5 4 -11q0 -13 -14 -13h-55q-20 0 -36 20zM367 38l-113 139q-11 14 -11 23q0 10 10 22l116 144q12 16 33 16h56q17 0 17 -11q0 -5 -5 -10l-130 -161
l128 -158q4 -5 4 -11q0 -13 -14 -13h-55q-20 0 -36 20z" />
    <glyph glyph-name="logicalnot" unicode="&#xac;" horiz-adv-x="486" 
d="M446 267v-200q0 -16 -15 -16h-46q-15 0 -15 16v148h-314q-17 0 -17 16v36q0 17 17 17h373q17 0 17 -17z" />
    <glyph glyph-name="sfthyphen" unicode="&#xad;" horiz-adv-x="332" 
d="M276 210q0 -12 -12 -12h-202q-13 0 -13 12v51q0 12 12 12h202q13 0 13 -11v-52z" />
    <glyph glyph-name="registered" unicode="&#xae;" horiz-adv-x="409" 
d="M366 439q0 -62 -45.5 -97t-117.5 -35t-116.5 35.5t-44.5 96.5v73q0 61 45 97t116 36q72 0 117.5 -35.5t45.5 -97.5v-73zM332 438v76q0 43 -34 71.5t-95 28.5q-62 0 -94.5 -28.5t-32.5 -71.5v-76q0 -43 32.5 -71.5t94.5 -28.5q61 0 95 28.5t34 71.5zM243 462l32 -71
q5 -9 -5 -9h-23q-8 2 -11 8l-29 68h-22v-67q0 -9 -7 -9h-21q-8 0 -8 8v171q0 8 8 8h55q29 0 44.5 -15t15.5 -38q0 -31 -27 -47q-4 -2 -2 -7zM236 514q0 23 -24 23h-28v-49h28q8 0 16 8t8 18z" />
    <glyph glyph-name="macron" unicode="&#xaf;" horiz-adv-x="450" 
d="M358 530q0 -15 -15 -15h-209q-16 0 -16 15v41q0 15 15 15h209q16 0 16 -14v-42z" />
    <glyph glyph-name="degree" unicode="&#xb0;" horiz-adv-x="312" 
d="M276 522q0 -48 -37 -81.5t-88 -33.5t-85.5 33t-34.5 82q0 48 34.5 81t85.5 33q57 0 91 -32.5t34 -81.5zM213 522q0 25 -17.5 42.5t-44.5 17.5q-24 0 -41.5 -17.5t-17.5 -42.5q0 -26 17 -44t42 -18t43.5 18.5t18.5 43.5z" />
    <glyph glyph-name="plusminus" unicode="&#xb1;" horiz-adv-x="486" 
d="M451 336q0 -18 -18 -18h-155v-152q0 -16 -17 -16h-39q-18 0 -18 16v152h-152q-18 0 -18 17v35q0 17 18 17h152v152q0 17 17 17h39q18 0 18 -17v-152h155q18 0 18 -17v-34zM451 52q0 -18 -18 -18h-382q-17 0 -17 17v35q0 18 18 18h381q18 0 18 -18v-34z" />
    <glyph glyph-name="twosuperior" unicode="&#xb2;" horiz-adv-x="311" 
d="M270 343q0 -13 -13 -13h-222q-15 0 -15 13v26q0 15 9 27l135 162q26 30 26 49t-13.5 31.5t-33.5 12.5q-32 0 -54 -29q-13 -14 -23 -5l-30 23q-12 9 -1 20q40 53 110 53q54 0 87 -26.5t33 -73.5q0 -37 -43 -89l-104 -127l2 -4h137q5 0 9 -3.5t4 -8.5v-38z" />
    <glyph glyph-name="threesuperior" unicode="&#xb3;" horiz-adv-x="311" 
d="M264 435q0 -51 -34 -81t-91 -30q-80 2 -112 59q-2 6 -2 8q0 8 8 12l30 16q10 5 12 5q7 0 12 -8q21 -30 51 -30q22 0 37 13t15 32v26q0 19 -14 32t-35 13h-40q-15 0 -15 13v33q0 15 14 15h41q21 0 34.5 12t13.5 30q0 19 -13.5 31t-36.5 12q-28 0 -51 -23q-15 -15 -26 -10
l-28 18q-8 4 -8 12q0 5 4 13q36 53 110 53q56 0 89.5 -28.5t33.5 -75.5q0 -48 -41 -73v-2q20 -9 31 -28t11 -40v-29z" />
    <glyph glyph-name="acute" unicode="&#xb4;" horiz-adv-x="446" 
d="M341 610l-107 -120q-10 -11 -23 -3l-24 15q-11 7 -4 19l81 135q10 16 22 9l52 -32q16 -10 3 -23z" />
    <glyph glyph-name="mu" unicode="&#xb5;" horiz-adv-x="478" 
d="M150 10q-1 -1 -4 -1v-177q0 -13 -13 -13h-68q-12 0 -14 12v597q0 13 12 13h71q12 0 12 -12v-265q0 -37 22 -62.5t65 -25.5q39 0 62.5 24.5t23.5 62.5v265q0 13 13 13h69q13 0 13 -12v-417q0 -12 -12 -12h-67q-13 0 -13 12v22h-1l-1 1q-40 -40 -107 -40q-40 0 -63 15z" />
    <glyph glyph-name="mu" unicode="&#x3bc;" horiz-adv-x="478" 
d="M150 10q-1 -1 -4 -1v-177q0 -13 -13 -13h-68q-12 0 -14 12v597q0 13 12 13h71q12 0 12 -12v-265q0 -37 22 -62.5t65 -25.5q39 0 62.5 24.5t23.5 62.5v265q0 13 13 13h69q13 0 13 -12v-417q0 -12 -12 -12h-67q-13 0 -13 12v22h-1l-1 1q-40 -40 -107 -40q-40 0 -63 15z" />
    <glyph glyph-name="paragraph" unicode="&#xb6;" horiz-adv-x="483" 
d="M428 626v-541q0 -172 -186 -182q-11 0 -13 11l-6 48q-2 15 10 16q65 8 88 33t23 76v539q0 12 12 12h59q13 0 13 -12zM285 306h-83q-73 0 -120 47t-47 117q0 69 48 118.5t119 49.5h83q12 0 12 -12v-309q0 -11 -12 -11z" />
    <glyph glyph-name="periodcentered" unicode="&#xb7;" horiz-adv-x="221" 
d="M110 175q-24 0 -41.5 17t-17.5 42q0 24 17.5 41.5t41.5 17.5q25 0 43 -17.5t18 -40.5q0 -25 -18 -42.5t-43 -17.5z" />
    <glyph glyph-name="cedilla" unicode="&#xb8;" horiz-adv-x="410" 
d="M318 -123q0 -32 -26 -56.5t-71 -24.5q-46 0 -80 23q-10 6 -2 16l18 23q7 7 14 3q26 -16 48 -16q20 0 31 9t11 22q0 30 -35 30h-29q-18 0 -26.5 11t-4.5 27q1 5 18 68q6 14 13 14h31q12 0 8 -13l-16 -59q5 1 17 1q39 0 60 -21.5t21 -56.5z" />
    <glyph glyph-name="onesuperior" unicode="&#xb9;" horiz-adv-x="283" 
d="M64 595q-20 -10 -20 8v38q0 15 12 22l73 40q8 5 16 5h29q16 0 16 -17v-347q0 -15 -15 -15h-45q-16 0 -16 14v275l-1 1z" />
    <glyph glyph-name="ordmasculine" unicode="&#xba;" horiz-adv-x="308" 
d="M280 347q0 -53 -34.5 -82.5t-92.5 -29.5q-56 0 -90.5 29.5t-34.5 80.5v73q0 49 34.5 79t90.5 30q57 0 92 -29t35 -80v-71zM205 346v71q0 20 -14 33t-38 13q-21 0 -35.5 -13.5t-14.5 -32.5v-71q0 -20 14 -33.5t36 -13.5q23 0 36.5 12.5t15.5 34.5z" />
    <glyph glyph-name="guillemotright" unicode="&#xbb;" horiz-adv-x="513" 
d="M460 177l-113 -139q-17 -20 -36 -20h-56q-14 0 -14 13q0 6 4 11l129 158l-131 161q-5 5 -5 10q0 11 17 11h57q19 0 33 -16l115 -144q10 -12 10 -22t-10 -23zM271 177l-113 -139q-16 -20 -36 -20h-56q-14 0 -14 13q0 6 4 11l129 158l-131 161q-5 5 -5 10q0 11 17 11h57
q19 0 33 -16l115 -144q10 -12 10 -22t-10 -23z" />
    <glyph glyph-name="onequarter" unicode="&#xbc;" horiz-adv-x="730" 
d="M76 505q-20 -10 -20 8v38q0 15 12 22l73 40q8 5 16 5h29q16 0 16 -17v-347q0 -15 -15 -15h-45q-16 0 -16 14v275l-1 1zM222 -22q-3 -8 -13 -8h-39q-14 0 -8 13l280 655q4 9 16 9h33q18 0 11 -16zM518 378h52q9 0 9 -6q0 -3 -1 -5l-119 -226h80v84q0 8 9 8h52q9 0 9 -9
v-83h45q9 0 9 -8v-43q0 -9 -9 -9h-45v-73q0 -9 -9 -9h-52q-9 0 -9 9v73h-154q-10 0 -10 9v17q0 18 20 60l103 193q0 1 1.5 3.5t2 3.5t2 3.5t2.5 3.5t3 2t4 1.5t5 0.5z" />
    <glyph glyph-name="onehalf" unicode="&#xbd;" horiz-adv-x="730" 
d="M78 505q-20 -10 -20 8v38q0 15 12 22l73 40q8 5 16 5h29q16 0 16 -17v-347q0 -15 -15 -15h-45q-16 0 -16 14v275l-1 1zM210 -22q-3 -8 -13 -8h-39q-14 0 -8 13l280 655q4 9 16 9h33q18 0 11 -16zM644 13q0 -13 -13 -13h-222q-15 0 -15 13v26q0 15 9 27l135 162
q26 30 26 49t-13.5 31.5t-33.5 12.5q-32 0 -54 -29q-13 -14 -23 -5l-30 23q-12 9 -1 20q40 53 110 53q54 0 87 -26.5t33 -73.5q0 -37 -43 -89l-104 -127l2 -4h137q5 0 9 -3.5t4 -8.5v-38z" />
    <glyph glyph-name="threequarters" unicode="&#xbe;" horiz-adv-x="730" 
d="M545 378h52q9 0 9 -6q0 -3 -1 -5l-119 -226h80v84q0 8 9 8h52q9 0 9 -9v-83h45q9 0 9 -8v-43q0 -9 -9 -9h-45v-73q0 -9 -9 -9h-52q-9 0 -9 9v73h-154q-10 0 -10 9v17q0 18 20 60l103 193q0 1 1.5 3.5t2 3.5t2 3.5t2.5 3.5t3 2t4 1.5t5 0.5zM284 345q0 -51 -34 -81
t-91 -30q-80 2 -112 59q-2 6 -2 8q0 8 8 12l30 16q10 5 12 5q7 0 12 -8q21 -30 51 -30q22 0 37 13t15 32v26q0 19 -14 32t-35 13h-40q-15 0 -15 13v33q0 15 14 15h41q21 0 34.5 12t13.5 30q0 19 -13.5 31t-36.5 12q-28 0 -51 -23q-15 -15 -26 -10l-28 18q-8 4 -8 12
q0 5 4 13q36 53 110 53q56 0 89.5 -28.5t33.5 -75.5q0 -48 -41 -73v-2q20 -9 31 -28t11 -40v-29zM252 -22q-3 -8 -13 -8h-39q-14 0 -8 13l280 655q4 9 16 9h33q18 0 11 -16z" />
    <glyph glyph-name="questiondown" unicode="&#xbf;" horiz-adv-x="498" 
d="M85 -32q0 47 28 88t74 70q43 27 64 51t21 59v19q0 5 4 8.5t9 3.5h66q10 0 13.5 -3.5t3.5 -14.5v-30q0 -39 -22.5 -76.5t-61.5 -63.5q-36 -24 -51 -36t-31 -31.5t-17 -39.5q-3 -34 21 -59.5t62 -25.5q32 0 53 13t41 41q9 12 21 4l47 -31q11 -8 4 -22q-51 -87 -165 -87
q-81 0 -132.5 43t-51.5 120zM261 383q0 24 17.5 41t43.5 17q25 0 42.5 -17.5t17.5 -40.5q0 -25 -17.5 -42t-42.5 -17q-26 0 -43.5 17t-17.5 42z" />
    <glyph glyph-name="Agrave" unicode="&#xc0;" horiz-adv-x="470" 
d="M440 0h-74q-14 0 -15 9l-14 56t-16 68h-177q-8 -28 -30 -124q-1 -9 -14 -9h-69q-19 0 -13 17l147 587q4 13 18 13h99q14 0 18 -12l151 -586q3 -6 0 -12.5t-11 -6.5zM230 509q-4 -21 -13 -61t-13 -61l-40 -172h137l-40 169l-28 125h-3zM79 739l37 49q9 12 23 0l126 -95
q12 -9 3 -19l-16 -23q-10 -12 -23 -6l-144 71q-17 8 -6 23z" />
    <glyph glyph-name="Aacute" unicode="&#xc1;" horiz-adv-x="470" 
d="M440 0h-74q-14 0 -15 9l-14 56t-16 68h-177q-8 -28 -30 -124q-1 -9 -14 -9h-69q-19 0 -13 17l147 587q4 13 18 13h99q14 0 18 -12l151 -586q3 -6 0 -12.5t-11 -6.5zM230 509q-4 -21 -13 -61t-13 -61l-40 -172h137l-40 169l-28 125h-3zM375 739q11 -15 -6 -23l-146 -73
q-12 -5 -21 8l-16 23q-9 10 3 19l126 95q14 12 23 0z" />
    <glyph glyph-name="Acircumflex" unicode="&#xc2;" horiz-adv-x="470" 
d="M440 0h-74q-14 0 -15 9l-14 56t-16 68h-177q-8 -28 -30 -124q-1 -9 -14 -9h-69q-19 0 -13 17l147 587q4 13 18 13h99q14 0 18 -12l151 -586q3 -6 0 -12.5t-11 -6.5zM230 509q-4 -21 -13 -61t-13 -61l-40 -172h137l-40 169l-28 125h-3zM368 685q11 -13 0 -21l-22 -19
q-6 -4 -21 4l-100 67l-98 -68q-12 -8 -22 -1l-20 19q-11 9 -1 21l96 94q9 11 21 11h50q13 0 22 -11z" />
    <glyph glyph-name="Atilde" unicode="&#xc3;" horiz-adv-x="470" 
d="M440 0h-74q-14 0 -15 9l-14 56t-16 68h-177q-8 -28 -30 -124q-1 -9 -14 -9h-69q-19 0 -13 17l147 587q4 13 18 13h99q14 0 18 -12l151 -586q3 -6 0 -12.5t-11 -6.5zM230 509q-4 -21 -13 -61t-13 -61l-40 -172h137l-40 169l-28 125h-3zM370 711q-15 -29 -38.5 -44
t-46.5 -15t-61 16.5t-56 16.5q-19 0 -37 -27q-8 -9 -21 0l-26 19q-8 7 -2 19q13 26 36 42t49 16q22 0 61 -17.5t54 -17.5q20 0 37 27q5 10 16 4l31 -18q11 -7 4 -21z" />
    <glyph glyph-name="Adieresis" unicode="&#xc4;" horiz-adv-x="470" 
d="M440 0h-74q-14 0 -15 9l-14 56t-16 68h-177q-8 -28 -30 -124q-1 -9 -14 -9h-69q-19 0 -13 17l147 587q4 13 18 13h99q14 0 18 -12l151 -586q3 -6 0 -12.5t-11 -6.5zM230 509q-4 -21 -13 -61t-13 -61l-40 -172h137l-40 169l-28 125h-3zM363 700q0 -22 -15.5 -37.5
t-37.5 -15.5q-23 0 -38.5 15t-15.5 38q0 22 15.5 37.5t37.5 15.5t38 -15.5t16 -37.5zM194 700q0 -22 -15 -37.5t-38 -15.5t-38.5 15.5t-15.5 37.5t15.5 37.5t37.5 15.5t38 -15.5t16 -37.5z" />
    <glyph glyph-name="Aring" unicode="&#xc5;" horiz-adv-x="470" 
d="M440 0h-74q-14 0 -15 9l-14 56t-16 68h-177q-8 -28 -30 -124q-1 -9 -14 -9h-69q-19 0 -13 17l147 587q4 13 18 13h99q14 0 18 -12l151 -586q3 -6 0 -12.5t-11 -6.5zM230 509q-4 -21 -13 -61t-13 -61l-40 -172h137l-40 169l-28 125h-3zM317 720q0 -36 -26.5 -62.5
t-63.5 -26.5t-63.5 25.5t-26.5 61.5t26.5 63t63.5 27t63.5 -25.5t26.5 -62.5zM270 719q0 17 -13 30.5t-30 13.5t-29 -13t-12 -31t12 -30.5t29 -12.5t30 12.5t13 30.5z" />
    <glyph glyph-name="AE" unicode="&#xc6;" horiz-adv-x="744" 
d="M711 72v-57q0 -15 -14 -15h-333q-14 0 -14 13v131h-188l-49 -132q-4 -12 -18 -12h-66q-19 0 -12 20l220 582q6 15 23 15h432q15 0 15 -14v-57q0 -15 -14 -15h-245v-172h204q14 0 14 -15v-57q0 -14 -13 -14h-205v-187h249q14 0 14 -14zM350 531h-53l-106 -302h159v302z
" />
    <glyph glyph-name="Ccedilla" unicode="&#xc7;" horiz-adv-x="451" 
d="M351 -123q0 -32 -26 -56.5t-71 -24.5q-46 0 -80 23q-10 6 -2 16l18 23q7 7 14 3q26 -16 48 -16q20 0 31 9t11 22q0 30 -35 30h-29q-18 0 -26.5 11t-4.5 27q4 20 14 53q-70 9 -112.5 54t-42.5 116v285q0 79 52.5 126.5t135.5 47.5q115 0 178 -83q10 -13 -4 -24l-46 -36
q-14 -10 -24 6q-37 50 -101 50q-44 0 -68 -25t-24 -64v-282q0 -38 25.5 -62.5t69.5 -24.5q54 0 97 47q14 16 25 9l50 -35q12 -8 5 -20q-60 -83 -165 -88l-11 -40q5 1 17 1q39 0 60 -21.5t21 -56.5z" />
    <glyph glyph-name="Egrave" unicode="&#xc8;" horiz-adv-x="454" 
d="M422 15q0 -15 -14 -15h-333q-15 0 -15 14v589q0 14 15 14h328q14 0 14 -14v-57q0 -15 -14 -15h-244v-168h203q15 0 15 -15v-57q0 -15 -14 -15h-204v-190h249q14 0 14 -14v-57zM86 739l37 49q9 12 23 0l126 -95q12 -9 3 -19l-16 -23q-10 -12 -23 -6l-144 71q-17 8 -6 23z
" />
    <glyph glyph-name="Eacute" unicode="&#xc9;" horiz-adv-x="454" 
d="M422 15q0 -15 -14 -15h-333q-15 0 -15 14v589q0 14 15 14h328q14 0 14 -14v-57q0 -15 -14 -15h-244v-168h203q15 0 15 -15v-57q0 -15 -14 -15h-204v-190h249q14 0 14 -14v-57zM355 739q11 -15 -6 -23l-146 -73q-12 -5 -21 8l-16 23q-9 10 3 19l126 95q14 12 23 0z" />
    <glyph glyph-name="Ecircumflex" unicode="&#xca;" horiz-adv-x="454" 
d="M422 15q0 -15 -14 -15h-333q-15 0 -15 14v589q0 14 15 14h328q14 0 14 -14v-57q0 -15 -14 -15h-244v-168h203q15 0 15 -15v-57q0 -15 -14 -15h-204v-190h249q14 0 14 -14v-57zM367 685q11 -13 0 -21l-22 -19q-6 -4 -21 4l-100 67l-98 -68q-12 -8 -22 -1l-20 19
q-11 9 -1 21l96 94q9 11 21 11h50q13 0 22 -11z" />
    <glyph glyph-name="Edieresis" unicode="&#xcb;" horiz-adv-x="454" 
d="M422 15q0 -15 -14 -15h-333q-15 0 -15 14v589q0 14 15 14h328q14 0 14 -14v-57q0 -15 -14 -15h-244v-168h203q15 0 15 -15v-57q0 -15 -14 -15h-204v-190h249q14 0 14 -14v-57zM376 700q0 -22 -15 -37.5t-38 -15.5t-38.5 15t-15.5 38q0 22 15.5 37.5t37.5 15.5t38 -15.5
t16 -37.5zM207 700q0 -22 -15.5 -37.5t-37.5 -15.5q-23 0 -38.5 15.5t-15.5 37.5t15.5 37.5t37.5 15.5t38 -15.5t16 -37.5z" />
    <glyph glyph-name="Igrave" unicode="&#xcc;" horiz-adv-x="249" 
d="M173 14q0 -14 -15 -14h-70q-15 0 -15 13v590q0 14 15 14h70q15 0 15 -13v-590zM-29 739l37 49q9 12 23 0l126 -95q12 -9 3 -19l-16 -23q-10 -12 -23 -6l-144 71q-17 8 -6 23z" />
    <glyph glyph-name="Iacute" unicode="&#xcd;" horiz-adv-x="249" 
d="M173 14q0 -14 -15 -14h-70q-15 0 -15 13v590q0 14 15 14h70q15 0 15 -13v-590zM276 739q11 -15 -6 -23l-146 -73q-12 -5 -21 8l-16 23q-9 10 3 19l126 95q14 12 23 0z" />
    <glyph glyph-name="Icircumflex" unicode="&#xce;" horiz-adv-x="249" 
d="M173 14q0 -14 -15 -14h-70q-15 0 -15 13v590q0 14 15 14h70q15 0 15 -13v-590zM262 693q11 -13 0 -21l-22 -19q-6 -4 -21 4l-100 67l-98 -68q-12 -8 -22 -1l-20 19q-11 9 -1 21l96 94q9 11 21 11h50q13 0 22 -11z" />
    <glyph glyph-name="Idieresis" unicode="&#xcf;" horiz-adv-x="249" 
d="M173 14q0 -14 -15 -14h-70q-15 0 -15 13v590q0 14 15 14h70q15 0 15 -13v-590zM256 700q0 -22 -15 -37.5t-38 -15.5t-38.5 15t-15.5 38q0 22 15.5 37.5t37.5 15.5t38 -15.5t16 -37.5zM87 700q0 -22 -15.5 -37.5t-37.5 -15.5q-23 0 -38.5 15.5t-15.5 37.5t15.5 37.5
t37.5 15.5t38 -15.5t16 -37.5z" />
    <glyph glyph-name="Eth" unicode="&#xd0;" horiz-adv-x="505" 
d="M62 346v257q0 14 15 14h185q91 0 139 -47.5t48 -134.5v-249q0 -90 -47.5 -138t-137.5 -48h-187q-15 0 -15 14v266q-7 0 -19.5 -0.5t-18.5 -0.5q-14 0 -14 14v40q0 13 13 13h39zM160 280v-194h99q45 0 68 25t23 69v259q0 92 -97 92h-93v-185h77q13 0 13 -12v-41
q0 -14 -12 -14q-14 0 -39.5 0.5t-38.5 0.5z" />
    <glyph glyph-name="Ntilde" unicode="&#xd1;" horiz-adv-x="534" 
d="M474 20q0 -20 -21 -20h-44q-21 0 -29 15l-221 396l-3 -1v-396q0 -14 -14 -14h-65q-15 0 -15 13v580q0 13 4.5 18.5t17.5 5.5h43q19 0 30 -17l221 -399l2 1v402q0 13 15 13h63q16 0 16 -13v-584zM404 707q-15 -29 -38.5 -44t-46.5 -15q-24 0 -61.5 16.5t-55.5 16.5
q-19 0 -37 -27q-8 -9 -21 0l-26 19q-8 7 -2 19q13 26 36 42t49 16q22 0 61 -17.5t54 -17.5q20 0 37 27q5 10 16 4l31 -18q11 -7 4 -21z" />
    <glyph glyph-name="Ograve" unicode="&#xd2;" horiz-adv-x="513" 
d="M454 170q0 -81 -55 -128.5t-142 -47.5t-143 47t-56 129v279q0 81 56 129t142 48q85 0 141.5 -47.5t56.5 -129.5v-279zM355 172v276q0 39 -26.5 65t-71.5 26t-72.5 -26t-27.5 -65v-276q0 -41 26.5 -66t72.5 -25q45 0 72 25t27 66zM127 739l37 49q9 12 23 0l126 -95
q12 -9 3 -19l-16 -23q-10 -12 -23 -6l-144 71q-17 8 -6 23z" />
    <glyph glyph-name="Oacute" unicode="&#xd3;" horiz-adv-x="513" 
d="M454 170q0 -81 -55 -128.5t-142 -47.5t-143 47t-56 129v279q0 81 56 129t142 48q85 0 141.5 -47.5t56.5 -129.5v-279zM355 172v276q0 39 -26.5 65t-71.5 26t-72.5 -26t-27.5 -65v-276q0 -41 26.5 -66t72.5 -25q45 0 72 25t27 66zM392 739q11 -15 -6 -23l-146 -73
q-12 -5 -21 8l-16 23q-9 10 3 19l126 95q14 12 23 0z" />
    <glyph glyph-name="Ocircumflex" unicode="&#xd4;" horiz-adv-x="513" 
d="M454 170q0 -81 -55 -128.5t-142 -47.5t-143 47t-56 129v279q0 81 56 129t142 48q85 0 141.5 -47.5t56.5 -129.5v-279zM355 172v276q0 39 -26.5 65t-71.5 26t-72.5 -26t-27.5 -65v-276q0 -41 26.5 -66t72.5 -25q45 0 72 25t27 66zM396 685q11 -13 0 -21l-22 -19
q-6 -4 -21 4l-100 67l-98 -68q-12 -8 -22 -1l-20 19q-11 9 -1 21l96 94q9 11 21 11h50q13 0 22 -11z" />
    <glyph glyph-name="Otilde" unicode="&#xd5;" horiz-adv-x="513" 
d="M454 170q0 -81 -55 -128.5t-142 -47.5t-143 47t-56 129v279q0 81 56 129t142 48q85 0 141.5 -47.5t56.5 -129.5v-279zM355 172v276q0 39 -26.5 65t-71.5 26t-72.5 -26t-27.5 -65v-276q0 -41 26.5 -66t72.5 -25q45 0 72 25t27 66zM402 717q-15 -29 -38.5 -44t-46.5 -15
t-61 16.5t-56 16.5q-19 0 -37 -27q-8 -9 -21 0l-26 19q-8 7 -2 19q13 26 36 42t49 16q22 0 61 -17.5t54 -17.5q20 0 37 27q5 10 16 4l31 -18q11 -7 4 -21z" />
    <glyph glyph-name="Odieresis" unicode="&#xd6;" horiz-adv-x="513" 
d="M454 170q0 -81 -55 -128.5t-142 -47.5t-143 47t-56 129v279q0 81 56 129t142 48q85 0 141.5 -47.5t56.5 -129.5v-279zM355 172v276q0 39 -26.5 65t-71.5 26t-72.5 -26t-27.5 -65v-276q0 -41 26.5 -66t72.5 -25q45 0 72 25t27 66zM392 700q0 -22 -15 -37.5t-38 -15.5
t-38.5 15t-15.5 38q0 22 15.5 37.5t37.5 15.5t38 -15.5t16 -37.5zM223 700q0 -22 -15.5 -37.5t-37.5 -15.5q-23 0 -38.5 15.5t-15.5 37.5t15.5 37.5t37.5 15.5t38 -15.5t16 -37.5z" />
    <glyph glyph-name="multiply" unicode="&#xd7;" horiz-adv-x="486" 
d="M414 105l-25 -26q-13 -13 -25 0l-121 122l-121 -121q-11 -11 -24 0l-26 25q-12 13 -1 24l122 121l-120 121q-5 4 -5 11t5 12l26 26q13 13 25 1l119 -119l122 121q12 12 24 0l25 -26q12 -13 0 -25l-121 -121l122 -122q10 -14 -1 -24z" />
    <glyph glyph-name="Oslash" unicode="&#xd8;" horiz-adv-x="513" 
d="M454 170q0 -81 -55 -128.5t-142 -47.5q-76 0 -126 34l-16 -28q-6 -10 -15 -6l-32 17q-8 4 -2 17l22 40q-30 43 -30 102v279q0 81 56 129t142 48q74 0 126 -36l18 33q7 10 16 4l31 -16q10 -5 3 -16l-25 -47q29 -43 29 -99v-279zM157 448v-258l177 316q-28 33 -77 33
q-45 0 -72.5 -26t-27.5 -65zM355 172v250l-177 -311q27 -30 78 -30q45 0 72 25t27 66z" />
    <glyph glyph-name="Ugrave" unicode="&#xd9;" horiz-adv-x="514" 
d="M157 167q0 -37 28 -61.5t71 -24.5q45 0 72.5 25t27.5 63v435q0 13 15 13h68q16 0 16 -12v-438q0 -80 -57 -126.5t-141 -46.5t-141.5 46.5t-57.5 126.5v437q0 13 15 13h69q15 0 15 -12v-438zM110 739l37 49q9 12 23 0l126 -95q12 -9 3 -19l-16 -23q-10 -12 -23 -6l-144 71
q-17 8 -6 23z" />
    <glyph glyph-name="Uacute" unicode="&#xda;" horiz-adv-x="514" 
d="M157 167q0 -37 28 -61.5t71 -24.5q45 0 72.5 25t27.5 63v435q0 13 15 13h68q16 0 16 -12v-438q0 -80 -57 -126.5t-141 -46.5t-141.5 46.5t-57.5 126.5v437q0 13 15 13h69q15 0 15 -12v-438zM385 739q11 -15 -6 -23l-146 -73q-12 -5 -21 8l-16 23q-9 10 3 19l126 95
q14 12 23 0z" />
    <glyph glyph-name="Ucircumflex" unicode="&#xdb;" horiz-adv-x="514" 
d="M157 167q0 -37 28 -61.5t71 -24.5q45 0 72.5 25t27.5 63v435q0 13 15 13h68q16 0 16 -12v-438q0 -80 -57 -126.5t-141 -46.5t-141.5 46.5t-57.5 126.5v437q0 13 15 13h69q15 0 15 -12v-438zM394 685q11 -13 0 -21l-22 -19q-6 -4 -21 4l-100 67l-98 -68q-12 -8 -22 -1
l-20 19q-11 9 -1 21l96 94q9 11 21 11h50q13 0 22 -11z" />
    <glyph glyph-name="Udieresis" unicode="&#xdc;" horiz-adv-x="514" 
d="M157 167q0 -37 28 -61.5t71 -24.5q45 0 72.5 25t27.5 63v435q0 13 15 13h68q16 0 16 -12v-438q0 -80 -57 -126.5t-141 -46.5t-141.5 46.5t-57.5 126.5v437q0 13 15 13h69q15 0 15 -12v-438zM392 700q0 -22 -15 -37.5t-38 -15.5t-38.5 15t-15.5 38q0 22 15.5 37.5
t37.5 15.5t38 -15.5t16 -37.5zM223 700q0 -22 -15.5 -37.5t-37.5 -15.5q-23 0 -38.5 15.5t-15.5 37.5t15.5 37.5t37.5 15.5t38 -15.5t16 -37.5z" />
    <glyph glyph-name="Yacute" unicode="&#xdd;" horiz-adv-x="450" 
d="M96 617q19 0 25 -14l102 -261h4l100 259q8 16 27 16h65q22 0 14 -18l-154 -356q-6 -12 -6 -25v-203q0 -15 -15 -15h-68q-15 0 -15 14v206q0 12 -5 21l-154 357q-8 19 12 19h68zM359 739q11 -15 -6 -23l-146 -73q-12 -5 -21 8l-16 23q-9 10 3 19l126 95q14 12 23 0z" />
    <glyph glyph-name="Thorn" unicode="&#xde;" horiz-adv-x="472" 
d="M161 604v-110h96q86 0 137.5 -51.5t51.5 -133.5q0 -76 -53.5 -128t-135.5 -52h-96q0 -19 0.5 -57.5t0.5 -57.5q0 -14 -16 -14h-68q-14 0 -15 13v591q0 13 15 13h68q15 0 15 -13zM257 409h-96v-194h89q44 0 71.5 25.5t27.5 70.5q0 38 -25.5 68t-66.5 30z" />
    <glyph glyph-name="germandbls" unicode="&#xdf;" horiz-adv-x="487" 
d="M435 158q0 -71 -48 -119.5t-115 -48.5h-54q-12 0 -12 10v50q0 15 19 15h33q34 0 58 28t24 64v99q0 37 -21.5 59t-59.5 22h-10q-11 0 -11 11v50q0 11 11 11h14q31 0 49 20t18 52q0 35 -22 56.5t-59 21.5q-39 0 -61 -26t-22 -67v-454q0 -12 -12 -12h-70q-13 0 -13 12v428
q0 92 42.5 147t133.5 55q79 0 126.5 -41.5t50.5 -113.5q0 -82 -54 -110v-3q65 -26 65 -113v-103z" />
    <glyph glyph-name="agrave" unicode="&#xe0;" horiz-adv-x="450" 
d="M227 449q90 0 128.5 -42.5t38.5 -123.5v-271q0 -12 -11 -12h-67q-10 0 -10 10v23l-3 1q-40 -40 -108 -40q-74 0 -114.5 41.5t-40.5 111.5q0 68 43 111.5t120 43.5q60 0 92 -25h3v23q0 35 -19.5 52.5t-64.5 17.5q-54 0 -101 -22q-14 -5 -18 6l-17 49q-4 13 6 16
q63 30 143 30zM128 150q0 -36 20 -58t62 -22q37 0 59.5 22.5t22.5 57.5q0 36 -21 58t-61 22q-37 0 -59.5 -22.5t-22.5 -57.5zM278 521q8 -11 -4 -19l-24 -15q-13 -8 -23 3l-107 119q-12 15 3 24l52 31q12 8 22 -8z" />
    <glyph glyph-name="aacute" unicode="&#xe1;" horiz-adv-x="450" 
d="M227 449q90 0 128.5 -42.5t38.5 -123.5v-271q0 -12 -11 -12h-67q-10 0 -10 10v23l-3 1q-40 -40 -108 -40q-74 0 -114.5 41.5t-40.5 111.5q0 68 43 111.5t120 43.5q60 0 92 -25h3v23q0 35 -19.5 52.5t-64.5 17.5q-54 0 -101 -22q-14 -5 -18 6l-17 49q-4 13 6 16
q63 30 143 30zM128 150q0 -36 20 -58t62 -22q37 0 59.5 22.5t22.5 57.5q0 36 -21 58t-61 22q-37 0 -59.5 -22.5t-22.5 -57.5zM341 610l-107 -120q-10 -11 -23 -3l-24 15q-11 7 -4 19l81 135q10 16 22 9l52 -32q16 -10 3 -23z" />
    <glyph glyph-name="acircumflex" unicode="&#xe2;" horiz-adv-x="450" 
d="M227 449q90 0 128.5 -42.5t38.5 -123.5v-271q0 -12 -11 -12h-67q-10 0 -10 10v23l-3 1q-40 -40 -108 -40q-74 0 -114.5 41.5t-40.5 111.5q0 68 43 111.5t120 43.5q60 0 92 -25h3v23q0 35 -19.5 52.5t-64.5 17.5q-54 0 -101 -22q-14 -5 -18 6l-17 49q-4 13 6 16
q63 30 143 30zM128 150q0 -36 20 -58t62 -22q37 0 59.5 22.5t22.5 57.5q0 36 -21 58t-61 22q-37 0 -59.5 -22.5t-22.5 -57.5zM374 526q11 -13 0 -21l-23 -14q-13 -7 -22 2l-99 93l-99 -94q-11 -9 -22 -1l-22 14q-11 9 -1 21l98 124q9 11 21 11h50q13 0 22 -11z" />
    <glyph glyph-name="atilde" unicode="&#xe3;" horiz-adv-x="450" 
d="M227 449q90 0 128.5 -42.5t38.5 -123.5v-271q0 -12 -11 -12h-67q-10 0 -10 10v23l-3 1q-40 -40 -108 -40q-74 0 -114.5 41.5t-40.5 111.5q0 68 43 111.5t120 43.5q60 0 92 -25h3v23q0 35 -19.5 52.5t-64.5 17.5q-54 0 -101 -22q-14 -5 -18 6l-17 49q-4 13 6 16
q63 30 143 30zM128 150q0 -36 20 -58t62 -22q37 0 59.5 22.5t22.5 57.5q0 36 -21 58t-61 22q-37 0 -59.5 -22.5t-22.5 -57.5zM381 567q-15 -29 -38.5 -44t-46.5 -15q-24 0 -62 16.5t-55 16.5q-19 0 -37 -27q-8 -9 -21 0l-26 19q-8 7 -2 19q13 26 36 42t49 16q22 0 61 -17.5
t54 -17.5q20 0 37 27q5 10 16 4l31 -18q11 -7 4 -21z" />
    <glyph glyph-name="adieresis" unicode="&#xe4;" horiz-adv-x="450" 
d="M227 449q90 0 128.5 -42.5t38.5 -123.5v-271q0 -12 -11 -12h-67q-10 0 -10 10v23l-3 1q-40 -40 -108 -40q-74 0 -114.5 41.5t-40.5 111.5q0 68 43 111.5t120 43.5q60 0 92 -25h3v23q0 35 -19.5 52.5t-64.5 17.5q-54 0 -101 -22q-14 -5 -18 6l-17 49q-4 13 6 16
q63 30 143 30zM128 150q0 -36 20 -58t62 -22q37 0 59.5 22.5t22.5 57.5q0 36 -21 58t-61 22q-37 0 -59.5 -22.5t-22.5 -57.5zM364 550q0 -22 -15 -37.5t-38 -15.5t-38.5 15t-15.5 38q0 22 15.5 37.5t37.5 15.5t38 -15.5t16 -37.5zM195 550q0 -22 -15.5 -37.5t-37.5 -15.5
q-23 0 -38.5 15.5t-15.5 37.5t15.5 37.5t37.5 15.5t38 -15.5t16 -37.5z" />
    <glyph glyph-name="aring" unicode="&#xe5;" horiz-adv-x="450" 
d="M227 449q90 0 128.5 -42.5t38.5 -123.5v-271q0 -12 -11 -12h-67q-10 0 -10 10v23l-3 1q-40 -40 -108 -40q-74 0 -114.5 41.5t-40.5 111.5q0 68 43 111.5t120 43.5q60 0 92 -25h3v23q0 35 -19.5 52.5t-64.5 17.5q-54 0 -101 -22q-14 -5 -18 6l-17 49q-4 13 6 16
q63 30 143 30zM128 150q0 -36 20 -58t62 -22q37 0 59.5 22.5t22.5 57.5q0 36 -21 58t-61 22q-37 0 -59.5 -22.5t-22.5 -57.5zM311 563q0 -36 -26.5 -62.5t-63.5 -26.5t-63.5 25.5t-26.5 61.5t26.5 63t63.5 27t63.5 -25.5t26.5 -62.5zM264 562q0 17 -13 30.5t-30 13.5
t-29 -13t-12 -31t12 -30.5t29 -12.5t30 12.5t13 30.5z" />
    <glyph glyph-name="ae" unicode="&#xe6;" horiz-adv-x="702" 
d="M662 227q0 -12 -7 -19.5t-17 -7.5h-244v-49q0 -75 87 -75q53 0 94 50q9 11 22 4l44 -29q16 -9 11 -18q-32 -51 -72 -70t-97 -19q-96 0 -144 57q-48 -56 -137 -56q-71 0 -116.5 41t-45.5 112q0 69 46.5 112.5t120.5 43.5q54 0 89 -29q1 1 3 1v26q0 34 -25 51.5t-67 17.5
q-45 0 -95 -24q-13 -5 -19 7l-17 47q-6 12 12 20q21 11 63 19t68 8q93 0 131 -50q50 50 131 50q82 0 131.5 -48t49.5 -126v-47zM291 150q0 34 -22 57.5t-57 23.5t-58 -23.5t-23 -57.5q0 -35 21 -58t59 -23q37 0 58.5 24.5t21.5 56.5zM568 269v17q0 34 -24.5 57.5t-62.5 23.5
q-36 0 -60.5 -24t-24.5 -58v-16h172z" />
    <glyph glyph-name="ccedilla" unicode="&#xe7;" horiz-adv-x="412" 
d="M318 -123q0 -32 -26 -56.5t-71 -24.5q-46 0 -80 23q-10 6 -2 16l18 23q7 7 14 3q26 -16 48 -16q20 0 31 9t11 22q0 30 -35 30h-29q-18 0 -26.5 11t-4.5 27l14 54q-63 11 -100 54.5t-37 109.5v114q0 78 52.5 125t132.5 47q100 0 157 -83q3 -4 2 -12t-7 -12l-45 -32
q-15 -11 -27 9q-14 22 -38.5 35t-43.5 13q-38 0 -63 -24t-25 -61v-121q0 -36 25 -59.5t62 -23.5q51 0 88 50q11 13 25 4l41 -27q18 -12 9 -24q-56 -83 -157 -86l-11 -40q5 1 17 1q39 0 60 -21.5t21 -56.5z" />
    <glyph glyph-name="egrave" unicode="&#xe8;" horiz-adv-x="448" 
d="M408 227q0 -12 -7.5 -19.5t-16.5 -7.5h-244v-35q0 -39 22 -64t65 -25q51 0 91 49q10 13 22 4l41 -28q16 -9 8 -24q-49 -83 -164 -83q-82 0 -131 45.5t-49 121.5v113q0 77 51 125.5t131 48.5q82 0 131.5 -48t49.5 -126v-47zM227 367q-38 0 -62 -22t-24 -60v-16h172v17
q0 35 -22.5 58t-63.5 23zM272 521q8 -11 -4 -19l-24 -15q-13 -8 -23 3l-107 119q-12 15 3 24l52 31q12 8 22 -8z" />
    <glyph glyph-name="eacute" unicode="&#xe9;" horiz-adv-x="448" 
d="M408 227q0 -12 -7.5 -19.5t-16.5 -7.5h-244v-35q0 -39 22 -64t65 -25q51 0 91 49q10 13 22 4l41 -28q16 -9 8 -24q-49 -83 -164 -83q-82 0 -131 45.5t-49 121.5v113q0 77 51 125.5t131 48.5q82 0 131.5 -48t49.5 -126v-47zM227 367q-38 0 -62 -22t-24 -60v-16h172v17
q0 35 -22.5 58t-63.5 23zM341 610l-107 -120q-10 -11 -23 -3l-24 15q-11 7 -4 19l81 135q10 16 22 9l52 -32q16 -10 3 -23z" />
    <glyph glyph-name="ecircumflex" unicode="&#xea;" horiz-adv-x="448" 
d="M408 227q0 -12 -7.5 -19.5t-16.5 -7.5h-244v-35q0 -39 22 -64t65 -25q51 0 91 49q10 13 22 4l41 -28q16 -9 8 -24q-49 -83 -164 -83q-82 0 -131 45.5t-49 121.5v113q0 77 51 125.5t131 48.5q82 0 131.5 -48t49.5 -126v-47zM227 367q-38 0 -62 -22t-24 -60v-16h172v17
q0 35 -22.5 58t-63.5 23zM374 526q11 -13 0 -21l-23 -14q-13 -7 -22 2l-99 93l-99 -94q-11 -9 -22 -1l-22 14q-11 9 -1 21l98 124q9 11 21 11h50q13 0 22 -11z" />
    <glyph glyph-name="edieresis" unicode="&#xeb;" horiz-adv-x="448" 
d="M408 227q0 -12 -7.5 -19.5t-16.5 -7.5h-244v-35q0 -39 22 -64t65 -25q51 0 91 49q10 13 22 4l41 -28q16 -9 8 -24q-49 -83 -164 -83q-82 0 -131 45.5t-49 121.5v113q0 77 51 125.5t131 48.5q82 0 131.5 -48t49.5 -126v-47zM227 367q-38 0 -62 -22t-24 -60v-16h172v17
q0 35 -22.5 58t-63.5 23zM370 550q0 -22 -15 -37.5t-38 -15.5t-38.5 15t-15.5 38q0 22 15.5 37.5t37.5 15.5t38 -15.5t16 -37.5zM201 550q0 -22 -15.5 -37.5t-37.5 -15.5q-23 0 -38.5 15.5t-15.5 37.5t15.5 37.5t37.5 15.5t38 -15.5t16 -37.5z" />
    <glyph glyph-name="igrave" unicode="&#xec;" horiz-adv-x="213" 
d="M154 12q2 -12 -12 -12h-70q-13 0 -13 12v416q0 13 12 13h70q13 0 13 -13v-416zM136 521q8 -11 -4 -19l-24 -15q-13 -8 -23 3l-107 119q-12 15 3 24l52 31q12 8 22 -8z" />
    <glyph glyph-name="iacute" unicode="&#xed;" horiz-adv-x="213" 
d="M154 12q2 -12 -12 -12h-70q-13 0 -13 12v416q0 13 12 13h70q13 0 13 -13v-416zM225 610l-107 -120q-10 -11 -23 -3l-24 15q-11 7 -4 19l81 135q10 16 22 9l52 -32q16 -10 3 -23z" />
    <glyph glyph-name="icircumflex" unicode="&#xee;" horiz-adv-x="213" 
d="M154 12q2 -12 -12 -12h-70q-13 0 -13 12v416q0 13 12 13h70q13 0 13 -13v-416zM250 526q11 -13 0 -21l-23 -14q-13 -7 -22 2l-99 93l-99 -94q-11 -9 -22 -1l-22 14q-11 9 -1 21l98 124q9 11 21 11h50q13 0 22 -11z" />
    <glyph glyph-name="idieresis" unicode="&#xef;" horiz-adv-x="213" 
d="M154 12q2 -12 -12 -12h-70q-13 0 -13 12v416q0 13 12 13h70q13 0 13 -13v-416zM247 550q0 -22 -15.5 -37.5t-37.5 -15.5q-23 0 -38.5 15t-15.5 38q0 22 15.5 37.5t37.5 15.5t38 -15.5t16 -37.5zM78 550q0 -22 -15 -37.5t-38 -15.5t-38.5 15.5t-15.5 37.5t15.5 37.5
t37.5 15.5t38 -15.5t16 -37.5z" />
    <glyph glyph-name="eth" unicode="&#xf0;" horiz-adv-x="457" 
d="M407 604l-47 -47q29 -36 38 -81q10 -52 10 -147v-167q-1 -80 -51 -124t-132 -44q-84 0 -132 44.5t-48 127.5v70q0 91 43 138.5t125 47.5q67 0 104 -34h1q0 20 -2 44q-3 35 -20 61l-41 -41q-7 -7 -13 -1l-26 22q-7 5 2 14l43 44q-40 28 -101 31q-20 0 -20 15v51
q0 14 19 14q72 0 127 -26q18 -9 36 -22l48 48q6 6 13 0l26 -26q5 -5 -2 -12zM139 253v-89q0 -40 22 -64t64 -24q43 0 66 24t23 64v68q0 110 -90 110q-43 0 -64 -25t-21 -64z" />
    <glyph glyph-name="ntilde" unicode="&#xf1;" horiz-adv-x="471" 
d="M417 12q0 -12 -12 -12h-70q-13 0 -13 12v265q0 40 -21.5 63.5t-64.5 23.5q-37 0 -62 -24.5t-25 -61.5v-266q0 -12 -13 -12h-69q-13 0 -13 12v416q0 13 12 13h69q11 0 11 -12v-22l1 -1h2q43 40 113 40q74 0 114.5 -46t40.5 -122v-266zM364 567q-15 -29 -38.5 -44
t-46.5 -15t-61 16.5t-56 16.5q-19 0 -37 -27q-8 -9 -21 0l-26 19q-8 7 -2 19q13 26 36 42t49 16q22 0 61 -17.5t54 -17.5q20 0 37 27q5 10 16 4l31 -18q11 -7 4 -21z" />
    <glyph glyph-name="ograve" unicode="&#xf2;" horiz-adv-x="458" 
d="M410 164q0 -81 -48 -125.5t-133 -44.5t-133.5 44.5t-48.5 123.5v117q0 76 50 123t131 47q84 0 133 -44.5t49 -124.5v-116zM142 278v-114q0 -40 22 -64t64 -24q40 0 63.5 24t23.5 64v114q0 40 -22.5 64t-63.5 24t-64 -24t-23 -64zM276 521q8 -11 -4 -19l-24 -15
q-13 -8 -23 3l-107 119q-12 15 3 24l52 31q12 8 22 -8z" />
    <glyph glyph-name="oacute" unicode="&#xf3;" horiz-adv-x="458" 
d="M410 164q0 -81 -48 -125.5t-133 -44.5t-133.5 44.5t-48.5 123.5v117q0 76 50 123t131 47q84 0 133 -44.5t49 -124.5v-116zM142 278v-114q0 -40 22 -64t64 -24q40 0 63.5 24t23.5 64v114q0 40 -22.5 64t-63.5 24t-64 -24t-23 -64zM353 610l-107 -120q-10 -11 -23 -3
l-24 15q-11 7 -4 19l81 135q10 16 22 9l52 -32q16 -10 3 -23z" />
    <glyph glyph-name="ocircumflex" unicode="&#xf4;" horiz-adv-x="458" 
d="M410 164q0 -81 -48 -125.5t-133 -44.5t-133.5 44.5t-48.5 123.5v117q0 76 50 123t131 47q84 0 133 -44.5t49 -124.5v-116zM142 278v-114q0 -40 22 -64t64 -24q40 0 63.5 24t23.5 64v114q0 40 -22.5 64t-63.5 24t-64 -24t-23 -64zM374 526q11 -13 0 -21l-23 -14
q-13 -7 -22 2l-99 93l-99 -94q-11 -9 -22 -1l-22 14q-11 9 -1 21l98 124q9 11 21 11h50q13 0 22 -11z" />
    <glyph glyph-name="otilde" unicode="&#xf5;" horiz-adv-x="458" 
d="M410 164q0 -81 -48 -125.5t-133 -44.5t-133.5 44.5t-48.5 123.5v117q0 76 50 123t131 47q84 0 133 -44.5t49 -124.5v-116zM142 278v-114q0 -40 22 -64t64 -24q40 0 63.5 24t23.5 64v114q0 40 -22.5 64t-63.5 24t-64 -24t-23 -64zM377 567q-15 -29 -38.5 -44t-46.5 -15
q-24 0 -62 16.5t-55 16.5q-19 0 -37 -27q-8 -9 -21 0l-26 19q-8 7 -2 19q13 26 36 42t49 16q22 0 61 -17.5t54 -17.5q20 0 37 27q5 10 16 4l31 -18q11 -7 4 -21z" />
    <glyph glyph-name="odieresis" unicode="&#xf6;" horiz-adv-x="458" 
d="M410 164q0 -81 -48 -125.5t-133 -44.5t-133.5 44.5t-48.5 123.5v117q0 76 50 123t131 47q84 0 133 -44.5t49 -124.5v-116zM142 278v-114q0 -40 22 -64t64 -24q40 0 63.5 24t23.5 64v114q0 40 -22.5 64t-63.5 24t-64 -24t-23 -64zM370 550q0 -22 -15 -37.5t-38 -15.5
t-38.5 15t-15.5 38q0 22 15.5 37.5t37.5 15.5t38 -15.5t16 -37.5zM201 550q0 -22 -15.5 -37.5t-37.5 -15.5q-23 0 -38.5 15.5t-15.5 37.5t15.5 37.5t37.5 15.5t38 -15.5t16 -37.5z" />
    <glyph glyph-name="divide" unicode="&#xf7;" horiz-adv-x="486" 
d="M314 439q0 -26 -19 -44.5t-46 -18.5q-28 0 -46.5 18.5t-18.5 44.5t19 45t46 19t46 -18.5t19 -45.5zM314 98q0 -26 -19 -44.5t-46 -18.5q-28 0 -46.5 18.5t-18.5 44.5t19 45t46 19t46 -18.5t19 -45.5zM449 256q0 -22 -20 -22h-366q-21 0 -21 21v28q0 20 21 20h366
q20 0 20 -20v-27z" />
    <glyph glyph-name="oslash" unicode="&#xf8;" horiz-adv-x="458" 
d="M410 164q0 -81 -48 -125.5t-133 -44.5q-75 0 -120 33l-16 -20q-8 -11 -17 -3l-20 17q-11 9 -5 18l21 27q-25 38 -25 96v117q0 76 50 123t131 47q67 0 114 -30l17 22q8 10 21 0l22 -18q10 -7 2 -18l-21 -27q27 -41 27 -98v-116zM315 278q0 8 -1 12l-149 -191
q21 -23 63 -23q40 0 63.5 24t23.5 64v114zM142 278v-121l145 190q-22 19 -58 19q-41 0 -64 -24t-23 -64z" />
    <glyph glyph-name="ugrave" unicode="&#xf9;" horiz-adv-x="466" 
d="M47 428q0 13 12 13h70q13 0 13 -12v-266q0 -39 21.5 -63t65.5 -24q37 0 61.5 25t24.5 62v265q0 13 13 13h69q13 0 13 -12v-417q0 -12 -12 -12h-69q-11 0 -11 11v22l-2 1q-42 -39 -114 -39q-75 0 -115 45.5t-40 121.5v266zM271 521q8 -11 -4 -19l-24 -15q-13 -8 -23 3
l-107 119q-12 15 3 24l52 31q12 8 22 -8z" />
    <glyph glyph-name="uacute" unicode="&#xfa;" horiz-adv-x="466" 
d="M47 428q0 13 12 13h70q13 0 13 -12v-266q0 -39 21.5 -63t65.5 -24q37 0 61.5 25t24.5 62v265q0 13 13 13h69q13 0 13 -12v-417q0 -12 -12 -12h-69q-11 0 -11 11v22l-2 1q-42 -39 -114 -39q-75 0 -115 45.5t-40 121.5v266zM363 610l-107 -120q-10 -11 -23 -3l-24 15
q-11 7 -4 19l81 135q10 16 22 9l52 -32q16 -10 3 -23z" />
    <glyph glyph-name="ucircumflex" unicode="&#xfb;" horiz-adv-x="466" 
d="M47 428q0 13 12 13h70q13 0 13 -12v-266q0 -39 21.5 -63t65.5 -24q37 0 61.5 25t24.5 62v265q0 13 13 13h69q13 0 13 -12v-417q0 -12 -12 -12h-69q-11 0 -11 11v22l-2 1q-42 -39 -114 -39q-75 0 -115 45.5t-40 121.5v266zM376 526q11 -13 0 -21l-23 -14q-13 -7 -22 2
l-99 93l-99 -94q-11 -9 -22 -1l-22 14q-11 9 -1 21l98 124q9 11 21 11h50q13 0 22 -11z" />
    <glyph glyph-name="udieresis" unicode="&#xfc;" horiz-adv-x="466" 
d="M47 428q0 13 12 13h70q13 0 13 -12v-266q0 -39 21.5 -63t65.5 -24q37 0 61.5 25t24.5 62v265q0 13 13 13h69q13 0 13 -12v-417q0 -12 -12 -12h-69q-11 0 -11 11v22l-2 1q-42 -39 -114 -39q-75 0 -115 45.5t-40 121.5v266zM370 550q0 -22 -15 -37.5t-38 -15.5t-38.5 15
t-15.5 38q0 22 15.5 37.5t37.5 15.5t38 -15.5t16 -37.5zM201 550q0 -22 -15.5 -37.5t-37.5 -15.5q-23 0 -38.5 15.5t-15.5 37.5t15.5 37.5t37.5 15.5t38 -15.5t16 -37.5z" />
    <glyph glyph-name="yacute" unicode="&#xfd;" horiz-adv-x="428" 
d="M117 425l48 -191l37 -150h2l108 338q6 19 25 19h59q15 0 15 -14q0 -4 -1 -7l-190 -581q-6 -21 -30 -21h-51q-11 0 -15.5 8t0.5 18l50 156h-22q-18 0 -24 20l-113 402q-1 2 -1 6q0 13 14 13h67q17 0 22 -16zM332 610l-107 -120q-10 -11 -23 -3l-24 15q-11 7 -4 19l81 135
q10 16 22 9l52 -32q16 -10 3 -23z" />
    <glyph glyph-name="thorn" unicode="&#xfe;" horiz-adv-x="462" 
d="M53 624q0 12 12 12h64q13 0 13 -12v-219l1 -1h2q39 41 114 41q74 0 115.5 -44t41.5 -121v-117q0 -72 -43.5 -120.5t-121.5 -48.5q-63 0 -100 28l-3 -2v-188q0 -13 -13 -13h-69q-13 0 -13 12v793zM148 277v-104q0 -42 21 -70t65 -28t66 24.5t22 63.5v107q0 41 -21.5 67.5
t-63.5 26.5q-38 0 -63.5 -25t-25.5 -62z" />
    <glyph glyph-name="ydieresis" unicode="&#xff;" horiz-adv-x="428" 
d="M117 425l48 -191l37 -150h2l108 338q6 19 25 19h59q15 0 15 -14q0 -4 -1 -7l-190 -581q-6 -21 -30 -21h-51q-11 0 -15.5 8t0.5 18l50 156h-22q-18 0 -24 20l-113 402q-1 2 -1 6q0 13 14 13h67q17 0 22 -16zM353 550q0 -22 -15.5 -37.5t-37.5 -15.5q-23 0 -38.5 15
t-15.5 38q0 22 15.5 37.5t37.5 15.5t38 -15.5t16 -37.5zM184 550q0 -22 -15 -37.5t-38 -15.5t-38.5 15.5t-15.5 37.5t15.5 37.5t37.5 15.5t38 -15.5t16 -37.5z" />
    <glyph glyph-name="Amacron" unicode="&#x100;" horiz-adv-x="470" 
d="M440 0h-74q-14 0 -15 9l-14 56t-16 68h-177q-8 -28 -30 -124q-1 -9 -14 -9h-69q-19 0 -13 17l147 587q4 13 18 13h99q14 0 18 -12l151 -586q3 -6 0 -12.5t-11 -6.5zM230 509q-4 -21 -13 -61t-13 -61l-40 -172h137l-40 169l-28 125h-3zM346 682q0 -15 -15 -15h-209
q-16 0 -16 15v41q0 15 15 15h209q16 0 16 -14v-42z" />
    <glyph glyph-name="amacron" unicode="&#x101;" horiz-adv-x="450" 
d="M227 449q90 0 128.5 -42.5t38.5 -123.5v-271q0 -12 -11 -12h-67q-10 0 -10 10v23l-3 1q-40 -40 -108 -40q-74 0 -114.5 41.5t-40.5 111.5q0 68 43 111.5t120 43.5q60 0 92 -25h3v23q0 35 -19.5 52.5t-64.5 17.5q-54 0 -101 -22q-14 -5 -18 6l-17 49q-4 13 6 16
q63 30 143 30zM128 150q0 -36 20 -58t62 -22q37 0 59.5 22.5t22.5 57.5q0 36 -21 58t-61 22q-37 0 -59.5 -22.5t-22.5 -57.5zM358 530q0 -15 -15 -15h-209q-16 0 -16 15v41q0 15 15 15h209q16 0 16 -14v-42z" />
    <glyph glyph-name="Abreve" unicode="&#x102;" horiz-adv-x="470" 
d="M440 0h-74q-14 0 -15 9l-14 56t-16 68h-177q-8 -28 -30 -124q-1 -9 -14 -9h-69q-19 0 -13 17l147 587q4 13 18 13h99q14 0 18 -12l151 -586q3 -6 0 -12.5t-11 -6.5zM230 509q-4 -21 -13 -61t-13 -61l-40 -172h137l-40 169l-28 125h-3zM226 713q39 0 59 58q5 12 17 12h34
q16 0 14 -16q-6 -53 -40 -89.5t-84 -36.5q-49 0 -83.5 37t-40.5 89q-2 16 14 16h34q12 0 17 -12q20 -58 59 -58z" />
    <glyph glyph-name="abreve" unicode="&#x103;" horiz-adv-x="450" 
d="M227 449q90 0 128.5 -42.5t38.5 -123.5v-271q0 -12 -11 -12h-67q-10 0 -10 10v23l-3 1q-40 -40 -108 -40q-74 0 -114.5 41.5t-40.5 111.5q0 68 43 111.5t120 43.5q60 0 92 -25h3v23q0 35 -19.5 52.5t-64.5 17.5q-54 0 -101 -22q-14 -5 -18 6l-17 49q-4 13 6 16
q63 30 143 30zM128 150q0 -36 20 -58t62 -22q37 0 59.5 22.5t22.5 57.5q0 36 -21 58t-61 22q-37 0 -59.5 -22.5t-22.5 -57.5zM236 563q41 0 61 58q2 4 2.5 5.5t2 3.5t4 2.5t6.5 0.5h34q16 0 14 -16q-6 -53 -40 -89.5t-84 -36.5q-49 0 -83.5 37t-40.5 89q-2 16 14 16h34
q12 0 17 -12q20 -58 59 -58z" />
    <glyph glyph-name="Aogonek" unicode="&#x104;" horiz-adv-x="470" 
d="M335 10q8 8 13 9l-12.5 52.5l-14.5 61.5h-177q-8 -28 -30 -124q-1 -9 -14 -9h-69q-19 0 -13 17l147 587q4 13 18 13h99q14 0 18 -12l151 -586q3 -6 0 -12.5t-11 -6.5h-56q-47 -50 -47 -106q0 -29 26 -29t61 22q8 5 13 -1l16 -24q5 -8 -3 -14q-46 -38 -98 -38
q-81 0 -81 75q0 31 19 67t45 58zM230 509q-4 -21 -13 -61t-13 -61l-40 -172h137l-40 169l-28 125h-3z" />
    <glyph glyph-name="aogonek" unicode="&#x105;" horiz-adv-x="450" 
d="M304 10l2 2v21l-3 1q-40 -40 -108 -40q-74 0 -114.5 41.5t-40.5 111.5q0 68 43 111.5t120 43.5q60 0 92 -25h3v23q0 35 -19.5 52.5t-64.5 17.5q-54 0 -101 -22q-14 -5 -18 6l-17 49q-4 13 6 16q63 30 143 30q90 0 128.5 -42.5t38.5 -123.5v-271q0 -12 -11 -12h-30
q-47 -50 -47 -106q0 -29 26 -29t61 22q8 5 13 -1l16 -24q5 -8 -3 -14q-46 -38 -98 -38q-81 0 -81 75q0 31 19 67t45 58zM128 150q0 -36 20 -58t62 -22q37 0 59.5 22.5t22.5 57.5q0 36 -21 58t-61 22q-37 0 -59.5 -22.5t-22.5 -57.5z" />
    <glyph glyph-name="Cacute" unicode="&#x106;" horiz-adv-x="451" 
d="M251 -6q-86 0 -139.5 46.5t-53.5 126.5v285q0 79 52.5 126.5t135.5 47.5q115 0 178 -83q10 -13 -4 -24l-46 -36q-14 -10 -24 6q-37 50 -101 50q-44 0 -68 -25t-24 -64v-282q0 -38 25.5 -62.5t69.5 -24.5q54 0 97 47q14 16 25 9l50 -35q12 -8 5 -20q-62 -88 -178 -88z
M369 739q11 -15 -6 -23l-146 -73q-12 -5 -21 8l-16 23q-9 10 3 19l126 95q14 12 23 0z" />
    <glyph glyph-name="cacute" unicode="&#x107;" horiz-adv-x="412" 
d="M388 80q-58 -86 -162 -86q-83 0 -133 45.5t-50 122.5v114q0 78 52.5 125t132.5 47q100 0 157 -83q3 -4 2 -12t-7 -12l-45 -32q-15 -11 -27 9q-14 22 -38.5 35t-43.5 13q-38 0 -63 -24t-25 -61v-121q0 -36 25 -59.5t62 -23.5q51 0 88 50q11 13 25 4l41 -27q18 -12 9 -24z
M330 610l-107 -120q-10 -11 -23 -3l-24 15q-11 7 -4 19l81 135q10 16 22 9l52 -32q16 -10 3 -23z" />
    <glyph glyph-name="Ccircumflex" unicode="&#x108;" horiz-adv-x="451" 
d="M251 -6q-86 0 -139.5 46.5t-53.5 126.5v285q0 79 52.5 126.5t135.5 47.5q115 0 178 -83q10 -13 -4 -24l-46 -36q-14 -10 -24 6q-37 50 -101 50q-44 0 -68 -25t-24 -64v-282q0 -38 25.5 -62.5t69.5 -24.5q54 0 97 47q14 16 25 9l50 -35q12 -8 5 -20q-62 -88 -178 -88z
M392 685q11 -13 0 -21l-22 -19q-6 -4 -21 4l-100 67l-98 -68q-12 -8 -22 -1l-20 19q-11 9 -1 21l96 94q9 11 21 11h50q13 0 22 -11z" />
    <glyph glyph-name="ccircumflex" unicode="&#x109;" horiz-adv-x="412" 
d="M388 80q-58 -86 -162 -86q-83 0 -133 45.5t-50 122.5v114q0 78 52.5 125t132.5 47q100 0 157 -83q3 -4 2 -12t-7 -12l-45 -32q-15 -11 -27 9q-14 22 -38.5 35t-43.5 13q-38 0 -63 -24t-25 -61v-121q0 -36 25 -59.5t62 -23.5q51 0 88 50q11 13 25 4l41 -27q18 -12 9 -24z
M367 526q11 -13 0 -21l-23 -14q-13 -7 -22 2l-99 93l-99 -94q-11 -9 -22 -1l-22 14q-11 9 -1 21l98 124q9 11 21 11h50q13 0 22 -11z" />
    <glyph glyph-name="Cdotaccent" unicode="&#x10a;" horiz-adv-x="451" 
d="M251 -6q-86 0 -139.5 46.5t-53.5 126.5v285q0 79 52.5 126.5t135.5 47.5q115 0 178 -83q10 -13 -4 -24l-46 -36q-14 -10 -24 6q-37 50 -101 50q-44 0 -68 -25t-24 -64v-282q0 -38 25.5 -62.5t69.5 -24.5q54 0 97 47q14 16 25 9l50 -35q12 -8 5 -20q-62 -88 -178 -88z
M307 726q0 -22 -15.5 -37.5t-37.5 -15.5q-23 0 -38.5 15t-15.5 37t15.5 37.5t37.5 15.5t38 -15.5t16 -36.5z" />
    <glyph glyph-name="cdotaccent" unicode="&#x10b;" horiz-adv-x="412" 
d="M388 80q-58 -86 -162 -86q-83 0 -133 45.5t-50 122.5v114q0 78 52.5 125t132.5 47q100 0 157 -83q3 -4 2 -12t-7 -12l-45 -32q-15 -11 -27 9q-14 22 -38.5 35t-43.5 13q-38 0 -63 -24t-25 -61v-121q0 -36 25 -59.5t62 -23.5q51 0 88 50q11 13 25 4l41 -27q18 -12 9 -24z
M280 556q0 -22 -15.5 -37.5t-37.5 -15.5q-23 0 -38.5 15t-15.5 37t15.5 37.5t37.5 15.5t38 -15.5t16 -36.5z" />
    <glyph glyph-name="Ccaron" unicode="&#x10c;" horiz-adv-x="451" 
d="M251 -6q-86 0 -139.5 46.5t-53.5 126.5v285q0 79 52.5 126.5t135.5 47.5q115 0 178 -83q10 -13 -4 -24l-46 -36q-14 -10 -24 6q-37 50 -101 50q-44 0 -68 -25t-24 -64v-282q0 -38 25.5 -62.5t69.5 -24.5q54 0 97 47q14 16 25 9l50 -35q12 -8 5 -20q-62 -88 -178 -88z
M391 760l-95 -96q-9 -11 -22 -11h-50q-12 0 -21 11l-96 94q-10 12 1 21l20 19q10 7 22 -1l100 -66l98 65q14 9 21 4l22 -19q11 -8 0 -21z" />
    <glyph glyph-name="ccaron" unicode="&#x10d;" horiz-adv-x="412" 
d="M388 80q-58 -86 -162 -86q-83 0 -133 45.5t-50 122.5v114q0 78 52.5 125t132.5 47q100 0 157 -83q3 -4 2 -12t-7 -12l-45 -32q-15 -11 -27 9q-14 22 -38.5 35t-43.5 13q-38 0 -63 -24t-25 -61v-121q0 -36 25 -59.5t62 -23.5q51 0 88 50q11 13 25 4l41 -27q18 -12 9 -24z
M378 627l-97 -124q-9 -11 -22 -11h-50q-12 0 -21 11l-98 124q-10 12 1 21l22 14q11 8 22 -1l100 -92l98 91q9 9 22 2l23 -14q11 -8 0 -21z" />
    <glyph glyph-name="Dcaron" unicode="&#x10e;" horiz-adv-x="510" 
d="M454 186q0 -90 -47.5 -138t-137.5 -48h-192q-15 0 -15 14v589q0 14 15 14h191q90 0 138 -47.5t48 -134.5v-249zM356 180v259q0 92 -98 92h-97v-445h103q46 0 69 24.5t23 69.5zM359 760l-95 -96q-9 -11 -22 -11h-50q-12 0 -21 11l-96 94q-10 12 1 21l20 19q10 7 22 -1
l100 -66l98 65q14 9 21 4l22 -19q11 -8 0 -21z" />
    <glyph glyph-name="dcaron" unicode="&#x10f;" horiz-adv-x="562" 
d="M407 12q0 -12 -11 -12h-65q-12 0 -12 11v21q-1 0 -2 0.5t-2 0.5q-34 -38 -112 -38q-74 0 -116.5 44t-42.5 122v116q0 74 44.5 122t123.5 48q61 0 97 -26l1 1h2v202q0 13 13 13h69q13 0 13 -12v-613zM312 163q0 18 0.5 53.5t0.5 53.5q0 41 -21.5 68t-65.5 27t-65.5 -24.5
t-21.5 -63.5v-107q0 -42 20.5 -68t63.5 -26q39 0 64 25t25 62zM556 611l-48 -148q-5 -17 -22 -17h-27q-16 0 -16 24l11 145q0 22 22 22h62q26 0 18 -26z" />
    <glyph glyph-name="Dcroat" unicode="&#x110;" horiz-adv-x="505" 
d="M62 346v257q0 14 15 14h185q91 0 139 -47.5t48 -134.5v-249q0 -90 -47.5 -138t-137.5 -48h-187q-15 0 -15 14v265h-38q-14 0 -14 14v40q0 13 13 13h39zM160 279v-193h99q45 0 68 25t23 69v259q0 92 -97 92h-93v-185h77q13 0 13 -12v-41q0 -14 -12 -14h-78z" />
    <glyph glyph-name="dcroat" unicode="&#x111;" horiz-adv-x="459" 
d="M407 12q0 -12 -11 -12h-65q-12 0 -12 11v21q-1 0 -2 0.5t-2 0.5q-35 -38 -108 -38q-77 0 -120 43t-43 123v113q0 74 44.5 122t123.5 48q60 0 97 -26h1q2 0 2 1v66h-81q-12 0 -12 12v36q0 11 12 11h81v80q0 13 13 13h69q13 0 13 -12v-81h40q11 0 11 -12v-35q0 -12 -12 -12
h-39v-473zM312 163q0 18 0.5 53t0.5 52q0 41 -22 67.5t-65 26.5q-44 0 -65.5 -24.5t-21.5 -63.5v-105q0 -42 20.5 -67.5t63.5 -25.5q39 0 64 25t25 62z" />
    <glyph glyph-name="Emacron" unicode="&#x112;" horiz-adv-x="454" 
d="M422 15q0 -15 -14 -15h-333q-15 0 -15 14v589q0 14 15 14h328q14 0 14 -14v-57q0 -15 -14 -15h-244v-168h203q15 0 15 -15v-57q0 -15 -14 -15h-204v-190h249q14 0 14 -14v-57zM356 682q0 -15 -15 -15h-209q-16 0 -16 15v41q0 15 15 15h209q16 0 16 -14v-42z" />
    <glyph glyph-name="emacron" unicode="&#x113;" horiz-adv-x="448" 
d="M408 227q0 -12 -7.5 -19.5t-16.5 -7.5h-244v-35q0 -39 22 -64t65 -25q51 0 91 49q10 13 22 4l41 -28q16 -9 8 -24q-49 -83 -164 -83q-82 0 -131 45.5t-49 121.5v113q0 77 51 125.5t131 48.5q82 0 131.5 -48t49.5 -126v-47zM227 367q-38 0 -62 -22t-24 -60v-16h172v17
q0 35 -22.5 58t-63.5 23zM359 530q0 -15 -15 -15h-209q-16 0 -16 15v41q0 15 15 15h209q16 0 16 -14v-42z" />
    <glyph glyph-name="Ebreve" unicode="&#x114;" horiz-adv-x="454" 
d="M422 15q0 -15 -14 -15h-333q-15 0 -15 14v589q0 14 15 14h328q14 0 14 -14v-57q0 -15 -14 -15h-244v-168h203q15 0 15 -15v-57q0 -15 -14 -15h-204v-190h249q14 0 14 -14v-57zM230 713q39 0 59 58q5 12 17 12h34q16 0 14 -16q-6 -53 -40 -89.5t-84 -36.5q-49 0 -83.5 37
t-40.5 89q-2 16 14 16h34q12 0 17 -12q20 -58 59 -58z" />
    <glyph glyph-name="ebreve" unicode="&#x115;" horiz-adv-x="448" 
d="M408 227q0 -12 -7.5 -19.5t-16.5 -7.5h-244v-35q0 -39 22 -64t65 -25q51 0 91 49q10 13 22 4l41 -28q16 -9 8 -24q-49 -83 -164 -83q-82 0 -131 45.5t-49 121.5v113q0 77 51 125.5t131 48.5q82 0 131.5 -48t49.5 -126v-47zM227 367q-38 0 -62 -22t-24 -60v-16h172v17
q0 35 -22.5 58t-63.5 23zM229 563q41 0 61 58q4 12 15 12h34q16 0 14 -16q-6 -53 -40 -89.5t-84 -36.5q-49 0 -83.5 37t-40.5 89q-2 16 14 16h34q13 0 17 -12q20 -58 59 -58z" />
    <glyph glyph-name="Edotaccent" unicode="&#x116;" horiz-adv-x="454" 
d="M422 15q0 -15 -14 -15h-333q-15 0 -15 14v589q0 14 15 14h328q14 0 14 -14v-57q0 -15 -14 -15h-244v-168h203q15 0 15 -15v-57q0 -15 -14 -15h-204v-190h249q14 0 14 -14v-57zM295 706q0 -22 -15.5 -37.5t-37.5 -15.5q-23 0 -38.5 15t-15.5 37t15.5 37.5t37.5 15.5
t38 -15.5t16 -36.5z" />
    <glyph glyph-name="edotaccent" unicode="&#x117;" horiz-adv-x="448" 
d="M408 227q0 -12 -7.5 -19.5t-16.5 -7.5h-244v-35q0 -39 22 -64t65 -25q51 0 91 49q10 13 22 4l41 -28q16 -9 8 -24q-49 -83 -164 -83q-82 0 -131 45.5t-49 121.5v113q0 77 51 125.5t131 48.5q82 0 131.5 -48t49.5 -126v-47zM227 367q-38 0 -62 -22t-24 -60v-16h172v17
q0 35 -22.5 58t-63.5 23zM288 556q0 -22 -15.5 -37.5t-37.5 -15.5q-23 0 -38.5 15t-15.5 37t15.5 37.5t37.5 15.5t38 -15.5t16 -36.5z" />
    <glyph glyph-name="Eogonek" unicode="&#x118;" horiz-adv-x="454" 
d="M422 15q0 -15 -14 -15h-36q-47 -50 -47 -106q0 -29 26 -29t61 22q8 5 13 -1l16 -24q5 -8 -3 -14q-46 -38 -98 -38q-81 0 -81 75q0 28 15 60t38 55h-237q-15 0 -15 14v589q0 14 15 14h328q14 0 14 -14v-57q0 -15 -14 -15h-244v-168h203q15 0 15 -15v-57q0 -15 -14 -15
h-204v-190h249q14 0 14 -14v-57z" />
    <glyph glyph-name="eogonek" unicode="&#x119;" horiz-adv-x="448" 
d="M408 227q0 -12 -7.5 -19.5t-16.5 -7.5h-244v-35q0 -39 22 -64t65 -25q51 0 91 49q10 13 22 4l41 -28q16 -9 8 -24q-28 -48 -82 -69q-45 -50 -45 -104q0 -29 26 -29t61 22q8 5 13 -1l16 -24q5 -8 -3 -14q-46 -38 -98 -38q-81 0 -81 75q0 50 39 99h-10q-82 0 -131 45.5
t-49 121.5v113q0 77 51 125.5t131 48.5q82 0 131.5 -48t49.5 -126v-47zM227 367q-38 0 -62 -22t-24 -60v-16h172v17q0 35 -22.5 58t-63.5 23z" />
    <glyph glyph-name="Ecaron" unicode="&#x11a;" horiz-adv-x="454" 
d="M422 15q0 -15 -14 -15h-333q-15 0 -15 14v589q0 14 15 14h328q14 0 14 -14v-57q0 -15 -14 -15h-244v-168h203q15 0 15 -15v-57q0 -15 -14 -15h-204v-190h249q14 0 14 -14v-57zM377 760l-95 -96q-9 -11 -22 -11h-50q-12 0 -21 11l-96 94q-10 12 1 21l20 19q10 7 22 -1
l100 -66l98 65q14 9 21 4l22 -19q11 -8 0 -21z" />
    <glyph glyph-name="ecaron" unicode="&#x11b;" horiz-adv-x="448" 
d="M408 227q0 -12 -7.5 -19.5t-16.5 -7.5h-244v-35q0 -39 22 -64t65 -25q51 0 91 49q10 13 22 4l41 -28q16 -9 8 -24q-49 -83 -164 -83q-82 0 -131 45.5t-49 121.5v113q0 77 51 125.5t131 48.5q82 0 131.5 -48t49.5 -126v-47zM375 627l-97 -124q-9 -11 -22 -11h-50
q-12 0 -21 11l-98 124q-10 12 1 21l22 14q11 8 22 -1l100 -92l98 91q9 9 22 2l23 -14q11 -8 0 -21zM227 367q-38 0 -62 -22t-24 -60v-16h172v17q0 35 -22.5 58t-63.5 23z" />
    <glyph glyph-name="Gcircumflex" unicode="&#x11c;" horiz-adv-x="496" 
d="M252 626q128 0 179 -88q8 -12 -5 -22l-48 -36q-11 -6 -24 8q-36 50 -100 50q-46 0 -71.5 -26t-25.5 -67v-277q0 -39 26.5 -63t70.5 -24q40 0 65 23.5t25 64.5v86h-72q-15 0 -15 14v58q0 14 15 14h155q16 0 16 -14v-162q0 -77 -53.5 -124t-136.5 -47q-85 0 -139.5 46
t-54.5 126v287q0 78 55 125.5t138 47.5zM389 685q11 -13 0 -21l-22 -19q-6 -4 -21 4l-100 67l-98 -68q-12 -8 -22 -1l-20 19q-11 9 -1 21l96 94q9 11 21 11h50q13 0 22 -11z" />
    <glyph glyph-name="gcircumflex" unicode="&#x11d;" horiz-adv-x="454" 
d="M102 150q-72 48 -72 136q0 68 52.5 115t124.5 47q79 0 123 -40q52 37 101 37q15 0 15 -15v-56q0 -12 -10 -12q-48 0 -64 -5q20 -35 20 -71q0 -70 -54 -116.5t-131 -46.5q-32 0 -58.5 -19t-28.5 -48q57 13 113 13q84 0 144 -31.5t60 -101.5q0 -42 -31.5 -79.5t-73.5 -56.5
q-19 -9 -26 4l-27 41q-8 12 8 21q54 32 54 66q0 54 -106 54q-51 0 -154 -15q-4 -1 -10 -1q-18 0 -28 26.5t-10 55.5q0 26 19 54t50 44zM298 282q0 34 -24.5 59t-61.5 25q-40 0 -65 -24.5t-25 -59.5t23.5 -59.5t62.5 -24.5q40 0 65 24.5t25 59.5zM358 526q11 -13 0 -21
l-23 -14q-13 -7 -22 2l-99 93l-99 -94q-11 -9 -22 -1l-22 14q-11 9 -1 21l98 124q9 11 21 11h50q13 0 22 -11z" />
    <glyph glyph-name="Gbreve" unicode="&#x11e;" horiz-adv-x="496" 
d="M252 626q128 0 179 -88q8 -12 -5 -22l-48 -36q-11 -6 -24 8q-36 50 -100 50q-46 0 -71.5 -26t-25.5 -67v-277q0 -39 26.5 -63t70.5 -24q40 0 65 23.5t25 64.5v86h-72q-15 0 -15 14v58q0 14 15 14h155q16 0 16 -14v-162q0 -77 -53.5 -124t-136.5 -47q-85 0 -139.5 46
t-54.5 126v287q0 78 55 125.5t138 47.5zM250 713q39 0 59 58q5 12 17 12h34q16 0 14 -16q-6 -53 -40 -89.5t-84 -36.5q-49 0 -83.5 37t-40.5 89q-2 16 14 16h34q12 0 17 -12q20 -58 59 -58z" />
    <glyph glyph-name="gbreve" unicode="&#x11f;" horiz-adv-x="454" 
d="M102 150q-72 48 -72 136q0 68 52.5 115t124.5 47q79 0 123 -40q52 37 101 37q15 0 15 -15v-56q0 -12 -10 -12q-48 0 -64 -5q20 -35 20 -71q0 -70 -54 -116.5t-131 -46.5q-32 0 -58.5 -19t-28.5 -48q57 13 113 13q84 0 144 -31.5t60 -101.5q0 -42 -31.5 -79.5t-73.5 -56.5
q-19 -9 -26 4l-27 41q-8 12 8 21q54 32 54 66q0 54 -106 54q-51 0 -154 -15q-4 -1 -10 -1q-18 0 -28 26.5t-10 55.5q0 26 19 54t50 44zM298 282q0 34 -24.5 59t-61.5 25q-40 0 -65 -24.5t-25 -59.5t23.5 -59.5t62.5 -24.5q40 0 65 24.5t25 59.5zM222 563q41 0 61 58
q2 4 2.5 5.5t2 3.5t4 2.5t6.5 0.5h34q16 0 14 -16q-6 -53 -40 -89.5t-84 -36.5q-49 0 -83.5 37t-40.5 89q-2 16 14 16h34q12 0 17 -12q20 -58 59 -58z" />
    <glyph glyph-name="Gdotaccent" unicode="&#x120;" horiz-adv-x="496" 
d="M252 626q128 0 179 -88q8 -12 -5 -22l-48 -36q-11 -6 -24 8q-36 50 -100 50q-46 0 -71.5 -26t-25.5 -67v-277q0 -39 26.5 -63t70.5 -24q40 0 65 23.5t25 64.5v86h-72q-15 0 -15 14v58q0 14 15 14h155q16 0 16 -14v-162q0 -77 -53.5 -124t-136.5 -47q-85 0 -139.5 46
t-54.5 126v287q0 78 55 125.5t138 47.5zM307 706q0 -22 -15.5 -37.5t-37.5 -15.5q-23 0 -38.5 15t-15.5 37t15.5 37.5t37.5 15.5t38 -15.5t16 -36.5z" />
    <glyph glyph-name="gdotaccent" unicode="&#x121;" horiz-adv-x="454" 
d="M102 150q-72 48 -72 136q0 68 52.5 115t124.5 47q79 0 123 -40q52 37 101 37q15 0 15 -15v-56q0 -12 -10 -12q-48 0 -64 -5q20 -35 20 -71q0 -70 -54 -116.5t-131 -46.5q-32 0 -58.5 -19t-28.5 -48q57 13 113 13q84 0 144 -31.5t60 -101.5q0 -42 -31.5 -79.5t-73.5 -56.5
q-19 -9 -26 4l-27 41q-8 12 8 21q54 32 54 66q0 54 -106 54q-51 0 -154 -15q-4 -1 -10 -1q-18 0 -28 26.5t-10 55.5q0 26 19 54t50 44zM298 282q0 34 -24.5 59t-61.5 25q-40 0 -65 -24.5t-25 -59.5t23.5 -59.5t62.5 -24.5q40 0 65 24.5t25 59.5zM287 556q0 -22 -15.5 -37.5
t-37.5 -15.5q-23 0 -38.5 15t-15.5 37t15.5 37.5t37.5 15.5t38 -15.5t16 -36.5z" />
    <glyph glyph-name="Gcommaaccent" unicode="&#x122;" horiz-adv-x="496" 
d="M252 626q128 0 179 -88q8 -12 -5 -22l-48 -36q-11 -6 -24 8q-36 50 -100 50q-46 0 -71.5 -26t-25.5 -67v-277q0 -39 26.5 -63t70.5 -24q40 0 65 23.5t25 64.5v86h-72q-15 0 -15 14v58q0 14 15 14h155q16 0 16 -14v-162q0 -77 -53.5 -124t-136.5 -47q-85 0 -139.5 46
t-54.5 126v287q0 78 55 125.5t138 47.5zM306 -67l-48 -148q-5 -17 -22 -17h-27q-16 0 -16 24l11 145q0 22 22 22h62q26 0 18 -26z" />
    <glyph glyph-name="gcommaaccent" unicode="&#x123;" horiz-adv-x="454" 
d="M180 541l48 148q5 17 22 17h27q16 0 16 -24l-11 -145q0 -22 -22 -22h-62q-26 0 -18 26zM102 150q-72 48 -72 136q0 68 52.5 115t124.5 47q79 0 123 -40q52 37 101 37q15 0 15 -15v-56q0 -12 -10 -12q-48 0 -64 -5q20 -35 20 -71q0 -70 -54 -116.5t-131 -46.5
q-32 0 -58.5 -19t-28.5 -48q57 13 113 13q84 0 144 -31.5t60 -101.5q0 -42 -31.5 -79.5t-73.5 -56.5q-19 -9 -26 4l-27 41q-8 12 8 21q54 32 54 66q0 54 -106 54q-51 0 -154 -15q-4 -1 -10 -1q-18 0 -28 26.5t-10 55.5q0 26 19 54t50 44zM298 282q0 34 -24.5 59t-61.5 25
q-40 0 -65 -24.5t-25 -59.5t23.5 -59.5t62.5 -24.5q40 0 65 24.5t25 59.5z" />
    <glyph glyph-name="Hcircumflex" unicode="&#x124;" horiz-adv-x="538" 
d="M476 14q0 -14 -16 -14h-68q-16 0 -16 13v262h-214v-261q0 -14 -15 -14h-69q-15 0 -15 13v591q0 13 14 13h69q16 0 16 -12v-244h214v243q0 13 15 13h69q16 0 16 -12v-591zM405 685q11 -13 0 -21l-22 -19q-6 -4 -21 4l-100 67l-98 -68q-12 -8 -22 -1l-20 19q-11 9 -1 21
l96 94q9 11 21 11h50q13 0 22 -11z" />
    <glyph glyph-name="hcircumflex" unicode="&#x125;" horiz-adv-x="473" 
d="M419 13q0 -13 -12 -13h-70q-13 0 -13 12v265q0 40 -21.5 64t-64.5 24q-39 0 -63 -25t-24 -63v-264q0 -13 -13 -13h-69q-13 0 -13 12v612q0 13 12 13h70q12 0 12 -13v-211l4 -1q39 35 108 35q76 0 116.5 -46t40.5 -123v-265zM244 685q11 -13 0 -21l-22 -19q-6 -4 -21 4
l-100 67l-98 -68q-12 -8 -22 -1l-20 19q-11 9 -1 21l96 94q9 11 21 11h50q13 0 22 -11z" />
    <glyph glyph-name="Hbar" unicode="&#x126;" horiz-adv-x="550" 
d="M480 14q0 -14 -15 -14h-69q-15 0 -15 13v262h-215v-261q0 -14 -14 -14h-69q-16 0 -16 13v468h-36q-14 0 -14 15v30q0 14 13 14h37v64q0 13 15 13h69q15 0 15 -12v-65h215v64q0 13 14 13h69q16 0 16 -12v-65h40q12 0 12 -14v-30q0 -15 -13 -15h-39v-467zM166 361h215v120
h-215v-120z" />
    <glyph glyph-name="hbar" unicode="&#x127;" horiz-adv-x="481" 
d="M427 13q0 -13 -12 -13h-71q-12 0 -12 12v261q0 40 -22 63.5t-65 23.5q-39 0 -62.5 -25t-23.5 -63v-259q0 -13 -13 -13h-70q-13 0 -13 12v482h-39q-12 0 -12 12v31q0 12 11 12h40v75q0 13 13 13h69q13 0 13 -13v-75h172q11 0 11 -11v-32q0 -12 -11 -12h-172v-85l3 -1
q39 34 109 34q76 0 116.5 -45.5t40.5 -122.5v-261z" />
    <glyph glyph-name="Itilde" unicode="&#x128;" horiz-adv-x="249" 
d="M173 14q0 -14 -15 -14h-70q-15 0 -15 13v590q0 14 15 14h70q15 0 15 -13v-590zM263 737q-15 -29 -38.5 -44t-46.5 -15q-24 0 -61.5 16.5t-55.5 16.5q-19 0 -37 -27q-8 -9 -21 0l-26 19q-8 7 -2 19q13 26 36 42t49 16q22 0 61 -17.5t54 -17.5q20 0 37 27q5 10 16 4l31 -18
q11 -7 4 -21z" />
    <glyph glyph-name="itilde" unicode="&#x129;" horiz-adv-x="266" 
d="M178 12q2 -12 -12 -12h-70q-13 0 -13 12v416q0 13 12 13h70q13 0 13 -13v-416zM275 567q-15 -29 -38.5 -44t-46.5 -15q-24 0 -62 16.5t-55 16.5q-19 0 -37 -27q-8 -9 -21 0l-26 19q-8 7 -2 19q13 26 36 42t49 16q22 0 61 -17.5t54 -17.5q20 0 37 27q5 10 16 4l31 -18
q11 -7 4 -21z" />
    <glyph glyph-name="Imacron" unicode="&#x12a;" horiz-adv-x="249" 
d="M173 14q0 -14 -15 -14h-70q-15 0 -15 13v590q0 14 15 14h70q15 0 15 -13v-590zM238 682q0 -15 -15 -15h-209q-16 0 -16 15v41q0 15 15 15h209q16 0 16 -14v-42z" />
    <glyph glyph-name="imacron" unicode="&#x12b;" horiz-adv-x="231" 
d="M163 12q2 -12 -12 -12h-70q-13 0 -13 12v416q0 13 12 13h70q13 0 13 -13v-416zM237 530q0 -15 -15 -15h-209q-16 0 -16 15v41q0 15 15 15h209q16 0 16 -14v-42z" />
    <glyph glyph-name="Ibreve" unicode="&#x12c;" horiz-adv-x="271" 
d="M136 713q39 0 59 58q5 12 17 12h34q16 0 14 -16q-6 -53 -40 -89.5t-84 -36.5q-49 0 -83.5 37t-40.5 89q-2 16 14 16h34q12 0 17 -12q20 -58 59 -58zM189 14q0 -14 -15 -14h-70q-15 0 -15 13v590q0 14 15 14h70q15 0 15 -13v-590z" />
    <glyph glyph-name="ibreve" unicode="&#x12d;" horiz-adv-x="253" 
d="M175 12q2 -12 -12 -12h-70q-13 0 -13 12v416q0 13 12 13h70q13 0 13 -13v-416zM127 569q41 0 61 58q2 4 2.5 5.5t2 3.5t4 2.5t6.5 0.5h34q16 0 14 -16q-6 -53 -40 -89.5t-84 -36.5q-49 0 -83.5 37t-40.5 89q-2 16 14 16h34q13 0 17 -12q20 -58 59 -58z" />
    <glyph glyph-name="Iogonek" unicode="&#x12e;" horiz-adv-x="249" 
d="M173 14q0 -14 -15 -14h-25q-47 -50 -47 -106q0 -29 26 -29t61 22q8 5 13 -1l16 -24q5 -8 -3 -14q-46 -38 -98 -38q-81 0 -81 75q0 29 16 62.5t40 55.5q-3 3 -3 10v590q0 14 15 14h70q15 0 15 -13v-590z" />
    <glyph glyph-name="iogonek" unicode="&#x12f;" horiz-adv-x="213" 
d="M154 12q2 -12 -12 -12h-22q-47 -50 -47 -106q0 -29 26 -29t61 22q8 5 13 -1l16 -24q5 -8 -3 -14q-46 -38 -98 -38q-81 0 -81 75q0 29 16 61.5t39 55.5q-3 3 -3 10v416q0 13 12 13h70q13 0 13 -13v-416zM166 570q0 -22 -17.5 -39t-40.5 -17q-24 0 -41 16t-17 40
q0 23 17 39.5t40 16.5q24 0 41.5 -16.5t17.5 -39.5z" />
    <glyph glyph-name="Idotaccent" unicode="&#x130;" horiz-adv-x="249" 
d="M173 14q0 -14 -15 -14h-70q-15 0 -15 13v590q0 14 15 14h70q15 0 15 -13v-590zM177 726q0 -22 -15.5 -37.5t-37.5 -15.5q-23 0 -38.5 15t-15.5 37t15.5 37.5t37.5 15.5t38 -15.5t16 -36.5z" />
    <glyph glyph-name="dotlessi" unicode="&#x131;" horiz-adv-x="213" 
d="M154 12q2 -12 -12 -12h-70q-13 0 -13 12v416q0 13 12 13h70q13 0 13 -13v-416z" />
    <glyph glyph-name="IJ" unicode="&#x132;" horiz-adv-x="485" 
d="M173 14q0 -14 -15 -14h-70q-15 0 -15 13v590q0 14 15 14h70q15 0 15 -13v-590zM205 -121l-16 51q-5 17 11 23q63 25 90.5 58.5t27.5 101.5v491q0 13 15 13h67q15 0 15 -13v-492q0 -99 -42 -159.5t-145 -87.5q-18 -5 -23 14z" />
    <glyph glyph-name="ij" unicode="&#x133;" horiz-adv-x="418" 
d="M368 570q0 -23 -17 -40t-41 -17t-40.5 16.5t-16.5 40.5q0 23 16.5 39.5t39.5 16.5q25 0 42 -16.5t17 -39.5zM357 -54q0 -58 -30 -94.5t-94 -36.5q-32 0 -56 6q-17 6 -15 20l10 53q3 14 22 10q16 -2 26 -2q43 1 43 55v472q0 12 13 12h69q12 0 12 -12v-483zM167 570
q0 -22 -17.5 -39t-40.5 -17q-24 0 -41 16t-17 40q0 23 17 39.5t40 16.5q24 0 41.5 -16.5t17.5 -39.5zM155 12q2 -12 -12 -12h-70q-13 0 -13 12v416q0 13 12 13h70q13 0 13 -13v-416z" />
    <glyph glyph-name="Jcircumflex" unicode="&#x134;" horiz-adv-x="289" 
d="M9 -121l-16 51q-5 17 11 23q63 25 90.5 58.5t27.5 101.5v491q0 13 15 13h67q15 0 15 -13v-492q0 -99 -42 -159.5t-145 -87.5q-18 -5 -23 14zM312 685q11 -13 0 -21l-22 -19q-6 -4 -21 4l-100 67l-98 -68q-12 -8 -22 -1l-20 19q-11 9 -1 21l96 94q9 11 21 11h50
q13 0 22 -11z" />
    <glyph glyph-name="jcircumflex" unicode="&#x135;" horiz-adv-x="275" 
d="M182 -54q0 -58 -30 -94.5t-94 -36.5q-32 0 -56 6q-17 6 -15 20l10 53q3 14 22 10q16 -2 26 -2q43 1 43 55v472q0 12 13 12h69q12 0 12 -12v-483zM281 526q11 -13 0 -21l-23 -14q-13 -7 -22 2l-99 93l-99 -94q-11 -9 -22 -1l-22 14q-11 9 -1 21l98 124q9 11 21 11h50
q13 0 22 -11z" />
    <glyph glyph-name="Kcommaaccent" unicode="&#x136;" horiz-adv-x="517" 
d="M268 295q-50 0 -77.5 -30t-27.5 -77q0 -30 -0.5 -88t-0.5 -87q0 -13 -11 -13h-75q-13 0 -13 12v592q0 13 14 13h73q12 0 12 -12v-239h2l2 -1l198 242q8 10 20 10h77q12 0 12 -9q0 -5 -2 -7l-186 -230l2 -4q5 1 16 1q144 0 155 -166q4 -59 14 -189q0 -13 -12 -13h-70
q-13 0 -13 12l-14 202q-12 81 -95 81zM314 -49l-48 -148q-5 -17 -22 -17h-27q-16 0 -16 24l11 145q0 22 22 22h62q26 0 18 -26z" />
    <glyph glyph-name="kcommaaccent" unicode="&#x137;" horiz-adv-x="463" 
d="M424 18q0 -18 -15 -18h-65q-14 0 -16 15l-5 91q-4 44 -21 68.5t-64 24.5q-44 0 -65.5 -25.5t-21.5 -66.5v-95q0 -12 -12 -12h-71q-12 0 -12 12v612q0 13 12 13h70q12 0 12 -12v-353h2l2 -1l146 162q7 7 20 7h82q8 0 10.5 -4.5t0.5 -10t-6 -9.5l-132 -144q28 0 50.5 -7
t37.5 -16.5t26 -28.5t16.5 -33.5t9.5 -40.5t5 -41t2 -45t2 -42zM284 -67l-48 -148q-5 -17 -22 -17h-27q-16 0 -16 24l11 145q0 22 22 22h62q26 0 18 -26z" />
    <glyph glyph-name="kgreenlandic" unicode="&#x138;" horiz-adv-x="463" 
d="M419 111l5 -93q1 -18 -15 -18h-65q-14 0 -16 15l-5 91q-3 49 -23.5 71t-61.5 22q-43 0 -65 -26t-22 -66v-95q0 -12 -12 -12h-71q-12 0 -12 12v417q0 12 12 12h70q12 0 12 -12v-157h2l2 -1l146 162q7 7 20 7h86q10 0 10 -9q0 -5 -4 -10l-137 -149q137 0 144 -161z" />
    <glyph glyph-name="Lacute" unicode="&#x139;" horiz-adv-x="439" 
d="M420 15q0 -15 -13 -15h-326q-15 0 -15 14v590q0 13 14 13h69q14 0 14 -12v-519h244q13 0 13 -13v-58zM262 739q11 -15 -6 -23l-146 -73q-12 -5 -21 8l-16 23q-9 10 3 19l126 95q14 12 23 0z" />
    <glyph glyph-name="lacute" unicode="&#x13a;" horiz-adv-x="234" 
d="M62 627q0 10 9 10h76q10 0 10 -9v-495q0 -31 9 -41.5t33 -10.5h12q11 0 11 -17v-54q0 -14 -14 -16q-10 -2 -31 -2q-65 0 -90 32t-25 103v500zM262 775q11 -15 -6 -23l-146 -73q-12 -5 -21 8l-16 23q-9 10 3 19l126 95q14 12 23 0z" />
    <glyph glyph-name="Lcommaaccent" unicode="&#x13b;" horiz-adv-x="439" 
d="M420 15q0 -15 -13 -15h-326q-15 0 -15 14v590q0 13 14 13h69q14 0 14 -12v-519h244q13 0 13 -13v-58zM288 -67l-48 -148q-5 -17 -22 -17h-27q-16 0 -16 24l11 145q0 22 22 22h62q26 0 18 -26z" />
    <glyph glyph-name="lcommaaccent" unicode="&#x13c;" horiz-adv-x="234" 
d="M62 627q0 10 9 10h76q10 0 10 -9v-495q0 -31 9 -41.5t33 -10.5h12q11 0 11 -17v-54q0 -14 -14 -16q-10 -2 -31 -2q-65 0 -90 32t-25 103v500zM170 -67l-48 -148q-5 -17 -22 -17h-27q-16 0 -16 24l11 145q0 22 22 22h62q26 0 18 -26z" />
    <glyph glyph-name="Lcaron" unicode="&#x13d;" horiz-adv-x="439" 
d="M420 15q0 -15 -13 -15h-326q-15 0 -15 14v590q0 13 14 13h69q14 0 14 -12v-519h244q13 0 13 -13v-58zM431 1416l-95 -96q-9 -11 -22 -11h-50q-12 0 -21 11l-96 94q-10 12 1 21l20 19q10 7 22 -1l100 -66l98 65q14 9 21 4l22 -19q11 -8 0 -21zM372 591l-48 -148
q-5 -17 -22 -17h-27q-16 0 -16 24l11 145q0 22 22 22h62q26 0 18 -26z" />
    <glyph glyph-name="lcaron" unicode="&#x13e;" horiz-adv-x="329" 
d="M62 627q0 10 9 10h76q10 0 10 -9v-495q0 -31 9 -41.5t33 -10.5h12q11 0 11 -17v-54q0 -14 -14 -16q-10 -2 -31 -2q-65 0 -90 32t-25 103v500zM326 611l-48 -148q-5 -17 -22 -17h-27q-16 0 -16 24l11 145q0 22 22 22h62q26 0 18 -26z" />
    <glyph glyph-name="Ldot" unicode="&#x13f;" horiz-adv-x="439" 
d="M420 15q0 -15 -13 -15h-326q-15 0 -15 14v590q0 13 14 13h69q14 0 14 -12v-519h244q13 0 13 -13v-58zM344 306q0 -22 -15.5 -37.5t-37.5 -15.5q-23 0 -38.5 15t-15.5 37t15.5 37.5t37.5 15.5t38 -15.5t16 -36.5z" />
    <glyph glyph-name="ldot" unicode="&#x140;" horiz-adv-x="322" 
d="M314 326q0 -22 -15.5 -37.5t-37.5 -15.5q-23 0 -38.5 15t-15.5 37t15.5 37.5t37.5 15.5t38 -15.5t16 -36.5zM62 627q0 10 9 10h76q10 0 10 -9v-495q0 -31 9 -41.5t33 -10.5h12q11 0 11 -17v-54q0 -14 -14 -16q-10 -2 -31 -2q-65 0 -90 32t-25 103v500z" />
    <glyph glyph-name="Lslash" unicode="&#x141;" horiz-adv-x="455" 
d="M191 333l85 51q11 6 17 -5l19 -33q7 -11 -5 -17l-116 -69v-174h242q15 0 15 -13v-58q0 -15 -14 -15h-326q-15 0 -15 14v189l-50 -29q-11 -6 -17 5l-19 32q-6 11 4 17l82 48v327q0 14 14 14h69q15 0 15 -13v-271z" />
    <glyph glyph-name="lslash" unicode="&#x142;" horiz-adv-x="307" 
d="M100 627q0 10 9 10h75q10 0 10 -9v-273l76 45q9 6 15 -3l20 -34q6 -10 -4 -14l-107 -63v-154q0 -31 9 -41.5t33 -10.5h12q11 0 11 -16v-55q0 -11 -9 -14t-35 -3q-64 0 -88.5 30t-26.5 98v111l-62 -37q-12 -7 -15 3l-20 34q-5 9 4 14l93 55v327z" />
    <glyph glyph-name="Nacute" unicode="&#x143;" horiz-adv-x="534" 
d="M474 20q0 -20 -21 -20h-44q-21 0 -29 15l-221 396l-3 -1v-396q0 -14 -14 -14h-65q-15 0 -15 13v580q0 13 4.5 18.5t17.5 5.5h43q19 0 30 -17l221 -399l2 1v402q0 13 15 13h63q16 0 16 -13v-584zM415 739q11 -15 -6 -23l-146 -73q-12 -5 -21 8l-16 23q-9 10 3 19l126 95
q14 12 23 0z" />
    <glyph glyph-name="nacute" unicode="&#x144;" horiz-adv-x="471" 
d="M417 12q0 -12 -12 -12h-70q-13 0 -13 12v265q0 40 -21.5 63.5t-64.5 23.5q-37 0 -62 -24.5t-25 -61.5v-266q0 -12 -13 -12h-69q-13 0 -13 12v416q0 13 12 13h69q11 0 11 -12v-22l1 -1h2q43 40 113 40q74 0 114.5 -46t40.5 -122v-266zM326 610l-107 -120q-10 -11 -23 -3
l-24 15q-11 7 -4 19l81 135q10 16 22 9l52 -32q16 -10 3 -23z" />
    <glyph glyph-name="Ncommaaccent" unicode="&#x145;" horiz-adv-x="534" 
d="M474 20q0 -20 -21 -20h-44q-21 0 -29 15l-221 396l-3 -1v-396q0 -14 -14 -14h-65q-15 0 -15 13v580q0 13 4.5 18.5t17.5 5.5h43q19 0 30 -17l221 -399l2 1v402q0 13 15 13h63q16 0 16 -13v-584zM316 -47l-48 -148q-5 -17 -22 -17h-27q-16 0 -16 24l11 145q0 22 22 22h62
q26 0 18 -26z" />
    <glyph glyph-name="ncommaaccent" unicode="&#x146;" horiz-adv-x="471" 
d="M417 12q0 -12 -12 -12h-70q-13 0 -13 12v265q0 40 -21.5 63.5t-64.5 23.5q-37 0 -62 -24.5t-25 -61.5v-266q0 -12 -13 -12h-69q-13 0 -13 12v416q0 13 12 13h69q11 0 11 -12v-22l1 -1h2q43 40 113 40q74 0 114.5 -46t40.5 -122v-266zM293 -67l-48 -148q-5 -17 -22 -17
h-27q-16 0 -16 24l11 145q0 22 22 22h62q26 0 18 -26z" />
    <glyph glyph-name="Ncaron" unicode="&#x147;" horiz-adv-x="534" 
d="M474 20q0 -20 -21 -20h-44q-21 0 -29 15l-221 396l-3 -1v-396q0 -14 -14 -14h-65q-15 0 -15 13v580q0 13 4.5 18.5t17.5 5.5h43q19 0 30 -17l221 -399l2 1v402q0 13 15 13h63q16 0 16 -13v-584zM405 760l-95 -96q-9 -11 -22 -11h-50q-12 0 -21 11l-96 94q-10 12 1 21
l20 19q10 7 22 -1l100 -66l98 65q14 9 21 4l22 -19q11 -8 0 -21z" />
    <glyph glyph-name="ncaron" unicode="&#x148;" horiz-adv-x="471" 
d="M417 12q0 -12 -12 -12h-70q-13 0 -13 12v265q0 40 -21.5 63.5t-64.5 23.5q-37 0 -62 -24.5t-25 -61.5v-266q0 -12 -13 -12h-69q-13 0 -13 12v416q0 13 12 13h69q11 0 11 -12v-22l1 -1h2q43 40 113 40q74 0 114.5 -46t40.5 -122v-266zM373 627l-97 -124q-9 -11 -22 -11
h-50q-12 0 -21 11l-98 124q-10 12 1 21l22 14q11 8 22 -1l100 -92l98 91q9 9 22 2l23 -14q11 -8 0 -21z" />
    <glyph glyph-name="napostrophe" unicode="&#x149;" horiz-adv-x="540" 
d="M476 12q0 -12 -12 -12h-70q-13 0 -13 12v265q0 40 -21.5 63.5t-64.5 23.5q-37 0 -62 -24.5t-25 -61.5v-266q0 -12 -13 -12h-69q-13 0 -13 12v416q0 13 12 13h69q11 0 11 -12v-22q1 0 3 -1q43 40 113 40q74 0 114.5 -46t40.5 -122v-266zM118 583l-48 -148q-5 -17 -22 -17
h-27q-16 0 -16 24l11 145q0 22 22 22h62q26 0 18 -26z" />
    <glyph glyph-name="Eng" unicode="&#x14a;" horiz-adv-x="532" 
d="M471 -52q0 -133 -137 -133q-33 0 -60 10q-11 4 -9 17l8 45q2 11 19 11q21 -3 39 -3q50 0 50 50v49q0 13 -5 30q-21 43 -38 74l-179 309h-3v-394q0 -13 -15 -13h-64q-16 0 -16 13v590q0 14 15 14h51q20 0 29 -17l218 -391h3v394q0 14 15 14h64q15 0 15 -13v-656z" />
    <glyph glyph-name="eng" unicode="&#x14b;" horiz-adv-x="471" 
d="M417 -54q0 -132 -140 -132q-37 0 -56 10q-10 5 -7 18l7 40q3 14 18 12q26 -2 29 -2q31 0 42.5 14t11.5 47v324q0 40 -21.5 63.5t-64.5 23.5q-37 0 -62 -24.5t-25 -61.5v-266q0 -12 -13 -12h-69q-13 0 -13 12v416q0 13 12 13h69q11 0 11 -12v-22l1 -1h2q43 40 113 40
q74 0 114.5 -46t40.5 -122v-332z" />
    <glyph glyph-name="Omacron" unicode="&#x14c;" horiz-adv-x="513" 
d="M454 170q0 -81 -55 -128.5t-142 -47.5t-143 47t-56 129v279q0 81 56 129t142 48q85 0 141.5 -47.5t56.5 -129.5v-279zM355 172v276q0 39 -26.5 65t-71.5 26t-72.5 -26t-27.5 -65v-276q0 -41 26.5 -66t72.5 -25q45 0 72 25t27 66zM369 682q0 -15 -15 -15h-209
q-16 0 -16 15v41q0 15 15 15h209q16 0 16 -14v-42z" />
    <glyph glyph-name="omacron" unicode="&#x14d;" horiz-adv-x="458" 
d="M410 164q0 -81 -48 -125.5t-133 -44.5t-133.5 44.5t-48.5 123.5v117q0 76 50 123t131 47q84 0 133 -44.5t49 -124.5v-116zM142 278v-114q0 -40 22 -64t64 -24q40 0 63.5 24t23.5 64v114q0 40 -22.5 64t-63.5 24t-64 -24t-23 -64zM352 530q0 -15 -15 -15h-209
q-16 0 -16 15v41q0 15 15 15h209q16 0 16 -14v-42z" />
    <glyph glyph-name="Obreve" unicode="&#x14e;" horiz-adv-x="513" 
d="M454 170q0 -81 -55 -128.5t-142 -47.5t-143 47t-56 129v279q0 81 56 129t142 48q85 0 141.5 -47.5t56.5 -129.5v-279zM355 172v276q0 39 -26.5 65t-71.5 26t-72.5 -26t-27.5 -65v-276q0 -41 26.5 -66t72.5 -25q45 0 72 25t27 66zM247 714q39 0 59 58q4 12 17 12h34
q16 0 14 -16q-6 -53 -40 -89.5t-84 -36.5q-49 0 -83.5 37t-40.5 89q-2 16 14 16h34q13 0 17 -12q20 -58 59 -58z" />
    <glyph glyph-name="obreve" unicode="&#x14f;" horiz-adv-x="458" 
d="M410 164q0 -81 -48 -125.5t-133 -44.5t-133.5 44.5t-48.5 123.5v117q0 76 50 123t131 47q84 0 133 -44.5t49 -124.5v-116zM142 278v-114q0 -40 22 -64t64 -24q40 0 63.5 24t23.5 64v114q0 40 -22.5 64t-63.5 24t-64 -24t-23 -64zM231 563q41 0 61 58q4 12 15 12h34
q16 0 14 -16q-6 -53 -40 -89.5t-84 -36.5q-49 0 -83.5 37t-40.5 89q-2 16 14 16h34q13 0 17 -12q20 -58 59 -58z" />
    <glyph glyph-name="Ohungarumlaut" unicode="&#x150;" horiz-adv-x="513" 
d="M454 170q0 -81 -55 -128.5t-142 -47.5t-143 47t-56 129v279q0 81 56 129t142 48q85 0 141.5 -47.5t56.5 -129.5v-279zM355 172v276q0 39 -26.5 65t-71.5 26t-72.5 -26t-27.5 -65v-276q0 -41 26.5 -66t72.5 -25q45 0 72 25t27 66zM468 748q11 -14 -4 -24l-138 -82
q-12 -8 -23 4l-18 21q-10 10 1 19l118 105q13 13 23 2zM306 748q11 -14 -4 -24l-138 -82q-12 -8 -23 4l-18 21q-10 10 1 19l118 105q13 13 23 2z" />
    <glyph glyph-name="ohungarumlaut" unicode="&#x151;" horiz-adv-x="458" 
d="M410 164q0 -81 -48 -125.5t-133 -44.5t-133.5 44.5t-48.5 123.5v117q0 76 50 123t131 47q84 0 133 -44.5t49 -124.5v-116zM142 278v-114q0 -40 22 -64t64 -24q40 0 63.5 24t23.5 64v114q0 40 -22.5 64t-63.5 24t-64 -24t-23 -64zM126 521l81 135q10 16 22 8l52 -31
q15 -9 3 -24l-107 -119q-10 -11 -23 -3l-24 15q-12 8 -4 19zM260 521l81 135q10 16 22 8l52 -31q15 -9 3 -24l-107 -119q-10 -11 -23 -3l-24 15q-12 8 -4 19z" />
    <glyph glyph-name="OE" unicode="&#x152;" horiz-adv-x="687" 
d="M655 14q0 -14 -14 -14h-333q-26 -6 -57 -6q-88 0 -141.5 45.5t-53.5 128.5v284q0 80 54 126.5t140 46.5q34 0 66 -8h320q15 0 15 -14v-57q0 -15 -14 -15h-246v-172h205q14 0 14 -15v-58q0 -14 -14 -14h-205v-186h250q14 0 14 -13v-59zM251 80q16 0 42 8v444q-23 7 -41 7
q-44 0 -71 -25t-27 -64v-281q0 -40 26 -64.5t71 -24.5z" />
    <glyph glyph-name="oe" unicode="&#x153;" horiz-adv-x="718" 
d="M677 227q0 -12 -7 -19.5t-17 -7.5h-244v-21q0 -103 88 -103q50 0 82 42q10 13 13 14.5t15 -2.5l45 -29q18 -13 7 -28q-49 -79 -161 -79q-92 0 -135 55h-4q-48 -55 -134 -55q-82 0 -131 45t-49 123v117q0 79 49 124t131 45q91 0 132 -53h6q21 25 58.5 39t74.5 14
q83 0 132 -48.5t49 -125.5v-47zM582 269v17q0 34 -23.5 57.5t-61.5 23.5q-37 0 -61 -23.5t-24 -58.5v-16h170zM311 163v108q0 43 -23 68.5t-63 25.5q-38 0 -62 -24.5t-24 -63.5v-107q0 -42 22.5 -68t63.5 -26q38 0 62 24t24 63z" />
    <glyph glyph-name="Racute" unicode="&#x154;" horiz-adv-x="498" 
d="M452 441q0 -48 -25 -94.5t-64 -78.5q-6 -6 1 -21l106 -225q10 -22 -12 -22h-64q-16 0 -23 5t-12 16l-102 224h-96q0 -39 0.5 -116t0.5 -115q0 -14 -15 -14h-68q-16 0 -16 13v590q0 14 15 14h187q90 0 138.5 -46.5t48.5 -129.5zM254 531h-93v-201h110q33 0 57.5 37
t24.5 78q0 36 -23.5 61t-75.5 25zM367 739q11 -15 -6 -23l-146 -73q-12 -5 -21 8l-16 23q-9 10 3 19l126 95q14 12 23 0z" />
    <glyph glyph-name="racute" unicode="&#x155;" horiz-adv-x="305" 
d="M69 440h60q14 0 14 -11v-48h3q18 29 50.5 48t69.5 19q43 0 43 -15q0 -5 -1 -8l-14 -64q-3 -13 -11 -13q-6 0 -19 2t-18 2q-94 0 -94 -109v-231q0 -12 -12 -12h-70q-13 0 -13 12v416q0 12 12 12zM276 610l-107 -120q-10 -11 -23 -3l-24 15q-11 7 -4 19l81 135q10 16 22 9
l52 -32q16 -10 3 -23z" />
    <glyph glyph-name="Rcommaaccent" unicode="&#x156;" horiz-adv-x="498" 
d="M452 441q0 -48 -25 -94.5t-64 -78.5q-6 -6 1 -21l106 -225q10 -22 -12 -22h-64q-16 0 -23 5t-12 16l-102 224h-96q0 -39 0.5 -116t0.5 -115q0 -14 -15 -14h-68q-16 0 -16 13v590q0 14 15 14h187q90 0 138.5 -46.5t48.5 -129.5zM254 531h-93v-201h110q33 0 57.5 37
t24.5 78q0 36 -23.5 61t-75.5 25zM298 -67l-48 -148q-5 -17 -22 -17h-27q-16 0 -16 24l11 145q0 22 22 22h62q26 0 18 -26z" />
    <glyph glyph-name="rcommaaccent" unicode="&#x157;" horiz-adv-x="318" 
d="M69 440h60q14 0 14 -11v-48h3q18 29 50.5 48t69.5 19q43 0 43 -15q0 -5 -1 -8l-14 -64q-3 -13 -11 -13q-6 0 -19 2t-18 2q-94 0 -94 -109v-231q0 -12 -12 -12h-70q-13 0 -13 12v416q0 12 12 12zM154 -67l-48 -148q-5 -17 -22 -17h-27q-16 0 -16 24l11 145q0 22 22 22h62
q26 0 18 -26z" />
    <glyph glyph-name="Rcaron" unicode="&#x158;" horiz-adv-x="498" 
d="M452 441q0 -48 -25 -94.5t-64 -78.5q-6 -6 1 -21l106 -225q10 -22 -12 -22h-64q-16 0 -23 5t-12 16l-102 224h-96q0 -39 0.5 -116t0.5 -115q0 -14 -15 -14h-68q-16 0 -16 13v590q0 14 15 14h187q90 0 138.5 -46.5t48.5 -129.5zM254 531h-93v-201h110q33 0 57.5 37
t24.5 78q0 36 -23.5 61t-75.5 25zM379 760l-95 -96q-9 -11 -22 -11h-50q-12 0 -21 11l-96 94q-10 12 1 21l20 19q10 7 22 -1l100 -66l98 65q14 9 21 4l22 -19q11 -8 0 -21z" />
    <glyph glyph-name="rcaron" unicode="&#x159;" horiz-adv-x="305" 
d="M69 440h60q14 0 14 -11v-48h3q18 29 50.5 48t69.5 19q43 0 43 -15q0 -5 -1 -8l-14 -64q-3 -13 -11 -13q-6 0 -19 2t-18 2q-94 0 -94 -109v-231q0 -12 -12 -12h-70q-13 0 -13 12v416q0 12 12 12zM307 627l-97 -124q-9 -11 -22 -11h-50q-12 0 -21 11l-98 124q-10 12 1 21
l22 14q11 8 22 -1l100 -92l98 91q9 9 22 2l23 -14q11 -8 0 -21z" />
    <glyph glyph-name="Sacute" unicode="&#x15a;" horiz-adv-x="470" 
d="M436 174q0 -82 -59.5 -130.5t-153.5 -48.5q-127 0 -191 76q-12 13 1 26l38 39q10 10 27 -4q53 -51 123 -51q55 0 85.5 24t30.5 66q0 22 -9 38.5t-29.5 29t-37 19.5t-46.5 18q-36 13 -60.5 24.5t-53 31.5t-43 50.5t-14.5 69.5q0 79 53.5 126t133.5 47q103 0 172 -48
q6 -5 7.5 -10t0 -7.5l-5.5 -9.5l-25 -43q-8 -14 -28 -4q-64 36 -113 36q-97 0 -97 -88q0 -18 9 -32.5t29 -26t33 -17.5t40 -16q38 -14 54 -20.5t46.5 -23.5t44.5 -33.5t26 -44.5t12 -63zM345 739q11 -15 -6 -23l-146 -73q-12 -5 -21 8l-16 23q-9 10 3 19l126 95q14 12 23 0z
" />
    <glyph glyph-name="sacute" unicode="&#x15b;" horiz-adv-x="402" 
d="M366 124q0 -58 -45.5 -93.5t-118.5 -35.5q-56 0 -101 23t-67 71q-2 6 -2 8q0 6 6 9l52 26q11 5 19 -6q37 -54 98 -54q29 0 47.5 13t18.5 36q0 20 -13 31t-41 22l-64 22q-110 38 -110 122q0 61 45 94.5t111 34.5q95 0 151 -56q9 -9 0 -18l-33 -43q-5 -5 -9 -5q-6 0 -12 5
q-48 37 -95 37q-26 0 -46 -11t-20 -33q0 -32 54 -51l29 -10l32 -11t28 -11.5t28.5 -15l21.5 -17.5t20.5 -23t10.5 -26.5t5 -33.5zM307 610l-107 -120q-10 -11 -23 -3l-24 15q-11 7 -4 19l81 135q10 16 22 9l52 -32q16 -10 3 -23z" />
    <glyph glyph-name="Scircumflex" unicode="&#x15c;" horiz-adv-x="470" 
d="M436 174q0 -82 -59.5 -130.5t-153.5 -48.5q-127 0 -191 76q-12 13 1 26l38 39q10 10 27 -4q53 -51 123 -51q55 0 85.5 24t30.5 66q0 22 -9 38.5t-29.5 29t-37 19.5t-46.5 18q-36 13 -60.5 24.5t-53 31.5t-43 50.5t-14.5 69.5q0 79 53.5 126t133.5 47q103 0 172 -48
q6 -5 7.5 -10t0 -7.5l-5.5 -9.5l-25 -43q-8 -14 -28 -4q-64 36 -113 36q-97 0 -97 -88q0 -18 9 -32.5t29 -26t33 -17.5t40 -16q38 -14 54 -20.5t46.5 -23.5t44.5 -33.5t26 -44.5t12 -63zM378 685q11 -13 0 -21l-22 -19q-6 -4 -21 4l-100 67l-98 -68q-12 -8 -22 -1l-20 19
q-11 9 -1 21l96 94q9 11 21 11h50q13 0 22 -11z" />
    <glyph glyph-name="scircumflex" unicode="&#x15d;" horiz-adv-x="402" 
d="M366 124q0 -58 -45.5 -93.5t-118.5 -35.5q-56 0 -101 23t-67 71q-2 6 -2 8q0 6 6 9l52 26q11 5 19 -6q37 -54 98 -54q29 0 47.5 13t18.5 36q0 20 -13 31t-41 22l-64 22q-110 38 -110 122q0 61 45 94.5t111 34.5q95 0 151 -56q9 -9 0 -18l-33 -43q-5 -5 -9 -5q-6 0 -12 5
q-48 37 -95 37q-26 0 -46 -11t-20 -33q0 -32 54 -51l29 -10l32 -11t28 -11.5t28.5 -15l21.5 -17.5t20.5 -23t10.5 -26.5t5 -33.5zM351 526q11 -13 0 -21l-23 -14q-13 -7 -22 2l-99 93l-99 -94q-11 -9 -22 -1l-22 14q-11 9 -1 21l98 124q9 11 21 11h50q13 0 22 -11z" />
    <glyph glyph-name="Scedilla" unicode="&#x15e;" horiz-adv-x="470" 
d="M323 -123q0 -32 -26 -56.5t-71 -24.5q-46 0 -80 23q-10 6 -2 16l18 23q7 7 14 3q26 -16 48 -16q20 0 31 9t11 22q0 30 -35 30h-29q-18 0 -26.5 11t-4.5 27q4 20 14 53q-101 12 -153 74q-12 13 1 26l38 39q10 10 27 -4q53 -51 123 -51q55 0 85.5 24t30.5 66q0 22 -9 38.5
t-29.5 29t-37 19.5t-46.5 18q-36 13 -60.5 24.5t-53 31.5t-43 50.5t-14.5 69.5q0 79 53.5 126t133.5 47q103 0 172 -48q6 -5 7.5 -10t0 -7.5l-5.5 -9.5l-25 -43q-8 -14 -28 -4q-64 36 -113 36q-97 0 -97 -88q0 -18 9 -32.5t29 -26t33 -17.5t40 -16q38 -14 54 -20.5
t46.5 -23.5t44.5 -33.5t26 -44.5t12 -63q0 -79 -55.5 -127t-144.5 -52l-11 -41q5 1 17 1q39 0 60 -21.5t21 -56.5z" />
    <glyph glyph-name="scedilla" unicode="&#x15f;" horiz-adv-x="402" 
d="M300 -123q0 -32 -26 -56.5t-71 -24.5q-46 0 -80 23q-10 6 -2 16l18 23q7 7 14 3q26 -16 48 -16q20 0 31 9t11 22q0 30 -35 30h-29q-18 0 -26.5 11t-4.5 27l14 54q-93 13 -128 91q-2 6 -2 8q0 6 6 9l52 26q11 5 19 -6q37 -54 98 -54q29 0 47.5 13t18.5 36q0 20 -13 31
t-41 22l-64 22q-110 38 -110 122q0 61 45 94.5t111 34.5q95 0 151 -56q9 -9 0 -18l-33 -43q-5 -5 -9 -5q-6 0 -12 5q-48 37 -95 37q-26 0 -46 -11t-20 -33q0 -32 54 -51l29 -10l32 -11t28 -11.5t28.5 -15l21.5 -17.5t20.5 -23t10.5 -26.5t5 -33.5q0 -55 -42 -90.5
t-111 -37.5l-11 -42q5 1 17 1q39 0 60 -21.5t21 -56.5z" />
    <glyph glyph-name="Scaron" unicode="&#x160;" horiz-adv-x="470" 
d="M436 174q0 -82 -59.5 -130.5t-153.5 -48.5q-127 0 -191 76q-12 13 1 26l38 39q10 10 27 -4q53 -51 123 -51q55 0 85.5 24t30.5 66q0 22 -9 38.5t-29.5 29t-37 19.5t-46.5 18q-36 13 -60.5 24.5t-53 31.5t-43 50.5t-14.5 69.5q0 79 53.5 126t133.5 47q103 0 172 -48
q6 -5 7.5 -10t0 -7.5l-5.5 -9.5l-25 -43q-8 -14 -28 -4q-64 36 -113 36q-97 0 -97 -88q0 -18 9 -32.5t29 -26t33 -17.5t40 -16q38 -14 54 -20.5t46.5 -23.5t44.5 -33.5t26 -44.5t12 -63zM378 760l-95 -96q-9 -11 -22 -11h-50q-12 0 -21 11l-96 94q-10 12 1 21l20 19
q10 7 22 -1l100 -66l98 65q14 9 21 4l22 -19q11 -8 0 -21z" />
    <glyph glyph-name="scaron" unicode="&#x161;" horiz-adv-x="402" 
d="M366 124q0 -58 -45.5 -93.5t-118.5 -35.5q-56 0 -101 23t-67 71q-2 6 -2 8q0 6 6 9l52 26q11 5 19 -6q37 -54 98 -54q29 0 47.5 13t18.5 36q0 20 -13 31t-41 22l-64 22q-110 38 -110 122q0 61 45 94.5t111 34.5q95 0 151 -56q9 -9 0 -18l-33 -43q-5 -5 -9 -5q-6 0 -12 5
q-48 37 -95 37q-26 0 -46 -11t-20 -33q0 -32 54 -51l29 -10l32 -11t28 -11.5t28.5 -15l21.5 -17.5t20.5 -23t10.5 -26.5t5 -33.5zM348 627l-97 -124q-9 -11 -22 -11h-50q-12 0 -21 11l-98 124q-10 12 1 21l22 14q11 8 22 -1l100 -92l98 91q9 9 22 2l23 -14q11 -8 0 -21z" />
    <glyph glyph-name="Tcommaaccent" unicode="&#x162;" horiz-adv-x="429" 
d="M412 546q0 -15 -13 -15h-138v-517q0 -14 -15 -14h-69q-15 0 -15 13l1 518h-133q-14 0 -14 15v57q0 14 14 14h369q13 0 13 -13v-58zM249 -67l-48 -148q-5 -17 -22 -17h-27q-16 0 -16 24l11 145q0 22 22 22h62q26 0 18 -26z" />
    <glyph glyph-name="tcommaaccent" unicode="&#x163;" horiz-adv-x="344" 
d="M306 26q2 -15 -14 -21q-30 -11 -87 -11q-125 0 -125 125v244h-50q-14 0 -14 12v53q0 13 12 13h52v93q0 12 12 15l65 15q16 4 16 -11v-112h98q13 0 13 -12v-54q0 -12 -13 -12h-98v-226q0 -56 47 -56q13 0 52 6q22 5 25 -13zM203 -67l-48 -148q-5 -17 -22 -17h-27
q-16 0 -16 24l11 145q0 22 22 22h62q26 0 18 -26z" />
    <glyph glyph-name="Tcaron" unicode="&#x164;" horiz-adv-x="429" 
d="M412 546q0 -15 -13 -15h-138v-517q0 -14 -15 -14h-69q-15 0 -15 13l1 518h-133q-14 0 -14 15v57q0 14 14 14h369q13 0 13 -13v-58zM356 760l-95 -96q-9 -11 -22 -11h-50q-12 0 -21 11l-96 94q-10 12 1 21l20 19q10 7 22 -1l100 -66l98 65q14 9 21 4l22 -19q11 -8 0 -21z
" />
    <glyph glyph-name="tcaron" unicode="&#x165;" horiz-adv-x="360" 
d="M309 26q2 -15 -14 -21q-30 -11 -87 -11q-125 0 -125 125v244h-50q-14 0 -14 12v53q0 13 12 13h52v93q0 12 12 15l65 15q16 4 16 -11v-112h98q13 0 13 -12v-54q0 -12 -13 -12h-98v-226q0 -56 47 -56q13 0 52 6q22 5 25 -13zM426 1483l-95 -96q-9 -11 -22 -11h-50
q-12 0 -21 11l-96 94q-10 12 1 21l20 19q10 7 22 -1l100 -66l98 65q14 9 21 4l22 -19q11 -8 0 -21zM358 671l-48 -148q-5 -17 -22 -17h-27q-16 0 -16 24l11 145q0 22 22 22h62q26 0 18 -26z" />
    <glyph glyph-name="Tbar" unicode="&#x166;" horiz-adv-x="417" 
d="M359 366q13 0 13 -13v-33q0 -14 -12 -14h-105v-292q0 -14 -14 -14h-69q-15 0 -15 13v293h-102q-12 0 -12 14v33q0 13 13 13h101v165h-131q-14 0 -14 15v57q0 14 14 14h366q14 0 14 -13v-58q0 -15 -14 -15h-137v-165h104z" />
    <glyph glyph-name="tbar" unicode="&#x167;" horiz-adv-x="322" 
d="M188 553v-112h98q13 0 13 -12v-54q0 -12 -13 -12h-98v-78h98q13 0 13 -11v-35q0 -12 -13 -12h-98v-90q0 -56 47 -56q13 0 52 6q22 5 25 -13l9 -48q2 -15 -14 -21q-30 -11 -87 -11q-125 0 -125 125v108h-59q-12 0 -12 11v35q0 12 11 12h60v78h-58q-13 0 -13 12v53
q0 13 12 13h59v93q0 12 13 15l64 15q16 4 16 -11z" />
    <glyph glyph-name="Utilde" unicode="&#x168;" horiz-adv-x="514" 
d="M157 167q0 -37 28 -61.5t71 -24.5q45 0 72.5 25t27.5 63v435q0 13 15 13h68q16 0 16 -12v-438q0 -80 -57 -126.5t-141 -46.5t-141.5 46.5t-57.5 126.5v437q0 13 15 13h69q15 0 15 -12v-438zM394 717q-15 -29 -38.5 -44t-46.5 -15t-61 16.5t-56 16.5q-19 0 -37 -27
q-8 -9 -21 0l-26 19q-8 7 -2 19q13 26 36 42t49 16q22 0 61 -17.5t54 -17.5q20 0 37 27q5 10 16 4l31 -18q11 -7 4 -21z" />
    <glyph glyph-name="utilde" unicode="&#x169;" horiz-adv-x="466" 
d="M47 428q0 13 12 13h70q13 0 13 -12v-266q0 -39 21.5 -63t65.5 -24q37 0 61.5 25t24.5 62v265q0 13 13 13h69q13 0 13 -12v-417q0 -12 -12 -12h-69q-11 0 -11 11v22l-2 1q-42 -39 -114 -39q-75 0 -115 45.5t-40 121.5v266zM373 567q-15 -29 -38.5 -44t-46.5 -15
q-24 0 -62 16.5t-55 16.5q-19 0 -37 -27q-8 -9 -21 0l-26 19q-8 7 -2 19q13 26 36 42t49 16q22 0 61 -17.5t54 -17.5q20 0 37 27q5 10 16 4l31 -18q11 -7 4 -21z" />
    <glyph glyph-name="Umacron" unicode="&#x16a;" horiz-adv-x="514" 
d="M157 167q0 -37 28 -61.5t71 -24.5q45 0 72.5 25t27.5 63v435q0 13 15 13h68q16 0 16 -12v-438q0 -80 -57 -126.5t-141 -46.5t-141.5 46.5t-57.5 126.5v437q0 13 15 13h69q15 0 15 -12v-438zM373 682q0 -15 -15 -15h-209q-16 0 -16 15v41q0 15 15 15h209q16 0 16 -14v-42z
" />
    <glyph glyph-name="umacron" unicode="&#x16b;" horiz-adv-x="466" 
d="M47 428q0 13 12 13h70q13 0 13 -12v-266q0 -39 21.5 -63t65.5 -24q37 0 61.5 25t24.5 62v265q0 13 13 13h69q13 0 13 -12v-417q0 -12 -12 -12h-69q-11 0 -11 11v22l-2 1q-42 -39 -114 -39q-75 0 -115 45.5t-40 121.5v266zM351 530q0 -15 -15 -15h-209q-16 0 -16 15v41
q0 15 15 15h209q16 0 16 -14v-42z" />
    <glyph glyph-name="Ubreve" unicode="&#x16c;" horiz-adv-x="514" 
d="M157 167q0 -37 28 -61.5t71 -24.5q45 0 72.5 25t27.5 63v435q0 13 15 13h68q16 0 16 -12v-438q0 -80 -57 -126.5t-141 -46.5t-141.5 46.5t-57.5 126.5v437q0 13 15 13h69q15 0 15 -12v-438zM256 713q41 0 61 58q2 4 2.5 5.5t2 3.5t4 2.5t6.5 0.5h34q16 0 14 -16
q-6 -53 -40 -89.5t-84 -36.5q-49 0 -83.5 37t-40.5 89q-2 16 14 16h34q13 0 17 -12q20 -58 59 -58z" />
    <glyph glyph-name="ubreve" unicode="&#x16d;" horiz-adv-x="466" 
d="M47 428q0 13 12 13h70q13 0 13 -12v-266q0 -39 21.5 -63t65.5 -24q37 0 61.5 25t24.5 62v265q0 13 13 13h69q13 0 13 -12v-417q0 -12 -12 -12h-69q-11 0 -11 11v22l-2 1q-42 -39 -114 -39q-75 0 -115 45.5t-40 121.5v266zM232 563q41 0 61 58q2 4 2.5 5.5t2 3.5t4 2.5
t6.5 0.5h34q16 0 14 -16q-6 -53 -40 -89.5t-84 -36.5q-49 0 -83.5 37t-40.5 89q-2 16 14 16h34q12 0 17 -12q20 -58 59 -58z" />
    <glyph glyph-name="Uring" unicode="&#x16e;" horiz-adv-x="514" 
d="M157 167q0 -37 28 -61.5t71 -24.5q45 0 72.5 25t27.5 63v435q0 13 15 13h68q16 0 16 -12v-438q0 -80 -57 -126.5t-141 -46.5t-141.5 46.5t-57.5 126.5v437q0 13 15 13h69q15 0 15 -12v-438zM341 725q0 -36 -26.5 -62.5t-63.5 -26.5t-63.5 25.5t-26.5 61.5t26.5 63
t63.5 27t63.5 -25.5t26.5 -62.5zM294 724q0 17 -13 30.5t-30 13.5t-29 -13t-12 -31t12 -30.5t29 -12.5t30 12.5t13 30.5z" />
    <glyph glyph-name="uring" unicode="&#x16f;" horiz-adv-x="466" 
d="M47 428q0 13 12 13h70q13 0 13 -12v-266q0 -39 21.5 -63t65.5 -24q37 0 61.5 25t24.5 62v265q0 13 13 13h69q13 0 13 -12v-417q0 -12 -12 -12h-69q-11 0 -11 11v22l-2 1q-42 -39 -114 -39q-75 0 -115 45.5t-40 121.5v266zM323 563q0 -36 -26.5 -62.5t-63.5 -26.5
t-63.5 25.5t-26.5 61.5t26.5 63t63.5 27t63.5 -25.5t26.5 -62.5zM276 562q0 17 -13 30.5t-30 13.5t-29 -13t-12 -31t12 -30.5t29 -12.5t30 12.5t13 30.5z" />
    <glyph glyph-name="Uhungarumlaut" unicode="&#x170;" horiz-adv-x="514" 
d="M157 167q0 -37 28 -61.5t71 -24.5q45 0 72.5 25t27.5 63v435q0 13 15 13h68q16 0 16 -12v-438q0 -80 -57 -126.5t-141 -46.5t-141.5 46.5t-57.5 126.5v437q0 13 15 13h69q15 0 15 -12v-438zM481 748q11 -14 -4 -24l-138 -82q-12 -8 -23 4l-18 21q-10 10 1 19l118 105
q13 13 23 2zM319 748q11 -14 -4 -24l-138 -82q-12 -8 -23 4l-18 21q-10 10 1 19l118 105q13 13 23 2z" />
    <glyph glyph-name="uhungarumlaut" unicode="&#x171;" horiz-adv-x="466" 
d="M47 428q0 13 12 13h70q13 0 13 -12v-266q0 -39 21.5 -63t65.5 -24q37 0 61.5 25t24.5 62v265q0 13 13 13h69q13 0 13 -12v-417q0 -12 -12 -12h-69q-11 0 -11 11v22l-2 1q-42 -39 -114 -39q-75 0 -115 45.5t-40 121.5v266zM134 521l81 135q10 16 22 8l52 -31q15 -9 3 -24
l-107 -119q-10 -11 -23 -3l-24 15q-12 8 -4 19zM268 521l81 135q10 16 22 8l52 -31q15 -9 3 -24l-107 -119q-10 -11 -23 -3l-24 15q-12 8 -4 19z" />
    <glyph glyph-name="Uogonek" unicode="&#x172;" horiz-adv-x="514" 
d="M157 167q0 -37 28 -61.5t71 -24.5q45 0 72.5 25t27.5 63v435q0 13 15 13h68q16 0 16 -12v-438q0 -74 -50 -120t-126 -52q-42 -49 -42 -101q0 -29 26 -29t61 22q8 5 13 -1l16 -24q5 -8 -3 -14q-46 -38 -98 -38q-81 0 -81 75q0 58 49 112q-71 9 -116.5 54t-45.5 116v437
q0 13 15 13h69q15 0 15 -12v-438z" />
    <glyph glyph-name="uogonek" unicode="&#x173;" horiz-adv-x="466" 
d="M47 428q0 13 12 13h70q13 0 13 -12v-266q0 -39 21.5 -63t65.5 -24q37 0 61.5 25t24.5 62v265q0 13 13 13h69q13 0 13 -12v-417q0 -12 -12 -12h-30q-47 -50 -47 -106q0 -29 26 -29t61 22q8 5 13 -1l16 -24q5 -8 -3 -14q-46 -38 -98 -38q-81 0 -81 75q0 32 18.5 67t44.5 57
v2v22l-2 1q-42 -39 -114 -39q-75 0 -115 45.5t-40 121.5v266z" />
    <glyph glyph-name="Wcircumflex" unicode="&#x174;" horiz-adv-x="693" 
d="M683 598l-135 -586q-3 -12 -17 -12h-77q-14 0 -16 10l-63 293l-27 133l-3 1q-2 -15 -13 -68l-14 -68l-60 -291q-4 -10 -18 -10h-76q-14 0 -17 9l-137 592q-3 16 15 16h73q12 0 16 -14l61 -294l28 -148l4 -1l9 46t10.5 55t8.5 45l63 301q4 10 17 10h65q13 0 17 -12
q9 -46 35 -162l31 -139l29 -143l4 -1l27 147l60 298q1 12 16 12h68q20 0 16 -19zM482 685q11 -13 0 -21l-22 -19q-6 -4 -21 4l-100 67l-98 -68q-12 -8 -22 -1l-20 19q-11 9 -1 21l96 94q9 11 21 11h50q13 0 22 -11z" />
    <glyph glyph-name="wcircumflex" unicode="&#x175;" horiz-adv-x="630" 
d="M614 424l-113 -408q-5 -16 -21 -16h-54q-18 0 -22 14l-57 181l-34 123h-2l-37 -130l-53 -175q-4 -13 -22 -13h-54q-17 0 -22 15l-112 409q-7 17 11 17h69q18 0 21 -16l35 -152l30 -136h3l39 133l46 152q6 19 21 19h54q16 0 21 -17l54 -177l32 -110h3l23 106l40 181
q5 17 23 17h67q17 0 11 -17zM457 526q11 -13 0 -21l-23 -14q-13 -7 -22 2l-99 93l-99 -94q-11 -9 -22 -1l-22 14q-11 9 -1 21l98 124q9 11 21 11h50q13 0 22 -11z" />
    <glyph glyph-name="Ycircumflex" unicode="&#x176;" horiz-adv-x="450" 
d="M96 617q19 0 25 -14l102 -261h4l100 259q8 16 27 16h65q22 0 14 -18l-154 -356q-6 -12 -6 -25v-203q0 -15 -15 -15h-68q-15 0 -15 14v206q0 12 -5 21l-154 357q-8 19 12 19h68zM363 685q11 -13 0 -21l-22 -19q-6 -4 -21 4l-100 67l-98 -68q-12 -8 -22 -1l-20 19
q-11 9 -1 21l96 94q9 11 21 11h50q13 0 22 -11z" />
    <glyph glyph-name="ycircumflex" unicode="&#x177;" horiz-adv-x="428" 
d="M117 425l48 -191l37 -150h2l108 338q6 19 25 19h59q15 0 15 -14q0 -4 -1 -7l-190 -581q-6 -21 -30 -21h-51q-11 0 -15.5 8t0.5 18l50 156h-22q-18 0 -24 20l-113 402q-1 2 -1 6q0 13 14 13h67q17 0 22 -16zM371 526q11 -13 0 -21l-23 -14q-13 -7 -22 2l-99 93l-99 -94
q-11 -9 -22 -1l-22 14q-11 9 -1 21l98 124q9 11 21 11h50q13 0 22 -11z" />
    <glyph glyph-name="Ydieresis" unicode="&#x178;" horiz-adv-x="450" 
d="M96 617q19 0 25 -14l102 -261h4l100 259q8 16 27 16h65q22 0 14 -18l-154 -356q-6 -12 -6 -25v-203q0 -15 -15 -15h-68q-15 0 -15 14v206q0 12 -5 21l-154 357q-8 19 12 19h68zM356 700q0 -22 -15 -37.5t-38 -15.5t-38.5 15t-15.5 38q0 22 15.5 37.5t37.5 15.5t38 -15.5
t16 -37.5zM187 700q0 -22 -15.5 -37.5t-37.5 -15.5q-23 0 -38.5 15.5t-15.5 37.5t15.5 37.5t37.5 15.5t38 -15.5t16 -37.5z" />
    <glyph glyph-name="Zacute" unicode="&#x179;" horiz-adv-x="431" 
d="M402 14q0 -14 -15 -14h-331q-24 0 -24 21v30q0 16 8 32q238 446 239 448h-216q-14 0 -14 15v58q0 13 15 13h306q24 0 24 -20v-32q0 -17 -13 -43q-2 -4 -39.5 -74.5l-76 -143l-75 -139.5l-42.5 -78h239q15 0 15 -14v-59zM333 739q11 -15 -6 -23l-146 -73q-12 -5 -21 8
l-16 23q-9 10 3 19l126 95q14 12 23 0z" />
    <glyph glyph-name="zacute" unicode="&#x17a;" horiz-adv-x="415" 
d="M381 13q0 -13 -13 -13h-313q-21 0 -21 19v28q0 18 9 30l198 283h-184q-13 0 -13 12v56q0 13 12 13h285q24 0 24 -20v-34q0 -19 -8 -30l-194 -276h205q13 0 13 -13v-55zM319 610l-107 -120q-10 -11 -23 -3l-24 15q-11 7 -4 19l81 135q10 16 22 9l52 -32q16 -10 3 -23z" />
    <glyph glyph-name="Zdotaccent" unicode="&#x17b;" horiz-adv-x="431" 
d="M402 14q0 -14 -15 -14h-331q-24 0 -24 21v30q0 16 8 32q238 446 239 448h-216q-14 0 -14 15v58q0 13 15 13h306q24 0 24 -20v-32q0 -17 -13 -43q-2 -4 -39.5 -74.5l-76 -143l-75 -139.5l-42.5 -78h239q15 0 15 -14v-59zM285 712q0 -22 -15.5 -37.5t-37.5 -15.5
q-23 0 -38.5 15t-15.5 37t15.5 37.5t37.5 15.5t38 -15.5t16 -36.5z" />
    <glyph glyph-name="zdotaccent" unicode="&#x17c;" horiz-adv-x="415" 
d="M381 13q0 -13 -13 -13h-313q-21 0 -21 19v28q0 18 9 30l198 283h-184q-13 0 -13 12v56q0 13 12 13h285q24 0 24 -20v-34q0 -19 -8 -30l-194 -276h205q13 0 13 -13v-55zM274 556q0 -22 -15.5 -37.5t-37.5 -15.5q-23 0 -38.5 15t-15.5 37t15.5 37.5t37.5 15.5t38 -15.5
t16 -36.5z" />
    <glyph glyph-name="Zcaron" unicode="&#x17d;" horiz-adv-x="431" 
d="M402 14q0 -14 -15 -14h-331q-24 0 -24 21v30q0 16 8 32q238 446 239 448h-216q-14 0 -14 15v58q0 13 15 13h306q24 0 24 -20v-32q0 -17 -13 -43q-2 -4 -39.5 -74.5l-76 -143l-75 -139.5l-42.5 -78h239q15 0 15 -14v-59zM359 760l-95 -96q-9 -11 -22 -11h-50q-12 0 -21 11
l-96 94q-10 12 1 21l20 19q10 7 22 -1l100 -66l98 65q14 9 21 4l22 -19q11 -8 0 -21z" />
    <glyph glyph-name="zcaron" unicode="&#x17e;" horiz-adv-x="415" 
d="M381 13q0 -13 -13 -13h-313q-21 0 -21 19v28q0 18 9 30l198 283h-184q-13 0 -13 12v56q0 13 12 13h285q24 0 24 -20v-34q0 -19 -8 -30l-194 -276h205q13 0 13 -13v-55zM350 627l-97 -124q-9 -11 -22 -11h-50q-12 0 -21 11l-98 124q-10 12 1 21l22 14q11 8 22 -1l100 -92
l98 91q9 9 22 2l23 -14q11 -8 0 -21z" />
    <glyph glyph-name="florin" unicode="&#x192;" horiz-adv-x="486" 
d="M141 289q-17 0 -17 14v52q2 14 18 14h71l19 104q23 155 153 155q34 0 65 -11q19 -5 14 -20l-20 -56q-4 -10 -8.5 -11.5t-17.5 2.5q-79 25 -92 -61l-16 -102h71q17 0 17 -14v-52q0 -14 -16 -14h-86l-32 -222q-13 -91 -55.5 -131.5t-102.5 -40.5q-33 0 -64 11q-19 5 -15 20
l21 56q4 9 8.5 10.5t17.5 -1.5q80 -21 92 62l37 236h-62z" />
    <glyph glyph-name="AEacute" unicode="&#x1fc;" horiz-adv-x="744" 
d="M711 72v-57q0 -15 -14 -15h-333q-14 0 -14 13v131h-188l-49 -132q-4 -12 -18 -12h-66q-19 0 -12 20l220 582q6 15 23 15h432q15 0 15 -14v-57q0 -15 -14 -15h-245v-172h204q14 0 14 -15v-57q0 -14 -13 -14h-205v-187h249q14 0 14 -14zM350 531h-53l-106 -302h159v302z
M577 739q11 -15 -6 -23l-146 -73q-12 -5 -21 8l-16 23q-9 10 3 19l126 95q14 12 23 0z" />
    <glyph glyph-name="aeacute" unicode="&#x1fd;" horiz-adv-x="707" 
d="M662 227q0 -12 -7 -19.5t-17 -7.5h-244v-49q0 -75 87 -75q53 0 94 50q9 11 22 4l44 -29q16 -9 11 -18q-32 -51 -72 -70t-97 -19q-96 0 -144 57q-48 -56 -137 -56q-71 0 -116.5 41t-45.5 112q0 69 46.5 112.5t120.5 43.5q54 0 89 -29q1 1 3 1v26q0 34 -25 51.5t-67 17.5
q-45 0 -95 -24q-13 -5 -19 7l-17 47q-6 12 12 20q21 11 63 19t68 8q93 0 131 -50q50 50 131 50q82 0 131.5 -48t49.5 -126v-47zM291 150q0 34 -22 57.5t-57 23.5t-58 -23.5t-23 -57.5q0 -35 21 -58t59 -23q37 0 58.5 24.5t21.5 56.5zM568 269v17q0 34 -24.5 57.5t-62.5 23.5
q-36 0 -60.5 -24t-24.5 -58v-16h172zM490 610l-107 -120q-10 -11 -23 -3l-24 15q-11 7 -4 19l81 135q10 16 22 9l52 -32q16 -10 3 -23z" />
    <glyph glyph-name="Oslashacute" unicode="&#x1fe;" horiz-adv-x="513" 
d="M395 739q11 -15 -6 -23l-146 -73q-12 -5 -21 8l-16 23q-9 10 3 19l126 95q14 12 23 0zM454 170q0 -81 -55 -128.5t-142 -47.5q-76 0 -126 34l-16 -28q-6 -10 -15 -6l-32 17q-8 4 -2 17l22 40q-30 43 -30 102v279q0 81 56 129t142 48q74 0 126 -36l18 33q7 10 16 4l31 -16
q10 -5 3 -16l-25 -47q29 -43 29 -99v-279zM157 448v-258l177 316q-28 33 -77 33q-45 0 -72.5 -26t-27.5 -65zM355 172v250l-177 -311q27 -30 78 -30q45 0 72 25t27 66z" />
    <glyph glyph-name="oslashacute" unicode="&#x1ff;" horiz-adv-x="448" 
d="M410 164q0 -81 -48 -125.5t-133 -44.5q-75 0 -120 33l-16 -20q-8 -11 -17 -3l-20 17q-11 9 -5 18l21 27q-25 38 -25 96v117q0 76 50 123t131 47q67 0 114 -30l17 22q8 10 21 0l22 -18q10 -7 2 -18l-21 -27q27 -41 27 -98v-116zM315 278q0 8 -1 12l-149 -191
q21 -23 63 -23q40 0 63.5 24t23.5 64v114zM142 278v-121l145 190q-22 19 -58 19q-41 0 -64 -24t-23 -64zM342 610l-107 -120q-10 -11 -23 -3l-24 15q-11 7 -4 19l81 135q10 16 22 9l52 -32q16 -10 3 -23z" />
    <glyph glyph-name="Scommaaccent" unicode="&#x218;" horiz-adv-x="470" 
d="M436 174q0 -82 -59.5 -130.5t-153.5 -48.5q-127 0 -191 76q-12 13 1 26l38 39q10 10 27 -4q53 -51 123 -51q55 0 85.5 24t30.5 66q0 22 -9 38.5t-29.5 29t-37 19.5t-46.5 18q-36 13 -60.5 24.5t-53 31.5t-43 50.5t-14.5 69.5q0 79 53.5 126t133.5 47q103 0 172 -48
q6 -5 7.5 -10t0 -7.5l-5.5 -9.5l-25 -43q-8 -14 -28 -4q-64 36 -113 36q-97 0 -97 -88q0 -18 9 -32.5t29 -26t33 -17.5t40 -16q38 -14 54 -20.5t46.5 -23.5t44.5 -33.5t26 -44.5t12 -63zM285 -67l-48 -148q-5 -17 -22 -17h-27q-16 0 -16 24l11 145q0 22 22 22h62
q26 0 18 -26z" />
    <glyph glyph-name="scommaaccent" unicode="&#x219;" horiz-adv-x="402" 
d="M366 124q0 -58 -45.5 -93.5t-118.5 -35.5q-56 0 -101 23t-67 71q-2 6 -2 8q0 6 6 9l52 26q11 5 19 -6q37 -54 98 -54q29 0 47.5 13t18.5 36q0 20 -13 31t-41 22l-64 22q-110 38 -110 122q0 61 45 94.5t111 34.5q95 0 151 -56q9 -9 0 -18l-33 -43q-5 -5 -9 -5q-6 0 -12 5
q-48 37 -95 37q-26 0 -46 -11t-20 -33q0 -32 54 -51l29 -10l32 -11t28 -11.5t28.5 -15l21.5 -17.5t20.5 -23t10.5 -26.5t5 -33.5zM252 -67l-48 -148q-5 -17 -22 -17h-27q-16 0 -16 24l11 145q0 22 22 22h62q26 0 18 -26z" />
    <glyph glyph-name="schwa" unicode="&#x259;" horiz-adv-x="448" 
d="M45 215q0 12 7.5 19.5t16.5 7.5h244v35q0 39 -22 64t-65 25q-51 0 -91 -49q-10 -13 -22 -4l-41 28q-16 9 -8 24q49 83 164 83q82 0 131 -45.5t49 -121.5v-113q0 -77 -51 -125.5t-131 -48.5q-82 0 -131.5 48t-49.5 126v47zM226 75q38 0 62 22t24 60v16h-172v-17
q0 -35 22.5 -58t63.5 -23z" />
    <glyph glyph-name="primemod" unicode="&#x2b9;" horiz-adv-x="233" 
d="M207 581l-122 -200q-11 -18 -27 -8l-30 17q-15 8 -7 27l94 212q4 9 12 13t16 0l58 -29q20 -10 6 -32z" />
    <glyph glyph-name="circumflex" unicode="&#x2c6;" horiz-adv-x="450" 
d="M374 526q11 -13 0 -21l-23 -14q-13 -7 -22 2l-99 93l-99 -94q-11 -9 -22 -1l-22 14q-11 9 -1 21l98 124q9 11 21 11h50q13 0 22 -11z" />
    <glyph glyph-name="caron" unicode="&#x2c7;" horiz-adv-x="450" 
d="M381 627l-97 -124q-9 -11 -22 -11h-50q-12 0 -21 11l-98 124q-10 12 1 21l22 14q11 8 22 -1l100 -92l98 91q9 9 22 2l23 -14q11 -8 0 -21z" />
    <glyph glyph-name="breve" unicode="&#x2d8;" horiz-adv-x="450" 
d="M241 563q41 0 61 58q4 12 15 12h34q16 0 14 -16q-6 -53 -40 -89.5t-84 -36.5q-49 0 -83.5 37t-40.5 89q-2 16 14 16h34q13 0 17 -12q20 -58 59 -58z" />
    <glyph glyph-name="dotaccent" unicode="&#x2d9;" horiz-adv-x="449" 
d="M295 556q0 -22 -15.5 -37.5t-37.5 -15.5q-23 0 -38.5 15t-15.5 37t15.5 37.5t37.5 15.5t38 -15.5t16 -36.5z" />
    <glyph glyph-name="ring" unicode="&#x2da;" horiz-adv-x="450" 
d="M340 563q0 -36 -26.5 -62.5t-63.5 -26.5t-63.5 25.5t-26.5 61.5t26.5 63t63.5 27t63.5 -25.5t26.5 -62.5zM293 562q0 17 -13 30.5t-30 13.5t-29 -13t-12 -31t12 -30.5t29 -12.5t30 12.5t13 30.5z" />
    <glyph glyph-name="ogonek" unicode="&#x2db;" horiz-adv-x="452" 
d="M216 10q11 11 24 11h30q7 0 7 -6q0 -3 -2 -5q-25 -22 -41 -55t-16 -61q0 -29 26 -29t61 22q8 5 13 -1l16 -24q5 -8 -3 -14q-46 -38 -98 -38q-81 0 -81 75q0 31 19 67t45 58z" />
    <glyph glyph-name="tilde" unicode="&#x2dc;" horiz-adv-x="449" 
d="M370 567q-15 -29 -38.5 -44t-46.5 -15t-61 16.5t-56 16.5q-19 0 -37 -27q-8 -9 -21 0l-26 19q-8 7 -2 19q13 26 36 42t49 16q22 0 61 -17.5t54 -17.5q20 0 37 27q5 10 16 4l31 -18q11 -7 4 -21z" />
    <glyph glyph-name="hungarumlaut" unicode="&#x2dd;" horiz-adv-x="458" 
d="M127 521l81 135q10 16 22 8l52 -31q15 -9 3 -24l-107 -119q-10 -11 -23 -3l-24 15q-12 8 -4 19zM261 521l81 135q10 16 22 8l52 -31q15 -9 3 -24l-107 -119q-10 -11 -23 -3l-24 15q-12 8 -4 19z" />
    <glyph glyph-name="tonos" unicode="&#x384;" horiz-adv-x="450" 
d="M353 610l-107 -120q-10 -12 -20 -5l-27 20q-9 6 0 22l77 129q11 18 25 10l49 -33q16 -10 3 -23z" />
    <glyph glyph-name="dieresistonos" unicode="&#x385;" horiz-adv-x="466" 
d="M416 559q0 -22 -15.5 -37.5t-38.5 -15.5t-39 15.5t-16 37.5t16 37.5t39 15.5q22 0 38 -15.5t16 -37.5zM312 610l-107 -120q-10 -11 -23 -3l-24 15q-12 8 -4 19l81 135q10 15 22 9l52 -32q16 -10 3 -23zM150 559h1q0 -22 -15.5 -37.5t-38.5 -15.5t-38.5 15.5t-15.5 37.5
t16 37.5t38 15.5t37.5 -15.5t15.5 -37.5z" />
    <glyph glyph-name="Alphatonos" unicode="&#x386;" horiz-adv-x="470" 
d="M440 0h-74q-14 0 -15 9l-14 56t-16 68h-177q-8 -28 -30 -124q-1 -9 -14 -9h-69q-19 0 -13 17l147 587q4 13 18 13h99q14 0 18 -12l151 -586q3 -6 0 -12.5t-11 -6.5zM230 509q-4 -21 -13 -61t-13 -61l-40 -172h137l-40 169l-28 125h-3zM93 573l-107 -120q-10 -12 -20 -5
l-27 20q-9 6 0 22l77 129q11 18 25 10l49 -33q16 -10 3 -23z" />
    <glyph glyph-name="anoteleia" unicode="&#x387;" horiz-adv-x="221" 
d="M171 330q0 -25 -18 -42.5t-43 -17.5q-24 0 -41.5 17t-17.5 42q0 23 17.5 41t41.5 18t42.5 -17.5t18.5 -40.5z" />
    <glyph glyph-name="Epsilontonos" unicode="&#x388;" horiz-adv-x="454" 
d="M422 15q0 -15 -14 -15h-333q-15 0 -15 14v589q0 14 15 14h328q14 0 14 -14v-57q0 -15 -14 -15h-244v-168h203q15 0 15 -15v-57q0 -15 -14 -15h-204v-190h249q14 0 14 -14v-57zM17 573l-107 -120q-10 -12 -20 -5l-27 20q-9 6 0 22l77 129q11 18 25 10l49 -33q16 -10 3 -23
z" />
    <glyph glyph-name="Etatonos" unicode="&#x389;" horiz-adv-x="538" 
d="M476 14q0 -14 -16 -14h-68q-16 0 -16 13v262h-214v-261q0 -14 -15 -14h-69q-15 0 -15 13v591q0 13 14 13h69q16 0 16 -12v-244h214v243q0 13 15 13h69q16 0 16 -12v-591zM17 573l-107 -120q-10 -12 -20 -5l-27 20q-9 6 0 22l77 129q11 18 25 10l49 -33q16 -10 3 -23z" />
    <glyph glyph-name="Iotatonos" unicode="&#x38a;" horiz-adv-x="249" 
d="M173 14q0 -14 -15 -14h-70q-15 0 -15 13v590q0 14 15 14h70q15 0 15 -13v-590zM34 573l-107 -120q-10 -12 -20 -5l-27 20q-9 6 0 22l77 129q11 18 25 10l49 -33q16 -10 3 -23z" />
    <glyph glyph-name="Omicrontonos" unicode="&#x38c;" horiz-adv-x="513" 
d="M454 170q0 -81 -55 -128.5t-142 -47.5t-143 47t-56 129v279q0 81 56 129t142 48q85 0 141.5 -47.5t56.5 -129.5v-279zM355 172v276q0 39 -26.5 65t-71.5 26t-72.5 -26t-27.5 -65v-276q0 -41 26.5 -66t72.5 -25q45 0 72 25t27 66zM39 573l-107 -120q-10 -12 -20 -5l-27 20
q-9 6 0 22l77 129q11 18 25 10l49 -33q16 -10 3 -23z" />
    <glyph glyph-name="Upsilontonos" unicode="&#x38e;" horiz-adv-x="450" 
d="M96 617q19 0 25 -14l102 -261h4l100 259q8 16 27 16h65q22 0 14 -18l-154 -356q-6 -12 -6 -25v-203q0 -15 -15 -15h-68q-15 0 -15 14v206q0 12 -5 21l-154 357q-8 19 12 19h68zM-9 573l-107 -120q-10 -12 -20 -5l-27 20q-9 6 0 22l77 129q11 18 25 10l49 -33
q16 -10 3 -23z" />
    <glyph glyph-name="Omegatonos" unicode="&#x38f;" horiz-adv-x="538" 
d="M474 0h-156q-10 0 -13 2.5t-3 10.5v71q0 13 11 18q27 5 44 29.5t17 56.5v256q0 41 -26 68.5t-79 27.5q-49 0 -77.5 -28t-28.5 -68v-255q0 -68 61 -87q10 -5 10 -19v-69q0 -9 -2.5 -11.5t-12.5 -2.5h-154q-15 0 -15 13v58q0 14 15 14h40v2q-41 30 -41 117v239q0 81 58 132
t147 51q96 0 150 -49.5t54 -133.5v-238q0 -78 -44 -118l2 -2h42q14 0 14 -13v-59q0 -13 -13 -13zM51 573l-107 -120q-10 -12 -20 -5l-27 20q-9 6 0 22l77 129q11 18 25 10l49 -33q16 -10 3 -23z" />
    <glyph glyph-name="iotadieresistonos" unicode="&#x390;" horiz-adv-x="213" 
d="M154 12q2 -12 -12 -12h-70q-13 0 -13 12v416q0 13 12 13h70q13 0 13 -13v-416zM302 559q0 -22 -15.5 -37.5t-38.5 -15.5t-39 15.5t-16 37.5t16 37.5t39 15.5q22 0 38 -15.5t16 -37.5zM198 610l-107 -120q-10 -11 -23 -3l-24 15q-12 8 -4 19l81 135q10 15 22 9l52 -32
q16 -10 3 -23zM36 559h1q0 -22 -15.5 -37.5t-38.5 -15.5t-38.5 15.5t-15.5 37.5t16 37.5t38 15.5t37.5 -15.5t15.5 -37.5z" />
    <glyph glyph-name="Alpha" unicode="&#x391;" horiz-adv-x="470" 
d="M440 0h-74q-14 0 -15 9l-14 56t-16 68h-177q-8 -28 -30 -124q-1 -9 -14 -9h-69q-19 0 -13 17l147 587q4 13 18 13h99q14 0 18 -12l151 -586q3 -6 0 -12.5t-11 -6.5zM230 509q-4 -21 -13 -61t-13 -61l-40 -172h137l-40 169l-28 125h-3z" />
    <glyph glyph-name="Beta" unicode="&#x392;" horiz-adv-x="496" 
d="M459 185q0 -83 -50 -134t-135 -51h-202q-15 0 -15 14v589q0 14 14 14h191q83 0 130.5 -42t47.5 -120q0 -34 -19.5 -69.5t-50.5 -51.5v-4q46 -17 67.5 -57t21.5 -88zM360 183q0 45 -25 73.5t-79 28.5h-101v-199h110q44 0 69.5 26t25.5 71zM342 453q0 38 -24 58t-65 20h-98
v-161h105q39 0 60.5 23.5t21.5 59.5z" />
    <glyph glyph-name="Gamma" unicode="&#x393;" horiz-adv-x="438" 
d="M175 14q0 -14 -14 -14h-70q-15 0 -15 13v591q0 13 15 13h324q14 0 14 -12v-60q0 -14 -14 -14h-240v-517z" />
    <glyph glyph-name="Delta" unicode="&#x394;" horiz-adv-x="478" 
d="M450 0h-422q-18 0 -14 17l161 588q3 12 16 12h95q13 0 15 -11l161 -585q3 -8 0 -14.5t-12 -6.5zM341 82l-68 266l-36 154h-2l-36 -155l-64 -265h206z" />
    <glyph glyph-name="Delta" unicode="&#x2206;" horiz-adv-x="478" 
d="M450 0h-422q-18 0 -14 17l161 588q3 12 16 12h95q13 0 15 -11l161 -585q3 -8 0 -14.5t-12 -6.5zM341 82l-68 266l-36 154h-2l-36 -155l-64 -265h206z" />
    <glyph glyph-name="Epsilon" unicode="&#x395;" horiz-adv-x="454" 
d="M422 15q0 -15 -14 -15h-333q-15 0 -15 14v589q0 14 15 14h328q14 0 14 -14v-57q0 -15 -14 -15h-244v-168h203q15 0 15 -15v-57q0 -15 -14 -15h-204v-190h249q14 0 14 -14v-57z" />
    <glyph glyph-name="Zeta" unicode="&#x396;" horiz-adv-x="431" 
d="M402 14q0 -14 -15 -14h-331q-24 0 -24 21v30q0 16 8 32q238 446 239 448h-216q-14 0 -14 15v58q0 13 15 13h306q24 0 24 -20v-32q0 -17 -13 -43q-2 -4 -39.5 -74.5l-76 -143l-75 -139.5l-42.5 -78h239q15 0 15 -14v-59z" />
    <glyph glyph-name="Eta" unicode="&#x397;" horiz-adv-x="538" 
d="M476 14q0 -14 -16 -14h-68q-16 0 -16 13v262h-214v-261q0 -14 -15 -14h-69q-15 0 -15 13v591q0 13 14 13h69q16 0 16 -12v-244h214v243q0 13 15 13h69q16 0 16 -12v-591z" />
    <glyph glyph-name="Theta" unicode="&#x398;" horiz-adv-x="532" 
d="M474 172q0 -82 -57 -130t-150 -48q-94 0 -151 47t-57 131v276q0 80 58.5 129t148.5 49q95 0 151.5 -47.5t56.5 -130.5v-276zM375 173v273q0 40 -29.5 66.5t-78.5 26.5q-51 0 -80.5 -26.5t-29.5 -66.5v-273q0 -40 29 -66t80 -26t80 25.5t29 66.5zM195 272q-11 0 -11 12v60
q0 12 12 12h141q11 0 11 -12v-60q0 -12 -11 -12h-142z" />
    <glyph glyph-name="Iota" unicode="&#x399;" horiz-adv-x="249" 
d="M173 14q0 -14 -15 -14h-70q-15 0 -15 13v590q0 14 15 14h70q15 0 15 -13v-590z" />
    <glyph glyph-name="Kappa" unicode="&#x39a;" horiz-adv-x="517" 
d="M268 295q-50 0 -77.5 -30t-27.5 -77q0 -30 -0.5 -88t-0.5 -87q0 -13 -11 -13h-75q-13 0 -13 12v592q0 13 14 13h73q12 0 12 -12v-239h2l2 -1l198 242q8 10 20 10h77q12 0 12 -9q0 -5 -2 -7l-186 -230l2 -4q5 1 16 1q144 0 155 -166q4 -59 14 -189q0 -13 -12 -13h-70
q-13 0 -13 12l-14 202q-12 81 -95 81z" />
    <glyph glyph-name="Lambda" unicode="&#x39b;" horiz-adv-x="472" 
d="M194 324l-74 -304q-5 -20 -27 -20h-64q-8 0 -12.5 5.5t-2.5 14.5l161 586q3 11 17 11h87q13 0 16 -10l161 -586q0 -6 -0.5 -8.5t-1.5 -6t-4.5 -5t-9.5 -1.5h-70q-14 0 -17 11l-76 301l-43 174h-3z" />
    <glyph glyph-name="Mu" unicode="&#x39c;" horiz-adv-x="635" 
d="M593 14q0 -14 -15 -14h-65q-14 0 -14 13v355h-3l-43 -114l-85 -219q-9 -16 -22 -16h-42q-18 0 -24 14l-81 214l-42 119h-3v-353q0 -13 -15 -13h-64q-15 0 -15 14v583q0 20 19 20h51q13 0 18 -2.5t10 -13.5q3 -7 60.5 -159t61.5 -160l44 -123h5l46 125l121 317q8 16 27 16
h50q20 0 20 -19v-584z" />
    <glyph glyph-name="Nu" unicode="&#x39d;" horiz-adv-x="534" 
d="M474 20q0 -20 -21 -20h-44q-21 0 -29 15l-221 396l-3 -1v-396q0 -14 -14 -14h-65q-15 0 -15 13v580q0 13 4.5 18.5t17.5 5.5h43q19 0 30 -17l221 -399l2 1v402q0 13 15 13h63q16 0 16 -13v-584z" />
    <glyph glyph-name="Xi" unicode="&#x39e;" horiz-adv-x="492" 
d="M446 15q0 -15 -14 -15h-372q-14 0 -14 15v57q0 14 14 14h138v186h-93q-13 0 -13 14v58q0 15 14 15h92v172h-133q-14 0 -14 15v57q0 14 15 14h361q15 0 15 -14v-57q0 -15 -14 -15h-138v-172h96q14 0 14 -15v-58q0 -14 -13 -14h-97v-186h142q14 0 14 -14v-57z" />
    <glyph glyph-name="Omicron" unicode="&#x39f;" horiz-adv-x="513" 
d="M454 170q0 -81 -55 -128.5t-142 -47.5t-143 47t-56 129v279q0 81 56 129t142 48q85 0 141.5 -47.5t56.5 -129.5v-279zM355 172v276q0 39 -26.5 65t-71.5 26t-72.5 -26t-27.5 -65v-276q0 -41 26.5 -66t72.5 -25q45 0 72 25t27 66z" />
    <glyph glyph-name="Pi" unicode="&#x3a0;" horiz-adv-x="563" 
d="M476 617q15 0 15 -13v-590q0 -14 -15 -14h-69q-15 0 -15 13v519h-220v-518q0 -14 -16 -14h-69q-15 0 -15 13v590q0 14 15 14h389z" />
    <glyph glyph-name="Rho" unicode="&#x3a1;" horiz-adv-x="472" 
d="M447 433q0 -76 -54 -128t-135 -52h-97l1 -239q0 -14 -15 -14h-69q-15 0 -15 13v591q0 13 15 13h179q87 0 138.5 -51.5t51.5 -132.5zM349 434q0 39 -24.5 68t-67.5 29h-96v-193h96q41 0 66.5 26.5t25.5 69.5z" />
    <glyph glyph-name="Sigma" unicode="&#x3a3;" horiz-adv-x="435" 
d="M412 15q0 -15 -14 -15h-334q-22 0 -22 21v29q-2 16 8 35l121 234l-117 208q-9 18 -9 31v37q0 22 25 22h310q14 0 14 -14v-58q0 -14 -13 -14h-223l109 -187q9 -17 9 -27q0 -9 -6 -20l-114 -211h242q14 0 14 -14v-57z" />
    <glyph glyph-name="Tau" unicode="&#x3a4;" horiz-adv-x="429" 
d="M412 546q0 -15 -13 -15h-138v-517q0 -14 -15 -14h-69q-15 0 -15 13l1 518h-133q-14 0 -14 15v57q0 14 14 14h369q13 0 13 -13v-58z" />
    <glyph glyph-name="Upsilon" unicode="&#x3a5;" horiz-adv-x="450" 
d="M96 617q19 0 25 -14l102 -261h4l100 259q8 16 27 16h65q22 0 14 -18l-154 -356q-6 -12 -6 -25v-203q0 -15 -15 -15h-68q-15 0 -15 14v206q0 12 -5 21l-154 357q-8 19 12 19h68z" />
    <glyph glyph-name="Phi" unicode="&#x3a6;" horiz-adv-x="593" 
d="M535 236q1 -71 -55 -120t-136 -54v-49q0 -13 -14 -13h-69q-14 0 -14 13v49q-80 3 -135 51.5t-54 122.5v166q-1 74 53.5 123t135.5 53v26q0 13 14 13h68q15 0 15 -12v-27q85 -4 138.5 -52t52.5 -123v-167zM442 235v173q0 38 -23.5 63t-74.5 27v-354q44 3 71 27.5t27 63.5z
M247 144v354q-45 -1 -70 -28t-25 -64v-172q0 -36 25 -61.5t70 -28.5z" />
    <glyph glyph-name="Chi" unicode="&#x3a7;" horiz-adv-x="466" 
d="M344 13l-107 217h-3l-107 -217q-7 -13 -26 -13h-72q-15 0 -15 9q0 3 4 11l161 301l-147 278q-3 5 -3 9q0 9 15 9h77q17 0 24 -14l90 -188h3l93 188q7 14 24 14h71q14 0 14 -9q0 -4 -3 -9l-144 -278l161 -302q3 -6 3 -10q0 -9 -14 -9h-73q-20 0 -26 13z" />
    <glyph glyph-name="Psi" unicode="&#x3a8;" horiz-adv-x="587" 
d="M434 604q0 13 15 13h69q14 0 14 -12v-292q2 -74 -52 -125.5t-139 -55.5v-118q0 -14 -14 -14h-69q-14 0 -14 13v117q-83 4 -137 54.5t-52 126.5v293q0 13 14 13h67q15 0 15 -12v-298q0 -35 26 -61.5t66 -27.5v395q0 14 15 14h68q15 0 15 -14v-395q47 3 70 28.5t23 62.5
v295z" />
    <glyph glyph-name="Omega" unicode="&#x3a9;" horiz-adv-x="538" 
d="M474 0h-156q-10 0 -13 2.5t-3 10.5v71q0 13 11 18q27 5 44 29.5t17 56.5v256q0 41 -26 68.5t-79 27.5q-49 0 -77.5 -28t-28.5 -68v-255q0 -68 61 -87q10 -5 10 -19v-69q0 -9 -2.5 -11.5t-12.5 -2.5h-154q-15 0 -15 13v58q0 14 15 14h40v2q-41 30 -41 117v239q0 81 58 132
t147 51q96 0 150 -49.5t54 -133.5v-238q0 -78 -44 -118l2 -2h42q14 0 14 -13v-59q0 -13 -13 -13z" />
    <glyph glyph-name="Iotadieresis" unicode="&#x3aa;" horiz-adv-x="249" 
d="M173 14q0 -14 -15 -14h-70q-15 0 -15 13v590q0 14 15 14h70q15 0 15 -13v-590zM249 700q0 -22 -15.5 -37.5t-37.5 -15.5q-23 0 -38.5 15t-15.5 38q0 22 15.5 37.5t37.5 15.5t38 -15.5t16 -37.5zM80 700q0 -22 -15 -37.5t-38 -15.5t-38.5 15.5t-15.5 37.5t15.5 37.5
t37.5 15.5t38 -15.5t16 -37.5z" />
    <glyph glyph-name="Upsilondieresis" unicode="&#x3ab;" horiz-adv-x="450" 
d="M96 617q19 0 25 -14l102 -261h4l100 259q8 16 27 16h65q22 0 14 -18l-154 -356q-6 -12 -6 -25v-203q0 -15 -15 -15h-68q-15 0 -15 14v206q0 12 -5 21l-154 357q-8 19 12 19h68zM348 700q0 -22 -15 -37.5t-38 -15.5t-38.5 15t-15.5 38q0 22 15.5 37.5t37.5 15.5t38 -15.5
t16 -37.5zM179 700q0 -22 -15.5 -37.5t-37.5 -15.5q-23 0 -38.5 15.5t-15.5 37.5t15.5 37.5t37.5 15.5t38 -15.5t16 -37.5z" />
    <glyph glyph-name="alphatonos" unicode="&#x3ac;" horiz-adv-x="463" 
d="M43 277q0 75 43 122t123 47q67 0 106 -39l2 2v20q0 12 13 12h63q13 0 13 -12v-416q0 -13 -14 -13h-69q-12 0 -12 12v13q-2 0 -3 1q-14 -14 -43.5 -23t-59.5 -9q-82 0 -122 47.5t-40 121.5v114zM137 270v-91q0 -105 87 -105q38 0 62.5 26t24.5 63v107q0 40 -23 67.5
t-64 27.5q-42 0 -64.5 -27.5t-22.5 -67.5zM353 610l-107 -120q-10 -12 -20 -5l-27 20q-9 6 0 22l77 129q11 18 25 10l49 -33q16 -10 3 -23z" />
    <glyph glyph-name="epsilontonos" unicode="&#x3ad;" horiz-adv-x="403" 
d="M210 75q25 0 50.5 12.5t40.5 30.5q17 17 28 7l39 -35q15 -13 7 -24q-56 -72 -167 -72q-77 0 -123.5 36t-46.5 104q0 25 14.5 52t39.5 39v4q-25 8 -38 30t-13 47q0 65 48 103.5t119 38.5q110 0 160 -73q10 -14 0 -23l-44 -34q-12 -10 -27 6q-32 42 -87 42q-27 0 -50 -15
t-23 -41q0 -45 59 -45h65q11 0 11 -11v-52q0 -10 -11 -10h-67q-24 0 -41.5 -13.5t-17.5 -38.5q0 -31 23.5 -48t51.5 -17zM315 610l-107 -120q-10 -12 -20 -5l-27 20q-9 6 0 22l77 129q11 18 25 10l49 -33q16 -10 3 -23z" />
    <glyph glyph-name="etatonos" unicode="&#x3ae;" horiz-adv-x="471" 
d="M417 12q0 -12 -12 -12h-70q-13 0 -13 12v265q0 40 -21.5 63.5t-64.5 23.5q-37 0 -62 -24.5t-25 -61.5v-266q0 -12 -13 -12h-69q-13 0 -13 12v416q0 13 12 13h69q11 0 11 -12v-22l1 -1h2q43 40 113 40q74 0 114.5 -46t40.5 -122v-266zM318 610l-107 -120q-10 -12 -20 -5
l-27 20q-9 6 0 22l77 129q11 18 25 10l49 -33q16 -10 3 -23z" />
    <glyph glyph-name="iotatonos" unicode="&#x3af;" horiz-adv-x="213" 
d="M154 12q2 -12 -12 -12h-70q-13 0 -13 12v416q0 13 12 13h70q13 0 13 -13v-416zM243 610l-107 -120q-10 -12 -20 -5l-27 20q-9 6 0 22l77 129q11 18 25 10l49 -33q16 -10 3 -23z" />
    <glyph glyph-name="upsilondieresistonos" unicode="&#x3b0;" horiz-adv-x="458" 
d="M413 160q0 -76 -50 -122.5t-132 -46.5t-131.5 46t-49.5 122v269q0 13 13 13h68q13 0 13 -13v-268q0 -37 24 -62t63 -25t62.5 24.5t23.5 61.5v269q0 13 14 13h69q13 0 13 -13v-268zM416 559q0 -22 -15.5 -37.5t-38.5 -15.5t-39 15.5t-16 37.5t16 37.5t39 15.5
q22 0 38 -15.5t16 -37.5zM312 610l-107 -120q-10 -11 -23 -3l-24 15q-12 8 -4 19l81 135q10 15 22 9l52 -32q16 -10 3 -23zM150 559h1q0 -22 -15.5 -37.5t-38.5 -15.5t-38.5 15.5t-15.5 37.5t16 37.5t38 15.5t37.5 -15.5t15.5 -37.5z" />
    <glyph glyph-name="alpha" unicode="&#x3b1;" horiz-adv-x="463" 
d="M43 277q0 75 43 122t123 47q67 0 106 -39l2 2v20q0 12 13 12h63q13 0 13 -12v-416q0 -13 -14 -13h-69q-12 0 -12 12v13q-2 0 -3 1q-14 -14 -43.5 -23t-59.5 -9q-82 0 -122 47.5t-40 121.5v114zM137 270v-91q0 -105 87 -105q38 0 62.5 26t24.5 63v107q0 40 -23 67.5
t-64 27.5q-42 0 -64.5 -27.5t-22.5 -67.5z" />
    <glyph glyph-name="beta" unicode="&#x3b2;" horiz-adv-x="469" 
d="M420 161q0 -71 -48 -119.5t-120 -48.5q-65 0 -97 33l-4 1v-160q0 -13 -12 -13h-70q-13 0 -13 12v595q0 76 48.5 127t128.5 51q85 0 131 -47t46 -125q0 -32 -13 -61.5t-39 -42.5v-3q62 -34 62 -110v-89zM325 161v85q0 36 -24.5 57.5t-62.5 21.5h-35q-12 0 -12 12v51
q0 12 11 12h39q31 0 52.5 21t21.5 53q0 37 -20.5 60.5t-59.5 23.5q-36 0 -60 -26.5t-24 -63.5v-307q0 -35 25.5 -60.5t61.5 -25.5q37 0 62 25t25 61z" />
    <glyph glyph-name="gamma" unicode="&#x3b3;" horiz-adv-x="417" 
d="M149 369l32.5 -108t32.5 -111h3q26 90 86 276q6 14 22 14h65q13 0 13 -11q0 -5 -1 -7q-15 -44 -44 -122l-51.5 -142.5t-39.5 -121.5q-7 -20 -7 -47v-157q0 -13 -14 -13h-69q-13 0 -13 12v155q0 23 -7 44l-91 299q-2 8 -3.5 10.5t-4.5 8.5t-8.5 8.5t-12.5 2.5h-9
q-9 0 -11 9q-5 20 -10 50v3q0 9 11 13q36 13 57 13q31 0 46.5 -18t27.5 -60z" />
    <glyph glyph-name="delta" unicode="&#x3b4;" horiz-adv-x="458" 
d="M245 557q-70 0 -70 -47q0 -28 76 -64q6 -2 17 -7q7 -3 10 -5q78 -36 105.5 -77.5t27.5 -124.5v-74q0 -76 -51 -121.5t-132 -45.5q-80 0 -130.5 45.5t-50.5 119.5v104q0 46 22 87t64 62q-57 36 -57 94q0 69 46 101.5t118 32.5q82 0 136 -27q13 -7 8 -20l-17 -45
q-1 -4 -3 -6.5t-3.5 -3.5t-4 -1h-4t-5 1.5t-5.5 1.5q-49 20 -97 20zM316 158v104q0 75 -96 104q-35 -10 -56.5 -38.5t-21.5 -65.5v-104q0 -36 23 -60.5t63 -24.5q43 0 65.5 23.5t22.5 61.5z" />
    <glyph glyph-name="epsilon" unicode="&#x3b5;" horiz-adv-x="392" 
d="M210 75q25 0 50.5 12.5t40.5 30.5q17 17 28 7l39 -35q15 -13 7 -24q-56 -72 -167 -72q-77 0 -123.5 36t-46.5 104q0 25 14.5 52t39.5 39v4q-25 8 -38 30t-13 47q0 65 48 103.5t119 38.5q110 0 160 -73q10 -14 0 -23l-44 -34q-12 -10 -27 6q-32 42 -87 42q-27 0 -50 -15
t-23 -41q0 -45 59 -45h65q11 0 11 -11v-52q0 -10 -11 -10h-67q-24 0 -41.5 -13.5t-17.5 -38.5q0 -31 23.5 -48t51.5 -17z" />
    <glyph glyph-name="zeta" unicode="&#x3b6;" horiz-adv-x="393" 
d="M277 532q0 2 -1 3h-188q-19 0 -19 19v49q0 16 19 16h313q24 0 24 -22v-31q0 -5 -0.5 -9t-2 -8t-3 -6t-5 -5t-5.5 -4t-7.5 -5t-8.5 -6q-98 -69 -179.5 -161.5t-81.5 -168.5q0 -22 11.5 -41t25.5 -31.5t43 -26.5t47.5 -21l54.5 -20q9 -3 14 -5q41 -14 57 -33t16 -46
q0 -45 -60 -134q-11 -14 -23 -8l-39 19q-17 7 -7 23l16 34q15 30 14 40q0 22 -36 34q-107 34 -151 65q-80 54 -80 141q0 92 73.5 188t168.5 161z" />
    <glyph glyph-name="eta" unicode="&#x3b7;" horiz-adv-x="471" 
d="M417 12q0 -12 -12 -12h-70q-13 0 -13 12v265q0 40 -21.5 63.5t-64.5 23.5q-37 0 -62 -24.5t-25 -61.5v-266q0 -12 -13 -12h-69q-13 0 -13 12v416q0 13 12 13h69q11 0 11 -12v-22l1 -1h2q43 40 113 40q74 0 114.5 -46t40.5 -122v-266z" />
    <glyph glyph-name="theta" unicode="&#x3b8;" horiz-adv-x="459" 
d="M413 163q0 -76 -49.5 -122.5t-131.5 -46.5t-132 46t-50 122v309q0 76 49.5 122t131.5 46t132 -46.5t50 -121.5v-308zM318 162v128h-173v-128q0 -38 23.5 -62t62.5 -24q36 0 61.5 25.5t25.5 60.5zM318 368v103q0 35 -25 60t-61 25q-37 0 -62 -24.5t-25 -60.5v-103h173z
" />
    <glyph glyph-name="iota" unicode="&#x3b9;" horiz-adv-x="213" 
d="M154 12q2 -12 -12 -12h-70q-13 0 -13 12v416q0 13 12 13h70q13 0 13 -13v-416z" />
    <glyph glyph-name="kappa" unicode="&#x3ba;" horiz-adv-x="454" 
d="M419 111l5 -93q1 -18 -15 -18h-65q-14 0 -16 15l-5 91q-3 49 -23.5 71t-61.5 22q-43 0 -65 -26t-22 -66v-95q0 -12 -12 -12h-71q-12 0 -12 12v417q0 12 12 12h70q12 0 12 -12v-157h2l2 -1l146 162q7 7 20 7h86q10 0 10 -9q0 -5 -4 -10l-137 -149q137 0 144 -161z" />
    <glyph glyph-name="lambda" unicode="&#x3bb;" horiz-adv-x="478" 
d="M415 13q0 -13 -13 -13h-69q-12 0 -12 12v263q0 36 -25 60.5t-62 24.5q-36 0 -61 -25t-25 -60v-262q0 -13 -13 -13h-70q-13 0 -13 12v262q0 74 46 120.5t121 46.5q62 0 99 -34l3 1v62q0 37 -24 61.5t-69 24.5q-38 0 -83 -19q-26 -10 -31 1l-17 43q-7 17 9 26q59 31 135 31
q80 0 127 -46.5t47 -120.5v-458z" />
    <glyph glyph-name="nu" unicode="&#x3bd;" horiz-adv-x="418" 
d="M405 424l-145 -412q-4 -12 -21 -12h-60q-10 0 -14 2.5t-7 11.5l-144 409q-7 18 11 18h64q20 0 24 -16l59 -188l36 -125h4l33 120l59 190q5 19 23 19h66q18 0 12 -17z" />
    <glyph glyph-name="xi" unicode="&#x3be;" horiz-adv-x="382" 
d="M124 171q0 -38 31 -61.5t103 -43.5q66 -17 90 -38.5t24 -50.5q0 -44 -58 -139q-10 -16 -25 -9l-43 21q-16 7 -8 24q33 61 33 79q0 10 -14 17.5t-50 18.5q-93 25 -137.5 65.5t-44.5 105.5q0 47 27 88.5t77 60.5v5q-38 14 -58 42.5t-20 61.5q0 78 95 119l-1 3h-97
q-20 0 -20 19v49q0 16 20 16h311q26 0 26 -20v-32q0 -23 -15 -26q-219 -46 -219 -125q0 -32 28.5 -50t70.5 -18h90q19 0 19 -15v-43q0 -18 -19 -18h-92q-43 0 -83.5 -31t-40.5 -75z" />
    <glyph glyph-name="omicron" unicode="&#x3bf;" horiz-adv-x="458" 
d="M410 164q0 -81 -48 -125.5t-133 -44.5t-133.5 44.5t-48.5 123.5v117q0 76 50 123t131 47q84 0 133 -44.5t49 -124.5v-116zM142 278v-114q0 -40 22 -64t64 -24q40 0 63.5 24t23.5 64v114q0 40 -22.5 64t-63.5 24t-64 -24t-23 -64z" />
    <glyph glyph-name="pi" unicode="&#x3c0;" horiz-adv-x="469" 
d="M415 13q0 -13 -13 -13h-68q-13 0 -13 12v347h-173v-346q0 -13 -13 -13h-69q-13 0 -13 12v416q0 13 13 13h336q13 0 13 -12v-416z" />
    <glyph glyph-name="rho" unicode="&#x3c1;" horiz-adv-x="455" 
d="M411 284l-1 -115q0 -81 -43.5 -128.5t-120.5 -47.5q-66 0 -100 31h-3v-192q0 -13 -13 -13h-69q-13 0 -14 12v446q0 78 51.5 124.5t132.5 46.5q79 0 129.5 -44.5t50.5 -119.5zM316 163v115q-1 39 -24 63t-63 24q-39 0 -63 -24.5t-24 -63.5v-114q0 -37 23.5 -62.5
t63.5 -25.5t63.5 25t23.5 63z" />
    <glyph glyph-name="sigma1" unicode="&#x3c2;" horiz-adv-x="401" 
d="M361 125q0 -60 -46 -95.5t-119 -35.5q-75 0 -121 40q-24 22 -41 55q-6 12 5 17l53 27q11 7 19 -6q34 -54 87 -54q30 0 49.5 13.5t19.5 35.5q0 7 -2.5 13.5t-8.5 11.5l-10.5 9t-13.5 8.5t-13.5 6.5t-14.5 5.5t-12 4.5q-58 23 -67 27q-82 37 -82 109q0 65 48.5 98.5
t114.5 33.5q74 0 126 -25q20 -9 15 -23l-16 -47q-7 -17 -29 -7q-48 20 -97 22q-28 0 -49.5 -11.5t-21.5 -33.5q0 -15 9.5 -26t19 -15.5t29.5 -11.5l24 -8t25 -8.5t23 -9t23 -10.5l19.5 -11t18.5 -13.5l14.5 -16t12 -19.5t6.5 -23t3 -27z" />
    <glyph glyph-name="sigma" unicode="&#x3c3;" horiz-adv-x="461" 
d="M451 373q0 -12 -13 -12h-63l-2 -4q33 -24 33 -82v-112q0 -77 -50 -123t-131 -46q-83 0 -132.5 45.5t-49.5 123.5v108q0 75 47 122.5t125 47.5h222q14 0 14 -12v-56zM310 163v108q0 38 -23 63t-62 25q-38 0 -63 -25t-25 -62v-109q0 -37 23.5 -62t63.5 -25q41 0 63.5 24.5
t22.5 62.5z" />
    <glyph glyph-name="tau" unicode="&#x3c4;" horiz-adv-x="340" 
d="M320 24q3 -15 -14 -21q-36 -9 -76 -9q-60 0 -92.5 35t-32.5 91v240h-78q-13 0 -13 12v56q0 13 11 13h278q13 0 13 -12v-56q0 -13 -13 -13h-105v-224q0 -56 49 -56q25 0 43 5q16 4 20 -8z" />
    <glyph glyph-name="upsilon" unicode="&#x3c5;" horiz-adv-x="458" 
d="M413 160q0 -76 -50 -122.5t-132 -46.5t-131.5 46t-49.5 122v269q0 13 13 13h68q13 0 13 -13v-268q0 -37 24 -62t63 -25t62.5 24.5t23.5 61.5v269q0 13 14 13h69q13 0 13 -13v-268z" />
    <glyph glyph-name="phi" unicode="&#x3c6;" horiz-adv-x="559" 
d="M516 162q0 -73 -52.5 -121t-135.5 -52v-157q0 -13 -13 -13h-69q-13 0 -13 12v158q-86 2 -138 49t-52 121v123q0 50 26.5 89t72.5 60q13 4 17 3t9 -9l22 -36q13 -22 -4 -33q-48 -25 -48 -73v-122q0 -36 23.5 -61.5t70.5 -27.5v363q0 12 14 12h64q89 0 147.5 -44t58.5 -125
v-116zM421 161v115q0 36 -24 61t-70 25v-290q45 1 69.5 27t24.5 62z" />
    <glyph glyph-name="chi" unicode="&#x3c7;" horiz-adv-x="396" 
d="M254 230l135 -212q6 -7 2 -12.5t-13 -5.5h-66q-19 0 -27 14l-84 146h-2l-84 -146q-9 -14 -27 -14h-65q-10 0 -13 5.5t2 12.5l133 212l-120 191q-6 6 -2 12.5t12 6.5h66q9 0 12 -0.5t6.5 -3t7.5 -9.5q12 -18 24 -39l26.5 -46.5l22.5 -39.5h3l71 125q7 13 26 13h66
q10 0 13 -6t-2 -13z" />
    <glyph glyph-name="psi" unicode="&#x3c8;" horiz-adv-x="559" 
d="M327 72q41 2 66.5 28.5t25.5 60.5v267q0 13 12 13h69q14 0 14 -12v-268q0 -72 -50.5 -121t-135.5 -52v-156q0 -13 -13 -13h-69q-12 0 -12 12v158q-87 1 -137.5 49.5t-50.5 122.5v267q0 13 13 13h69q13 0 13 -12v-268q0 -37 24 -61.5t68 -27.5v381q0 13 13 13h69
q12 0 12 -13v-381z" />
    <glyph glyph-name="omega" unicode="&#x3c9;" horiz-adv-x="642" 
d="M595 281v-119q0 -78 -42.5 -123t-115.5 -45q-81 0 -117 62q-41 -62 -119 -62q-72 0 -113.5 42.5t-41.5 116.5v130q0 73 48.5 119t125.5 46q16 0 16 -13v-56q0 -12 -12 -12q-36 -3 -60 -27.5t-24 -58.5v-115q0 -42 19 -66.5t49 -24.5t48 24.5t18 60.5v144q0 12 13 12h66
q13 0 13 -11v-145q0 -36 18 -60t50 -24q29 0 48 20.5t19 53.5v130q0 35 -24 60t-59 27q-13 0 -13 12v56q0 13 16 13q77 0 125.5 -46.5t48.5 -120.5z" />
    <glyph glyph-name="iotadieresis" unicode="&#x3ca;" horiz-adv-x="213" 
d="M154 12q2 -12 -12 -12h-70q-13 0 -13 12v416q0 13 12 13h70q13 0 13 -13v-416zM254 550q0 -22 -15 -37.5t-38 -15.5t-38.5 15t-15.5 38q0 22 15.5 37.5t37.5 15.5t38 -15.5t16 -37.5zM85 550q0 -22 -15.5 -37.5t-37.5 -15.5q-23 0 -38.5 15.5t-15.5 37.5t15.5 37.5
t37.5 15.5t38 -15.5t16 -37.5z" />
    <glyph glyph-name="upsilondieresis" unicode="&#x3cb;" horiz-adv-x="458" 
d="M365 550q0 -22 -15.5 -37.5t-37.5 -15.5q-23 0 -38.5 15t-15.5 38q0 22 15.5 37.5t37.5 15.5t38 -15.5t16 -37.5zM196 550q0 -22 -15 -37.5t-38 -15.5t-38.5 15.5t-15.5 37.5t15.5 37.5t37.5 15.5t38 -15.5t16 -37.5zM413 160q0 -76 -50 -122.5t-132 -46.5t-131.5 46
t-49.5 122v269q0 13 13 13h68q13 0 13 -13v-268q0 -37 24 -62t63 -25t62.5 24.5t23.5 61.5v269q0 13 14 13h69q13 0 13 -13v-268z" />
    <glyph glyph-name="omicrontonos" unicode="&#x3cc;" horiz-adv-x="458" 
d="M410 164q0 -81 -48 -125.5t-133 -44.5t-133.5 44.5t-48.5 123.5v117q0 76 50 123t131 47q84 0 133 -44.5t49 -124.5v-116zM142 278v-114q0 -40 22 -64t64 -24q40 0 63.5 24t23.5 64v114q0 40 -22.5 64t-63.5 24t-64 -24t-23 -64zM354 610l-107 -120q-10 -12 -20 -5
l-27 20q-9 6 0 22l77 129q11 18 25 10l49 -33q16 -10 3 -23z" />
    <glyph glyph-name="upsilontonos" unicode="&#x3cd;" horiz-adv-x="458" 
d="M413 160q0 -76 -50 -122.5t-132 -46.5t-131.5 46t-49.5 122v269q0 13 13 13h68q13 0 13 -13v-268q0 -37 24 -62t63 -25t62.5 24.5t23.5 61.5v269q0 13 14 13h69q13 0 13 -13v-268zM349 610l-107 -120q-10 -12 -20 -5l-27 20q-9 6 0 22l77 129q11 18 25 10l49 -33
q16 -10 3 -23z" />
    <glyph glyph-name="omegatonos" unicode="&#x3ce;" horiz-adv-x="642" 
d="M595 281v-119q0 -78 -42.5 -123t-115.5 -45q-81 0 -117 62q-41 -62 -119 -62q-72 0 -113.5 42.5t-41.5 116.5v130q0 73 48.5 119t125.5 46q16 0 16 -13v-56q0 -12 -12 -12q-36 -3 -60 -27.5t-24 -58.5v-115q0 -42 19 -66.5t49 -24.5t48 24.5t18 60.5v144q0 12 13 12h66
q13 0 13 -11v-145q0 -36 18 -60t50 -24q29 0 48 20.5t19 53.5v130q0 35 -24 60t-59 27q-13 0 -13 12v56q0 13 16 13q77 0 125.5 -46.5t48.5 -120.5zM446 610l-107 -120q-10 -12 -20 -5l-27 20q-9 6 0 22l77 129q11 18 25 10l49 -33q16 -10 3 -23z" />
    <glyph glyph-name="afii10023" unicode="&#x401;" horiz-adv-x="454" 
d="M422 15q0 -15 -14 -15h-333q-15 0 -15 14v589q0 14 15 14h328q14 0 14 -14v-57q0 -15 -14 -15h-244v-168h203q15 0 15 -15v-57q0 -15 -14 -15h-204v-190h249q14 0 14 -14v-57zM366 700q0 -22 -15 -37.5t-38 -15.5t-38.5 15t-15.5 38q0 22 15.5 37.5t37.5 15.5t38 -15.5
t16 -37.5zM197 700q0 -22 -15.5 -37.5t-37.5 -15.5q-23 0 -38.5 15.5t-15.5 37.5t15.5 37.5t37.5 15.5t38 -15.5t16 -37.5z" />
    <glyph glyph-name="afii10051" unicode="&#x402;" horiz-adv-x="627" 
d="M388 33q48 11 63 38t15 73v68q0 48 -22 76.5t-79 28.5q-52 0 -106 -32v-272q0 -13 -14 -13h-69q-15 0 -15 13v518h-124q-14 0 -14 15v57q0 14 14 14h422q14 0 14 -13v-58q0 -15 -14 -15h-200v-153l3 -1q58 27 125 27q82 0 130.5 -47.5t48.5 -127.5v-84q0 -174 -168 -196
q-23 -2 -24 13l-7 53q-1 9 3.5 12t17.5 6z" />
    <glyph glyph-name="afii10052" unicode="&#x403;" horiz-adv-x="439" 
d="M175 14q0 -14 -14 -14h-70q-15 0 -15 13v591q0 13 15 13h324q14 0 14 -12v-60q0 -14 -14 -14h-240v-517zM348 739q11 -15 -6 -23l-146 -73q-12 -5 -21 8l-16 23q-9 10 3 19l126 95q14 12 23 0z" />
    <glyph glyph-name="afii10053" unicode="&#x404;" horiz-adv-x="462" 
d="M248 539q-41 0 -66 -24t-25 -62v-95h187q13 0 13 -15v-54q0 -15 -13 -15h-187v-107q0 -38 26 -62t69 -24q54 0 96 46q14 16 24 9q2 -1 25 -17t26 -17q12 -8 5 -20q-61 -88 -177 -88q-85 0 -138.5 46t-53.5 126v287q0 78 52.5 125.5t135.5 47.5q116 0 177 -83
q9 -14 -4 -24l-48 -36q-13 -8 -24 6q-39 50 -100 50z" />
    <glyph glyph-name="afii10054" unicode="&#x405;" horiz-adv-x="470" 
d="M436 174q0 -82 -59.5 -130.5t-153.5 -48.5q-127 0 -191 76q-12 13 1 26l38 39q10 10 27 -4q53 -51 123 -51q55 0 85.5 24t30.5 66q0 22 -9 38.5t-29.5 29t-37 19.5t-46.5 18q-36 13 -60.5 24.5t-53 31.5t-43 50.5t-14.5 69.5q0 79 53.5 126t133.5 47q103 0 172 -48
q6 -5 7.5 -10t0 -7.5l-5.5 -9.5l-25 -43q-8 -14 -28 -4q-64 36 -113 36q-97 0 -97 -88q0 -18 9 -32.5t29 -26t33 -17.5t40 -16q38 -14 54 -20.5t46.5 -23.5t44.5 -33.5t26 -44.5t12 -63z" />
    <glyph glyph-name="afii10055" unicode="&#x406;" horiz-adv-x="249" 
d="M173 14q0 -14 -15 -14h-70q-15 0 -15 13v590q0 14 15 14h70q15 0 15 -13v-590z" />
    <glyph glyph-name="afii10056" unicode="&#x407;" horiz-adv-x="249" 
d="M173 14q0 -14 -15 -14h-70q-15 0 -15 13v590q0 14 15 14h70q15 0 15 -13v-590zM250 700q0 -22 -15 -37.5t-38 -15.5t-38.5 15t-15.5 38q0 22 15.5 37.5t37.5 15.5t38 -15.5t16 -37.5zM81 700q0 -22 -15.5 -37.5t-37.5 -15.5q-23 0 -38.5 15.5t-15.5 37.5t15.5 37.5
t37.5 15.5t38 -15.5t16 -37.5z" />
    <glyph glyph-name="afii10057" unicode="&#x408;" horiz-adv-x="289" 
d="M9 -121l-16 51q-5 17 11 23q63 25 90.5 58.5t27.5 101.5v491q0 13 15 13h67q15 0 15 -13v-492q0 -99 -42 -159.5t-145 -87.5q-18 -5 -23 14z" />
    <glyph glyph-name="afii10058" unicode="&#x409;" horiz-adv-x="805" 
d="M456 617q14 -1 15 -14v-233h113q85 0 139 -53t54 -132q0 -81 -53.5 -133t-140.5 -52h-194q-16 0 -16 14v518h-154v-94q0 -245 -30.5 -333t-132.5 -121q-15 -5 -23 11l-18 44q-6 12 13 23q64 33 80.5 102t16.5 272v167q0 14 16 14h315zM471 86h112q42 0 69 28.5t27 68.5
q0 47 -26.5 74t-70.5 27h-111v-198z" />
    <glyph glyph-name="afii10059" unicode="&#x40a;" horiz-adv-x="770" 
d="M646 183q0 47 -27.5 74t-69.5 27h-112v-198h112q42 0 69.5 28.5t27.5 68.5zM742 185q0 -81 -53 -133t-140 -52h-195q-15 0 -15 14v270h-177v-270q0 -14 -14 -14h-69q-15 0 -15 13v591q0 13 15 13h68q15 0 15 -12v-235h177v235q0 12 15 12h68q15 0 15 -12v-235h121
q84 0 134 -52.5t50 -132.5z" />
    <glyph glyph-name="afii10060" unicode="&#x40b;" horiz-adv-x="619" 
d="M565 13q0 -13 -14 -13h-70q-15 0 -15 13v199q0 48 -22 76.5t-80 28.5q-53 0 -105 -32v-272q0 -13 -15 -13h-68q-16 0 -16 13v518h-124q-14 0 -14 15v57q0 14 14 14h422q14 0 14 -13v-58q0 -15 -14 -15h-200v-154l2 -2q52 29 126 29q82 0 130.5 -47.5t48.5 -127.5v-216z
" />
    <glyph glyph-name="afii10061" unicode="&#x40c;" horiz-adv-x="517" 
d="M268 295q-50 0 -77.5 -30t-27.5 -77q0 -30 -0.5 -88t-0.5 -87q0 -13 -11 -13h-75q-13 0 -13 12v592q0 13 14 13h73q12 0 12 -12v-239h2l2 -1l198 242q8 10 20 10h77q12 0 12 -9q0 -5 -2 -7l-186 -230l2 -4q5 1 16 1q144 0 155 -166q4 -59 14 -189q0 -13 -12 -13h-70
q-13 0 -13 12l-14 202q-12 81 -95 81zM378 742q11 -15 -6 -23l-146 -73q-12 -5 -21 8l-16 23q-9 10 3 19l126 95q14 12 23 0z" />
    <glyph glyph-name="afii10062" unicode="&#x40e;" horiz-adv-x="442" 
d="M28 618h64q20 0 24 -14l110 -339h4l108 338q5 15 27 15h58q16 0 16 -10q0 -4 -2 -10l-158 -456q-13 -38 -19.5 -55t-20 -41t-26.5 -34t-34.5 -18t-49.5 -8h-44q-11 0 -14 3.5t-3 14.5v49q0 10 3 13t11 3h24q23 0 35.5 5.5t20.5 23.5l16 39l-164 460q-2 6 -2 8q0 12 16 13
zM224 698q39 0 59 58q5 12 17 12h34q16 0 14 -16q-6 -53 -40 -89.5t-84 -36.5q-49 0 -83.5 37t-40.5 89q-2 16 14 16h34q12 0 17 -12q20 -58 59 -58z" />
    <glyph glyph-name="afii10145" unicode="&#x40f;" horiz-adv-x="563" 
d="M328 0v-140q-1 -21 -20 -21h-55q-10 0 -13 4.5t-3 16.5v140h-150q-15 0 -15 15v588q0 14 15 14h71q13 0 13 -14v-518h221v518q0 14 14 14h71q14 0 14 -14v-589q0 -14 -15 -14h-148z" />
    <glyph glyph-name="afii10017" unicode="&#x410;" horiz-adv-x="470" 
d="M440 0h-74q-14 0 -15 9l-14 56t-16 68h-177q-8 -28 -30 -124q-1 -9 -14 -9h-69q-19 0 -13 17l147 587q4 13 18 13h99q14 0 18 -12l151 -586q3 -6 0 -12.5t-11 -6.5zM230 509q-4 -21 -13 -61t-13 -61l-40 -172h137l-40 169l-28 125h-3z" />
    <glyph glyph-name="afii10018" unicode="&#x411;" horiz-adv-x="491" 
d="M160 532v-163h112q89 0 141 -52t52 -132q0 -81 -53 -133t-140 -52h-194q-15 0 -15 14v589q0 14 15 14h319q15 0 15 -13v-58q0 -14 -15 -14h-237zM160 85h112q42 0 69 29t27 69q0 48 -27 74.5t-71 26.5h-110v-199z" />
    <glyph glyph-name="afii10019" unicode="&#x412;" horiz-adv-x="496" 
d="M459 185q0 -83 -50 -134t-135 -51h-202q-15 0 -15 14v589q0 14 14 14h191q83 0 130.5 -42t47.5 -120q0 -34 -19.5 -69.5t-50.5 -51.5v-4q46 -17 67.5 -57t21.5 -88zM360 183q0 45 -25 73.5t-79 28.5h-101v-199h110q44 0 69.5 26t25.5 71zM342 453q0 38 -24 58t-65 20h-98
v-161h105q39 0 60.5 23.5t21.5 59.5z" />
    <glyph glyph-name="afii10020" unicode="&#x413;" horiz-adv-x="439" 
d="M175 14q0 -14 -14 -14h-70q-15 0 -15 13v591q0 13 15 13h324q14 0 14 -12v-60q0 -14 -14 -14h-240v-517z" />
    <glyph glyph-name="afii10021" unicode="&#x414;" horiz-adv-x="570" 
d="M387 86v445h-163l-10 -195q-1 -9 -3 -51.5t-4 -57l-6 -45t-12 -51.5t-20 -41q0 -1 1 -2v-2h217zM99 0v-121q0 -9 -3 -13t-6 -5t-9 -1h-55q-9 0 -12.5 3t-4.5 13v173q0 15 3.5 20t15.5 10l18 7q46 15 60 91.5t25 304.5q4 73 6 114q1 12 5.5 16.5t16.5 4.5h307q20 0 20 -21
v-510h29q17 0 17 -21v-186q0 -9 -3 -13t-6 -5t-8 -1h-55q-10 0 -14 3.5t-5 15.5v121h-342z" />
    <glyph glyph-name="afii10022" unicode="&#x415;" horiz-adv-x="454" 
d="M422 15q0 -15 -14 -15h-333q-15 0 -15 14v589q0 14 15 14h328q14 0 14 -14v-57q0 -15 -14 -15h-244v-168h203q15 0 15 -15v-57q0 -15 -14 -15h-204v-190h249q14 0 14 -14v-57z" />
    <glyph glyph-name="afii10024" unicode="&#x416;" horiz-adv-x="784" 
d="M355 617h73q13 0 13 -13v-234q1 0 2 -0.5t2 -0.5l191 238q8 10 20 10h76q13 0 13 -9q0 -4 -3 -7l-185 -232q0 -1 0.5 -2.5t0.5 -2.5h10q75 0 116 -45t46 -125l13 -181v-2q0 -11 -12 -11h-70q-13 0 -13 12l-13 170q-8 110 -95 110q-49 0 -74 -33t-25 -83v-164
q0 -12 -13 -12h-74q-11 0 -11 13v170q0 109 -98 109q-45 0 -68.5 -26t-26.5 -69l-14 -185q-2 -12 -14 -12h-69q-14 0 -14 11l18 197q7 73 48 114.5t116 41.5l4 5l-183 232q-3 5 -3 8q0 8 12 8h61q18 0 26 -5t19 -17l182 -225h4v235q0 12 12 12z" />
    <glyph glyph-name="afii10025" unicode="&#x417;" horiz-adv-x="491" 
d="M240 626q89 0 139 -45.5t50 -119.5q0 -40 -22 -77.5t-57 -50.5v-3q39 -14 65 -52.5t26 -88.5q0 -89 -58 -142t-154 -53q-143 0 -193 87q-7 13 6 22q5 3 23.5 16t23.5 17q14 9 25 -4q15 -22 46.5 -36.5t65.5 -14.5q52 0 83 28.5t31 74.5q0 50 -31 77t-81 27h-67
q-14 0 -14 14v54q0 15 14 15h80q39 0 64 23.5t25 61.5q0 36 -25.5 59.5t-73.5 23.5q-57 0 -101 -45q-15 -15 -26 -8l-43 34q-13 8 -4 23q59 83 183 83z" />
    <glyph glyph-name="afii10026" unicode="&#x418;" horiz-adv-x="534" 
d="M62 15v588q0 14 16 14h65q14 0 14 -14v-408h2l220 404q10 18 30 18h51q14 0 14 -14v-589q0 -14 -15 -14h-65q-15 0 -15 15v411h-1l-221 -410q-6 -11 -11 -13.5t-18 -2.5h-50q-16 0 -16 15z" />
    <glyph glyph-name="afii10027" unicode="&#x419;" horiz-adv-x="534" 
d="M62 15v588q0 14 16 14h65q14 0 14 -14v-408h2l220 404q10 18 30 18h51q14 0 14 -14v-589q0 -14 -15 -14h-65q-15 0 -15 15v411h-1l-221 -410q-6 -11 -11 -13.5t-18 -2.5h-50q-16 0 -16 15zM271 698q39 0 59 58q4 12 17 12h34q16 0 14 -16q-6 -53 -40 -89.5t-84 -36.5
q-49 0 -83.5 37t-40.5 89q-2 16 14 16h34q13 0 17 -12q20 -58 59 -58z" />
    <glyph glyph-name="afii10028" unicode="&#x41a;" horiz-adv-x="516" 
d="M268 295q-50 0 -77.5 -30t-27.5 -77q0 -30 -0.5 -88t-0.5 -87q0 -13 -11 -13h-75q-13 0 -13 12v592q0 13 14 13h73q12 0 12 -12v-239h2l2 -1l198 242q8 10 20 10h77q12 0 12 -9q0 -5 -2 -7l-186 -230l2 -4q5 1 16 1q144 0 155 -166q4 -59 14 -189q0 -13 -12 -13h-70
q-13 0 -13 12l-14 202q-12 81 -95 81z" />
    <glyph glyph-name="afii10029" unicode="&#x41b;" horiz-adv-x="542" 
d="M382 532h-161v-124q0 -153 -13.5 -233.5t-48 -124t-104.5 -66.5q-17 -6 -23 11l-18 48q-4 10 13 19q45 26 66 60.5t29.5 99t8.5 190.5v191q0 14 15 14h319q15 0 15 -14v-589q0 -14 -15 -14h-69q-14 0 -14 13v519z" />
    <glyph glyph-name="afii10030" unicode="&#x41c;" horiz-adv-x="635" 
d="M593 14q0 -14 -15 -14h-65q-14 0 -14 13v355h-3l-43 -114l-85 -219q-9 -16 -22 -16h-42q-18 0 -24 14l-81 214l-42 119h-3v-353q0 -13 -15 -13h-64q-15 0 -15 14v583q0 20 19 20h51q13 0 18 -2.5t10 -13.5q3 -7 60.5 -159t61.5 -160l44 -123h5l46 125l121 317q8 16 27 16
h50q20 0 20 -19v-584z" />
    <glyph glyph-name="afii10031" unicode="&#x41d;" horiz-adv-x="538" 
d="M476 14q0 -14 -16 -14h-68q-16 0 -16 13v262h-214v-261q0 -14 -15 -14h-69q-15 0 -15 13v591q0 13 14 13h69q16 0 16 -12v-244h214v243q0 13 15 13h69q16 0 16 -12v-591z" />
    <glyph glyph-name="afii10032" unicode="&#x41e;" horiz-adv-x="513" 
d="M454 170q0 -81 -55 -128.5t-142 -47.5t-143 47t-56 129v279q0 81 56 129t142 48q85 0 141.5 -47.5t56.5 -129.5v-279zM355 172v276q0 39 -26.5 65t-71.5 26t-72.5 -26t-27.5 -65v-276q0 -41 26.5 -66t72.5 -25q45 0 72 25t27 66z" />
    <glyph glyph-name="afii10033" unicode="&#x41f;" horiz-adv-x="563" 
d="M476 617q15 0 15 -13v-590q0 -14 -15 -14h-69q-15 0 -15 13v519h-220v-518q0 -14 -16 -14h-69q-15 0 -15 13v590q0 14 15 14h389z" />
    <glyph glyph-name="afii10034" unicode="&#x420;" horiz-adv-x="472" 
d="M447 433q0 -76 -54 -128t-135 -52h-97l1 -239q0 -14 -15 -14h-69q-15 0 -15 13v591q0 13 15 13h179q87 0 138.5 -51.5t51.5 -132.5zM349 434q0 39 -24.5 68t-67.5 29h-96v-193h96q41 0 66.5 26.5t25.5 69.5z" />
    <glyph glyph-name="afii10035" unicode="&#x421;" horiz-adv-x="451" 
d="M251 -6q-86 0 -139.5 46.5t-53.5 126.5v285q0 79 52.5 126.5t135.5 47.5q115 0 178 -83q10 -13 -4 -24l-46 -36q-14 -10 -24 6q-37 50 -101 50q-44 0 -68 -25t-24 -64v-282q0 -38 25.5 -62.5t69.5 -24.5q54 0 97 47q14 16 25 9l50 -35q12 -8 5 -20q-62 -88 -178 -88z" />
    <glyph glyph-name="afii10036" unicode="&#x422;" horiz-adv-x="429" 
d="M412 546q0 -15 -13 -15h-138v-517q0 -14 -15 -14h-69q-15 0 -15 13l1 518h-133q-14 0 -14 15v57q0 14 14 14h369q13 0 13 -13v-58z" />
    <glyph glyph-name="afii10037" unicode="&#x423;" horiz-adv-x="452" 
d="M28 618h64q20 0 24 -14l110 -339h4l108 338q5 15 27 15h58q16 0 16 -10q0 -4 -2 -10l-158 -456q-13 -38 -19.5 -55t-20 -41t-26.5 -34t-34.5 -18t-49.5 -8h-44q-11 0 -14 3.5t-3 14.5v49q0 10 3 13t11 3h24q23 0 35.5 5.5t20.5 23.5l16 39l-164 460q-2 6 -2 8q0 12 16 13
z" />
    <glyph glyph-name="afii10038" unicode="&#x424;" horiz-adv-x="594" 
d="M535 236q1 -71 -55 -120t-136 -54v-49q0 -13 -14 -13h-69q-14 0 -14 13v49q-80 3 -135 51.5t-54 122.5v166q-1 74 53.5 123t135.5 53v26q0 13 14 13h68q15 0 15 -12v-27q85 -4 138.5 -52t52.5 -123v-167zM442 235v173q0 38 -23.5 63t-74.5 27v-354q44 3 71 27.5t27 63.5z
M247 144v354q-45 -1 -70 -28t-25 -64v-172q0 -36 25 -61.5t70 -28.5z" />
    <glyph glyph-name="afii10039" unicode="&#x425;" horiz-adv-x="466" 
d="M344 13l-107 217h-3l-107 -217q-7 -13 -26 -13h-72q-15 0 -15 9q0 3 4 11l161 301l-147 278q-3 5 -3 9q0 9 15 9h77q17 0 24 -14l90 -188h3l93 188q7 14 24 14h71q14 0 14 -9q0 -4 -3 -9l-144 -278l161 -302q3 -6 3 -10q0 -9 -14 -9h-73q-20 0 -26 13z" />
    <glyph glyph-name="afii10040" unicode="&#x426;" horiz-adv-x="572" 
d="M491 603v-518h42q18 0 18 -23v-183q0 -9 -3 -13t-6.5 -5t-9.5 -1h-52h-8t-6 1.5t-5.5 6t-1.5 11.5v121h-371q-16 0 -16 15v588q0 14 16 14h69q15 0 15 -14v-518h221v518q0 14 14 14h69q15 0 15 -14z" />
    <glyph glyph-name="afii10041" unicode="&#x427;" horiz-adv-x="502" 
d="M343 13v256h-3q-47 -31 -124 -31q-78 0 -129 48.5t-51 127.5v191q0 13 15 13h70q15 0 15 -13v-176q0 -102 102 -102q60 0 106 35v243q0 13 14 13h68q16 0 16 -13v-592q0 -13 -16 -13h-68q-15 0 -15 13z" />
    <glyph glyph-name="afii10042" unicode="&#x428;" horiz-adv-x="787" 
d="M714 604v-590q0 -14 -15 -14h-611q-15 0 -15 15v590q0 12 15 12h68q16 0 16 -13v-519h173v520q0 12 15 12h69q15 0 15 -13v-519h173v520q0 12 14 12h68q15 0 15 -13z" />
    <glyph glyph-name="afii10043" unicode="&#x429;" horiz-adv-x="796" 
d="M683 0h-595q-15 0 -15 15v590q0 12 15 12h69q15 0 15 -13v-518h174v519q0 12 14 12h69q15 0 15 -13v-518h173v518q0 13 15 13h68q15 0 15 -14v-517h43q17 0 17 -24v-183q0 -20 -18 -20h-53q-20 0 -21 20v121z" />
    <glyph glyph-name="afii10044" unicode="&#x42a;" horiz-adv-x="617" 
d="M492 183q0 47 -26.5 74t-70.5 27h-111v-198h111q43 0 70 28.5t27 68.5zM187 15v516h-157q-14 0 -14 14v58q0 13 14 13h239q15 0 15 -14v-232h114q91 0 141 -52t50 -133t-53 -133t-141 -52h-193q-15 0 -15 15z" />
    <glyph glyph-name="afii10045" unicode="&#x42b;" horiz-adv-x="689" 
d="M162 605v-235h121q84 0 134 -52.5t50 -132.5q0 -81 -53 -133t-141 -52h-194q-14 0 -14 15v590q0 12 14 12h68q15 0 15 -12zM627 14q0 -14 -14 -14h-70q-15 0 -15 13v591q0 13 15 13h70q14 0 14 -12v-591zM162 86h111q43 0 70 28.5t27 68.5q0 47 -26.5 74t-70.5 27h-111
v-198z" />
    <glyph glyph-name="afii10046" unicode="&#x42c;" horiz-adv-x="495" 
d="M371 183q0 47 -27 74t-70 27h-112v-198h112q42 0 69.5 29t27.5 68zM468 185q0 -81 -53.5 -133t-140.5 -52h-195q-14 0 -14 15v590q0 12 14 12h68q15 0 15 -12v-235h121q84 0 134.5 -52.5t50.5 -132.5z" />
    <glyph glyph-name="afii10047" unicode="&#x42d;" horiz-adv-x="462" 
d="M44 544q60 81 182 81q90 0 137 -46t47 -126v-287q0 -80 -54.5 -126t-143.5 -46q-117 0 -177 87q-2 4 -2 7q0 8 7 12l50 36q4 3 8 3q6 0 16 -12q45 -47 97 -47q49 0 74.5 23.5t25.5 62.5v118h-187q-13 0 -13 14v55q0 15 14 15h186v85q0 84 -96 84q-56 0 -102 -49
q-6 -8 -13 -8q-2 0 -7 3l-45 37q-9 8 -9 13q0 4 5 11z" />
    <glyph glyph-name="afii10048" unicode="&#x42e;" horiz-adv-x="701" 
d="M641 168q0 -81 -53.5 -127.5t-138.5 -46.5t-139 45.5t-54 128.5v107h-94v-261q0 -14 -14 -14h-70q-14 0 -14 13v591q0 13 14 13h69q15 0 15 -13v-244h94v92q0 80 54.5 127t137.5 47t138 -46.5t55 -127.5v-284zM543 169v281q0 39 -26 64t-68 25q-43 0 -69 -25t-26 -64
v-281q0 -39 25.5 -63.5t68.5 -24.5t69 24t26 64z" />
    <glyph glyph-name="afii10049" unicode="&#x42f;" horiz-adv-x="506" 
d="M55 441q0 85 54 130.5t142 45.5h178q15 0 15 -14v-590q0 -13 -16 -13h-68q-15 0 -15 14v231h-106l-103 -224q-10 -21 -27 -21h-75q-19 0 -11 18l114 238q5 8 -2 12q-80 60 -80 173zM346 531h-87q-52 0 -78.5 -28.5t-26.5 -69.5q0 -29 16 -66t47 -37h129v201z" />
    <glyph glyph-name="afii10065" unicode="&#x430;" horiz-adv-x="450" 
d="M227 449q90 0 128.5 -42.5t38.5 -123.5v-271q0 -12 -11 -12h-67q-10 0 -10 10v23l-3 1q-40 -40 -108 -40q-74 0 -114.5 41.5t-40.5 111.5q0 68 43 111.5t120 43.5q60 0 92 -25h3v23q0 35 -19.5 52.5t-64.5 17.5q-54 0 -101 -22q-14 -5 -18 6l-17 49q-4 13 6 16
q63 30 143 30zM128 150q0 -36 20 -58t62 -22q37 0 59.5 22.5t22.5 57.5q0 36 -21 58t-61 22q-37 0 -59.5 -22.5t-22.5 -57.5z" />
    <glyph glyph-name="afii10066" unicode="&#x431;" horiz-adv-x="458" 
d="M410 256v-90q0 -83 -49.5 -127.5t-134.5 -44.5q-178 0 -178 203v118q0 118 46 190.5t167 108.5q19 6 49.5 14t47.5 13q4 3 10 0.5t7 -9.5l13 -52q1 -7 -2.5 -10.5t-13.5 -6.5q-15 -4 -45.5 -13t-42.5 -12q-137 -36 -145 -147h2q42 33 106 33q78 0 120.5 -45t42.5 -123z
M315 163v93q0 40 -21.5 64t-64.5 24q-39 0 -63 -24t-24 -63v-94q0 -39 21 -63t64 -24q38 0 63 24.5t25 62.5z" />
    <glyph glyph-name="afii10067" unicode="&#x432;" horiz-adv-x="457" 
d="M413 131q0 -60 -39.5 -95.5t-106.5 -35.5h-196q-17 0 -17 15v410q0 15 16 15h182q69 0 108.5 -31.5t39.5 -89.5q0 -24 -13 -48t-35 -37v-3q29 -13 45 -41t16 -59zM319 135q0 58 -71 58h-102v-112h110q29 0 46 15t17 39zM305 311q0 49 -65 49h-94v-101h95q31 0 47.5 14.5
t16.5 37.5z" />
    <glyph glyph-name="afii10068" unicode="&#x433;" horiz-adv-x="357" 
d="M354 375q0 -15 -17 -15h-193v-345q0 -15 -16 -15h-62q-16 0 -16 15v411q0 14 16 14h271q17 0 17 -14v-51z" />
    <glyph glyph-name="afii10069" unicode="&#x434;" horiz-adv-x="477" 
d="M317 80v281h-119q-10 -122 -18 -194q-5 -57 -28 -84l2 -3h163zM140 441h249q12 0 15.5 -3t3.5 -15v-343h28q15 0 15 -20v-152q-1 -12 -4.5 -15t-11.5 -3h-46q-6 0 -9 0.5t-6 4.5t-3 13v92h-280v-92q0 -12 -4 -15t-13 -3h-47q-8 0 -11.5 3.5t-4.5 14.5v145q0 14 2.5 17
t18.5 8q7 3 11 4q43 7 61 162l16 176q1 12 5 16.5t15 4.5z" />
    <glyph glyph-name="afii10070" unicode="&#x435;" horiz-adv-x="448" 
d="M408 227q0 -12 -7.5 -19.5t-16.5 -7.5h-244v-35q0 -39 22 -64t65 -25q51 0 91 49q10 13 22 4l41 -28q16 -9 8 -24q-49 -83 -164 -83q-82 0 -131 45.5t-49 121.5v113q0 77 51 125.5t131 48.5q82 0 131.5 -48t49.5 -126v-47zM227 367q-38 0 -62 -22t-24 -60v-16h172v17
q0 35 -22.5 58t-63.5 23z" />
    <glyph glyph-name="afii10072" unicode="&#x436;" horiz-adv-x="709" 
d="M43 18l4 89q3 73 36 118.5t100 44.5l-128 151q-1 2 -3 4.5t-2 5.5q0 9 12 9h82q15 0 20 -7l138 -166l4 2v162q0 12 12 12h70q12 0 12 -13v-165l5 -1l137 169q6 7 21 7h82q10 0 10 -9q0 -2 -1.5 -5t-1.5 -5l-134 -151v-1q127 1 137 -135l9 -116q0 -18 -15 -18h-65
q-15 0 -15 15l-9 114q-5 68 -81 68q-41 0 -59.5 -25t-18.5 -63v-91q0 -18 -16 -18h-68q-12 0 -12 12v106q0 35 -21 57t-57 22q-80 0 -84 -86l-5 -96q0 -15 -16 -15h-64q-15 0 -15 14v4z" />
    <glyph glyph-name="afii10073" unicode="&#x437;" horiz-adv-x="397" 
d="M177 76q35 0 57 16t22 48q0 25 -14.5 38.5t-37.5 13.5h-67q-12 0 -12 11v52q0 11 12 11h63q55 0 55 44q0 27 -22 41.5t-53 14.5q-50 0 -85 -45q-15 -16 -27 -6l-40 32q-14 12 -3 25q59 74 164 76q70 0 116.5 -34.5t46.5 -98.5q0 -25 -13 -49.5t-37 -34.5v-3
q26 -11 39.5 -37t13.5 -50q0 -69 -49 -108t-127 -39q-102 0 -158 77q-11 12 6 25l41 32q12 10 22 0q16 -19 24.5 -27.5t25 -16.5t37.5 -8z" />
    <glyph glyph-name="afii10074" unicode="&#x438;" horiz-adv-x="464" 
d="M55 14v413q0 13 16 13h62q15 0 15 -14v-266h4l162 264q9 16 28 16h51q16 0 16 -14v-412q0 -14 -14 -14h-64q-16 0 -16 14v266h-3l-165 -267q-8 -13 -23 -13h-53q-16 0 -16 14z" />
    <glyph glyph-name="afii10075" unicode="&#x439;" horiz-adv-x="463" 
d="M55 14v413q0 13 16 13h62q15 0 15 -14v-266h4l162 264q9 16 28 16h51q16 0 16 -14v-412q0 -14 -14 -14h-64q-16 0 -16 14v266h-3l-165 -267q-8 -13 -23 -13h-53q-16 0 -16 14zM115 620q0 8 2.5 11t11.5 2h27q3 0 5.5 -0.5t3.5 -0.5t2 -2l1.5 -3t1.5 -4.5t1 -4.5
q18 -58 66 -58q52 0 66 59q4 13 9 14h8h27q9 1 11.5 -2t2.5 -11q-4 -55 -37.5 -92.5t-86.5 -37.5q-51 0 -85 38t-37 92z" />
    <glyph glyph-name="afii10076" unicode="&#x43a;" horiz-adv-x="463" 
d="M419 111l5 -93q1 -18 -15 -18h-65q-14 0 -16 15l-5 91q-3 49 -23.5 71t-61.5 22q-43 0 -65 -26t-22 -66v-95q0 -12 -12 -12h-71q-12 0 -12 12v417q0 12 12 12h70q12 0 12 -12v-157h2l2 -1l146 162q7 7 20 7h86q10 0 10 -9q0 -5 -4 -10l-137 -149q137 0 144 -161z" />
    <glyph glyph-name="afii10077" unicode="&#x43b;" horiz-adv-x="441" 
d="M88 427q0 14 16 14h267q15 0 15 -13v-414q0 -14 -15 -14h-66q-14 0 -14 13v347h-115v-103q-2 -95 -16 -148.5t-38.5 -80t-72.5 -46.5q-12 -5 -18 7l-22 43q-6 12 8 22q44 27 57.5 67t13.5 148v158z" />
    <glyph glyph-name="afii10078" unicode="&#x43c;" horiz-adv-x="570" 
d="M237 244l48 -104h2l52 113l82 172q9 15 24 15h54q17 0 17 -16v-408q0 -16 -17 -16h-60q-17 0 -17 15v233h-1l-35 -72l-64 -129q-9 -15 -21 -15h-37q-14 0 -21 14l-55 115l-39 88h-2v-233q0 -16 -16 -16h-59q-18 0 -18 15v408q0 17 18 17h53q18 0 25 -16z" />
    <glyph glyph-name="afii10079" unicode="&#x43d;" horiz-adv-x="460" 
d="M406 14q0 -14 -18 -14h-60q-17 0 -17 14v179h-162v-179q0 -14 -17 -14h-61q-18 0 -18 14v411q0 15 16 15h63q17 0 17 -14v-162h162v161q0 15 16 15h61q18 0 18 -14v-412z" />
    <glyph glyph-name="afii10080" unicode="&#x43e;" horiz-adv-x="458" 
d="M410 164q0 -81 -48 -125.5t-133 -44.5t-133.5 44.5t-48.5 123.5v117q0 76 50 123t131 47q84 0 133 -44.5t49 -124.5v-116zM142 278v-114q0 -40 22 -64t64 -24q40 0 63.5 24t23.5 64v114q0 40 -22.5 64t-63.5 24t-64 -24t-23 -64z" />
    <glyph glyph-name="afii10081" unicode="&#x43f;" horiz-adv-x="459" 
d="M415 13q0 -13 -13 -13h-68q-13 0 -13 12v347h-173v-346q0 -13 -13 -13h-69q-13 0 -13 12v416q0 13 13 13h336q13 0 13 -12v-416z" />
    <glyph glyph-name="afii10082" unicode="&#x440;" horiz-adv-x="462" 
d="M53 429q0 12 12 12h64q13 0 13 -12v-24l1 -1h2q39 41 114 41q74 0 115.5 -44t41.5 -121v-117q0 -72 -43.5 -120.5t-121.5 -48.5q-63 0 -100 28l-3 -2v-188q0 -13 -13 -13h-69q-13 0 -13 12v598zM148 277v-104q0 -42 21 -70t65 -28t66 24.5t22 63.5v107q0 41 -21.5 67.5
t-63.5 26.5q-38 0 -63.5 -25t-25.5 -62z" />
    <glyph glyph-name="afii10083" unicode="&#x441;" horiz-adv-x="412" 
d="M388 80q-58 -86 -162 -86q-83 0 -133 45.5t-50 122.5v114q0 78 52.5 125t132.5 47q100 0 157 -83q3 -4 2 -12t-7 -12l-45 -32q-15 -11 -27 9q-14 22 -38.5 35t-43.5 13q-38 0 -63 -24t-25 -61v-121q0 -36 25 -59.5t62 -23.5q51 0 88 50q11 13 25 4l41 -27q18 -12 9 -24z
" />
    <glyph glyph-name="afii10084" unicode="&#x442;" horiz-adv-x="366" 
d="M356 376q0 -16 -18 -16h-110v-344q0 -16 -16 -16h-61q-17 0 -17 15v345h-106q-17 0 -17 16v49q0 16 17 16h310q18 0 18 -15v-50z" />
    <glyph glyph-name="afii10085" unicode="&#x443;" horiz-adv-x="428" 
d="M117 425l48 -191l37 -150h2l108 338q6 19 25 19h59q15 0 15 -14q0 -4 -1 -7l-190 -581q-6 -21 -30 -21h-51q-11 0 -15.5 8t0.5 18l50 156h-22q-18 0 -24 20l-113 402q-1 2 -1 6q0 13 14 13h67q17 0 22 -16z" />
    <glyph glyph-name="afii10086" unicode="&#x444;" horiz-adv-x="549" 
d="M502 176q0 -75 -49 -126t-138 -57v-161q0 -13 -13 -13h-62q-12 0 -12 12v163q-90 8 -136.5 56.5t-46.5 122.5v93q0 74 48.5 126t134.5 57v175q0 13 12 13h62q8 0 10.5 -2.5t2.5 -10.5v-174q91 -5 139 -56t48 -128v-90zM408 174v93q0 88 -93 97v-287q48 4 70.5 31t22.5 66
zM140 174q0 -87 88 -98v286q-88 -11 -88 -95v-93z" />
    <glyph glyph-name="afii10087" unicode="&#x445;" horiz-adv-x="396" 
d="M254 230l135 -212q6 -7 2 -12.5t-13 -5.5h-66q-19 0 -27 14l-84 146h-2l-84 -146q-9 -14 -27 -14h-65q-10 0 -13 5.5t2 12.5l133 212l-120 191q-6 6 -2 12.5t12 6.5h66q9 0 12 -0.5t6.5 -3t7.5 -9.5q12 -18 24 -39l26.5 -46.5l22.5 -39.5h3l71 125q7 13 26 13h66
q10 0 13 -6t-2 -13z" />
    <glyph glyph-name="afii10088" unicode="&#x446;" horiz-adv-x="482" 
d="M382 0h-313q-16 0 -16 16v411q0 14 17 14h63q16 0 16 -14v-346h166v344q0 16 14 16h65q16 0 16 -14v-347h38q14 0 14 -21v-149q0 -20 -14 -20h-50q-9 0 -12.5 4t-3.5 17v89z" />
    <glyph glyph-name="afii10089" unicode="&#x447;" horiz-adv-x="446" 
d="M29 431q0 13 12 13h70q13 0 13 -12v-112q0 -40 21.5 -64.5t64.5 -24.5q44 0 75 23q12 9 12 22v155q0 13 13 13h69q13 0 13 -12v-419q0 -12 -12 -12h-70q-12 0 -12 12v163l-5 1q-42 -27 -107 -27q-76 0 -116.5 46t-40.5 123v112z" />
    <glyph glyph-name="afii10090" unicode="&#x448;" horiz-adv-x="676" 
d="M526 81v345q0 14 16 14h63q16 0 16 -15v-411q0 -14 -17 -14h-532q-18 0 -18 14v412q0 14 16 14h64q16 0 16 -15v-344h141v345q0 14 16 14h63q16 0 16 -15v-344h140z" />
    <glyph glyph-name="afii10091" unicode="&#x449;" horiz-adv-x="694" 
d="M592 0h-520q-18 0 -18 14v412q0 14 16 14h64q15 0 15 -15v-344h141v345q0 14 17 14h63q16 0 16 -15v-344h140v345q0 14 16 14h62q16 0 16 -15v-344h38q14 -2 14 -21v-149q0 -21 -14 -21h-50q-9 0 -12.5 4t-3.5 17v89z" />
    <glyph glyph-name="afii10092" unicode="&#x44a;" horiz-adv-x="530" 
d="M419 146q0 32 -17.5 49.5t-49.5 17.5h-114v-133h114q31 0 49 20t18 46zM238 426v-134h114q73 0 114 -42t41 -103t-41 -104t-115 -43h-191q-17 0 -17 16v345h-116q-17 0 -17 16v49q0 15 17 15h193q18 0 18 -15z" />
    <glyph glyph-name="afii10093" unicode="&#x44b;" horiz-adv-x="609" 
d="M555 16q0 -16 -17 -16h-60q-17 0 -17 15v410q0 15 17 15h60q17 0 17 -15v-409zM330 146q0 32 -17.5 49.5t-48.5 17.5h-114v-133h114q31 0 48.5 20t17.5 46zM419 147q0 -61 -41 -104t-116 -43h-190q-17 0 -17 16v410q0 15 17 15h60q18 0 18 -15v-134h114q73 0 114 -42
t41 -103z" />
    <glyph glyph-name="afii10094" unicode="&#x44c;" horiz-adv-x="442" 
d="M330 146q0 32 -17.5 49.5t-48.5 17.5h-114v-133h114q31 0 48.5 20t17.5 46zM419 147q0 -61 -41 -104t-116 -43h-190q-17 0 -17 16v410q0 15 17 15h60q18 0 18 -15v-134h114q73 0 114 -42t41 -103z" />
    <glyph glyph-name="afii10095" unicode="&#x44d;" horiz-adv-x="409" 
d="M112 205v51q0 10 12 10h144v14q0 85 -88 85q-51 0 -83 -42q-17 -17 -28 -9l-40 30q-8 5 -8 14q0 6 4 12q62 77 161 77q88 0 133 -44.5t45 -126.5v-114q0 -77 -50 -122.5t-133 -45.5q-106 0 -160 79q-3 5 -3 9q0 8 11 15l42 30q12 8 19 -2q2 -4 7.5 -9.5t5.5 -6.5
q31 -33 77 -33q37 0 62.5 22t25.5 56v39h-145q-11 0 -11 12z" />
    <glyph glyph-name="afii10096" unicode="&#x44e;" horiz-adv-x="617" 
d="M225 161v28h-76v-174q0 -15 -16 -15h-63q-16 0 -16 14v412q0 14 15 14h63q17 0 17 -13v-162h76v16q0 76 45.5 121.5t124.5 45.5q80 0 126.5 -44.5t46.5 -124.5v-115q0 -82 -45.5 -126t-126.5 -44t-126 44t-45 123zM473 163v108q0 44 -19.5 69t-57.5 25q-37 0 -57 -24
t-20 -64v-107q0 -94 76 -94q37 0 57.5 23.5t20.5 63.5z" />
    <glyph glyph-name="afii10097" unicode="&#x44f;" horiz-adv-x="457" 
d="M308 365h-110q-27 0 -41.5 -19.5t-14.5 -44.5q0 -20 14 -42.5t38 -22.5h114v129zM50 306q0 60 36.5 98.5t96.5 38.5h201q19 0 19 -18v-408q0 -17 -16 -17h-62q-17 0 -17 18v143h-102q-5 -9 -69 -143q-4 -7 -6.5 -10t-8.5 -5.5t-16 -2.5h-54q-12 0 -15 7t3 17l72 142
q4 9 -2 15q-60 53 -60 125z" />
    <glyph glyph-name="afii10071" unicode="&#x451;" horiz-adv-x="448" 
d="M408 227q0 -12 -7.5 -19.5t-16.5 -7.5h-244v-35q0 -39 22 -64t65 -25q51 0 91 49q10 13 22 4l41 -28q16 -9 8 -24q-49 -83 -164 -83q-82 0 -131 45.5t-49 121.5v113q0 77 51 125.5t131 48.5q82 0 131.5 -48t49.5 -126v-47zM227 367q-38 0 -62 -22t-24 -60v-16h172v17
q0 35 -22.5 58t-63.5 23zM366 557q0 -23 -15 -38t-38 -15t-38.5 15t-15.5 38q0 22 15.5 37.5t37.5 15.5t38 -15.5t16 -37.5zM197 557q0 -23 -15.5 -38t-37.5 -15q-23 0 -38.5 15.5t-15.5 37.5t15.5 37.5t37.5 15.5t38 -15.5t16 -37.5z" />
    <glyph glyph-name="afii10099" unicode="&#x452;" horiz-adv-x="491" 
d="M439 162q0 -39 -6.5 -70t-23 -61t-51 -48.5t-85.5 -22.5q-25 -2 -27 15l-5 47q-1 9 4.5 12.5t15.5 4.5q83 8 83 110v120q0 40 -21.5 63.5t-65.5 23.5q-39 0 -62.5 -25t-23.5 -63v-255q0 -13 -13 -13h-69q-13 0 -13 12v482h-40q-12 0 -12 12v31q0 12 11 12h41v75
q0 13 12 13h70q12 0 12 -13v-75h172q11 0 11 -11v-32q0 -12 -10 -12h-173v-90h3q39 34 109 34q77 0 117 -46t40 -123v-107z" />
    <glyph glyph-name="afii10100" unicode="&#x453;" horiz-adv-x="357" 
d="M298 610l-107 -120q-10 -11 -23 -3l-24 14q-12 8 -4 20l80 135q10 16 23 9l52 -31q14 -10 3 -24zM354 375q0 -15 -17 -15h-193v-345q0 -15 -16 -15h-62q-16 0 -16 15v411q0 14 16 14h271q17 0 17 -14v-51z" />
    <glyph glyph-name="afii10101" unicode="&#x454;" horiz-adv-x="403" 
d="M378 73q-57 -79 -162 -79q-83 0 -133 45.5t-50 122.5v114q0 79 52 125.5t133 46.5q97 -1 157 -79q9 -15 -6 -24l-42 -30q-12 -8 -27 9q-32 42 -83 42q-38 0 -63.5 -24.5t-25.5 -61.5v-13h146q11 0 11 -11v-51q0 -12 -10 -12h-147v-35q1 -36 25.5 -58.5t63.5 -22.5
q33 0 52 12t39 37q9 7 19 1l43 -30q18 -11 8 -24z" />
    <glyph glyph-name="afii10102" unicode="&#x455;" horiz-adv-x="402" 
d="M366 124q0 -58 -45.5 -93.5t-118.5 -35.5q-56 0 -101 23t-67 71q-2 6 -2 8q0 6 6 9l52 26q11 5 19 -6q37 -54 98 -54q29 0 47.5 13t18.5 36q0 20 -13 31t-41 22l-64 22q-110 38 -110 122q0 61 45 94.5t111 34.5q95 0 151 -56q9 -9 0 -18l-33 -43q-5 -5 -9 -5q-6 0 -12 5
q-48 37 -95 37q-26 0 -46 -11t-20 -33q0 -32 54 -51l29 -10l32 -11t28 -11.5t28.5 -15l21.5 -17.5t20.5 -23t10.5 -26.5t5 -33.5z" />
    <glyph glyph-name="afii10103" unicode="&#x456;" horiz-adv-x="213" 
d="M166 570q0 -22 -17.5 -39t-40.5 -17q-24 0 -41 16t-17 40q0 23 17 39.5t40 16.5q24 0 41.5 -16.5t17.5 -39.5zM154 12q2 -12 -12 -12h-70q-13 0 -13 12v416q0 13 12 13h70q13 0 13 -13v-416z" />
    <glyph glyph-name="afii10104" unicode="&#x457;" horiz-adv-x="213" 
d="M154 12q2 -12 -12 -12h-70q-13 0 -13 12v416q0 13 12 13h70q13 0 13 -13v-416zM246 550q0 -22 -15 -37.5t-38 -15.5t-38.5 15t-15.5 38q0 22 15.5 37.5t37.5 15.5t38 -15.5t16 -37.5zM77 550q0 -22 -15.5 -37.5t-37.5 -15.5q-23 0 -38.5 15.5t-15.5 37.5t15.5 37.5
t37.5 15.5t38 -15.5t16 -37.5z" />
    <glyph glyph-name="afii10105" unicode="&#x458;" horiz-adv-x="225" 
d="M175 570q0 -23 -17 -40t-41 -17t-40.5 16.5t-16.5 40.5q0 23 16.5 39.5t39.5 16.5q25 0 42 -16.5t17 -39.5zM164 -54q0 -58 -30 -94.5t-94 -36.5q-32 0 -56 6q-17 6 -15 20l10 53q3 14 22 10q16 -2 26 -2q43 1 43 55v472q0 12 13 12h69q12 0 12 -12v-483z" />
    <glyph glyph-name="afii10106" unicode="&#x459;" horiz-adv-x="673" 
d="M286 360h-110v-103q-2 -95 -16 -148.5t-38.5 -80t-72.5 -46.5q-12 -5 -18 7l-22 43q-6 12 8 22q44 27 57.5 67t13.5 148v158q0 14 16 14h258q19 0 19 -15v-135h114q72 0 113.5 -42t41.5 -102q0 -62 -41.5 -104.5t-115.5 -42.5h-190q-17 0 -17 16v344zM495 79q30 0 48 20
t18 46q0 32 -17.5 49.5t-48.5 17.5h-114v-133h114z" />
    <glyph glyph-name="afii10107" unicode="&#x45a;" horiz-adv-x="658" 
d="M270 16v181h-119v-181q0 -16 -17 -16h-62q-17 0 -17 15v410q0 15 17 15h61q18 0 18 -15v-146h119v147q0 15 18 15h60q18 0 18 -15v-147h115q72 0 113 -39t41 -99q0 -61 -40.5 -101t-114.5 -40h-192q-18 0 -18 16zM366 79h115q30 0 47.5 18.5t17.5 42.5q0 60 -65 60h-115
v-121z" />
    <glyph glyph-name="afii10108" unicode="&#x45b;" horiz-adv-x="507" 
d="M454 13q0 -13 -12 -13h-71q-12 0 -12 12v261q0 40 -22 63.5t-65 23.5q-39 0 -62.5 -25t-23.5 -63v-259q0 -13 -13 -13h-70q-13 0 -13 12v482h-39q-12 0 -12 12v31q0 12 11 12h40v75q0 13 13 13h69q13 0 13 -13v-75h172q11 0 11 -11v-32q0 -12 -11 -12h-172v-85l3 -1
q39 34 109 34q76 0 116.5 -45.5t40.5 -122.5v-261z" />
    <glyph glyph-name="afii10109" unicode="&#x45c;" horiz-adv-x="463" 
d="M419 111l5 -93q1 -18 -15 -18h-65q-14 0 -16 15l-5 91q-3 49 -23.5 71t-61.5 22q-43 0 -65 -26t-22 -66v-95q0 -12 -12 -12h-71q-12 0 -12 12v417q0 12 12 12h70q12 0 12 -12v-157h2l2 -1l146 162q7 7 20 7h86q10 0 10 -9q0 -5 -4 -10l-137 -149q137 0 144 -161zM330 610
l-107 -120q-10 -11 -23 -3l-24 15q-11 7 -4 19l81 135q10 16 22 9l52 -32q16 -10 3 -23z" />
    <glyph glyph-name="afii10110" unicode="&#x45e;" horiz-adv-x="428" 
d="M117 425l48 -191l37 -150h2l108 338q6 19 25 19h59q15 0 15 -14q0 -4 -1 -7l-190 -581q-6 -21 -30 -21h-51q-11 0 -15.5 8t0.5 18l50 156h-22q-18 0 -24 20l-113 402q-1 2 -1 6q0 13 14 13h67q17 0 22 -16zM215 563q41 0 61 58q4 12 15 12h34q16 0 14 -16
q-6 -53 -40 -89.5t-84 -36.5q-49 0 -83.5 37t-40.5 89q-2 16 14 16h34q13 0 17 -12q20 -58 59 -58z" />
    <glyph glyph-name="afii10193" unicode="&#x45f;" horiz-adv-x="473" 
d="M277 0v-104q0 -19 -20 -19h-42q-20 0 -20 19v104h-123q-18 0 -18 16v409q0 15 18 15h59q18 0 18 -16v-348h175v349q0 15 16 15h62q16 0 16 -16v-409q0 -15 -17 -15h-124z" />
    <glyph glyph-name="afii10050" unicode="&#x490;" horiz-adv-x="438" 
d="M430 547q0 -16 -15 -16h-241q0 -86 0.5 -259t0.5 -260q0 -12 -13 -12h-73q-13 0 -13 12v592q0 13 13 13h254l18 101q4 19 21 19h32q17 0 17 -22q0 -28 -0.5 -84t-0.5 -84z" />
    <glyph glyph-name="afii10098" unicode="&#x491;" horiz-adv-x="359" 
d="M351 375q0 -15 -17 -15h-188v-345q0 -15 -16 -15h-64q-16 0 -16 15v411q0 14 16 14h205l13 91q4 18 22 18h29q18 0 18 -21z" />
    <glyph glyph-name="schwacyrillic" unicode="&#x4d9;" horiz-adv-x="448" 
d="M45 215q0 12 7.5 19.5t16.5 7.5h244v35q0 39 -22 64t-65 25q-51 0 -91 -49q-10 -13 -22 -4l-41 28q-16 9 -8 24q49 83 164 83q82 0 131 -45.5t49 -121.5v-113q0 -77 -51 -125.5t-131 -48.5q-82 0 -131.5 48t-49.5 126v47zM226 75q38 0 62 22t24 60v16h-172v-17
q0 -35 22.5 -58t63.5 -23z" />
    <glyph glyph-name="Wgrave" unicode="&#x1e80;" horiz-adv-x="693" 
d="M683 598l-135 -586q-3 -12 -17 -12h-77q-14 0 -16 10l-63 293l-27 133l-3 1q-2 -15 -13 -68l-14 -68l-60 -291q-4 -10 -18 -10h-76q-14 0 -17 9l-137 592q-3 16 15 16h73q12 0 16 -14l61 -294l28 -148l4 -1l9 46t10.5 55t8.5 45l63 301q4 10 17 10h65q13 0 17 -12
q9 -46 35 -162l31 -139l29 -143l4 -1l27 147l60 298q1 12 16 12h68q20 0 16 -19zM189 739l37 49q9 12 23 0l126 -95q12 -9 3 -19l-16 -23q-10 -12 -23 -6l-144 71q-17 8 -6 23z" />
    <glyph glyph-name="wgrave" unicode="&#x1e81;" horiz-adv-x="630" 
d="M614 424l-113 -408q-5 -16 -21 -16h-54q-18 0 -22 14l-57 181l-34 123h-2l-37 -130l-53 -175q-4 -13 -22 -13h-54q-17 0 -22 15l-112 409q-7 17 11 17h69q18 0 21 -16l35 -152l30 -136h3l39 133l46 152q6 19 21 19h54q16 0 21 -17l54 -177l32 -110h3l23 106l40 181
q5 17 23 17h67q17 0 11 -17zM348 521q8 -11 -4 -19l-24 -15q-13 -8 -23 3l-107 119q-12 15 3 24l52 31q12 8 22 -8z" />
    <glyph glyph-name="Wacute" unicode="&#x1e82;" horiz-adv-x="693" 
d="M683 598l-135 -586q-3 -12 -17 -12h-77q-14 0 -16 10l-63 293l-27 133l-3 1q-2 -15 -13 -68l-14 -68l-60 -291q-4 -10 -18 -10h-76q-14 0 -17 9l-137 592q-3 16 15 16h73q12 0 16 -14l61 -294l28 -148l4 -1l9 46t10.5 55t8.5 45l63 301q4 10 17 10h65q13 0 17 -12
q9 -46 35 -162l31 -139l29 -143l4 -1l27 147l60 298q1 12 16 12h68q20 0 16 -19zM502 739q11 -15 -6 -23l-146 -73q-12 -5 -21 8l-16 23q-9 10 3 19l126 95q14 12 23 0z" />
    <glyph glyph-name="wacute" unicode="&#x1e83;" horiz-adv-x="630" 
d="M614 424l-113 -408q-5 -16 -21 -16h-54q-18 0 -22 14l-57 181l-34 123h-2l-37 -130l-53 -175q-4 -13 -22 -13h-54q-17 0 -22 15l-112 409q-7 17 11 17h69q18 0 21 -16l35 -152l30 -136h3l39 133l46 152q6 19 21 19h54q16 0 21 -17l54 -177l32 -110h3l23 106l40 181
q5 17 23 17h67q17 0 11 -17zM442 610l-107 -120q-10 -11 -23 -3l-24 15q-11 7 -4 19l81 135q10 16 22 9l52 -32q16 -10 3 -23z" />
    <glyph glyph-name="Wdieresis" unicode="&#x1e84;" horiz-adv-x="693" 
d="M683 598l-135 -586q-3 -12 -17 -12h-77q-14 0 -16 10l-63 293l-27 133l-3 1q-2 -15 -13 -68l-14 -68l-60 -291q-4 -10 -18 -10h-76q-14 0 -17 9l-137 592q-3 16 15 16h73q12 0 16 -14l61 -294l28 -148l4 -1l9 46t10.5 55t8.5 45l63 301q4 10 17 10h65q13 0 17 -12
q9 -46 35 -162l31 -139l29 -143l4 -1l27 147l60 298q1 12 16 12h68q20 0 16 -19zM479 700q0 -22 -15.5 -37.5t-37.5 -15.5q-23 0 -38.5 15t-15.5 38q0 22 15.5 37.5t37.5 15.5t38 -15.5t16 -37.5zM310 700q0 -22 -15 -37.5t-38 -15.5t-38.5 15.5t-15.5 37.5t15.5 37.5
t37.5 15.5t38 -15.5t16 -37.5z" />
    <glyph glyph-name="wdieresis" unicode="&#x1e85;" horiz-adv-x="630" 
d="M614 424l-113 -408q-5 -16 -21 -16h-54q-18 0 -22 14l-57 181l-34 123h-2l-37 -130l-53 -175q-4 -13 -22 -13h-54q-17 0 -22 15l-112 409q-7 17 11 17h69q18 0 21 -16l35 -152l30 -136h3l39 133l46 152q6 19 21 19h54q16 0 21 -17l54 -177l32 -110h3l23 106l40 181
q5 17 23 17h67q17 0 11 -17zM451 550q0 -22 -15.5 -37.5t-37.5 -15.5q-23 0 -38.5 15t-15.5 38q0 22 15.5 37.5t37.5 15.5t38 -15.5t16 -37.5zM282 550q0 -22 -15 -37.5t-38 -15.5t-38.5 15.5t-15.5 37.5t15.5 37.5t37.5 15.5t38 -15.5t16 -37.5z" />
    <glyph glyph-name="Ygrave" unicode="&#x1ef2;" horiz-adv-x="450" 
d="M96 617q19 0 25 -14l102 -261h4l100 259q8 16 27 16h65q22 0 14 -18l-154 -356q-6 -12 -6 -25v-203q0 -15 -15 -15h-68q-15 0 -15 14v206q0 12 -5 21l-154 357q-8 19 12 19h68zM79 739l37 49q9 12 23 0l126 -95q12 -9 3 -19l-16 -23q-10 -12 -23 -6l-144 71q-17 8 -6 23z
" />
    <glyph glyph-name="ygrave" unicode="&#x1ef3;" horiz-adv-x="428" 
d="M117 425l48 -191l37 -150h2l108 338q6 19 25 19h59q15 0 15 -14q0 -4 -1 -7l-190 -581q-6 -21 -30 -21h-51q-11 0 -15.5 8t0.5 18l50 156h-22q-18 0 -24 20l-113 402q-1 2 -1 6q0 13 14 13h67q17 0 22 -16zM253 521q8 -11 -4 -19l-24 -15q-13 -8 -23 3l-107 119
q-12 15 3 24l52 31q12 8 22 -8z" />
    <glyph glyph-name="endash" unicode="&#x2013;" horiz-adv-x="500" 
d="M470 213q0 -12 -12 -12h-415q-13 0 -13 12v42q0 12 12 12h415q13 0 13 -11v-43z" />
    <glyph glyph-name="emdash" unicode="&#x2014;" horiz-adv-x="1000" 
d="M970 213q0 -12 -13 -12h-914q-13 0 -13 12v42q0 12 12 12h915q13 0 13 -11v-43z" />
    <glyph glyph-name="afii00208" unicode="&#x2015;" horiz-adv-x="1000" 
d="M980 213q0 -12 -13 -12h-934q-13 0 -13 12v42q0 12 12 12h935q13 0 13 -11v-43z" />
    <glyph glyph-name="quoteleft" unicode="&#x2018;" horiz-adv-x="204" 
d="M153 624l-12 -176q0 -24 -23 -24h-66q-28 0 -20 28l51 180q6 18 24 18h29q19 0 17 -26z" />
    <glyph glyph-name="quoteright" unicode="&#x2019;" horiz-adv-x="207" 
d="M169 621l-52 -179q-5 -18 -24 -18h-29q-19 0 -17 26l12 176q2 24 23 24h66q29 0 21 -29z" />
    <glyph glyph-name="quotesinglbase" unicode="&#x201a;" horiz-adv-x="221" 
d="M172 82l-52 -179q-5 -18 -23 -18h-29q-17 0 -17 25l12 176q0 24 23 24h66q28 0 20 -28z" />
    <glyph glyph-name="quotedblleft" unicode="&#x201c;" horiz-adv-x="332" 
d="M290 624l-12 -176q0 -24 -23 -24h-65q-29 0 -21 28l52 180q6 18 24 18h28q19 0 17 -26zM149 624l-11 -176q-2 -24 -24 -24h-65q-28 0 -20 28l51 180q6 18 24 18h29q18 0 16 -26z" />
    <glyph glyph-name="quotedblright" unicode="&#x201d;" horiz-adv-x="332" 
d="M301 621l-52 -179q-5 -18 -24 -18h-29q-18 0 -16 26l11 176q2 24 24 24h65q29 0 21 -29zM159 621l-51 -179q-5 -18 -23 -18h-29q-19 0 -17 26l12 176q2 24 24 24h65q29 0 19 -29z" />
    <glyph glyph-name="quotedblbase" unicode="&#x201e;" horiz-adv-x="376" 
d="M120 -97q-5 -18 -23 -18h-29q-19 0 -17 25l11 177q4 23 24 23h66q29 0 20 -28zM274 -97q-5 -18 -23 -18h-29q-19 0 -17 25l12 177q2 23 23 23h66q29 0 20 -28z" />
    <glyph glyph-name="dagger" unicode="&#x2020;" horiz-adv-x="467" 
d="M428 447q0 -16 -16 -16h-144v-554q0 -16 -16 -16h-41q-8 0 -12.5 4t-3.5 11v555h-140q-17 0 -17 15v38q0 16 16 16h141v152q0 16 16 16h41q16 0 16 -16v-152h144q16 0 16 -15v-38z" />
    <glyph glyph-name="daggerdbl" unicode="&#x2021;" horiz-adv-x="467" 
d="M54 210h141v221h-140q-17 0 -17 15v38q0 16 16 16h141v152q0 16 16 16h41q16 0 16 -16v-152h144q16 0 16 -15v-38q0 -16 -16 -16h-144v-221h144q16 0 16 -16v-38q0 -16 -16 -16h-144v-263q0 -16 -16 -16h-41q-8 0 -12.5 4t-3.5 11v264h-140q-17 0 -17 16v37q0 17 16 17z
" />
    <glyph glyph-name="bullet" unicode="&#x2022;" horiz-adv-x="383" 
d="M193 115q-50 0 -85 34.5t-35 83.5t35.5 84t84.5 35q48 0 83 -35t35 -84t-34.5 -83.5t-83.5 -34.5z" />
    <glyph glyph-name="trianglebullet" unicode="&#x2023;" horiz-adv-x="516" 
d="M77 480l398 -202l-398 -214v416z" />
    <glyph glyph-name="ellipsis" unicode="&#x2026;" horiz-adv-x="709" 
d="M648 50q0 -24 -18 -41.5t-43 -17.5q-24 0 -41.5 17.5t-17.5 41.5t17.5 41.5t41.5 17.5q25 0 43 -17t18 -42zM416 50q0 -24 -17.5 -41.5t-42.5 -17.5t-42.5 17.5t-17.5 41.5t17 41.5t42 17.5q26 0 43.5 -17t17.5 -42zM180 50q0 -24 -17.5 -41.5t-42.5 -17.5t-42.5 17.5
t-17.5 41.5t17.5 41.5t41.5 17.5q26 0 43.5 -17t17.5 -42z" />
    <glyph glyph-name="perthousand" unicode="&#x2030;" horiz-adv-x="1017" 
d="M252 -22q-3 -8 -13 -8h-39q-14 0 -8 13l280 655q4 9 16 9h33q18 0 11 -16zM298 343q0 -52 -34 -80.5t-91 -28.5t-91.5 28t-34.5 81v169q0 51 34.5 80t91.5 29q56 0 90.5 -29t34.5 -80v-169zM223 343v169q0 21 -14 34t-36 13q-23 0 -37 -13t-14 -34v-169q0 -21 14 -34
t37 -13q22 0 36 13t14 34zM683 103q0 -52 -34 -80.5t-91 -28.5t-91.5 28t-34.5 81v169q0 51 34.5 80t91.5 29q56 0 90.5 -29t34.5 -80v-169zM608 103v169q0 21 -14 34t-36 13q-23 0 -37 -13t-14 -34v-169q0 -21 14 -34t37 -13q22 0 36 13t14 34zM970 103q0 -52 -34 -80.5
t-91 -28.5t-91.5 28t-34.5 81v169q0 51 34.5 80t91.5 29q56 0 90.5 -29t34.5 -80v-169zM895 103v169q0 21 -14 34t-36 13q-23 0 -37 -13t-14 -34v-169q0 -21 14 -34t37 -13q22 0 36 13t14 34z" />
    <glyph glyph-name="guilsinglleft" unicode="&#x2039;" horiz-adv-x="332" 
d="M59 224l116 144q14 16 33 16h57q12 0 15.5 -6.5t-3.5 -14.5l-131 -157l129 -162q6 -8 2.5 -16t-12.5 -8h-56q-19 0 -36 20l-113 139q-18 23 -1 45z" />
    <glyph glyph-name="guilsinglright" unicode="&#x203a;" horiz-adv-x="324" 
d="M270 178l-114 -141q-16 -19 -35 -19h-56q-10 0 -13.5 7.5t3.5 16.5l129 158l-130 160q-7 8 -3.5 15t14.5 7h57q21 0 33 -17l116 -143q18 -22 -1 -44z" />
    <glyph glyph-name="fraction" unicode="&#x2044;" horiz-adv-x="134" 
d="M-44 -22q-3 -8 -13 -8h-39q-14 0 -8 13l280 655q4 9 16 9h33q18 0 11 -16z" />
    <glyph glyph-name="fraction" unicode="&#x2215;" horiz-adv-x="134" 
d="M-44 -22q-3 -8 -13 -8h-39q-14 0 -8 13l280 655q4 9 16 9h33q18 0 11 -16z" />
    <glyph glyph-name="zerosuperior" unicode="&#x2070;" horiz-adv-x="311" 
d="M280 433q0 -52 -34 -80.5t-91 -28.5t-91.5 28t-34.5 81v169q0 51 34.5 80t91.5 29q56 0 90.5 -29t34.5 -80v-169zM205 433v169q0 21 -14 34t-36 13q-23 0 -37 -13t-14 -34v-169q0 -21 14 -34t37 -13q22 0 36 13t14 34z" />
    <glyph glyph-name="foursuperior" unicode="&#x2074;" horiz-adv-x="317" 
d="M156 708h52q9 0 9 -6q0 -3 -1 -5l-119 -226h80v84q0 8 9 8h52q9 0 9 -9v-83h45q9 0 9 -8v-43q0 -9 -9 -9h-45v-73q0 -9 -9 -9h-52q-9 0 -9 9v73h-154q-10 0 -10 9v17q0 18 20 60l103 193q0 1 1.5 3.5t2 3.5t2 3.5t2.5 3.5t3 2t4 1.5t5 0.5z" />
    <glyph glyph-name="fivesuperior" unicode="&#x2075;" horiz-adv-x="311" 
d="M199 435v40q0 20 -14.5 31t-38.5 11q-18 0 -35 -10q-13 -7 -27 -2l-29 11q-12 4 -12 21v155q0 14 16 14h189q15 0 15 -14v-34q0 -14 -15 -14h-130v-68l1 -1q16 8 40 8q52 0 82.5 -28.5t30.5 -76.5v-46q0 -49 -35.5 -78.5t-91.5 -29.5q-78 0 -113 59q-4 4 -2.5 10t7.5 9
l31 20q10 7 21 -4q25 -29 55 -29q24 0 39.5 12t15.5 34z" />
    <glyph glyph-name="sixsuperior" unicode="&#x2076;" horiz-adv-x="311" 
d="M281 471v-40q0 -50 -35 -78.5t-90 -28.5q-56 0 -91.5 28.5t-35.5 78.5v165q0 50 34.5 82.5t89.5 32.5q83 0 116 -51q6 -11 -3 -17l-34 -26q-4 -2 -6.5 -2t-4 1t-4 3.5l-3.5 3.5q-26 26 -54 26q-24 0 -40.5 -16t-16.5 -37v-34h1q25 16 58 16q56 0 87.5 -28t31.5 -79z
M207 431v38q0 21 -14 33.5t-39 12.5q-22 0 -36.5 -12.5t-14.5 -31.5v-40q0 -20 15 -32.5t37 -12.5q21 0 36.5 13t15.5 32z" />
    <glyph glyph-name="sevensuperior" unicode="&#x2077;" horiz-adv-x="311" 
d="M273 671q0 -11 -4 -18l-155 -312q-7 -12 -18 -12h-50q-19 0 -12 16l150 301h-97v-26q0 -15 -15 -15h-36q-15 0 -15 14v75q0 14 15 14h216q21 0 21 -17v-20z" />
    <glyph glyph-name="eightsuperior" unicode="&#x2078;" horiz-adv-x="311" 
d="M155 713q54 0 89 -29.5t35 -79.5q0 -47 -40 -75v-1q21 -10 33 -34t12 -51q0 -55 -37 -86t-94 -31q-54 0 -90.5 28.5t-36.5 83.5q0 28 12.5 54t34.5 36v2q-41 19 -41 74q0 49 35.5 79t87.5 30zM155 502q-23 0 -39 -15.5t-16 -42.5t15 -42t40 -15q23 0 38 15t15 42
t-15 42.5t-38 15.5zM206 605q0 20 -14 33.5t-37 13.5q-22 0 -36.5 -14t-14.5 -34q0 -18 14.5 -31.5t36.5 -13.5q23 0 37 13.5t14 32.5z" />
    <glyph glyph-name="ninesuperior" unicode="&#x2079;" horiz-adv-x="311" 
d="M29 563v37q0 50 36.5 80.5t90.5 30.5q56 0 90.5 -30t34.5 -81v-154q0 -58 -37 -90t-94 -32q-80 0 -114 52q-6 10 3 18l33 26q9 6 18 -5q24 -30 59 -30q24 0 41 16t17 45v25h-2q-24 -15 -56 -15q-56 0 -88 28.5t-32 78.5zM103 600v-34q0 -21 14.5 -34t38.5 -13
q22 0 36.5 12.5t14.5 31.5v37q0 20 -15.5 34t-36.5 14t-36.5 -14.5t-15.5 -33.5z" />
    <glyph glyph-name="plussuperior" unicode="&#x207a;" horiz-adv-x="317" 
d="M129 461h-85q-16 0 -16 15v21q0 16 16 16h85v82q0 15 15 15h25q15 0 15 -15v-82h87q17 0 17 -16v-20q0 -16 -17 -16h-87v-82q0 -14 -15 -14h-24q-16 0 -16 14v82z" />
    <glyph glyph-name="hyphensuperior" unicode="&#x207b;" horiz-adv-x="216" 
d="M170 451h-129q-14 0 -14 12v31q0 13 14 13h129q13 0 13 -12v-32q0 -12 -13 -12z" />
    <glyph glyph-name="equalsuperior" unicode="&#x207c;" horiz-adv-x="317" 
d="M294 532q0 -15 -16 -15h-239q-16 0 -16 15v21q0 15 16 15h239q16 0 16 -15v-21zM294 429q0 -17 -16 -17h-239q-16 0 -16 16v22q0 15 16 15h239q7 0 11.5 -4.5t4.5 -10.5v-21z" />
    <glyph glyph-name="parenleftsuperior" unicode="&#x207d;" horiz-adv-x="216" 
d="M186 714q-85 -115 -85 -222q0 -106 82 -215q13 -17 -4 -28q-13 -9 -21 -12q-15 -9 -29 5q-43 44 -73 110.5t-30 139.5q0 66 30.5 133t70.5 115q16 19 29 12l24 -14q13 -10 6 -24z" />
    <glyph glyph-name="parenrightsuperior" unicode="&#x207e;" horiz-adv-x="216" 
d="M189 492q0 -73 -30 -139.5t-73 -110.5q-12 -14 -28 -5q-8 3 -21 12q-19 11 -4 28q82 102 82 215q0 105 -85 222q-8 14 6 24l24 15q12 7 30 -13q39 -44 69 -112t30 -136z" />
    <glyph glyph-name="nsuperior" unicode="&#x207f;" horiz-adv-x="317" 
d="M285 254q0 -15 -14 -15h-47q-15 0 -15 14v166q0 17 -14 32t-36 15q-23 0 -37 -13.5t-14 -33.5v-165q0 -15 -15 -15h-47q-14 0 -14 14v260q0 13 13 13h48q13 0 13 -11v-9h1q29 23 74 23q50 0 77 -29.5t27 -79.5v-166z" />
    <glyph glyph-name="zeroinferior" unicode="&#x2080;" horiz-adv-x="311" 
d="M280 13q0 -52 -34 -80.5t-91 -28.5t-91.5 28t-34.5 81v169q0 51 34.5 80t91.5 29q56 0 90.5 -29t34.5 -80v-169zM205 13v169q0 21 -14 34t-36 13q-23 0 -37 -13t-14 -34v-169q0 -21 14 -34t37 -13q22 0 36 13t14 34z" />
    <glyph glyph-name="oneinferior" unicode="&#x2081;" horiz-adv-x="283" 
d="M64 175q-20 -10 -20 8v38q0 15 12 22l73 40q8 5 16 5h29q16 0 16 -17v-347q0 -15 -15 -15h-45q-16 0 -16 14v275l-1 1z" />
    <glyph glyph-name="twoinferior" unicode="&#x2082;" horiz-adv-x="311" 
d="M270 -77q0 -13 -13 -13h-222q-15 0 -15 13v26q0 15 9 27l135 162q26 30 26 49t-13.5 31.5t-33.5 12.5q-32 0 -54 -29q-13 -14 -23 -5l-30 23q-12 9 -1 20q40 53 110 53q54 0 87 -26.5t33 -73.5q0 -37 -43 -89l-104 -127l2 -4h137q5 0 9 -3.5t4 -8.5v-38z" />
    <glyph glyph-name="threeinferior" unicode="&#x2083;" horiz-adv-x="311" 
d="M264 15q0 -51 -34 -81t-91 -30q-80 2 -112 59q-2 6 -2 8q0 8 8 12l30 16q10 5 12 5q7 0 12 -8q21 -30 51 -30q22 0 37 13t15 32v26q0 19 -14 32t-35 13h-40q-15 0 -15 13v33q0 15 14 15h41q21 0 34.5 12t13.5 30q0 19 -13.5 31t-36.5 12q-28 0 -51 -23q-15 -15 -26 -10
l-28 18q-8 4 -8 12q0 5 4 13q36 53 110 53q56 0 89.5 -28.5t33.5 -75.5q0 -48 -41 -73v-2q20 -9 31 -28t11 -40v-29z" />
    <glyph glyph-name="fourinferior" unicode="&#x2084;" horiz-adv-x="317" 
d="M156 288h52q9 0 9 -6q0 -3 -1 -5l-119 -226h80v84q0 8 9 8h52q9 0 9 -9v-83h45q9 0 9 -8v-43q0 -9 -9 -9h-45v-73q0 -9 -9 -9h-52q-9 0 -9 9v73h-154q-10 0 -10 9v17q0 18 20 60l103 193q0 1 1.5 3.5t2 3.5t2 3.5t2.5 3.5t3 2t4 1.5t5 0.5z" />
    <glyph glyph-name="fiveinferior" unicode="&#x2085;" horiz-adv-x="311" 
d="M199 15v40q0 20 -14.5 31t-38.5 11q-18 0 -35 -10q-13 -7 -27 -2l-29 11q-12 4 -12 21v155q0 14 16 14h189q15 0 15 -14v-34q0 -14 -15 -14h-130v-68l1 -1q16 8 40 8q52 0 82.5 -28.5t30.5 -76.5v-46q0 -49 -35.5 -78.5t-91.5 -29.5q-78 0 -113 59q-4 4 -2.5 10t7.5 9
l31 20q10 7 21 -4q25 -29 55 -29q24 0 39.5 12t15.5 34z" />
    <glyph glyph-name="sixinferior" unicode="&#x2086;" horiz-adv-x="311" 
d="M281 51v-40q0 -50 -35 -78.5t-90 -28.5q-56 0 -91.5 28.5t-35.5 78.5v165q0 50 34.5 82.5t89.5 32.5q83 0 116 -51q6 -11 -3 -17l-34 -26q-4 -2 -6.5 -2t-4 1t-4 3.5l-3.5 3.5q-26 26 -54 26q-24 0 -40.5 -16t-16.5 -37v-34h1q25 16 58 16q56 0 87.5 -28t31.5 -79z
M207 11v38q0 21 -14 33.5t-39 12.5q-22 0 -36.5 -12.5t-14.5 -31.5v-40q0 -20 15 -32.5t37 -12.5q21 0 36.5 13t15.5 32z" />
    <glyph glyph-name="seveninferior" unicode="&#x2087;" horiz-adv-x="296" 
d="M273 251q0 -11 -4 -18l-155 -312q-7 -12 -18 -12h-50q-19 0 -12 16l150 301h-97v-26q0 -15 -15 -15h-36q-15 0 -15 14v75q0 14 15 14h216q21 0 21 -17v-20z" />
    <glyph glyph-name="eightinferior" unicode="&#x2088;" horiz-adv-x="311" 
d="M155 293q54 0 89 -29.5t35 -79.5q0 -47 -40 -75v-1q21 -10 33 -34t12 -51q0 -55 -37 -86t-94 -31q-54 0 -90.5 28.5t-36.5 83.5q0 28 12.5 54t34.5 36v2q-41 19 -41 74q0 49 35.5 79t87.5 30zM155 82q-23 0 -39 -15.5t-16 -42.5t15 -42t40 -15q23 0 38 15t15 42t-15 42.5
t-38 15.5zM206 185q0 20 -14 33.5t-37 13.5q-22 0 -36.5 -14t-14.5 -34q0 -18 14.5 -31.5t36.5 -13.5q23 0 37 13.5t14 32.5z" />
    <glyph glyph-name="nineinferior" unicode="&#x2089;" horiz-adv-x="311" 
d="M29 143v37q0 50 36.5 80.5t90.5 30.5q56 0 90.5 -30t34.5 -81v-154q0 -58 -37 -90t-94 -32q-80 0 -114 52q-6 10 3 18l33 26q9 6 18 -5q24 -30 59 -30q24 0 41 16t17 45v25h-2q-24 -15 -56 -15q-56 0 -88 28.5t-32 78.5zM103 180v-34q0 -21 14.5 -34t38.5 -13
q22 0 36.5 12.5t14.5 31.5v37q0 20 -15.5 34t-36.5 14t-36.5 -14.5t-15.5 -33.5z" />
    <glyph glyph-name="plusinferior" unicode="&#x208a;" horiz-adv-x="317" 
d="M129 46h-85q-16 0 -16 15v21q0 16 16 16h85v82q0 15 15 15h25q15 0 15 -15v-82h87q17 0 17 -16v-20q0 -16 -17 -16h-87v-82q0 -14 -15 -14h-24q-16 0 -16 14v82z" />
    <glyph glyph-name="hypheninferior" unicode="&#x208b;" horiz-adv-x="216" 
d="M170 35h-129q-14 0 -14 12v31q0 13 14 13h129q13 0 13 -11v-33q0 -12 -13 -12z" />
    <glyph glyph-name="equalinferior" unicode="&#x208c;" horiz-adv-x="317" 
d="M294 116q0 -15 -16 -15h-239q-16 0 -16 15v22q0 15 16 15h239q16 0 16 -15v-22zM294 14q0 -17 -16 -17h-239q-16 0 -16 16v21q0 15 16 15h239q16 0 16 -15v-20z" />
    </font>
</defs>
</svg>
