<?xml version="1.0" standalone="no"?>
<!DOCTYPE svg PUBLIC "-//W3C//DTD SVG 1.1//EN" "http://www.w3.org/Graphics/SVG/1.1/DTD/svg11.dtd" >
<svg>
<metadata>
Created by FontForge 20090622 at Wed May 18 14:49:56 2016
 By deploy user
Copyright (c) 2005 Parachute&#194;&#168;, www.parachute.gr.  All rights reserved. (ver. 1.2)
</metadata>
<defs>
<font id="PFHandbookPro-Bold" horiz-adv-x="1818" >
  <font-face 
    font-family="PF Handbook Pro"
    font-weight="700"
    font-stretch="normal"
    units-per-em="1000"
    panose-1="2 0 8 6 5 0 0 2 0 4"
    ascent="750"
    descent="-250"
    x-height="443"
    cap-height="617"
    bbox="-189.45 -226 1760 913"
    underline-thickness="100"
    underline-position="-25"
    unicode-range="U+0020-U+FB05"
  />
<missing-glyph horiz-adv-x="452" 
d="M0 0v700h452v-700h-452zM117 77h221l-112 202zM226 422l111 201h-222zM77 543v-382l106 189zM269 349l106 -191v383z" />
    <glyph glyph-name="fj" unicode="fj" horiz-adv-x="483" 
d="M325 356h-139v-341q0 -15 -16 -15h-77q-16 0 -16 15v341h-48q-15 0 -15 15v58q0 15 16 15h48v76q2 59 44.5 94t120.5 35q81 0 131 -31q10 -7 11.5 -11.5t-2.5 -15.5l-22 -53q-6 -11 -14 -11q-7 0 -16 4q-38 16 -82 16q-32 0 -47.5 -16.5t-15.5 -43.5v-43h227q19 0 19 -20
v-476q0 -59 -31.5 -96t-100.5 -37q-32 0 -62 7q-21 7 -18 23l10 58q4 18 27 13q14 -2 28 -2q40 1 40 47v395z" />
    <glyph glyph-name="ffj" unicode="ffj" horiz-adv-x="735" 
d="M437 355v-341q0 -14 -16 -14h-77q-15 0 -15 14v341h-144v-341q0 -14 -16 -14h-77q-15 0 -15 14v341h-49q-14 0 -14 15v58q0 15 16 15h48v58q0 59 43 97.5t121 38.5q71 0 116 -26q54 48 142 48q68 0 125 -33q12 -6 12 -15q0 -5 -3 -11l-22 -53q-6 -11 -14 -11q-7 0 -16 4
q-40 16 -83 16q-31 0 -46.5 -15.5t-15.5 -41.5v-56h229q18 0 18 -20v-475q0 -59 -31.5 -96t-100.5 -37q-32 0 -62 7q-21 7 -18 23l10 58q4 17 27 13q14 -2 28 -2q39 1 39 47v394h-139zM185 443h143v78q-33 14 -80 14q-31 0 -47 -17t-16 -43v-32z" />
    <glyph glyph-name="ff" unicode="ff" horiz-adv-x="558" 
d="M495 659q40 0 77 -12.5t37 -26.5q0 -3 -2 -9l-21 -53q-5 -14 -14 -14q-2 0 -35 7q-24 4 -35 4q-30 0 -47.5 -15.5t-17.5 -40.5v-56h89q16 0 16 -15v-58q0 -15 -16 -15h-89v-341q0 -14 -16 -14h-77q-15 0 -15 14v341h-144v-341q0 -14 -16 -14h-77q-15 0 -15 14v341h-49
q-14 0 -14 15v58q0 15 16 15h48v58q0 59 43 97.5t121 38.5q71 0 116 -26q54 48 137 48zM185 443h143v78q-33 14 -80 14q-31 0 -47 -17t-16 -43v-32z" />
    <glyph glyph-name="fi" unicode="fi" horiz-adv-x="484" 
d="M243 649q81 0 131 -31q10 -7 11.5 -11.5t-2.5 -15.5l-22 -53q-6 -11 -14 -11q-7 0 -16 4q-38 16 -82 16q-32 0 -47.5 -16.5t-15.5 -43.5v-43h228q19 0 19 -20v-409q0 -15 -17 -15h-75q-16 0 -16 15v341h-139v-341q0 -15 -16 -15h-77q-16 0 -16 15v341h-48q-15 0 -15 15
v58q0 15 16 15h48v76q2 59 44.5 94t120.5 35z" />
    <glyph glyph-name="fl" unicode="fl" horiz-adv-x="519" 
d="M432 138q0 -28 8 -37.5t32 -9.5h11q14 0 14 -17v-63q0 -16 -24 -18q-11 -1 -27 -1q-66 0 -94 36.5t-28 110.5v390q-39 13 -76 13q-32 0 -47.5 -16t-15.5 -43v-42h85q16 0 16 -15v-57q0 -16 -15 -16h-86v-341q0 -14 -16 -14h-77q-15 0 -15 14v341h-49q-14 0 -14 16v57
q0 15 16 15h48v82q5 56 47.5 88.5t116.5 32.5q46 0 108 -19l60 12q2 0 4.5 0.5t3.5 0.5q14 0 14 -18v-482z" />
    <glyph glyph-name="ffi" unicode="ffi" horiz-adv-x="735" 
d="M437 355v-341q0 -14 -16 -14h-77q-15 0 -15 14v341h-144v-341q0 -14 -16 -14h-77q-15 0 -15 14v341h-49q-14 0 -14 15v58q0 15 16 15h48v58q0 59 43 97.5t121 38.5q71 0 116 -26q54 48 142 48q68 0 125 -33q12 -6 12 -15q0 -5 -3 -11l-22 -53q-6 -11 -14 -11q-7 0 -16 4
q-40 16 -83 16q-31 0 -46.5 -15.5t-15.5 -41.5v-56h229q18 0 18 -20v-409q0 -14 -17 -14h-75q-16 0 -16 14v341h-139zM185 443h143v78q-33 14 -80 14q-31 0 -47 -17t-16 -43v-32z" />
    <glyph glyph-name="ffl" unicode="ffl" horiz-adv-x="756" 
d="M494 657q58 0 106 -18q11 1 62 11q2 1 6 1q15 0 15 -15v-496q0 -29 8 -39t32 -10h11q14 0 14 -17v-57q0 -17 -10 -21t-41 -4q-67 0 -95 34t-28 107v410q-36 13 -75 13q-29 0 -45.5 -16t-16.5 -41v-56h81q16 0 16 -15v-58q0 -15 -15 -15h-82v-341q0 -14 -16 -14h-77
q-15 0 -15 14v341h-144v-341q0 -14 -16 -14h-77q-15 0 -15 14v341h-49q-14 0 -14 15v58q0 15 16 15h48v58q0 59 43 97.5t121 38.5q71 0 116 -26q52 46 136 46zM185 443h143v78q-33 14 -80 14q-31 0 -47 -17t-16 -43v-32z" />
    <glyph glyph-name="ft" unicode="ft" horiz-adv-x="571" 
d="M438 141q0 -49 46 -49q23 0 41 5q10 2 12 2q13 0 16 -15l12 -55q2 -13 -10 -20q-29 -14 -90 -14q-75 0 -105 37t-30 103l-1 220h-144v-341q0 -14 -16 -14h-77q-15 0 -15 14v327q0 14 -13 14h-36q-14 0 -14 16v57q0 15 16 15h35q13 0 13 11v65q3 53 39 88t97 35
q40 0 76 -9q21 -4 18 -24l-11 -59q-3 -13 -16 -13q-8 0 -13 1q-17 6 -39 6q-21 0 -32.5 -13.5t-11.5 -35.5v-53h144v86q0 15 16 18l73 17q9 2 14.5 -2t5.5 -12v-107h93q16 0 16 -14v-58q0 -15 -16 -15h-93v-214z" />
    <glyph glyph-name=".notdef" horiz-adv-x="452" 
d="M0 0v700h452v-700h-452zM117 77h221l-112 202zM226 422l111 201h-222zM77 543v-382l106 189zM269 349l106 -191v383z" />
    <glyph glyph-name=".null" horiz-adv-x="0" 
 />
    <glyph glyph-name="nonmarkingreturn" horiz-adv-x="333" 
 />
    <glyph glyph-name="space" unicode=" " horiz-adv-x="235" 
 />
    <glyph glyph-name="exclam" unicode="!" horiz-adv-x="278" 
d="M205 603l-19 -419q0 -11 -10 -11h-52q-4 0 -6.5 2.5t-3.5 4.5t-1 3l-21 419q0 15 14 15h85q14 0 14 -14zM215 56q0 -26 -19.5 -45t-46.5 -19q-28 0 -47.5 19t-19.5 45t19.5 45t46.5 19q28 0 47.5 -18.5t19.5 -45.5z" />
    <glyph glyph-name="quotedbl" unicode="&#x22;" horiz-adv-x="319" 
d="M268 421q0 -14 -16 -14h-52q-17 0 -17 13v183q0 14 17 14h52q16 0 16 -13v-183zM137 421h1q0 -14 -17 -14h-51q-17 0 -17 13v183q0 14 16 14h53q7 0 11.5 -3.5t3.5 -9.5v-183z" />
    <glyph glyph-name="numbersign" unicode="#" horiz-adv-x="497" 
d="M478 426l-11 -52q-3 -14 -16 -14h-68q-16 -74 -25 -111h71q7 0 11 -4t3 -9l-9 -48q-3 -16 -18 -16h-76l-27 -121q-3 -11 -14 -11h-50q-16 0 -16 11q0 2 0.5 4t0.5 3l26 115h-86l-26 -119q-3 -14 -22 -14h-45q-16 0 -16 13q0 3 10.5 51.5t16.5 67.5h-62q-16 0 -13 13
l10 50q3 14 16 14h65q15 55 27 111h-70q-14 0 -14 14l12 51q1 13 15 13h73l24 106q2 8 7.5 11.5t10 4t16.5 0.5h33q15 0 15 -17l-24 -105h85l27 112q3 10 14 10h50q20 0 16 -17l-24 -104h63q8 0 11.5 -3.5t2.5 -9.5zM275 249q8 37 26 111h-85l-25 -111h84z" />
    <glyph glyph-name="dollar" unicode="$" horiz-adv-x="497" 
d="M246 510q-35 0 -59 -19t-24 -55q0 -17 9 -30t28.5 -23t30 -14t33.5 -12q37 -10 64.5 -22t57.5 -32t46 -51t16 -70q0 -71 -46 -117.5t-121 -54.5v-69q0 -14 -14 -14h-41q-14 0 -14 13v68q-83 8 -149 57q-20 12 -6 30l35 48q9 11 16.5 10.5t22.5 -12.5q19 -15 50 -26.5
t59 -11.5q41 0 68.5 19.5t27.5 54.5q0 24 -21 43t-42 28t-54 20q-31 11 -46.5 17t-42.5 21t-40.5 30.5t-24.5 41t-11 57.5q0 63 41 109t114 59v63q0 12 14 12h42q13 0 13 -12v-63q84 -12 136 -53q18 -14 4 -32l-33 -45q-12 -15 -39 6q-38 31 -100 31z" />
    <glyph glyph-name="percent" unicode="%" horiz-adv-x="760" 
d="M266 -21q-4 -9 -15 -9h-41q-18 0 -12 18l284 648q5 11 18 11h36q22 0 14 -19zM306 347q0 -52 -35 -81t-93 -29t-93.5 28.5t-35.5 81.5v166q0 52 35.5 81t92.5 29t93 -29t36 -81v-166zM223 347v166q0 19 -13 30.5t-32 11.5q-20 0 -33 -11.5t-13 -30.5v-166q0 -18 13 -29.5
t32 -11.5q20 0 33 11t13 30zM706 105q0 -52 -35 -81t-93 -29t-93.5 28.5t-35.5 81.5v166q0 52 35.5 81t92.5 29t93 -29t36 -81v-166zM623 105v166q0 19 -13 30.5t-32 11.5q-20 0 -33 -11.5t-13 -30.5v-166q0 -18 13 -29.5t32 -11.5q20 0 33 11t13 30z" />
    <glyph glyph-name="ampersand" unicode="&#x26;" horiz-adv-x="624" 
d="M381 281h-112q-12 0 -12 14v62q0 14 14 14h213q61 0 119 36q15 11 24 -6l25 -39q12 -17 -5 -28q-58 -49 -158 -52v-92q0 -87 -53.5 -141.5t-159.5 -54.5h-18q-109 0 -158 51.5t-49 139.5v220q0 77 56 125t141 48h165q17 0 17 -15v-64q0 -16 -16 -16h-147
q-45 0 -76.5 -19.5t-31.5 -58.5v-220q0 -43 19 -69.5t76 -26.5h26q57 0 79 30t22 70v92z" />
    <glyph glyph-name="quotesingle" unicode="'" horiz-adv-x="205" 
d="M146 604l-1 -183q0 -14 -15 -14h-52q-17 0 -17 13v183q0 14 16 14h54q15 0 15 -13z" />
    <glyph glyph-name="parenleft" unicode="(" horiz-adv-x="351" 
d="M301 645q-124 -205 -124 -376q0 -91 32 -190.5t81 -173.5q17 -26 0 -37l-31 -19q-23 -14 -40 9q-153 203 -153 411q0 194 156 414q13 18 32 9l40 -21q19 -8 7 -26z" />
    <glyph glyph-name="parenright" unicode=")" horiz-adv-x="342" 
d="M278 269q0 -208 -153 -411q-17 -23 -40 -9l-31 19q-17 11 0 37q49 74 81 173.5t32 190.5q0 171 -124 376q-12 18 7 26l40 21q19 9 32 -9q156 -220 156 -414z" />
    <glyph glyph-name="asterisk" unicode="*" horiz-adv-x="386" 
d="M352 523q7 -20 -11 -24l-98 -22l65 -74q13 -17 -1 -27l-36 -24q-8 -7 -15 -6.5t-14 11.5l-49 86l-51 -87q-11 -15 -27 -4l-35 24q-17 14 -3 30l67 72l-98 23q-18 3 -12 21l13 42q7 20 26 12l89 -39l-9 100q-2 17 19 17h43q22 0 19 -19l-12 -98l91 38q19 9 25 -11z" />
    <glyph glyph-name="plus" unicode="+" horiz-adv-x="497" 
d="M457 241q0 -21 -21 -21h-148v-143q0 -18 -21 -18h-45q-20 0 -20 18v143h-144q-20 0 -20 20v38q0 19 20 19h144v144q0 19 20 19h45q21 0 21 -19v-144h148q21 0 21 -19v-37z" />
    <glyph glyph-name="comma" unicode="," horiz-adv-x="229" 
d="M184 83l-53 -176q-8 -24 -31 -24h-30q-21 0 -21 33l12 173q2 31 31 31h65q37 0 27 -37z" />
    <glyph glyph-name="hyphen" unicode="-" horiz-adv-x="324" 
d="M274 206q0 -15 -14 -15h-200q-16 0 -16 14v57q0 14 15 14h200q15 0 15 -13v-57z" />
    <glyph glyph-name="period" unicode="." horiz-adv-x="229" 
d="M181 57q0 -26 -19.5 -45.5t-46.5 -19.5q-28 0 -47.5 19.5t-19.5 45.5t19.5 45t46.5 19q28 0 47.5 -18.5t19.5 -45.5z" />
    <glyph glyph-name="slash" unicode="/" horiz-adv-x="320" 
d="M312 655l-231 -705q-5 -16 -24 -16h-39q-21 0 -13 22l229 703q6 16 30 16h34q10 0 13.5 -6t0.5 -14z" />
    <glyph glyph-name="zero" unicode="0" horiz-adv-x="497" 
d="M439 169q0 -83 -52.5 -129t-137.5 -46t-138 45t-53 129v284q0 81 53.5 127.5t136.5 46.5q84 0 137.5 -45.5t53.5 -128.5v-283zM329 169v283q0 35 -22.5 57t-57.5 22t-58.5 -22t-23.5 -57v-283q0 -35 23 -57t58 -22q36 0 58.5 21t22.5 58z" />
    <glyph glyph-name="one" unicode="1" horiz-adv-x="497" 
d="M323 16q0 -16 -16 -16h-78q-16 0 -16 15v472h-2l-78 -45q-27 -16 -27 10v61q0 21 13 30l104 65q14 9 30 9h51q19 0 19 -18v-583z" />
    <glyph glyph-name="two" unicode="2" horiz-adv-x="497" 
d="M433 15q0 -15 -15 -15h-347q-17 0 -17 18v45q0 26 15 45l197 249q52 69 52 101q0 30 -20 51t-56 21q-50 0 -90 -43q-19 -21 -33 -10l-39 32q-21 15 -8 31q59 86 176 86q78 0 129.5 -42t51.5 -118q0 -62 -72 -154l-172 -216h232q16 0 16 -14v-67z" />
    <glyph glyph-name="three" unicode="3" horiz-adv-x="497" 
d="M419 174q0 -84 -52 -132t-139 -48q-89 0 -136 43q-46 40 -46 62q0 9 10 15l61 33q5 3 8 3q6 0 13 -10q36 -51 86 -51q39 0 62.5 21t23.5 55v42q0 33 -20.5 56t-55.5 23h-67q-16 0 -16 16v62q0 15 15 15h63q38 0 58.5 22.5t20.5 52.5q0 34 -22.5 55t-58.5 21
q-53 0 -85 -43q-11 -15 -19 -15q-5 0 -9 3q-5 3 -25 13.5t-28.5 18t-8.5 14.5q0 6 5 14q51 91 176 91q86 0 135 -44t49 -122q0 -37 -20 -74t-53 -49l2 -4q34 -10 53.5 -45.5t19.5 -70.5v-43z" />
    <glyph glyph-name="four" unicode="4" horiz-adv-x="497" 
d="M252 617h73q15 0 15 -14q0 -6 -1 -7l-187 -373h126v151q0 13 11 13h85q12 0 12 -14v-150h64q13 0 13 -12v-68q0 -12 -13 -12h-64v-119q0 -12 -12 -12h-85q-11 0 -11 11q0 20 -0.5 60t-0.5 60h-227q-16 0 -16 17v54q1 21 16 45l179 358q6 12 23 12z" />
    <glyph glyph-name="five" unicode="5" horiz-adv-x="497" 
d="M427 170q0 -80 -54 -128t-139 -48q-65 0 -106 21t-72 76q-3 5 -3 10q0 9 9 13l62 33q3 2 8 2q6 0 13 -9q20 -27 38.5 -39t46.5 -12q38 0 63 21.5t25 54.5v73q0 33 -22 55t-62 22q-22 0 -47 -12t-34 -12q-7 0 -14 3l-42 20q-20 9 -20 28v259q0 16 17 16h299q16 0 16 -15
v-66q0 -15 -15 -15h-208v-123q1 0 2.5 -0.5t2.5 -0.5q25 14 59 14q82 0 129.5 -48t47.5 -125v-68z" />
    <glyph glyph-name="six" unicode="6" horiz-adv-x="497" 
d="M440 166q0 -81 -54 -126.5t-137 -45.5q-86 0 -140.5 46t-54.5 126v287q0 78 53.5 125.5t136.5 47.5q129 0 179 -102q3 -12 -8 -17l-59 -34q-15 -8 -25 11q-35 46 -86 46q-35 0 -58.5 -22t-23.5 -56v-79l4 -1q16 14 43 22.5t46 8.5q81 0 132.5 -46.5t51.5 -124.5v-66z
M330 166v65q0 35 -24.5 55.5t-60.5 20.5q-33 0 -57.5 -21.5t-24.5 -53.5v-66q0 -34 24.5 -55t58.5 -21q37 0 60.5 21t23.5 55z" />
    <glyph glyph-name="seven" unicode="7" horiz-adv-x="497" 
d="M450 563q0 -15 -9 -37l-239 -513q-6 -13 -19 -13h-87q-9 0 -13 5.5t0 13.5l232 502h-158v-52q0 -16 -15 -16h-62q-16 0 -16 16v132q0 16 15 16h344q27 0 27 -22v-32z" />
    <glyph glyph-name="eight" unicode="8" horiz-adv-x="497" 
d="M248 628q82 0 136.5 -48t54.5 -128q0 -34 -16.5 -66.5t-44.5 -53.5v-5q68 -35 68 -138q0 -91 -57.5 -143t-142.5 -52t-141.5 47.5t-56.5 139.5q0 47 20.5 87.5t56.5 57.5v4q-32 16 -49 51.5t-17 69.5q0 77 55 127t134 50zM333 453q0 34 -23.5 58t-61.5 24q-36 0 -61 -24
t-25 -59q0 -34 24.5 -58t61.5 -24q38 0 61.5 23.5t23.5 59.5zM247 281q-36 0 -64 -28t-28 -69q0 -45 25 -70.5t65 -25.5q39 0 66.5 27.5t27.5 71.5q0 41 -26.5 67.5t-65.5 26.5z" />
    <glyph glyph-name="nine" unicode="9" horiz-adv-x="497" 
d="M433 174q0 -83 -54 -131.5t-138 -48.5q-73 0 -117 27q-22 13 -43.5 38t-21.5 41q0 9 10 14l62 33q3 2 8 2q6 0 15 -13q34 -47 86 -47q35 0 59.5 22.5t24.5 59.5v74h-3q-22 -27 -90 -27q-79 0 -131.5 46.5t-52.5 124.5v35q0 94 50.5 148t142.5 54q93 0 143 -48.5
t50 -131.5v-272zM324 389v61q0 34 -25 57t-60 23q-33 0 -58.5 -23t-25.5 -56v-62q0 -34 24.5 -54.5t61.5 -20.5q34 0 58.5 21.5t24.5 53.5z" />
    <glyph glyph-name="colon" unicode=":" horiz-adv-x="229" 
d="M181 330q0 -26 -19.5 -46t-46.5 -20q-28 0 -47.5 19.5t-19.5 45.5t19.5 45t46.5 19t47 -19t20 -44zM181 57q0 -26 -19.5 -45.5t-46.5 -19.5q-28 0 -47.5 19t-19.5 45q0 27 19.5 45.5t46.5 18.5v1q28 0 47.5 -18.5t19.5 -45.5z" />
    <glyph glyph-name="semicolon" unicode=";" horiz-adv-x="229" 
d="M181 329q0 -27 -19.5 -46t-47.5 -19q-27 0 -46.5 18.5t-19.5 45.5q0 26 19.5 45t46.5 19t47 -19t20 -44zM175 83l-51 -175q-7 -25 -31 -25h-30q-21 0 -21 34l10 171q4 33 32 33h65q38 0 26 -38z" />
    <glyph glyph-name="less" unicode="&#x3c;" horiz-adv-x="497" 
d="M457 453q0 -22 -13 -29l-302 -157l302 -156q13 -7 13 -27v-59q-1 -9 -6.5 -13t-13.5 1l-377 201q-22 10 -22 29v44q0 19 20 30l378 202q8 5 14.5 2t6.5 -12v-56z" />
    <glyph glyph-name="equal" unicode="=" horiz-adv-x="497" 
d="M457 328q0 -23 -24 -23h-370q-24 0 -24 22v34q0 21 24 21h370q24 0 24 -21v-33zM457 150q0 -23 -24 -23h-370q-24 0 -24 22v34q0 21 24 21h370q24 0 24 -21v-33z" />
    <glyph glyph-name="greater" unicode="&#x3e;" horiz-adv-x="497" 
d="M40 453l-1 56q0 9 7 12t15 -2l378 -202q19 -11 19 -30v-44q0 -19 -21 -29l-377 -201q-9 -4 -15 -0.5t-6 12.5v59q2 21 14 27l302 156l-303 157q-12 7 -12 29z" />
    <glyph glyph-name="question" unicode="?" horiz-adv-x="505" 
d="M450 461q0 -48 -29.5 -89.5t-71.5 -67.5q-28 -18 -43.5 -30t-28.5 -31.5t-13 -42.5v-19q0 -10 -12 -10h-80q-11 0 -15.5 4t-4.5 16v26q0 39 23.5 77t64.5 65q32 21 47.5 32t30.5 29.5t16 36.5q2 33 -19 54t-56 21q-24 0 -41.5 -8.5t-25.5 -17.5t-22 -29q-8 -11 -23 -2
l-53 33q-15 9 -5 27q55 92 172 92q85 0 137 -44t52 -122zM272 56h1q0 -26 -19.5 -45t-47.5 -19q-27 0 -47 19t-20 45t20 45t47 19t46.5 -18.5t19.5 -45.5z" />
    <glyph glyph-name="at" unicode="@" horiz-adv-x="732" 
d="M356 350q37 0 59 -16h2v16q0 42 -56 42q-26 0 -71 -17q-13 -4 -17 8l-11 34q-4 11 6 15q46 23 102 23q64 0 96 -33t32 -87v-91q0 -56 51 -56q31 0 55 32t24 110q0 100 -75 162.5t-166 62.5q-114 0 -190.5 -76t-76.5 -187q0 -114 75 -190t195 -76q77 0 159 32q21 10 27 -8
l10 -26q7 -20 -9 -26q-82 -34 -182 -34q-155 0 -249.5 88.5t-94.5 239.5q0 138 94.5 231t238.5 93q134 0 223.5 -80t89.5 -202q0 -109 -45.5 -161t-107.5 -52q-74 0 -96 40h-2q-31 -38 -88 -38q-55 0 -89 30.5t-34 81.5q0 52 33 83.5t88 31.5zM411 238q0 20 -13 35.5
t-37 15.5q-22 0 -36.5 -14.5t-14.5 -36.5q0 -21 14.5 -35.5t36.5 -14.5t36 15t14 35z" />
    <glyph glyph-name="A" unicode="A" horiz-adv-x="482" 
d="M453 0h-87q-13 0 -16 11t-12.5 52l-14.5 63h-169q-17 -72 -26 -115q-2 -11 -16 -11h-82q-16 0 -16 11q0 2 2 8l146 584q5 14 20 14h113q17 0 21 -14l149 -583q1 -2 1 -8q0 -12 -13 -12zM236 491q-22 -111 -24 -119l-34 -153h122q-4 18 -12 50.5t-14 59.5l-11 50l-24 112
h-3z" />
    <glyph glyph-name="B" unicode="B" horiz-adv-x="516" 
d="M480 186q0 -84 -51 -135t-140 -51h-211q-19 0 -19 17v583q0 17 18 17h202q84 0 132.5 -42.5t48.5 -120.5q0 -34 -19.5 -69t-50.5 -52v-4q46 -17 68 -56.5t22 -86.5zM365 185q0 42 -24 67t-75 25h-94v-178h101q43 0 67.5 22.5t24.5 63.5zM346 448q0 69 -84 69h-90v-143h96
q37 0 57.5 20t20.5 54z" />
    <glyph glyph-name="C" unicode="C" horiz-adv-x="472" 
d="M256 -6q-88 0 -142.5 48.5t-54.5 129.5v277q0 80 54.5 129t139.5 49q122 0 185 -91q11 -15 -5 -26l-54 -41q-17 -9 -27 8q-34 50 -95 50q-40 0 -62.5 -23.5t-22.5 -58.5v-273q0 -33 23 -55t63 -22q53 0 93 47q1 1 4 4.5t4.5 4.5t4.5 2.5t6 1t7 -2.5l60 -37q16 -9 8 -24
q-64 -97 -189 -97z" />
    <glyph glyph-name="D" unicode="D" horiz-adv-x="528" 
d="M471 186q0 -88 -47 -137t-138 -49h-205q-18 0 -18 17v583q0 17 18 17h202q93 0 140.5 -48.5t47.5 -135.5v-247zM358 187v245q0 85 -89 85h-93v-418h98q84 0 84 88z" />
    <glyph glyph-name="E" unicode="E" horiz-adv-x="468" 
d="M433 17q0 -17 -16 -17h-339q-18 0 -18 17v583q0 17 18 17h333q16 0 16 -17v-65q0 -18 -16 -18h-238v-149h199q17 0 17 -18v-64q0 -18 -16 -18h-200v-169h244q16 0 16 -17v-65z" />
    <glyph glyph-name="F" unicode="F" horiz-adv-x="438" 
d="M425 535q0 -18 -17 -18h-235v-153h197q17 0 17 -16v-66q0 -17 -17 -17h-197q0 -41 0.5 -123.5t0.5 -124.5q0 -17 -17 -17h-78q-18 0 -18 17v583q0 17 18 17h329q17 0 17 -16v-66z" />
    <glyph glyph-name="G" unicode="G" horiz-adv-x="512" 
d="M257 627q136 0 189 -94q9 -15 -5 -25l-57 -41q-13 -6 -27 10q-36 49 -96 49q-40 0 -64.5 -23.5t-24.5 -59.5v-271q0 -34 25 -55.5t65 -21.5q37 0 61 21.5t24 59.5v73h-64q-18 0 -18 16v65q0 16 18 16h157q19 0 19 -16v-160q0 -81 -55.5 -128.5t-143.5 -47.5t-144 47.5
t-56 127.5v282q0 79 56 127.5t141 48.5z" />
    <glyph glyph-name="H" unicode="H" horiz-adv-x="553" 
d="M490 15q0 -15 -19 -15h-76q-19 0 -19 15v253h-200v-253q0 -15 -18 -15h-77q-18 0 -18 15v587q0 15 17 15h77q19 0 19 -14v-236h200v235q0 15 19 15h76q19 0 19 -14v-588z" />
    <glyph glyph-name="I" unicode="I" horiz-adv-x="257" 
d="M184 15q0 -15 -18 -15h-78q-18 0 -18 15v586q0 16 18 16h78q18 0 18 -16v-586z" />
    <glyph glyph-name="J" unicode="J" horiz-adv-x="309" 
d="M16 -139l-20 62q-5 17 12 24q63 25 88 59t25 98v500q0 13 15 13h82q15 0 15 -13v-509q0 -98 -44 -159.5t-148 -87.5q-21 -6 -25 13z" />
    <glyph glyph-name="K" unicode="K" horiz-adv-x="533" 
d="M273 288q-44 0 -70 -27t-26 -69q0 -30 -0.5 -89t-0.5 -88q0 -15 -14 -15h-84q-15 0 -15 15v586q0 16 17 16h81q15 0 15 -15v-219l2 -1h2l182 223q10 12 26 12h89q7 0 10 -4.5t2 -10.5t-5 -10l-179 -220l2 -4h7q147 0 159 -166l13 -178q1 -24 -16 -24h-80q-15 0 -17 26
l-12 184q-2 34 -24 56t-64 22z" />
    <glyph glyph-name="L" unicode="L" horiz-adv-x="451" 
d="M433 17q0 -17 -15 -17h-335q-17 0 -17 17v585q0 15 17 15h77q17 0 17 -14v-504h241q15 0 15 -15v-67z" />
    <glyph glyph-name="M" unicode="M" horiz-adv-x="663" 
d="M609 17q0 -17 -19 -17h-73q-17 0 -17 15v321l-3 1l-43 -112l-73 -189q-9 -18 -24 -18h-46q-20 0 -27 15l-71 187l-41 114h-3v-319q0 -15 -18 -15h-73q-18 0 -18 17v580q0 20 21 20h62q14 0 19.5 -2.5t11.5 -14.5q5 -11 53.5 -137t55.5 -143l49 -134h5l52 135l108 279
q7 17 31 17h59q22 0 22 -20v-580z" />
    <glyph glyph-name="N" unicode="N" horiz-adv-x="549" 
d="M488 21q0 -21 -23 -21h-50q-23 0 -32 16l-101.5 175.5t-106.5 187.5l-3 -1v-362q0 -16 -18 -16h-73q-18 0 -18 15v579q0 23 23 23h50q22 0 33 -18l208 -368l2 2v369q0 15 19 15h71q19 0 19 -15v-581z" />
    <glyph glyph-name="O" unicode="O" horiz-adv-x="529" 
d="M469 176q0 -83 -57 -132.5t-147 -49.5t-148 49t-58 133v268q0 83 58 133t147 50q88 0 146.5 -49.5t58.5 -133.5v-268zM355 177v266q0 36 -23.5 59.5t-66.5 23.5t-68 -23.5t-25 -59.5v-266q0 -36 24.5 -59t67.5 -23q41 0 66 23t25 59z" />
    <glyph glyph-name="P" unicode="P" horiz-adv-x="486" 
d="M460 432q0 -77 -54.5 -128.5t-137.5 -51.5h-93l1 -236q0 -16 -18 -16h-77q-19 0 -19 16v586q0 15 19 15h186q88 0 140.5 -51.5t52.5 -133.5zM347 434q0 34 -21.5 59t-58.5 25h-92v-167h92q36 0 58 23t22 60z" />
    <glyph glyph-name="Q" unicode="Q" horiz-adv-x="529" 
d="M469 176q0 -71 -43 -119.5t-118 -59.5q3 -47 38 -47q20 0 58 12q17 7 21 -7l15 -46q5 -14 -9 -22q-40 -24 -101 -24q-58 0 -88 37t-30 99q-74 11 -113.5 59t-39.5 118v268q0 83 58 133t147 50q88 0 146.5 -49.5t58.5 -133.5v-268zM355 177v266q0 36 -23.5 59.5
t-66.5 23.5t-68 -23.5t-25 -59.5v-266q0 -36 24.5 -59t67.5 -23q41 0 66 23t25 59z" />
    <glyph glyph-name="R" unicode="R" horiz-adv-x="513" 
d="M467 438q0 -44 -25 -93t-61 -81q-5 -5 -5 -10q0 -4 5 -12l103 -220q4 -8 0 -15t-14 -7h-76q-18 0 -25 5t-12 17l-97 215h-85q0 -37 0.5 -111t0.5 -111q0 -15 -18 -15h-77q-18 0 -18 15v585q0 17 16 17h198q90 0 140 -47t50 -132zM267 517h-92v-182h106q33 0 53 32.5
t20 63.5q0 40 -21.5 63t-65.5 23z" />
    <glyph glyph-name="S" unicode="S" horiz-adv-x="487" 
d="M453 177q0 -85 -60 -133.5t-154 -48.5q-128 0 -200 75q-9 9 -10 15t8 18l39 44q11 9 16 8t16 -10q26 -23 62 -37t66 -14q52 0 77.5 21t25.5 57q0 37 -32 58.5t-98 44.5q-72 24 -116.5 63.5t-44.5 110.5q0 80 56 128t138 48q104 0 174 -46q15 -10 3 -32l-26 -48
q-9 -16 -30 -7q-67 35 -115 35q-88 0 -88 -77q0 -14 7.5 -26.5t15.5 -20t27 -16.5t26 -11.5l29 -10.5q37 -13 53.5 -20t48 -24t46.5 -34t27.5 -46t12.5 -64z" />
    <glyph glyph-name="T" unicode="T" horiz-adv-x="441" 
d="M423 536q0 -18 -15 -18h-134l-1 -502q0 -16 -18 -16h-77q-18 0 -18 15l1 503h-127q-17 0 -17 18v64q0 17 17 17h374q15 0 15 -16v-65z" />
    <glyph glyph-name="U" unicode="U" horiz-adv-x="529" 
d="M172 174q0 -34 25.5 -56.5t66.5 -22.5t66.5 23t25.5 57v427q0 15 18 15h77q19 0 19 -14v-429q0 -82 -58.5 -131t-146.5 -49t-147 49t-59 131v428q0 15 18 15h77q18 0 18 -14v-429z" />
    <glyph glyph-name="V" unicode="V" horiz-adv-x="479" 
d="M469 596l-161 -581q-5 -15 -24 -15h-86q-18 0 -23 15l-164 581q-6 21 19 21h80q18 0 20 -11l72 -286l39 -166h4l39 166l70 286q4 11 19 11h78q23 0 18 -21z" />
    <glyph glyph-name="W" unicode="W" horiz-adv-x="718" 
d="M705 597l-132 -582q-3 -15 -23 -15h-80q-18 0 -21 13l-57 257l-31 146l-3 1q-1 -4 -15.5 -70t-16.5 -78l-55 -256q-4 -13 -24 -13h-79q-19 0 -23 12l-134 587q-3 18 18 18h82q16 0 19 -15l54 -270l26 -148l4 -2l30 149l60 273q4 13 19 13h73q15 0 19 -14q6 -31 34 -148.5
t30 -128.5l30 -143l3 -1q1 7 12.5 70.5t13.5 76.5l53 274q1 14 19 14h77q22 0 18 -20z" />
    <glyph glyph-name="X" unicode="X" horiz-adv-x="480" 
d="M344 15l-100 205h-3l-100 -205q-8 -15 -30 -15h-82q-16 0 -16 10q0 5 3 14l162 298l-147 273q-3 5 -3 11q0 11 16 11h88q20 0 28 -16l81 -171h3l84 171q7 16 27 16h83q14 0 14 -10q0 -9 -3 -12l-141 -273l162 -301q3 -6 3 -10q0 -11 -17 -11h-83q-9 0 -13 0.5t-8.5 4
t-7.5 10.5z" />
    <glyph glyph-name="Y" unicode="Y" horiz-adv-x="465" 
d="M108 617q22 0 29 -16l94 -245h3q8 20 45 119.5t47 123.5q8 18 31 18h74q26 0 17 -20l-154 -356q-6 -13 -6 -26v-197q0 -18 -18 -18h-77q-18 0 -18 17v200q0 12 -5 22l-155 357q-8 21 14 21h79z" />
    <glyph glyph-name="Z" unicode="Z" horiz-adv-x="441" 
d="M414 16q0 -16 -17 -16h-338q-29 0 -29 26v29q0 18 10 35l231 428h-206q-16 0 -16 18v66q0 15 18 15h311q26 0 26 -22v-35q0 -18 -13 -44q-178 -333 -226 -415h232q17 0 17 -17v-68z" />
    <glyph glyph-name="bracketleft" unicode="[" horiz-adv-x="352" 
d="M284 -133q0 -15 -16 -15h-162q-16 0 -16 15v809q0 16 16 16h162q16 0 16 -16v-60q0 -15 -16 -15h-69v-657h69q16 0 16 -16v-61z" />
    <glyph glyph-name="backslash" unicode="\" horiz-adv-x="320" 
d="M312 -44q8 -22 -13 -22h-39q-19 0 -24 16l-231 705q-3 8 0.5 14t13.5 6h34q24 0 30 -16z" />
    <glyph glyph-name="bracketright" unicode="]" horiz-adv-x="347" 
d="M51 -133v61q0 16 16 16h69v657h-70q-15 0 -15 15v60q0 16 16 16h162q16 0 16 -16v-809q0 -15 -16 -15h-163q-15 0 -15 15z" />
    <glyph glyph-name="asciicircum" unicode="^" horiz-adv-x="567" 
d="M482 416q15 -20 -5 -35l-23 -17q-16 -11 -38 13l-136 146l-134 -153q-18 -21 -35 -9l-26 18q-19 11 -3 32l152 201q12 15 30 15h39q19 0 31 -16z" />
    <glyph glyph-name="underscore" unicode="_" horiz-adv-x="500" 
d="M510 -152q-2 -13 -16 -13h-489q-16 0 -16 13v52q0 14 16 14h488q17 0 17 -13v-53z" />
    <glyph glyph-name="grave" unicode="`" horiz-adv-x="455" 
d="M310 526q9 -14 -5 -21l-24 -14q-19 -10 -32 4l-113 123q-13 17 4 26l60 33q14 7 24 -8z" />
    <glyph glyph-name="a" unicode="a" horiz-adv-x="461" 
d="M235 453q93 0 133.5 -44t40.5 -129v-266q0 -14 -13 -14h-79q-11 0 -11 12v20h-3q-38 -38 -106 -38q-74 0 -115.5 42t-41.5 112q0 68 43.5 112t120.5 44q58 0 91 -24h3v22q0 62 -80 62q-52 0 -98 -20q-18 -6 -22 6l-17 54q-3 16 8 20q64 29 146 29zM141 151
q0 -32 18.5 -52t56.5 -20q33 0 53.5 20.5t20.5 51.5q0 32 -19 52.5t-55 20.5q-34 0 -54.5 -20.5t-20.5 -52.5z" />
    <glyph glyph-name="b" unicode="b" horiz-adv-x="468" 
d="M262 450q83 0 123.5 -47.5t40.5 -124.5v-112q0 -75 -43.5 -123t-127.5 -48q-64 0 -97 33l-2 -2v-14q0 -12 -15 -12h-73q-14 0 -14 14v607q0 16 16 16h77q15 0 15 -15v-202q1 -1 3 -1q36 31 97 31zM240 357q-35 0 -56.5 -22.5t-21.5 -56.5v-98q0 -92 78 -92q39 0 58 21.5
t19 56.5v99q0 92 -77 92z" />
    <glyph glyph-name="c" unicode="c" horiz-adv-x="422" 
d="M398 87q-58 -93 -167 -93q-86 0 -138 46.5t-52 124.5v113q0 79 53 126.5t137 46.5q110 0 167 -93q9 -17 -7 -26l-56 -32q-18 -11 -30 13q-26 44 -75 44q-34 0 -56.5 -22t-22.5 -54v-117q0 -32 22.5 -53t55.5 -21q52 0 75 42q7 12 12 15t19 -2l56 -31q18 -10 7 -27z" />
    <glyph glyph-name="d" unicode="d" horiz-adv-x="468" 
d="M211 450q60 0 93 -23l1 -1l1 1v194q0 16 16 16h77q16 0 16 -15v-608q0 -14 -13 -14h-76q-14 0 -14 12v17l-1 1h-2q-33 -35 -109 -35q-74 0 -115.5 45t-41.5 121v117q0 76 44 124t124 48zM229 356q-39 0 -58 -21.5t-19 -56.5v-108q0 -36 19 -58.5t57 -22.5q35 0 57 22
t22 55v108q0 35 -20 58.5t-58 23.5z" />
    <glyph glyph-name="e" unicode="e" horiz-adv-x="458" 
d="M231 452q82 0 134.5 -47.5t52.5 -127.5v-47q0 -13 -8 -21.5t-20 -8.5h-236v-32q0 -33 21.5 -56t55.5 -23q46 0 85 47q12 13 24 5l49 -31q20 -13 13 -27q-50 -89 -169 -89q-85 0 -137 46.5t-52 123.5v113q0 78 52 126.5t135 48.5zM232 357q-34 0 -55 -20.5t-21 -50.5v-13
h152v18q0 30 -20.5 48t-55.5 18z" />
    <glyph glyph-name="f" unicode="f" horiz-adv-x="310" 
d="M214 643q46 0 77 -11q22 -7 19 -24l-12 -57q-4 -19 -29 -12q-18 6 -39 6t-32.5 -13.5t-11.5 -35.5v-52h89q16 0 16 -15v-58q0 -15 -15 -15h-90v-341q0 -15 -16 -15h-77q-16 0 -16 15v341h-48q-15 0 -15 15v58q0 15 16 15h47v67q0 56 36.5 94t100.5 38z" />
    <glyph glyph-name="g" unicode="g" horiz-adv-x="470" 
d="M100 149q-68 47 -68 135q0 70 54 118.5t128 48.5q76 0 125 -39q54 36 106 36q16 0 16 -16v-63q0 -7 -2 -9t-7 -1q-38 4 -68 -4q20 -36 20 -71q0 -71 -55.5 -119.5t-134.5 -48.5h-11q-27 0 -46.5 -16t-24.5 -40q58 11 107 11q87 0 148.5 -33t61.5 -103q0 -42 -31.5 -79.5
t-73.5 -57.5q-10 -5 -19.5 -4.5t-16.5 12.5l-27 42q-7 10 4 20l19 14q18 14 26.5 24.5t8.5 23.5q0 47 -97 47q-56 0 -159 -15q-14 -2 -23 3q-29 16 -29 85q0 25 19.5 54t49.5 45zM298 280q0 31 -23 53.5t-57 22.5q-35 0 -58.5 -22.5t-23.5 -53.5q0 -32 22.5 -54.5
t57.5 -22.5q36 0 59 22t23 55z" />
    <glyph glyph-name="h" unicode="h" horiz-adv-x="480" 
d="M429 16q0 -16 -16 -16h-78q-17 0 -17 15v264q0 35 -19 56t-57 21q-35 0 -56 -22.5t-21 -56.5v-261q0 -16 -17 -16h-77q-16 0 -16 15v606q0 16 15 16h78q16 0 16 -16v-200h4q36 30 101 30q80 0 119.5 -46.5t39.5 -125.5z" />
    <glyph glyph-name="i" unicode="i" horiz-adv-x="224" 
d="M177 564q0 -25 -19 -44t-45 -19q-27 0 -46 18.5t-19 44.5t18.5 44t45.5 18t46 -18t19 -44zM57 15v413q0 16 15 16h78q16 0 16 -16v-412q0 -16 -15 -16h-78q-16 0 -16 15z" />
    <glyph glyph-name="j" unicode="j" horiz-adv-x="232" 
d="M184 564q0 -25 -19.5 -44t-45.5 -19q-27 0 -46 18t-19 45q0 26 19 44t46 18q26 0 45.5 -18.5t19.5 -43.5zM173 -52q0 -59 -31.5 -96t-100.5 -37q-32 0 -62 7q-21 6 -18 24l10 58q4 17 27 13q18 -3 27 -3q39 1 39 47v467q0 16 16 16h78q15 0 15 -16v-480z" />
    <glyph glyph-name="k" unicode="k" horiz-adv-x="466" 
d="M429 112l4 -94q0 -18 -16 -18h-76q-16 0 -17 16l-6 98q-3 38 -18.5 59.5t-57.5 21.5q-38 0 -58 -22.5t-20 -57.5v-101q0 -14 -15 -14h-81q-13 0 -13 14v607q0 16 15 16h78q15 0 15 -15v-330q1 0 2 -0.5t2 -0.5l126 142q9 9 26 9h95q11 0 11 -10q0 -6 -5 -13l-130 -143
q75 0 105 -44.5t34 -119.5z" />
    <glyph glyph-name="l" unicode="l" horiz-adv-x="251" 
d="M170 624v-482q0 -29 8 -39.5t32 -10.5h11q14 0 14 -18v-62q0 -16 -18 -18q-12 -2 -34 -2q-67 0 -94.5 32.5t-27.5 104.5v494q0 14 13 14h82q14 0 14 -13z" />
    <glyph glyph-name="m" unicode="m" horiz-adv-x="723" 
d="M671 16q0 -16 -15 -16h-78q-16 0 -16 15v266q0 33 -19 54.5t-54 21.5q-29 0 -51 -23t-22 -53v-265q0 -16 -15 -16h-77q-16 0 -16 15v266q0 32 -19 54t-53 22q-33 0 -53 -22t-20 -54v-265q0 -16 -16 -16h-78q-16 0 -16 15v266q0 75 48 123t132 48q37 0 72.5 -16t55.5 -44
h3q19 26 57.5 43t76.5 17q84 0 128.5 -46.5t44.5 -124.5v-265z" />
    <glyph glyph-name="n" unicode="n" horiz-adv-x="480" 
d="M426 14q0 -14 -15 -14h-78q-16 0 -16 14v264q0 76 -77 76q-33 0 -55.5 -21.5t-22.5 -54.5v-264q0 -14 -16 -14h-77q-16 0 -16 14v414q0 15 15 15h79q13 0 13 -13v-18h1q1 -1 2 -1q39 38 108 38q75 0 115 -46.5t40 -123.5v-265z" />
    <glyph glyph-name="o" unicode="o" horiz-adv-x="468" 
d="M420 165q0 -82 -50 -126.5t-136 -44.5t-136.5 45t-50.5 123v120q0 76 51.5 123t134.5 47q86 0 136.5 -44.5t50.5 -125.5v-117zM311 166v113q0 36 -20.5 56.5t-57.5 20.5q-36 0 -56.5 -21.5t-20.5 -55.5v-113q0 -35 20 -56t57 -21q36 0 57 21t21 56z" />
    <glyph glyph-name="p" unicode="p" horiz-adv-x="470" 
d="M52 429q0 14 14 14h75q15 0 15 -13v-19h3q37 37 110 37q74 0 115 -45.5t41 -121.5v-117q0 -75 -43 -122.5t-123 -47.5q-63 0 -95 24q-1 -1 -3 -1v-182q0 -16 -16 -16h-77q-16 0 -16 15v595zM161 277v-97q0 -41 18.5 -67.5t58.5 -26.5t59.5 21.5t19.5 56.5v99
q0 40 -18.5 65t-58.5 25q-35 0 -57 -21.5t-22 -54.5z" />
    <glyph glyph-name="q" unicode="q" horiz-adv-x="470" 
d="M49 276q0 75 42.5 123.5t121.5 48.5q69 -1 103 -35q1 1 2 1v15q0 14 15 14h73q15 0 15 -15v-598q0 -15 -17 -15h-76q-16 0 -16 15v190l-1 -1l-1 1q-11 -11 -41.5 -19t-56.5 -8q-83 0 -123 47t-40 123v113zM157 271v-88q0 -98 77 -98q35 0 56.5 22.5t21.5 55.5v99
q0 92 -78 92q-37 0 -57 -23.5t-20 -59.5z" />
    <glyph glyph-name="r" unicode="r" horiz-adv-x="318" 
d="M323 426l-17 -70q-2 -11 -6 -13.5t-13 -1.5q-20 5 -33 5q-88 0 -88 -107v-223q0 -16 -17 -16h-77q-16 0 -16 15v413q0 16 16 16h68q16 0 16 -15v-41h3q19 29 50 46.5t66 17.5q23 0 36 -5q17 -5 12 -21z" />
    <glyph glyph-name="s" unicode="s" horiz-adv-x="413" 
d="M381 129q0 -63 -48 -98.5t-122 -35.5q-132 0 -177 90q-8 15 4 22l56 31q14 8 23 -4q40 -50 97 -50q22 0 40.5 11.5t18.5 30.5q0 16 -11.5 26t-35.5 19q-11 4 -37 11.5t-34 10.5q-111 38 -111 123q0 64 46.5 99.5t114.5 35.5q96 0 154 -54q9 -9 -1 -24l-32 -47
q-5 -5 -11 -5q-3 0 -7.5 2.5l-11.5 6.5t-12 6q-49 23 -83 23q-23 0 -37.5 -10.5t-14.5 -28.5q0 -26 47 -42q5 -1 24 -7t25.5 -8.5l24.5 -9t25.5 -10.5l22 -11.5t21.5 -14.5l16.5 -17t14 -20t8 -23t3.5 -28z" />
    <glyph glyph-name="t" unicode="t" horiz-adv-x="326" 
d="M81 355h-49q-17 0 -17 15v58q0 16 16 16h50v89q0 16 16 20l72 16q20 4 20 -14v-111h93q16 0 16 -16v-57q0 -16 -16 -16h-93v-212q0 -50 43 -50q23 0 45 6q27 5 31 -16l10 -53q3 -18 -18 -26q-24 -8 -86 -10q-133 0 -133 130v231z" />
    <glyph glyph-name="u" unicode="u" horiz-adv-x="473" 
d="M47 428q0 15 14 15h78q17 0 17 -14v-265q0 -34 19 -55t58 -21q32 0 54.5 22t22.5 54v264q0 15 17 15h76q16 0 16 -14v-415q0 -14 -15 -14h-78q-14 0 -14 12v18l-1 1q-39 -36 -109 -36q-77 0 -116 45t-39 123v265z" />
    <glyph glyph-name="v" unicode="v" horiz-adv-x="432" 
d="M419 423l-144 -410q-4 -13 -24 -13h-70q-12 0 -16.5 3t-8.5 14l-142 405q-4 8 -0.5 15t14.5 7h73q24 0 28 -19l50 -170l37 -131h3l33 127l50 170q6 23 27 23h75q10 0 14 -7t1 -14z" />
    <glyph glyph-name="w" unicode="w" horiz-adv-x="656" 
d="M641 423l-114 -405q-5 -18 -25 -18h-63q-12 0 -17 3t-9 14l-50 159l-35 130h-2l-39 -137l-47 -153q-5 -16 -25 -16h-64q-12 0 -17 3t-9 14l-113 406q-4 8 -0.5 14.5t14.5 6.5h76q22 0 26 -19l32 -140l30 -132h2l38 130l42 139q7 22 24 22h62q17 0 24 -20l48 -157l33 -114
h3l24 113l35 157q7 21 28 21h74q21 0 14 -21z" />
    <glyph glyph-name="x" unicode="x" horiz-adv-x="415" 
d="M270 232l133 -211q5 -7 1.5 -14t-12.5 -7h-75q-21 0 -31 16l-79 140h-2l-78 -140q-11 -16 -31 -16h-72q-9 0 -13.5 5t1.5 16l132 211l-120 188q-4 2 -4 10q0 13 16 13h74q13 0 18 -2t11 -13l67 -117h3l66 117q4 7 8 10.5t8 4t13 0.5h74q16 0 16 -12q0 -8 -3 -11z" />
    <glyph glyph-name="y" unicode="y" horiz-adv-x="443" 
d="M108 443q18 0 23 -18l46 -183l34 -142h2l100 323q5 20 26 20h72q8 0 13 -7t2 -16l-187 -581q-6 -21 -29 -21h-65q-10 0 -15 8t-1 19l48 155h-24q-18 0 -24 20l-115 402q-6 21 14 21h80z" />
    <glyph glyph-name="z" unicode="z" horiz-adv-x="427" 
d="M395 16q0 -16 -16 -16h-320q-27 0 -27 24v29q0 20 11 34l192 262h-177q-16 0 -16 15v64q0 16 15 16h295q28 0 28 -23v-39q0 -21 -10 -35l-186 -253h195q16 0 16 -15v-63z" />
    <glyph glyph-name="braceleft" unicode="{" horiz-adv-x="364" 
d="M40 253v45q0 7 3 12t7 7.5t13 6.5q67 28 67 95v103q0 89 40.5 128t130.5 39h8q17 0 17 -14v-61q0 -16 -16 -16h-6q-40 0 -52.5 -15t-12.5 -53v-130q0 -45 -15 -74.5t-53 -49.5l1 -2v-2q35 -14 51 -48t16 -71v-148q0 -40 13 -53.5t51 -13.5h6q11 0 14 -3.5t3 -12.5v-60
q0 -15 -15 -15h-8q-91 0 -131.5 32t-40.5 113v144q0 69 -66 94q-25 10 -25 23z" />
    <glyph glyph-name="bar" unicode="|" horiz-adv-x="235" 
d="M157 -99q0 -16 -16 -16h-47q-16 0 -16 15v761q0 15 16 15h47q16 0 16 -14v-761z" />
    <glyph glyph-name="braceright" unicode="}" horiz-adv-x="364" 
d="M325 298v-45q0 -13 -25 -23q-66 -25 -66 -94v-144q0 -81 -40.5 -113t-131.5 -32h-7q-16 0 -16 15v60q0 9 3 12.5t14 3.5h6q39 0 52.5 13.5t13.5 53.5v158q2 35 18.5 65.5t48.5 43.5v4q-62 33 -67 98v156q0 38 -12.5 53t-53.5 15h-6q-17 0 -17 16v61q0 14 18 14h7
q83 0 125 -32.5t46 -106.5v-131q0 -67 67 -95q9 -4 13 -6.5t7 -7.5t3 -12z" />
    <glyph glyph-name="asciitilde" unicode="~" horiz-adv-x="497" 
d="M476 297q-50 -73 -127 -73q-42 0 -109 30.5t-90 30.5q-32 0 -64 -39q-12 -16 -26 -3l-37 33q-11 11 -3 28q2 4 9 15q48 59 121 59q37 0 101 -29.5t95 -29.5q22 0 57 35q17 17 32 3l32 -27q20 -16 9 -33z" />
    <glyph glyph-name="exclamdown" unicode="&#xa1;" horiz-adv-x="278" 
d="M93 -168l19 419q0 11 10 11h52q4 0 6.5 -2.5t3.5 -4.5t1 -3l21 -419q0 -15 -14 -15h-85q-14 0 -14 14zM83 379q0 26 19.5 45t46.5 19q28 0 47.5 -19t19.5 -45t-19.5 -45t-46.5 -19q-28 0 -47.5 18.5t-19.5 45.5z" />
    <glyph glyph-name="cent" unicode="&#xa2;" horiz-adv-x="497" 
d="M428 90q-38 -81 -133 -94v-56q0 -13 -14 -13h-42q-14 0 -14 13v56q-75 9 -114.5 55t-39.5 114v113q0 69 41 116.5t113 56.5v56q0 13 14 13h42q14 0 14 -13v-58q89 -9 132 -91q4 -3 2.5 -13t-9.5 -13l-56 -32q-15 -5 -19.5 -2t-11.5 15q-24 44 -74 44q-34 0 -56.5 -22
t-22.5 -54v-117q0 -32 22.5 -53t55.5 -21q20 0 38 9.5t25.5 18t20.5 24.5q8 13 22 4l54 -30q18 -10 10 -26z" />
    <glyph glyph-name="sterling" unicode="&#xa3;" horiz-adv-x="497" 
d="M458 530q7 -16 -7 -23l-60 -33q-16 -9 -26 8q-28 49 -81 49q-35 0 -57 -21.5t-22 -54.5v-99h111q16 0 16 -15v-60q0 -15 -16 -15h-111v-66q0 -72 -19 -99l2 -5h231q16 0 16 -16v-64q0 -16 -15 -16h-372q-16 0 -16 15v60q0 17 18 21q44 13 44 76v94h-45q-15 0 -15 15v60
q0 15 15 15h45l1 89q0 80 50.5 131t131.5 51q133 0 181 -97z" />
    <glyph glyph-name="currency" unicode="&#xa4;" horiz-adv-x="492" 
d="M92 435q12 13 19 5l44 -49q38 26 89 26t87 -26l13 13l21 20.5l13 12.5q14 14 26 0l32 -32q14 -14 1 -25l-47 -44q26 -37 26 -90t-25 -90q32 -32 44 -42q13 -12 1 -25l-32 -33q-12 -12 -21 -3l-50 46q-44 -26 -87 -26q-49 0 -90 29q-5 -6 -44 -45q-12 -14 -25 -1l-34 31
q-13 11 0 25q2 3 23 24t24 26q-25 41 -25 86q0 48 24 86l-40 45q-7 8 -7.5 11.5t7.5 12.5zM155 246q0 -38 26.5 -64t64.5 -26t64 26t26 64t-26 64t-64 26t-64.5 -26.5t-26.5 -63.5z" />
    <glyph glyph-name="yen" unicode="&#xa5;" horiz-adv-x="497" 
d="M64 259h370q15 0 15 -14v-43q0 -15 -15 -15h-133v-173q0 -14 -16 -14h-77q-16 0 -16 14v173h-128q-16 0 -16 15v43q0 14 16 14zM434 302h-370q-16 0 -16 15v42q0 15 16 15h61l-94 220q-9 23 14 23h78q20 0 27 -16l45 -113l50 -129h4l52 127l20.5 53t24.5 60q7 18 28 18
h74q23 0 14 -22l-95 -221h67q15 0 15 -15v-42q0 -15 -15 -15z" />
    <glyph glyph-name="brokenbar" unicode="&#xa6;" horiz-adv-x="235" 
d="M157 243l-1 -344q0 -14 -16 -14h-47q-16 0 -16 15l1 342q0 15 16 15h46q17 0 17 -14zM157 663l-1 -354q0 -14 -16 -14h-47q-16 0 -16 15l1 352q0 15 16 15h46q17 0 17 -14z" />
    <glyph glyph-name="section" unicode="&#xa7;" horiz-adv-x="470" 
d="M239 -70q-53 0 -100.5 19t-72.5 57q-3 3 -3 8q0 9 10 16q2 1 15.5 13t21.5 18t13 6q9 0 18 -11q16 -19 44 -31.5t56 -12.5q31 0 52.5 10.5t21.5 31.5q0 18 -17.5 31t-54.5 26q-159 55 -159 143q0 73 77 110q12 6 18 6q7 0 14 -10l23 -44q2 -3 2 -9q0 -9 -10 -14
q-24 -16 -24 -32q0 -30 72 -57q81 -30 123 -61t42 -86q0 -60 -51.5 -93.5t-130.5 -33.5zM246 574q-28 0 -45.5 -10t-17.5 -27q0 -20 16 -33t55 -26q76 -26 115.5 -57t39.5 -82q0 -80 -75 -115q-1 0 -5.5 -2t-6.5 -2.5t-6 -0.5t-6.5 2t-4.5 6l-24 50q-2 2 -2 6q0 10 10 14
q19 13 19 33q0 24 -20 37t-65 29q-72 26 -107 54t-35 79q0 56 46 92t120 36q46 0 90.5 -18.5t69.5 -56.5q2 -2 2 -8q0 -9 -9 -16l-36 -31q-7 -7 -13 -7q-7 0 -17 12q-38 42 -88 42z" />
    <glyph glyph-name="dieresis" unicode="&#xa8;" horiz-adv-x="470" 
d="M381 555q0 -25 -17 -42t-42 -17q-26 0 -44 16.5t-18 41.5t17.5 42t43.5 17q25 0 42.5 -17t17.5 -41zM145 496q-26 0 -43 16.5t-17 41.5t17.5 42t42.5 17t42.5 -17t18.5 -41q0 -25 -17.5 -42t-43.5 -17z" />
    <glyph glyph-name="copyright" unicode="&#xa9;" horiz-adv-x="707" 
d="M652 241q0 -113 -82.5 -177t-214.5 -64q-131 0 -212.5 65.5t-81.5 175.5v135q0 110 81.5 175.5t212.5 65.5q132 0 214.5 -64t82.5 -177v-135zM595 238v140q0 81 -63.5 134t-177.5 53t-174.5 -53.5t-60.5 -133.5v-140q0 -79 61 -132.5t174 -53.5t177 53.5t64 132.5z
M469 419q5 -10 -4 -14l-37 -20q-10 -6 -15 5q-18 30 -53 30q-23 0 -38.5 -14t-15.5 -35v-139q0 -21 15 -35t39 -14q32 0 53 29q8 10 15 5l38 -21q8 -5 3 -14q-37 -58 -110 -58q-53 0 -86 28.5t-33 78.5v139q0 49 33.5 78.5t85.5 29.5q80 0 110 -59z" />
    <glyph glyph-name="ordfeminine" unicode="&#xaa;" horiz-adv-x="314" 
d="M283 256q0 -15 -14 -15h-53q-12 0 -12 11v8h-1q-24 -22 -68 -22q-53 0 -82 26.5t-29 74.5q0 46 32 74t86 28q35 0 55 -16h1v9q0 36 -47 36q-38 0 -75 -15q-10 -5 -15 9l-11 32q-5 12 10 19q42 21 102 21q121 0 121 -111v-169zM192 342q0 16 -12 27t-30 11t-30 -11
t-12 -27t12 -27.5t30 -11.5q20 0 31 11.5t11 27.5z" />
    <glyph glyph-name="guillemotleft" unicode="&#xab;" horiz-adv-x="547" 
d="M184 39l-113 137q-11 16 -11 24q0 12 11 23l115 143q14 16 35 16h65q18 0 18 -12q0 -8 -4 -12l-129 -158l127 -154q4 -7 4 -14q0 -14 -16 -14h-64q-21 0 -38 21zM383 39l-113 137q-11 16 -11 24q0 12 11 23l115 143q14 16 35 16h65q18 0 18 -12q0 -8 -4 -12l-129 -158
l127 -154q4 -7 4 -14q0 -14 -16 -14h-64q-21 0 -38 21z" />
    <glyph glyph-name="logicalnot" unicode="&#xac;" horiz-adv-x="497" 
d="M457 280v-202q0 -18 -15 -18h-52q-15 0 -15 18v144h-318q-18 0 -18 18v40q0 19 19 19h380q19 0 19 -19z" />
    <glyph glyph-name="sfthyphen" unicode="&#xad;" horiz-adv-x="324" 
d="M274 206q0 -15 -14 -15h-200q-16 0 -16 14v57q0 14 15 14h200q15 0 15 -13v-57z" />
    <glyph glyph-name="registered" unicode="&#xae;" horiz-adv-x="409" 
d="M366 439q0 -62 -46 -97t-117 -35q-72 0 -116.5 35.5t-44.5 96.5v72q0 61 44.5 97.5t116.5 36.5q71 0 117 -35.5t46 -98.5v-72zM328 438v75q0 42 -32.5 69.5t-92.5 27.5q-61 0 -93 -27.5t-32 -69.5v-75q0 -41 32 -69.5t93 -28.5q59 0 92 28.5t33 69.5zM276 391
q5 -10 -6 -10h-24q-8 2 -11 8l-29 67h-20v-66q0 -9 -7 -9h-24q-7 0 -7 9v171q0 8 8 8h56q29 0 44.5 -15t15.5 -38q0 -31 -25 -48q-3 -2 -3 -5t32 -72zM234 513q0 22 -22 22h-27v-47h27q7 0 14.5 8t7.5 17z" />
    <glyph glyph-name="macron" unicode="&#xaf;" horiz-adv-x="462" 
d="M355 540q0 -9 -3 -11t-14 -2h-212q-9 0 -12 0.5t-5 3.5t-2 9v51q0 10 3.5 13.5t14.5 3.5h212q11 0 14.5 -3t3.5 -13v-52z" />
    <glyph glyph-name="degree" unicode="&#xb0;" horiz-adv-x="321" 
d="M287 520q0 -49 -38.5 -83.5t-91.5 -34.5t-89 34.5t-36 83.5t36 83.5t89 34.5q57 0 93.5 -34t36.5 -84zM216 520q0 24 -17 40.5t-42 16.5q-23 0 -39.5 -16.5t-16.5 -40.5q0 -23 16.5 -40t39.5 -17t41 17t18 40z" />
    <glyph glyph-name="plusminus" unicode="&#xb1;" horiz-adv-x="497" 
d="M467 339q0 -21 -21 -21h-158v-153q0 -18 -20 -18h-45q-20 0 -20 18v153h-154q-20 0 -20 20v38q0 19 20 19h154v154q0 19 20 19h44q21 0 21 -19v-154h158q21 0 21 -19v-37zM467 49q0 -20 -21 -20h-399q-18 0 -18 20v37q0 21 21 21h396q8 0 14.5 -6t6.5 -15v-37z" />
    <glyph glyph-name="twosuperior" unicode="&#xb2;" horiz-adv-x="312" 
d="M277 346q0 -14 -15 -14h-225q-15 0 -15 14v29q0 17 10 30l125 147q32 37 32 55q0 17 -12 27.5t-30 10.5q-29 0 -52 -28q-14 -16 -27 -4l-31 24q-13 11 -1 23q41 55 114 55q55 0 89.5 -27t34.5 -74q0 -40 -49 -97l-95 -112l2 -3h130q15 0 15 -14v-42z" />
    <glyph glyph-name="threesuperior" unicode="&#xb3;" horiz-adv-x="312" 
d="M270 438q0 -52 -35 -82t-93 -30q-86 3 -119 61q-2 6 -2 10q0 8 8 12l37 19q8 3 12 3q8 0 12 -8q19 -29 52 -29q22 0 34 11.5t12 28.5v24q0 17 -10.5 29t-29.5 12h-45q-17 0 -17 15v36q0 16 16 16h41q20 0 32.5 11t12.5 27q0 18 -11.5 28.5t-32.5 10.5q-27 0 -48 -24
q-11 -11 -18 -11t-10 2l-34 19q-7 4 -7 13q0 7 4 15q37 55 114 55q57 0 90.5 -28t33.5 -77q0 -46 -40 -71v-2q41 -15 41 -66v-30z" />
    <glyph glyph-name="acute" unicode="&#xb4;" horiz-adv-x="455" 
d="M350 618l-115 -128q-9 -11 -25 -2l-28 17q-13 7 -6 21l87 143q9 16 24 8l60 -33q18 -11 3 -26z" />
    <glyph glyph-name="mu" unicode="&#xb5;" horiz-adv-x="482" 
d="M160 7h-3v-172q0 -16 -17 -16h-76q-16 0 -16 15v594q0 15 15 15h78q16 0 16 -14v-264q0 -30 20.5 -53.5t56.5 -23.5q35 0 56.5 22t21.5 55v263q0 15 16 15h76q16 0 16 -14v-415q0 -14 -15 -14h-75q-16 0 -16 14v18h-1l-1 1q-35 -38 -97 -38q-33 0 -55 12z" />
    <glyph glyph-name="mu" unicode="&#x3bc;" horiz-adv-x="482" 
d="M160 7h-3v-172q0 -16 -17 -16h-76q-16 0 -16 15v594q0 15 15 15h78q16 0 16 -14v-264q0 -30 20.5 -53.5t56.5 -23.5q35 0 56.5 22t21.5 55v263q0 15 16 15h76q16 0 16 -14v-415q0 -14 -15 -14h-75q-16 0 -16 14v18h-1l-1 1q-35 -38 -97 -38q-33 0 -55 12z" />
    <glyph glyph-name="paragraph" unicode="&#xb6;" horiz-adv-x="516" 
d="M456 624v-542q0 -175 -202 -188q-14 0 -16 14l-8 59q-2 18 12 19q64 8 87 32.5t23 73.5v532q0 14 15 14h74q15 0 15 -14zM291 297h-79q-75 0 -123.5 48.5t-48.5 120.5q0 71 49.5 121.5t122.5 50.5h79q15 0 15 -14v-313q0 -14 -15 -14z" />
    <glyph glyph-name="periodcentered" unicode="&#xb7;" horiz-adv-x="229" 
d="M115 171q-28 0 -47.5 19.5t-19.5 45.5t20 45t47 19q26 0 46 -19t20 -44q0 -27 -19.5 -46.5t-46.5 -19.5z" />
    <glyph glyph-name="cedilla" unicode="&#xb8;" horiz-adv-x="412" 
d="M322 -120q0 -34 -26.5 -59.5t-75.5 -25.5q-46 0 -81 24q-12 8 -3 17l20 25q8 8 16 3q22 -15 46 -15q43 0 43 30q0 28 -33 28h-31q-18 -1 -27.5 10t-5.5 28q5 23 19 70q5 15 14 15h32q14 0 9 -16l-14 -54h15q39 0 61 -22t22 -58z" />
    <glyph glyph-name="onesuperior" unicode="&#xb9;" horiz-adv-x="278" 
d="M69 592q-22 -12 -22 9v40q0 16 12 24l71 40q8 5 17 5h36q17 0 17 -18v-345q0 -16 -16 -16h-51q-17 0 -17 16v265l-2 2z" />
    <glyph glyph-name="ordmasculine" unicode="&#xba;" horiz-adv-x="318" 
d="M289 348q0 -53 -36 -83t-94 -30t-94 30.5t-36 80.5v75q0 50 36 81t94 31q57 0 93.5 -29.5t36.5 -82.5v-73zM203 349v71q0 17 -12 28t-33 11q-19 0 -32 -11.5t-13 -28.5v-70q0 -18 13 -29.5t33 -11.5t32 11t12 30z" />
    <glyph glyph-name="guillemotright" unicode="&#xbb;" horiz-adv-x="547" 
d="M488 176l-113 -137q-11 -21 -38 -21h-64q-16 0 -16 14q0 9 4 14l127 154l-129 158q-6 0 -6 11q0 13 20 13h59q14 0 24 -5t14.5 -9t12.5 -15l105 -130q10 -10 10 -25q0 -11 -10 -22zM289 176l-113 -137q-17 -21 -38 -21h-64q-16 0 -16 14q0 9 4 14l127 154l-129 158
q-6 0 -6 11q0 13 20 13h59q14 0 24 -5t14.5 -9t12.5 -15l105 -130q10 -10 10 -25q0 -11 -10 -22z" />
    <glyph glyph-name="onequarter" unicode="&#xbc;" horiz-adv-x="760" 
d="M106 502q-22 -12 -22 9v40q0 16 12 24l71 40q8 5 17 5h36q17 0 17 -18v-345q0 -16 -16 -16h-51q-17 0 -17 16v265l-2 2zM245 -21q-4 -9 -15 -9h-41q-18 0 -12 18l284 648q5 11 18 11h36q22 0 14 -19zM528 377h56q11 0 11 -6q0 -5 -5 -13l-113 -211h72v73q0 10 12 10h56
q11 0 11 -11v-72h41q12 0 12 -10v-46q0 -12 -11 -12h-42v-68q0 -12 -11 -12h-57q-11 0 -11 12v68h-152q-13 0 -13 12v17q0 26 17 58q18 36 54 101.5l50 92.5q10 17 23 17z" />
    <glyph glyph-name="onehalf" unicode="&#xbd;" horiz-adv-x="760" 
d="M103 502q-22 -12 -22 9v40q0 16 12 24l71 40q8 5 17 5h36q17 0 17 -18v-345q0 -16 -16 -16h-51q-17 0 -17 16v265l-2 2zM230 -21q-4 -9 -15 -9h-41q-18 0 -12 18l284 648q5 11 18 11h36q22 0 14 -19zM677 14q0 -14 -15 -14h-225q-15 0 -15 14v29q0 17 10 30l125 147
q32 37 32 55q0 17 -12 27.5t-30 10.5q-29 0 -52 -28q-14 -16 -27 -4l-31 24q-13 11 -1 23q41 55 114 55q55 0 89.5 -27t34.5 -74q0 -40 -49 -97l-95 -112l2 -3h130q15 0 15 -14v-42z" />
    <glyph glyph-name="threequarters" unicode="&#xbe;" horiz-adv-x="760" 
d="M296 348q0 -52 -35 -82t-93 -30q-86 3 -119 61q-2 6 -2 10q0 8 8 12l37 19q8 3 12 3q8 0 12 -8q19 -29 52 -29q22 0 34 11.5t12 28.5v24q0 17 -10.5 29t-29.5 12h-45q-17 0 -17 15v36q0 16 16 16h41q20 0 32.5 11t12.5 27q0 18 -11.5 28.5t-32.5 10.5q-27 0 -48 -24
q-11 -11 -18 -11t-10 2l-34 19q-7 4 -7 13q0 7 4 15q37 55 114 55q57 0 90.5 -28t33.5 -77q0 -46 -40 -71v-2q41 -15 41 -66v-30zM546 377h56q11 0 11 -6q0 -5 -5 -13l-113 -211h72v73q0 10 12 10h56q11 0 11 -11v-72h41q12 0 12 -10v-46q0 -12 -11 -12h-42v-68
q0 -12 -11 -12h-57q-11 0 -11 12v68h-152q-13 0 -13 12v17q0 26 17 58q18 36 54 101.5l50 92.5q10 17 23 17zM266 -21q-4 -9 -15 -9h-41q-18 0 -12 18l284 648q5 11 18 11h36q22 0 14 -19z" />
    <glyph glyph-name="questiondown" unicode="&#xbf;" horiz-adv-x="505" 
d="M84 -26q0 48 29.5 89.5t71.5 67.5q28 18 43.5 30t28.5 31.5t13 42.5v19q0 10 12 10h80q11 0 15.5 -4t4.5 -16v-26q0 -39 -23.5 -77t-64.5 -65q-32 -21 -47.5 -32t-30.5 -29.5t-16 -36.5q-2 -33 19 -54t56 -21q24 0 41.5 8.5t25.5 17.5t22 29q8 11 23 2l53 -33
q15 -9 5 -27q-55 -92 -172 -92q-85 0 -137 44t-52 122zM262 379q0 26 19 45t47 19q27 0 47 -19t20 -45t-20 -45t-47 -19t-46.5 18.5t-19.5 45.5z" />
    <glyph glyph-name="Agrave" unicode="&#xc0;" horiz-adv-x="482" 
d="M453 0h-87q-13 0 -16 11t-12.5 52l-14.5 63h-169q-17 -72 -26 -115q-2 -11 -16 -11h-82q-16 0 -16 11q0 2 2 8l146 584q5 14 20 14h113q17 0 21 -14l149 -583q1 -2 1 -8q0 -12 -13 -12zM87 746l39 47q15 17 41 -3l121 -92q13 -10 3 -22l-20 -26q-12 -13 -24 -7l-154 78
q-20 10 -6 25zM236 491q-22 -111 -24 -119l-34 -153h122q-4 18 -12 50.5t-14 59.5l-11 50l-24 112h-3z" />
    <glyph glyph-name="Aacute" unicode="&#xc1;" horiz-adv-x="482" 
d="M453 0h-87q-13 0 -16 11t-12.5 52l-14.5 63h-169q-17 -72 -26 -115q-2 -11 -16 -11h-82q-16 0 -16 11q0 2 2 8l146 584q5 14 20 14h113q17 0 21 -14l149 -583q1 -2 1 -8q0 -12 -13 -12zM236 491q-22 -111 -24 -119l-34 -153h122q-4 18 -12 50.5t-14 59.5l-11 50l-24 112
h-3zM386 746q14 -15 -6 -25l-154 -78q-12 -6 -24 7l-20 26q-10 12 3 22l121 92q26 20 41 3z" />
    <glyph glyph-name="Acircumflex" unicode="&#xc2;" horiz-adv-x="482" 
d="M453 0h-87q-13 0 -16 11t-12.5 52l-14.5 63h-169q-17 -72 -26 -115q-2 -11 -16 -11h-82q-16 0 -16 11q0 2 2 8l146 584q5 14 20 14h113q17 0 21 -14l149 -583q1 -2 1 -8q0 -12 -13 -12zM236 491q-22 -111 -24 -119l-34 -153h122q-4 18 -12 50.5t-14 59.5l-11 50l-24 112
h-3zM391 684q11 -13 0 -21l-32 -19q-8 -5 -21 3l-101 77l-100 -78q-11 -8 -22 -1l-29 20q-10 7 -1 20l99 108q9 11 21 11h67q13 0 22 -11z" />
    <glyph glyph-name="Atilde" unicode="&#xc3;" horiz-adv-x="482" 
d="M453 0h-87q-13 0 -16 11t-12.5 52l-14.5 63h-169q-17 -72 -26 -115q-2 -11 -16 -11h-82q-16 0 -16 11q0 2 2 8l146 584q5 14 20 14h113q17 0 21 -14l149 -583q1 -2 1 -8q0 -12 -13 -12zM236 491q-22 -111 -24 -119l-34 -153h122q-4 18 -12 50.5t-14 59.5l-11 50l-24 112
h-3zM385 712q-15 -28 -40.5 -44.5t-50.5 -16.5q-24 0 -63 15.5t-59 15.5q-24 0 -46 -25q-9 -10 -20 0l-28 27q-8 8 -2 18q14 25 40 41.5t54 16.5q22 0 64 -16.5t57 -16.5q16 0 38 27q8 10 18 4l34 -22q12 -8 4 -24z" />
    <glyph glyph-name="Adieresis" unicode="&#xc4;" horiz-adv-x="482" 
d="M453 0h-87q-13 0 -16 11t-12.5 52l-14.5 63h-169q-17 -72 -26 -115q-2 -11 -16 -11h-82q-16 0 -16 11q0 2 2 8l146 584q5 14 20 14h113q17 0 21 -14l149 -583q1 -2 1 -8q0 -12 -13 -12zM236 491q-22 -111 -24 -119l-34 -153h122q-4 18 -12 50.5t-14 59.5l-11 50l-24 112
h-3zM386 709q0 -25 -17 -41.5t-43 -16.5t-43.5 16.5t-17.5 41.5t17.5 42t43.5 17q25 0 42.5 -17t17.5 -42zM210 709q0 -25 -17 -41.5t-43 -16.5t-43 16.5t-17 41.5t17.5 42t42.5 17t42.5 -17t17.5 -42z" />
    <glyph glyph-name="Aring" unicode="&#xc5;" horiz-adv-x="482" 
d="M453 0h-87q-13 0 -16 11t-12.5 52l-14.5 63h-169q-17 -72 -26 -115q-2 -11 -16 -11h-82q-16 0 -16 11q0 2 2 8l146 584q5 14 20 14h113q17 0 21 -14l149 -583q1 -2 1 -8q0 -12 -13 -12zM236 491q-22 -111 -24 -119l-34 -153h122q-4 18 -12 50.5t-14 59.5l-11 50l-24 112
h-3zM328 734q0 -36 -26.5 -61.5t-63.5 -25.5q-36 0 -61.5 25.5t-25.5 61.5t25 62t62 26t63.5 -25.5t26.5 -62.5zM276 734q0 15 -11.5 27t-26.5 12t-25.5 -11.5t-10.5 -27.5t10.5 -26.5t25.5 -10.5q16 0 27 11t11 26z" />
    <glyph glyph-name="AE" unicode="&#xc6;" horiz-adv-x="759" 
d="M723 82v-65q0 -17 -16 -17h-340q-17 0 -17 14v125h-180l-48 -126q-4 -13 -21 -13h-76q-15 0 -15 11q0 4 2 10l223 580q7 16 24 16h442q17 0 17 -17v-65q0 -18 -16 -18h-239v-152h200q16 0 16 -18v-64q0 -17 -15 -17h-201v-167h244q16 0 16 -17zM350 517h-49l-99 -283h148
v283z" />
    <glyph glyph-name="Ccedilla" unicode="&#xc7;" horiz-adv-x="472" 
d="M366 -120q0 -34 -26.5 -59.5t-75.5 -25.5q-46 0 -81 24q-12 8 -3 17l20 25q8 8 16 3q22 -15 46 -15q43 0 43 30q0 28 -33 28h-31q-18 -1 -27.5 10t-5.5 28q4 21 13 51q-74 9 -118 56t-44 120v277q0 80 54.5 129t139.5 49q122 0 185 -91q11 -15 -5 -26l-54 -41
q-17 -9 -27 8q-34 50 -95 50q-40 0 -62.5 -23.5t-22.5 -58.5v-273q0 -33 23 -55t63 -22q53 0 93 47q1 1 4 4.5t4.5 4.5t4.5 2.5t6 1t7 -2.5l60 -37q16 -9 8 -24q-58 -88 -168 -96l-9 -35h15q39 0 61 -22t22 -58z" />
    <glyph glyph-name="Egrave" unicode="&#xc8;" horiz-adv-x="468" 
d="M433 17q0 -17 -16 -17h-339q-18 0 -18 17v583q0 17 18 17h333q16 0 16 -17v-65q0 -18 -16 -18h-238v-149h199q17 0 17 -18v-64q0 -18 -16 -18h-200v-169h244q16 0 16 -17v-65zM77 746l39 47q15 17 41 -3l121 -92q13 -10 3 -22l-20 -26q-12 -13 -24 -7l-154 78
q-20 10 -6 25z" />
    <glyph glyph-name="Eacute" unicode="&#xc9;" horiz-adv-x="468" 
d="M433 17q0 -17 -16 -17h-339q-18 0 -18 17v583q0 17 18 17h333q16 0 16 -17v-65q0 -18 -16 -18h-238v-149h199q17 0 17 -18v-64q0 -18 -16 -18h-200v-169h244q16 0 16 -17v-65zM370 746q14 -15 -6 -25l-154 -78q-12 -6 -24 7l-20 26q-10 12 3 22l121 92q26 20 41 3z" />
    <glyph glyph-name="Ecircumflex" unicode="&#xca;" horiz-adv-x="468" 
d="M433 17q0 -17 -16 -17h-339q-18 0 -18 17v583q0 17 18 17h333q16 0 16 -17v-65q0 -18 -16 -18h-238v-149h199q17 0 17 -18v-64q0 -18 -16 -18h-200v-169h244q16 0 16 -17v-65zM394 684q11 -13 0 -21l-32 -19q-8 -5 -21 3l-101 77l-100 -78q-11 -8 -22 -1l-29 20
q-10 7 -1 20l99 108q9 11 21 11h67q13 0 22 -11z" />
    <glyph glyph-name="Edieresis" unicode="&#xcb;" horiz-adv-x="468" 
d="M433 17q0 -17 -16 -17h-339q-18 0 -18 17v583q0 17 18 17h333q16 0 16 -17v-65q0 -18 -16 -18h-238v-149h199q17 0 17 -18v-64q0 -18 -16 -18h-200v-169h244q16 0 16 -17v-65zM378 709q0 -25 -17 -41.5t-43 -16.5t-43.5 16.5t-17.5 41.5t17.5 42t43.5 17q25 0 42.5 -17
t17.5 -42zM202 709q0 -25 -17 -41.5t-43 -16.5t-43 16.5t-17 41.5t17.5 42t42.5 17t42.5 -17t17.5 -42z" />
    <glyph glyph-name="Igrave" unicode="&#xcc;" horiz-adv-x="257" 
d="M184 15q0 -15 -18 -15h-78q-18 0 -18 15v586q0 16 18 16h78q18 0 18 -16v-586zM-37 746l39 47q15 17 41 -3l121 -92q13 -10 3 -22l-20 -26q-12 -13 -24 -7l-154 78q-20 10 -6 25z" />
    <glyph glyph-name="Iacute" unicode="&#xcd;" horiz-adv-x="257" 
d="M184 15q0 -15 -18 -15h-78q-18 0 -18 15v586q0 16 18 16h78q18 0 18 -16v-586zM291 746q14 -15 -6 -25l-154 -78q-12 -6 -24 7l-20 26q-10 12 3 22l121 92q26 20 41 3z" />
    <glyph glyph-name="Icircumflex" unicode="&#xce;" horiz-adv-x="257" 
d="M184 15q0 -15 -18 -15h-78q-18 0 -18 15v586q0 16 18 16h78q18 0 18 -16v-586zM281 692q11 -13 0 -21l-32 -19q-8 -5 -21 3l-101 77l-100 -78q-11 -8 -22 -1l-29 20q-10 7 -1 20l99 108q9 11 21 11h67q13 0 22 -11z" />
    <glyph glyph-name="Idieresis" unicode="&#xcf;" horiz-adv-x="257" 
d="M184 15q0 -15 -18 -15h-78q-18 0 -18 15v586q0 16 18 16h78q18 0 18 -16v-586zM276 709q0 -25 -17 -41.5t-43 -16.5t-43.5 16.5t-17.5 41.5t17.5 42t43.5 17q25 0 42.5 -17t17.5 -42zM100 709q0 -25 -17 -41.5t-43 -16.5t-43 16.5t-17 41.5t17.5 42t42.5 17t42.5 -17
t17.5 -42z" />
    <glyph glyph-name="Eth" unicode="&#xd0;" horiz-adv-x="524" 
d="M63 347v253q0 17 18 17h198q93 0 141 -48.5t48 -135.5v-247q0 -88 -47.5 -137t-137.5 -49h-202q-18 0 -18 17v257h-37q-15 0 -15 15v44q0 14 15 14h37zM176 274v-175h95q83 0 83 88v245q0 85 -88 85h-90v-170h75q14 0 14 -13v-45q0 -15 -14 -15h-75z" />
    <glyph glyph-name="Ntilde" unicode="&#xd1;" horiz-adv-x="549" 
d="M488 21q0 -21 -23 -21h-50q-23 0 -32 16l-101.5 175.5t-106.5 187.5l-3 -1v-362q0 -16 -18 -16h-73q-18 0 -18 15v579q0 23 23 23h50q22 0 33 -18l208 -368l2 2v369q0 15 19 15h71q19 0 19 -15v-581zM429 708q-15 -28 -40.5 -44.5t-50.5 -16.5q-24 0 -63 15.5t-59 15.5
q-24 0 -46 -25q-9 -10 -20 0l-28 27q-8 8 -2 18q14 25 40 41.5t54 16.5q22 0 64 -16.5t57 -16.5q16 0 38 27q8 10 18 4l34 -22q12 -8 4 -24z" />
    <glyph glyph-name="Ograve" unicode="&#xd2;" horiz-adv-x="529" 
d="M469 176q0 -83 -57 -132.5t-147 -49.5t-148 49t-58 133v268q0 83 58 133t147 50q88 0 146.5 -49.5t58.5 -133.5v-268zM355 177v266q0 36 -23.5 59.5t-66.5 23.5t-68 -23.5t-25 -59.5v-266q0 -36 24.5 -59t67.5 -23q41 0 66 23t25 59zM113 749l39 47q15 17 41 -3l121 -92
q13 -10 3 -22l-20 -26q-12 -13 -24 -7l-154 78q-20 10 -6 25z" />
    <glyph glyph-name="Oacute" unicode="&#xd3;" horiz-adv-x="529" 
d="M469 176q0 -83 -57 -132.5t-147 -49.5t-148 49t-58 133v268q0 83 58 133t147 50q88 0 146.5 -49.5t58.5 -133.5v-268zM355 177v266q0 36 -23.5 59.5t-66.5 23.5t-68 -23.5t-25 -59.5v-266q0 -36 24.5 -59t67.5 -23q41 0 66 23t25 59zM426 750q14 -15 -6 -25l-154 -78
q-12 -6 -24 7l-20 26q-10 12 3 22l121 92q26 20 41 3z" />
    <glyph glyph-name="Ocircumflex" unicode="&#xd4;" horiz-adv-x="529" 
d="M469 176q0 -83 -57 -132.5t-147 -49.5t-148 49t-58 133v268q0 83 58 133t147 50q88 0 146.5 -49.5t58.5 -133.5v-268zM355 177v266q0 36 -23.5 59.5t-66.5 23.5t-68 -23.5t-25 -59.5v-266q0 -36 24.5 -59t67.5 -23q41 0 66 23t25 59zM420 684q11 -13 0 -21l-32 -19
q-8 -5 -21 3l-101 77l-100 -78q-11 -8 -22 -1l-29 20q-10 7 -1 20l99 108q9 11 21 11h67q13 0 22 -11z" />
    <glyph glyph-name="Otilde" unicode="&#xd5;" horiz-adv-x="529" 
d="M469 176q0 -83 -57 -132.5t-147 -49.5t-148 49t-58 133v268q0 83 58 133t147 50q88 0 146.5 -49.5t58.5 -133.5v-268zM355 177v266q0 36 -23.5 59.5t-66.5 23.5t-68 -23.5t-25 -59.5v-266q0 -36 24.5 -59t67.5 -23q41 0 66 23t25 59zM417 718q-15 -28 -40.5 -44.5
t-50.5 -16.5q-24 0 -63 15.5t-59 15.5q-24 0 -46 -25q-9 -10 -20 0l-28 27q-8 8 -2 18q14 25 40 41.5t54 16.5q22 0 64 -16.5t57 -16.5q16 0 38 27q8 10 18 4l34 -22q12 -8 4 -24z" />
    <glyph glyph-name="Odieresis" unicode="&#xd6;" horiz-adv-x="529" 
d="M469 176q0 -83 -57 -132.5t-147 -49.5t-148 49t-58 133v268q0 83 58 133t147 50q88 0 146.5 -49.5t58.5 -133.5v-268zM355 177v266q0 36 -23.5 59.5t-66.5 23.5t-68 -23.5t-25 -59.5v-266q0 -36 24.5 -59t67.5 -23q41 0 66 23t25 59zM407 709q0 -25 -17 -41.5t-43 -16.5
t-43.5 16.5t-17.5 41.5t17.5 42t43.5 17q25 0 42.5 -17t17.5 -42zM231 709q0 -25 -17 -41.5t-43 -16.5t-43 16.5t-17 41.5t17.5 42t42.5 17t42.5 -17t17.5 -42z" />
    <glyph glyph-name="multiply" unicode="&#xd7;" horiz-adv-x="497" 
d="M418 121l-28 -29q-7 -7 -15 -7q-7 0 -13 6l-114 116l-115 -115q-6 -6 -13 -6q-8 0 -15 7l-27 26q-7 7 -7 15q0 7 6 13l116 114l-113 113q-6 4 -6 12t7 15l29 29q7 7 16 7q7 0 12 -5l112 -112l116 115q7 7 13 7q7 0 14 -7l27 -27q6 -6 6 -14t-6 -15l-115 -115l115 -115
q5 -7 5 -13q0 -8 -7 -15z" />
    <glyph glyph-name="Oslash" unicode="&#xd8;" horiz-adv-x="529" 
d="M469 176q0 -83 -57 -132.5t-147 -49.5q-77 0 -130 35q-1 -2 -4.5 -8.5l-6.5 -12.5l-4 -6q-7 -12 -17 -6l-31 18q-11 5 -3 19l22 37q-32 43 -32 106v268q0 83 58 133t147 50q76 0 131 -38l18 32q8 11 19 5l31 -17q10 -6 1 -19l-25 -44q30 -44 30 -102v-268zM172 443v-236
l166 287q-25 32 -73 32q-43 0 -68 -23.5t-25 -59.5zM355 177v226l-88.5 -151.5t-75.5 -128.5q25 -28 73 -28q41 0 66 23t25 59z" />
    <glyph glyph-name="Ugrave" unicode="&#xd9;" horiz-adv-x="529" 
d="M172 174q0 -34 25.5 -56.5t66.5 -22.5t66.5 23t25.5 57v427q0 15 18 15h77q19 0 19 -14v-429q0 -82 -58.5 -131t-146.5 -49t-147 49t-59 131v428q0 15 18 15h77q18 0 18 -14v-429zM103 746l39 47q15 17 41 -3l121 -92q13 -10 3 -22l-20 -26q-12 -13 -24 -7l-154 78
q-20 10 -6 25z" />
    <glyph glyph-name="Uacute" unicode="&#xda;" horiz-adv-x="529" 
d="M172 174q0 -34 25.5 -56.5t66.5 -22.5t66.5 23t25.5 57v427q0 15 18 15h77q19 0 19 -14v-429q0 -82 -58.5 -131t-146.5 -49t-147 49t-59 131v428q0 15 18 15h77q18 0 18 -14v-429zM404 746q14 -15 -6 -25l-154 -78q-12 -6 -24 7l-20 26q-10 12 3 22l121 92q26 20 41 3z
" />
    <glyph glyph-name="Ucircumflex" unicode="&#xdb;" horiz-adv-x="529" 
d="M172 174q0 -34 25.5 -56.5t66.5 -22.5t66.5 23t25.5 57v427q0 15 18 15h77q19 0 19 -14v-429q0 -82 -58.5 -131t-146.5 -49t-147 49t-59 131v428q0 15 18 15h77q18 0 18 -14v-429zM417 684q11 -13 0 -21l-32 -19q-8 -5 -21 3l-101 77l-100 -78q-11 -8 -22 -1l-29 20
q-10 7 -1 20l99 108q9 11 21 11h67q13 0 22 -11z" />
    <glyph glyph-name="Udieresis" unicode="&#xdc;" horiz-adv-x="529" 
d="M172 174q0 -34 25.5 -56.5t66.5 -22.5t66.5 23t25.5 57v427q0 15 18 15h77q19 0 19 -14v-429q0 -82 -58.5 -131t-146.5 -49t-147 49t-59 131v428q0 15 18 15h77q18 0 18 -14v-429zM411 709q0 -25 -17 -41.5t-43 -16.5t-43.5 16.5t-17.5 41.5t17.5 42t43.5 17
q25 0 42.5 -17t17.5 -42zM235 709q0 -25 -17 -41.5t-43 -16.5t-43 16.5t-17 41.5t17.5 42t42.5 17t42.5 -17t17.5 -42z" />
    <glyph glyph-name="Yacute" unicode="&#xdd;" horiz-adv-x="465" 
d="M108 617q22 0 29 -16l94 -245h3q8 20 45 119.5t47 123.5q8 18 31 18h74q26 0 17 -20l-154 -356q-6 -13 -6 -26v-197q0 -18 -18 -18h-77q-18 0 -18 17v200q0 12 -5 22l-155 357q-8 21 14 21h79zM375 746q14 -15 -6 -25l-154 -78q-12 -6 -24 7l-20 26q-10 12 3 22l121 92
q26 20 41 3z" />
    <glyph glyph-name="Thorn" unicode="&#xde;" horiz-adv-x="486" 
d="M175 602v-108h91q88 0 140 -51.5t52 -134.5q0 -77 -54 -128t-138 -51h-91v-114q0 -15 -19 -15h-76q-17 0 -18 15v587q0 15 18 15h76q19 0 19 -15zM266 396h-91v-168h77q43 0 69 21t26 62q0 34 -23 59.5t-58 25.5z" />
    <glyph glyph-name="germandbls" unicode="&#xdf;" horiz-adv-x="490" 
d="M439 161q0 -73 -50 -122t-121 -49h-41q-15 0 -15 12v57q0 16 19 16h25q31 0 52.5 25.5t21.5 58.5v93q0 34 -18 54t-53 20h-9q-13 0 -13 13v54q0 13 13 13h13q27 0 42 18t15 46q0 32 -19.5 51.5t-52.5 19.5q-37 0 -55 -25.5t-18 -66.5v-435q0 -14 -16 -14h-77
q-16 0 -16 14v425q0 89 45.5 143.5t134.5 54.5q83 0 132.5 -45.5t49.5 -120.5q0 -29 -13 -59t-40 -42v-3q32 -12 48 -42.5t16 -65.5v-98z" />
    <glyph glyph-name="agrave" unicode="&#xe0;" horiz-adv-x="462" 
d="M235 453q93 0 133.5 -44t40.5 -129v-266q0 -14 -13 -14h-79q-11 0 -11 12v20h-3q-38 -38 -106 -38q-74 0 -115.5 42t-41.5 112q0 68 43.5 112t120.5 44q58 0 91 -24h3v22q0 62 -80 62q-52 0 -98 -20q-18 -6 -22 6l-17 54q-3 16 8 20q64 29 146 29zM141 151
q0 -32 18.5 -52t56.5 -20q33 0 53.5 20.5t20.5 51.5q0 32 -19 52.5t-55 20.5q-34 0 -54.5 -20.5t-20.5 -52.5zM310 526q9 -14 -5 -21l-24 -14q-19 -10 -32 4l-113 123q-13 17 4 26l60 33q14 7 24 -8z" />
    <glyph glyph-name="aacute" unicode="&#xe1;" horiz-adv-x="462" 
d="M235 453q93 0 133.5 -44t40.5 -129v-266q0 -14 -13 -14h-79q-11 0 -11 12v20h-3q-38 -38 -106 -38q-74 0 -115.5 42t-41.5 112q0 68 43.5 112t120.5 44q58 0 91 -24h3v22q0 62 -80 62q-52 0 -98 -20q-18 -6 -22 6l-17 54q-3 16 8 20q64 29 146 29zM141 151
q0 -32 18.5 -52t56.5 -20q33 0 53.5 20.5t20.5 51.5q0 32 -19 52.5t-55 20.5q-34 0 -54.5 -20.5t-20.5 -52.5zM350 618l-115 -128q-9 -11 -25 -2l-28 17q-13 7 -6 21l87 143q9 16 24 8l60 -33q18 -11 3 -26z" />
    <glyph glyph-name="acircumflex" unicode="&#xe2;" horiz-adv-x="462" 
d="M235 453q93 0 133.5 -44t40.5 -129v-266q0 -14 -13 -14h-79q-11 0 -11 12v20h-3q-38 -38 -106 -38q-74 0 -115.5 42t-41.5 112q0 68 43.5 112t120.5 44q58 0 91 -24h3v22q0 62 -80 62q-52 0 -98 -20q-18 -6 -22 6l-17 54q-3 16 8 20q64 29 146 29zM141 151
q0 -32 18.5 -52t56.5 -20q33 0 53.5 20.5t20.5 51.5q0 32 -19 52.5t-55 20.5q-34 0 -54.5 -20.5t-20.5 -52.5zM387 527q10 -16 -1 -21l-32 -17q-13 -7 -22 2l-102 96l-99 -97q-9 -9 -21 -2l-31 18q-11 5 -1 21l100 130q9 11 21 11h67q11 0 22 -11z" />
    <glyph glyph-name="atilde" unicode="&#xe3;" horiz-adv-x="462" 
d="M235 453q93 0 133.5 -44t40.5 -129v-266q0 -14 -13 -14h-79q-11 0 -11 12v20h-3q-38 -38 -106 -38q-74 0 -115.5 42t-41.5 112q0 68 43.5 112t120.5 44q58 0 91 -24h3v22q0 62 -80 62q-52 0 -98 -20q-18 -6 -22 6l-17 54q-3 16 8 20q64 29 146 29zM141 151
q0 -32 18.5 -52t56.5 -20q33 0 53.5 20.5t20.5 51.5q0 32 -19 52.5t-55 20.5q-34 0 -54.5 -20.5t-20.5 -52.5zM395 568q-15 -28 -40.5 -44.5t-50.5 -16.5q-24 0 -63 15.5t-59 15.5q-24 0 -46 -25q-9 -10 -20 0l-28 27q-8 8 -2 18q14 25 40 41.5t54 16.5q22 0 64 -16.5
t57 -16.5q16 0 38 27q8 10 18 4l34 -22q12 -8 4 -24z" />
    <glyph glyph-name="adieresis" unicode="&#xe4;" horiz-adv-x="462" 
d="M235 453q93 0 133.5 -44t40.5 -129v-266q0 -14 -13 -14h-79q-11 0 -11 12v20h-3q-38 -38 -106 -38q-74 0 -115.5 42t-41.5 112q0 68 43.5 112t120.5 44q58 0 91 -24h3v22q0 62 -80 62q-52 0 -98 -20q-18 -6 -22 6l-17 54q-3 16 8 20q64 29 146 29zM141 151
q0 -32 18.5 -52t56.5 -20q33 0 53.5 20.5t20.5 51.5q0 32 -19 52.5t-55 20.5q-34 0 -54.5 -20.5t-20.5 -52.5zM381 555q0 -25 -17 -42t-42 -17q-26 0 -44 16.5t-18 41.5t17.5 42t43.5 17q25 0 42.5 -17t17.5 -41zM145 496q-26 0 -43 16.5t-17 41.5t17.5 42t42.5 17t42.5 -17
t18.5 -41q0 -25 -17.5 -42t-43.5 -17z" />
    <glyph glyph-name="aring" unicode="&#xe5;" horiz-adv-x="462" 
d="M235 453q93 0 133.5 -44t40.5 -129v-266q0 -14 -13 -14h-79q-11 0 -11 12v20h-3q-38 -38 -106 -38q-74 0 -115.5 42t-41.5 112q0 68 43.5 112t120.5 44q58 0 91 -24h3v22q0 62 -80 62q-52 0 -98 -20q-18 -6 -22 6l-17 54q-3 16 8 20q64 29 146 29zM141 151
q0 -32 18.5 -52t56.5 -20q33 0 53.5 20.5t20.5 51.5q0 32 -19 52.5t-55 20.5q-34 0 -54.5 -20.5t-20.5 -52.5zM325 577q0 -36 -26.5 -61.5t-63.5 -25.5q-36 0 -61.5 25.5t-25.5 61.5t25 62t62 26t63.5 -25.5t26.5 -62.5zM273 577q0 15 -11.5 27t-26.5 12t-25.5 -11.5
t-10.5 -27.5t10.5 -26.5t25.5 -10.5q16 0 27 11t11 26z" />
    <glyph glyph-name="ae" unicode="&#xe6;" horiz-adv-x="714" 
d="M673 276v-47q0 -13 -8 -21.5t-20 -8.5h-236v-42q0 -32 20 -50.5t58 -18.5q47 0 91 50q8 12 21 2l50 -32q21 -11 12 -26q-30 -52 -70 -70t-103 -18q-95 0 -142 53h-2q-46 -52 -138 -52q-74 0 -120 41t-46 112q0 70 46 113.5t123 43.5q54 0 87 -27h3v26q0 30 -23 46t-62 16
q-37 0 -97 -24q-16 -5 -23 9l-17 49q-1 2 -1 6q0 18 55 31.5t95 13.5q91 0 130 -46h2q46 46 129 46q84 0 135 -48t51 -127zM291 151q0 30 -20.5 51.5t-51.5 21.5q-32 0 -52.5 -21t-20.5 -52t19.5 -51.5t52.5 -20.5t53 22t20 50zM566 273v14q0 30 -22 50.5t-57 20.5
q-33 0 -54.5 -21t-21.5 -51v-13h155z" />
    <glyph glyph-name="ccedilla" unicode="&#xe7;" horiz-adv-x="422" 
d="M336 -120q0 -34 -26.5 -59.5t-75.5 -25.5q-46 0 -81 24q-12 8 -3 17l20 25q8 8 16 3q22 -15 46 -15q43 0 43 30q0 28 -33 28h-31q-18 -1 -27.5 10t-5.5 28l13 52q-69 11 -109.5 55.5t-40.5 112.5v113q0 79 53 126.5t137 46.5q110 0 167 -93q9 -17 -7 -26l-56 -32
q-18 -11 -30 13q-26 44 -75 44q-34 0 -56.5 -22t-22.5 -54v-117q0 -32 22.5 -53t55.5 -21q52 0 75 42q7 12 12 15t19 -2l56 -31q18 -10 7 -27q-52 -86 -151 -92l-9 -35h15q39 0 61 -22t22 -58z" />
    <glyph glyph-name="egrave" unicode="&#xe8;" horiz-adv-x="458" 
d="M231 452q82 0 134.5 -47.5t52.5 -127.5v-47q0 -13 -8 -21.5t-20 -8.5h-236v-32q0 -33 21.5 -56t55.5 -23q46 0 85 47q12 13 24 5l49 -31q20 -13 13 -27q-50 -89 -169 -89q-85 0 -137 46.5t-52 123.5v113q0 78 52 126.5t135 48.5zM232 357q-34 0 -55 -20.5t-21 -50.5v-13
h152v18q0 30 -20.5 48t-55.5 18zM304 526q9 -14 -5 -21l-24 -14q-19 -10 -32 4l-113 123q-13 17 4 26l60 33q14 7 24 -8z" />
    <glyph glyph-name="eacute" unicode="&#xe9;" horiz-adv-x="458" 
d="M231 452q82 0 134.5 -47.5t52.5 -127.5v-47q0 -13 -8 -21.5t-20 -8.5h-236v-32q0 -33 21.5 -56t55.5 -23q46 0 85 47q12 13 24 5l49 -31q20 -13 13 -27q-50 -89 -169 -89q-85 0 -137 46.5t-52 123.5v113q0 78 52 126.5t135 48.5zM232 357q-34 0 -55 -20.5t-21 -50.5v-13
h152v18q0 30 -20.5 48t-55.5 18zM340 618l-115 -128q-9 -11 -25 -2l-28 17q-13 7 -6 21l87 143q9 16 24 8l60 -33q18 -11 3 -26z" />
    <glyph glyph-name="ecircumflex" unicode="&#xea;" horiz-adv-x="458" 
d="M231 452q82 0 134.5 -47.5t52.5 -127.5v-47q0 -13 -8 -21.5t-20 -8.5h-236v-32q0 -33 21.5 -56t55.5 -23q46 0 85 47q12 13 24 5l49 -31q20 -13 13 -27q-50 -89 -169 -89q-85 0 -137 46.5t-52 123.5v113q0 78 52 126.5t135 48.5zM232 357q-34 0 -55 -20.5t-21 -50.5v-13
h152v18q0 30 -20.5 48t-55.5 18zM387 527q10 -16 -1 -21l-32 -17q-13 -7 -22 2l-102 96l-99 -97q-9 -9 -21 -2l-31 18q-11 5 -1 21l100 130q9 11 21 11h67q11 0 22 -11z" />
    <glyph glyph-name="edieresis" unicode="&#xeb;" horiz-adv-x="458" 
d="M231 452q82 0 134.5 -47.5t52.5 -127.5v-47q0 -13 -8 -21.5t-20 -8.5h-236v-32q0 -33 21.5 -56t55.5 -23q46 0 85 47q12 13 24 5l49 -31q20 -13 13 -27q-50 -89 -169 -89q-85 0 -137 46.5t-52 123.5v113q0 78 52 126.5t135 48.5zM232 357q-34 0 -55 -20.5t-21 -50.5v-13
h152v18q0 30 -20.5 48t-55.5 18zM389 555q0 -25 -17 -42t-42 -17q-26 0 -44 16.5t-18 41.5t17.5 42t43.5 17q25 0 42.5 -17t17.5 -41zM153 496q-26 0 -43 16.5t-17 41.5t17.5 42t42.5 17t42.5 -17t18.5 -41q0 -25 -17.5 -42t-43.5 -17z" />
    <glyph glyph-name="igrave" unicode="&#xec;" horiz-adv-x="224" 
d="M57 15v413q0 16 15 16h78q16 0 16 -16v-412q0 -16 -15 -16h-78q-16 0 -16 15zM168 526q9 -14 -5 -21l-24 -14q-19 -10 -32 4l-113 123q-13 17 4 26l60 33q14 7 24 -8z" />
    <glyph glyph-name="iacute" unicode="&#xed;" horiz-adv-x="224" 
d="M57 15v413q0 16 15 16h78q16 0 16 -16v-412q0 -16 -15 -16h-78q-16 0 -16 15zM234 618l-115 -128q-9 -11 -25 -2l-28 17q-13 7 -6 21l87 143q9 16 24 8l60 -33q18 -11 3 -26z" />
    <glyph glyph-name="icircumflex" unicode="&#xee;" horiz-adv-x="224" 
d="M57 15v413q0 16 15 16h78q16 0 16 -16v-412q0 -16 -15 -16h-78q-16 0 -16 15zM269 527q10 -16 -1 -21l-32 -17q-13 -7 -22 2l-102 96l-99 -97q-9 -9 -21 -2l-31 18q-11 5 -1 21l100 130q9 11 21 11h67q11 0 22 -11z" />
    <glyph glyph-name="idieresis" unicode="&#xef;" horiz-adv-x="224" 
d="M57 15v413q0 16 15 16h78q16 0 16 -16v-412q0 -16 -15 -16h-78q-16 0 -16 15zM264 555q0 -25 -17 -42t-42 -17q-26 0 -44 16.5t-18 41.5t17.5 42t43.5 17q25 0 42.5 -17t17.5 -41zM28 496q-26 0 -43 16.5t-17 41.5t17.5 42t42.5 17t42.5 -17t18.5 -41q0 -25 -17.5 -42
t-43.5 -17z" />
    <glyph glyph-name="eth" unicode="&#xf0;" horiz-adv-x="466" 
d="M414 601l-45 -46q30 -39 38.5 -94t8.5 -134v-139q0 -93 -48 -143.5t-138 -50.5q-87 0 -137 45t-50 130v65q0 89 43.5 137t126.5 48q64 0 100 -31h3q0 68 -18 97l-39 -40q-6 -6 -16 0l-27 21q-10 7 2 19l40 41q-32 23 -91 26q-22 0 -22 17v56q1 16 21 16q92 0 160 -45
l46 46q6 4 9 4q2 0 8 -4l27 -25q3 -3 3 -7t-5 -9zM152 249v-84q0 -34 20.5 -55t55.5 -21q37 0 58.5 20.5t21.5 55.5v63q0 100 -81 100q-36 0 -55.5 -22.5t-19.5 -56.5z" />
    <glyph glyph-name="ntilde" unicode="&#xf1;" horiz-adv-x="480" 
d="M426 14q0 -14 -15 -14h-78q-16 0 -16 14v264q0 76 -77 76q-33 0 -55.5 -21.5t-22.5 -54.5v-264q0 -14 -16 -14h-77q-16 0 -16 14v414q0 15 15 15h79q13 0 13 -13v-18h1q1 -1 2 -1q39 38 108 38q75 0 115 -46.5t40 -123.5v-265zM387 568q-15 -28 -40.5 -44.5t-50.5 -16.5
q-24 0 -63 15.5t-59 15.5q-24 0 -46 -25q-9 -10 -20 0l-28 27q-8 8 -2 18q14 25 40 41.5t54 16.5q22 0 64 -16.5t57 -16.5q16 0 38 27q8 10 18 4l34 -22q12 -8 4 -24z" />
    <glyph glyph-name="ograve" unicode="&#xf2;" horiz-adv-x="468" 
d="M420 165q0 -82 -50 -126.5t-136 -44.5t-136.5 45t-50.5 123v120q0 76 51.5 123t134.5 47q86 0 136.5 -44.5t50.5 -125.5v-117zM311 166v113q0 36 -20.5 56.5t-57.5 20.5q-36 0 -56.5 -21.5t-20.5 -55.5v-113q0 -35 20 -56t57 -21q36 0 57 21t21 56zM286 526q9 -14 -5 -21
l-24 -14q-19 -10 -32 4l-113 123q-13 17 4 26l60 33q14 7 24 -8z" />
    <glyph glyph-name="oacute" unicode="&#xf3;" horiz-adv-x="468" 
d="M420 165q0 -82 -50 -126.5t-136 -44.5t-136.5 45t-50.5 123v120q0 76 51.5 123t134.5 47q86 0 136.5 -44.5t50.5 -125.5v-117zM311 166v113q0 36 -20.5 56.5t-57.5 20.5q-36 0 -56.5 -21.5t-20.5 -55.5v-113q0 -35 20 -56t57 -21q36 0 57 21t21 56zM360 618l-115 -128
q-9 -11 -25 -2l-28 17q-13 7 -6 21l87 143q9 16 24 8l60 -33q18 -11 3 -26z" />
    <glyph glyph-name="ocircumflex" unicode="&#xf4;" horiz-adv-x="468" 
d="M420 165q0 -82 -50 -126.5t-136 -44.5t-136.5 45t-50.5 123v120q0 76 51.5 123t134.5 47q86 0 136.5 -44.5t50.5 -125.5v-117zM311 166v113q0 36 -20.5 56.5t-57.5 20.5q-36 0 -56.5 -21.5t-20.5 -55.5v-113q0 -35 20 -56t57 -21q36 0 57 21t21 56zM394 527
q10 -16 -1 -21l-32 -17q-13 -7 -22 2l-102 96l-99 -97q-9 -9 -21 -2l-31 18q-11 5 -1 21l100 130q9 11 21 11h67q11 0 22 -11z" />
    <glyph glyph-name="otilde" unicode="&#xf5;" horiz-adv-x="468" 
d="M420 165q0 -82 -50 -126.5t-136 -44.5t-136.5 45t-50.5 123v120q0 76 51.5 123t134.5 47q86 0 136.5 -44.5t50.5 -125.5v-117zM311 166v113q0 36 -20.5 56.5t-57.5 20.5q-36 0 -56.5 -21.5t-20.5 -55.5v-113q0 -35 20 -56t57 -21q36 0 57 21t21 56zM391 568
q-15 -28 -40.5 -44.5t-50.5 -16.5q-24 0 -63 15.5t-59 15.5q-24 0 -46 -25q-9 -10 -20 0l-28 27q-8 8 -2 18q14 25 40 41.5t54 16.5q22 0 64 -16.5t57 -16.5q16 0 38 27q8 10 18 4l34 -22q12 -8 4 -24z" />
    <glyph glyph-name="odieresis" unicode="&#xf6;" horiz-adv-x="468" 
d="M420 165q0 -82 -50 -126.5t-136 -44.5t-136.5 45t-50.5 123v120q0 76 51.5 123t134.5 47q86 0 136.5 -44.5t50.5 -125.5v-117zM311 166v113q0 36 -20.5 56.5t-57.5 20.5q-36 0 -56.5 -21.5t-20.5 -55.5v-113q0 -35 20 -56t57 -21q36 0 57 21t21 56zM387 555
q0 -25 -17 -42t-42 -17q-26 0 -44 16.5t-18 41.5t17.5 42t43.5 17q25 0 42.5 -17t17.5 -41zM151 496q-26 0 -43 16.5t-17 41.5t17.5 42t42.5 17t42.5 -17t18.5 -41q0 -25 -17.5 -42t-43.5 -17z" />
    <glyph glyph-name="divide" unicode="&#xf7;" horiz-adv-x="497" 
d="M459 247q0 -27 -26 -27h-369q-26 0 -26 26v27q0 24 26 24h369q26 0 26 -24v-26zM320 436q0 -29 -20.5 -49.5t-50.5 -20.5q-31 0 -52 20t-21 49t21.5 49.5t50.5 20.5t50.5 -20.5t21.5 -48.5zM320 80q-1 -28 -21.5 -48t-49.5 -20q-30 0 -51.5 20t-21.5 48q0 29 21.5 49.5
t50.5 20.5t50 -20.5t21 -48.5q1 0 1 -1z" />
    <glyph glyph-name="oslash" unicode="&#xf8;" horiz-adv-x="468" 
d="M420 165q0 -82 -50 -126.5t-136 -44.5q-71 0 -119 31l-22 -27q-6 -8 -17 1l-28 22q-8 8 0 18l24 30q-25 41 -25 93v120q0 76 51.5 123t134.5 47q72 0 121 -33l23 28q6 10 17 -1l26 -20q12 -8 2 -15l-27 -35q25 -39 25 -94v-117zM156 279v-106l132 164q-21 19 -55 19
q-36 0 -56.5 -21.5t-20.5 -55.5zM311 166v104l-132 -164q20 -17 54 -17q36 0 57 21t21 56z" />
    <glyph glyph-name="ugrave" unicode="&#xf9;" horiz-adv-x="474" 
d="M47 428q0 15 14 15h78q17 0 17 -14v-265q0 -34 19 -55t58 -21q32 0 54.5 22t22.5 54v264q0 15 17 15h76q16 0 16 -14v-415q0 -14 -15 -14h-78q-14 0 -14 12v18l-1 1q-39 -36 -109 -36q-77 0 -116 45t-39 123v265zM308 526q9 -14 -5 -21l-24 -14q-19 -10 -32 4l-113 123
q-13 17 4 26l60 33q14 7 24 -8z" />
    <glyph glyph-name="uacute" unicode="&#xfa;" horiz-adv-x="474" 
d="M47 428q0 15 14 15h78q17 0 17 -14v-265q0 -34 19 -55t58 -21q32 0 54.5 22t22.5 54v264q0 15 17 15h76q16 0 16 -14v-415q0 -14 -15 -14h-78q-14 0 -14 12v18l-1 1q-39 -36 -109 -36q-77 0 -116 45t-39 123v265zM355 618l-115 -128q-9 -11 -25 -2l-28 17q-13 7 -6 21
l87 143q9 16 24 8l60 -33q18 -11 3 -26z" />
    <glyph glyph-name="ucircumflex" unicode="&#xfb;" horiz-adv-x="474" 
d="M47 428q0 15 14 15h78q17 0 17 -14v-265q0 -34 19 -55t58 -21q32 0 54.5 22t22.5 54v264q0 15 17 15h76q16 0 16 -14v-415q0 -14 -15 -14h-78q-14 0 -14 12v18l-1 1q-39 -36 -109 -36q-77 0 -116 45t-39 123v265zM382 527q10 -16 -1 -21l-32 -17q-13 -7 -22 2l-102 96
l-99 -97q-9 -9 -21 -2l-31 18q-11 5 -1 21l100 130q9 11 21 11h67q11 0 22 -11z" />
    <glyph glyph-name="udieresis" unicode="&#xfc;" horiz-adv-x="474" 
d="M47 428q0 15 14 15h78q17 0 17 -14v-265q0 -34 19 -55t58 -21q32 0 54.5 22t22.5 54v264q0 15 17 15h76q16 0 16 -14v-415q0 -14 -15 -14h-78q-14 0 -14 12v18l-1 1q-39 -36 -109 -36q-77 0 -116 45t-39 123v265zM386 555q0 -25 -17 -42t-42 -17q-26 0 -44 16.5t-18 41.5
t17.5 42t43.5 17q25 0 42.5 -17t17.5 -41zM150 496q-26 0 -43 16.5t-17 41.5t17.5 42t42.5 17t42.5 -17t18.5 -41q0 -25 -17.5 -42t-43.5 -17z" />
    <glyph glyph-name="yacute" unicode="&#xfd;" horiz-adv-x="434" 
d="M108 443q18 0 23 -18l46 -183l34 -142h2l100 323q5 20 26 20h72q8 0 13 -7t2 -16l-187 -581q-6 -21 -29 -21h-65q-10 0 -15 8t-1 19l48 155h-24q-18 0 -24 20l-115 402q-6 21 14 21h80zM349 618l-115 -128q-9 -11 -25 -2l-28 17q-13 7 -6 21l87 143q9 16 24 8l60 -33
q18 -11 3 -26z" />
    <glyph glyph-name="thorn" unicode="&#xfe;" horiz-adv-x="470" 
d="M52 615q0 15 14 15h75q15 0 15 -14v-205h3q36 36 111 36q74 0 114.5 -45.5t40.5 -120.5v-117q0 -75 -43 -122.5t-123 -47.5q-63 0 -95 24q-1 -1 -3 -1v-182q0 -16 -16 -16h-77q-16 0 -16 15v781zM161 277v-97q0 -41 18.5 -67.5t58.5 -26.5t59.5 21.5t19.5 56.5v99
q0 40 -18.5 65t-58.5 25q-35 0 -57 -21.5t-22 -54.5z" />
    <glyph glyph-name="ydieresis" unicode="&#xff;" horiz-adv-x="434" 
d="M108 443q18 0 23 -18l46 -183l34 -142h2l100 323q5 20 26 20h72q8 0 13 -7t2 -16l-187 -581q-6 -21 -29 -21h-65q-10 0 -15 8t-1 19l48 155h-24q-18 0 -24 20l-115 402q-6 21 14 21h80zM368 555q0 -25 -17 -42t-42 -17q-26 0 -44 16.5t-18 41.5t17.5 42t43.5 17
q25 0 42.5 -17t17.5 -41zM132 496q-26 0 -43 16.5t-17 41.5t17.5 42t42.5 17t42.5 -17t18.5 -41q0 -25 -17.5 -42t-43.5 -17z" />
    <glyph glyph-name="Amacron" unicode="&#x100;" horiz-adv-x="482" 
d="M453 0h-87q-13 0 -16 11t-12.5 52l-14.5 63h-169q-17 -72 -26 -115q-2 -11 -16 -11h-82q-16 0 -16 11q0 2 2 8l146 584q5 14 20 14h113q17 0 21 -14l149 -583q1 -2 1 -8q0 -12 -13 -12zM236 491q-22 -111 -24 -119l-34 -153h122q-4 18 -12 50.5t-14 59.5l-11 50l-24 112
h-3zM347 679q0 -9 -3 -11t-14 -2h-212q-9 0 -12 0.5t-5 3.5t-2 9v51q0 10 3.5 13.5t14.5 3.5h212q11 0 14.5 -3t3.5 -13v-52z" />
    <glyph glyph-name="amacron" unicode="&#x101;" horiz-adv-x="462" 
d="M235 453q93 0 133.5 -44t40.5 -129v-266q0 -14 -13 -14h-79q-11 0 -11 12v20h-3q-38 -38 -106 -38q-74 0 -115.5 42t-41.5 112q0 68 43.5 112t120.5 44q58 0 91 -24h3v22q0 62 -80 62q-52 0 -98 -20q-18 -6 -22 6l-17 54q-3 16 8 20q64 29 146 29zM141 151
q0 -32 18.5 -52t56.5 -20q33 0 53.5 20.5t20.5 51.5q0 32 -19 52.5t-55 20.5q-34 0 -54.5 -20.5t-20.5 -52.5zM355 540q0 -9 -3 -11t-14 -2h-212q-9 0 -12 0.5t-5 3.5t-2 9v51q0 10 3.5 13.5t14.5 3.5h212q11 0 14.5 -3t3.5 -13v-52z" />
    <glyph glyph-name="Abreve" unicode="&#x102;" horiz-adv-x="482" 
d="M453 0h-87q-13 0 -16 11t-12.5 52l-14.5 63h-169q-17 -72 -26 -115q-2 -11 -16 -11h-82q-16 0 -16 11q0 2 2 8l146 584q5 14 20 14h113q17 0 21 -14l149 -583q1 -2 1 -8q0 -12 -13 -12zM109 774q0 9 2.5 11.5t13.5 2.5h40q9 0 12 -2.5t3 -10.5q1 -26 15 -42t40 -16
q50 0 59 59q1 8 4 10.5t12 2.5h36q10 0 12.5 -2t2.5 -13q-3 -57 -35 -93t-92 -36q-57 0 -90 37.5t-35 91.5zM236 491q-22 -111 -24 -119l-34 -153h122q-4 18 -12 50.5t-14 59.5l-11 50l-24 112h-3z" />
    <glyph glyph-name="abreve" unicode="&#x103;" horiz-adv-x="462" 
d="M235 453q93 0 133.5 -44t40.5 -129v-266q0 -14 -13 -14h-79q-11 0 -11 12v20h-3q-38 -38 -106 -38q-74 0 -115.5 42t-41.5 112q0 68 43.5 112t120.5 44q58 0 91 -24h3v22q0 62 -80 62q-52 0 -98 -20q-18 -6 -22 6l-17 54q-3 16 8 20q64 29 146 29zM122 627q0 9 2.5 11.5
t13.5 2.5h40q9 0 12 -2.5t3 -10.5q1 -26 15 -42t40 -16q50 0 59 59q1 8 4 10.5t12 2.5h36q10 0 12.5 -2t2.5 -13q-3 -57 -35 -93t-92 -36q-57 0 -90 37.5t-35 91.5zM141 151q0 -32 18.5 -52t56.5 -20q33 0 53.5 20.5t20.5 51.5q0 32 -19 52.5t-55 20.5q-34 0 -54.5 -20.5
t-20.5 -52.5z" />
    <glyph glyph-name="Aogonek" unicode="&#x104;" horiz-adv-x="482" 
d="M453 0h-49q-49 -52 -49 -108q0 -26 23 -26q19 0 51 17q13 7 15 7q5 0 8 -5l17 -22q6 -9 -9 -22q-42 -34 -93 -34q-84 0 -84 78q0 30 18.5 65t43.5 59l4 4q-20 84 -26 113h-169q-17 -72 -26 -115q-2 -11 -16 -11h-82q-16 0 -16 11q0 2 2 8l146 584q5 14 20 14h113
q17 0 21 -14l149 -583q1 -2 1 -8q0 -12 -13 -12zM236 491q-22 -111 -24 -119l-34 -153h122q-4 18 -12 50.5t-14 59.5l-11 50l-24 112h-3z" />
    <glyph glyph-name="aogonek" unicode="&#x105;" horiz-adv-x="462" 
d="M235 453q93 0 133.5 -44t40.5 -129v-266q0 -14 -13 -14h-38q-49 -52 -49 -108q0 -26 23 -26q19 0 51 17q13 7 15 7q5 0 8 -5l17 -22q6 -9 -9 -22q-42 -34 -93 -34q-84 0 -84 78q0 30 18.5 65t43.5 59l7 6v17h-3q-38 -38 -106 -38q-74 0 -115.5 42t-41.5 112
q0 68 43.5 112t120.5 44q58 0 91 -24h3v22q0 62 -80 62q-52 0 -98 -20q-18 -6 -22 6l-17 54q-3 16 8 20q64 29 146 29zM141 151q0 -32 18.5 -52t56.5 -20q33 0 53.5 20.5t20.5 51.5q0 32 -19 52.5t-55 20.5q-34 0 -54.5 -20.5t-20.5 -52.5z" />
    <glyph glyph-name="Cacute" unicode="&#x106;" horiz-adv-x="472" 
d="M256 -6q-88 0 -142.5 48.5t-54.5 129.5v277q0 80 54.5 129t139.5 49q122 0 185 -91q11 -15 -5 -26l-54 -41q-17 -9 -27 8q-34 50 -95 50q-40 0 -62.5 -23.5t-22.5 -58.5v-273q0 -33 23 -55t63 -22q53 0 93 47q1 1 4 4.5t4.5 4.5t4.5 2.5t6 1t7 -2.5l60 -37q16 -9 8 -24
q-64 -97 -189 -97zM394 746q14 -15 -6 -25l-154 -78q-12 -6 -24 7l-20 26q-10 12 3 22l121 92q26 20 41 3z" />
    <glyph glyph-name="cacute" unicode="&#x107;" horiz-adv-x="422" 
d="M398 87q-58 -93 -167 -93q-86 0 -138 46.5t-52 124.5v113q0 79 53 126.5t137 46.5q110 0 167 -93q9 -17 -7 -26l-56 -32q-18 -11 -30 13q-26 44 -75 44q-34 0 -56.5 -22t-22.5 -54v-117q0 -32 22.5 -53t55.5 -21q52 0 75 42q7 12 12 15t19 -2l56 -31q18 -10 7 -27z
M341 618l-115 -128q-9 -11 -25 -2l-28 17q-13 7 -6 21l87 143q9 16 24 8l60 -33q18 -11 3 -26z" />
    <glyph glyph-name="Ccircumflex" unicode="&#x108;" horiz-adv-x="472" 
d="M256 -6q-88 0 -142.5 48.5t-54.5 129.5v277q0 80 54.5 129t139.5 49q122 0 185 -91q11 -15 -5 -26l-54 -41q-17 -9 -27 8q-34 50 -95 50q-40 0 -62.5 -23.5t-22.5 -58.5v-273q0 -33 23 -55t63 -22q53 0 93 47q1 1 4 4.5t4.5 4.5t4.5 2.5t6 1t7 -2.5l60 -37q16 -9 8 -24
q-64 -97 -189 -97zM411 684q11 -13 0 -21l-32 -19q-8 -5 -21 3l-101 77l-100 -78q-11 -8 -22 -1l-29 20q-10 7 -1 20l99 108q9 11 21 11h67q13 0 22 -11z" />
    <glyph glyph-name="ccircumflex" unicode="&#x109;" horiz-adv-x="422" 
d="M398 87q-58 -93 -167 -93q-86 0 -138 46.5t-52 124.5v113q0 79 53 126.5t137 46.5q110 0 167 -93q9 -17 -7 -26l-56 -32q-18 -11 -30 13q-26 44 -75 44q-34 0 -56.5 -22t-22.5 -54v-117q0 -32 22.5 -53t55.5 -21q52 0 75 42q7 12 12 15t19 -2l56 -31q18 -10 7 -27z
M387 527q10 -16 -1 -21l-32 -17q-13 -7 -22 2l-102 96l-99 -97q-9 -9 -21 -2l-31 18q-11 5 -1 21l100 130q9 11 21 11h67q11 0 22 -11z" />
    <glyph glyph-name="Cdotaccent" unicode="&#x10a;" horiz-adv-x="472" 
d="M256 -6q-88 0 -142.5 48.5t-54.5 129.5v277q0 80 54.5 129t139.5 49q122 0 185 -91q11 -15 -5 -26l-54 -41q-17 -9 -27 8q-34 50 -95 50q-40 0 -62.5 -23.5t-22.5 -58.5v-273q0 -33 23 -55t63 -22q53 0 93 47q1 1 4 4.5t4.5 4.5t4.5 2.5t6 1t7 -2.5l60 -37q16 -9 8 -24
q-64 -97 -189 -97zM319 729q0 -25 -17.5 -42t-42.5 -17q-26 0 -43.5 16.5t-17.5 41.5q0 24 17.5 41.5t42.5 17.5t43 -17t18 -41z" />
    <glyph glyph-name="cdotaccent" unicode="&#x10b;" horiz-adv-x="422" 
d="M398 87q-58 -93 -167 -93q-86 0 -138 46.5t-52 124.5v113q0 79 53 126.5t137 46.5q110 0 167 -93q9 -17 -7 -26l-56 -32q-18 -11 -30 13q-26 44 -75 44q-34 0 -56.5 -22t-22.5 -54v-117q0 -32 22.5 -53t55.5 -21q52 0 75 42q7 12 12 15t19 -2l56 -31q18 -10 7 -27z
M292 559q0 -25 -17.5 -42t-42.5 -17q-26 0 -43.5 16.5t-17.5 41.5q0 24 17.5 41.5t42.5 17.5t43 -17t18 -41z" />
    <glyph glyph-name="Ccaron" unicode="&#x10c;" horiz-adv-x="472" 
d="M256 -6q-88 0 -142.5 48.5t-54.5 129.5v277q0 80 54.5 129t139.5 49q122 0 185 -91q11 -15 -5 -26l-54 -41q-17 -9 -27 8q-34 50 -95 50q-40 0 -62.5 -23.5t-22.5 -58.5v-273q0 -33 23 -55t63 -22q53 0 93 47q1 1 4 4.5t4.5 4.5t4.5 2.5t6 1t7 -2.5l60 -37q16 -9 8 -24
q-64 -97 -189 -97zM412 771l-97 -109q-9 -11 -22 -11h-66q-13 0 -22 11l-98 108q-11 12 1 20l29 20q11 7 22 -1l101 -77l100 76q12 9 21 3l31 -19q11 -8 0 -21z" />
    <glyph glyph-name="ccaron" unicode="&#x10d;" horiz-adv-x="422" 
d="M398 87q-58 -93 -167 -93q-86 0 -138 46.5t-52 124.5v113q0 79 53 126.5t137 46.5q110 0 167 -93q9 -17 -7 -26l-56 -32q-18 -11 -30 13q-26 44 -75 44q-34 0 -56.5 -22t-22.5 -54v-117q0 -32 22.5 -53t55.5 -21q52 0 75 42q7 12 12 15t19 -2l56 -31q18 -10 7 -27z
M386 626l-99 -130q-11 -11 -22 -11h-67q-12 0 -21 11l-100 130q-10 16 1 21l31 18q12 7 21 -2l101 -97l100 96q9 9 22 2l32 -17q11 -5 1 -21z" />
    <glyph glyph-name="Dcaron" unicode="&#x10e;" horiz-adv-x="528" 
d="M471 186q0 -88 -47 -137t-138 -49h-205q-18 0 -18 17v583q0 17 18 17h202q93 0 140.5 -48.5t47.5 -135.5v-247zM358 187v245q0 85 -89 85h-93v-418h98q84 0 84 88zM392 771l-97 -109q-9 -11 -22 -11h-66q-13 0 -22 11l-98 108q-11 12 1 20l29 20q11 7 22 -1l101 -77
l100 76q12 9 21 3l31 -19q11 -8 0 -21z" />
    <glyph glyph-name="dcaron" unicode="&#x10f;" horiz-adv-x="562" 
d="M211 450q60 0 93 -23l1 -1l1 1v194q0 16 16 16h77q16 0 16 -15v-608q0 -14 -13 -14h-76q-14 0 -14 12v17l-1 1h-2q-33 -35 -109 -35q-74 0 -115.5 45t-41.5 121v117q0 76 44 124t124 48zM229 356q-39 0 -58 -21.5t-19 -56.5v-108q0 -36 19 -58.5t57 -22.5q35 0 57 22
t22 55v108q0 35 -20 58.5t-58 23.5zM590 606l-47 -136q-7 -21 -28 -21h-26q-19 0 -19 29l11 134q2 27 27 27h58q32 0 24 -33z" />
    <glyph glyph-name="Dcroat" unicode="&#x110;" horiz-adv-x="524" 
d="M63 347v253q0 17 18 17h198q93 0 141 -48.5t48 -135.5v-247q0 -88 -47.5 -137t-137.5 -49h-202q-18 0 -18 17v257h-37q-15 0 -15 15v44q0 14 15 14h37zM176 274v-175h95q83 0 83 88v245q0 85 -88 85h-90v-170h75q14 0 14 -13v-45q0 -15 -14 -15h-75z" />
    <glyph glyph-name="dcroat" unicode="&#x111;" horiz-adv-x="468" 
d="M415 14q0 -14 -13 -14h-76q-14 0 -14 12v17l-1 1h-2q-34 -35 -102 -35q-79 0 -121.5 43.5t-42.5 122.5v112q0 75 44 123t124 48q59 0 93 -23l1 -1l1 1v67h-80q-15 0 -15 14v35q0 13 15 13h80v71q0 16 16 16h77q16 0 16 -15v-72h38q13 0 13 -14v-34q0 -14 -14 -14h-37
v-474zM306 166q0 17 0.5 51t0.5 51q0 36 -20 59t-58 23q-39 0 -58 -21t-19 -56v-103q0 -37 18.5 -59t56.5 -22q35 0 57 22t22 55z" />
    <glyph glyph-name="Emacron" unicode="&#x112;" horiz-adv-x="468" 
d="M433 17q0 -17 -16 -17h-339q-18 0 -18 17v583q0 17 18 17h333q16 0 16 -17v-65q0 -18 -16 -18h-238v-149h199q17 0 17 -18v-64q0 -18 -16 -18h-200v-169h244q16 0 16 -17v-65zM374 679q0 -9 -3 -11t-14 -2h-212q-9 0 -12 0.5t-5 3.5t-2 9v51q0 10 3.5 13.5t14.5 3.5h212
q11 0 14.5 -3t3.5 -13v-52z" />
    <glyph glyph-name="emacron" unicode="&#x113;" horiz-adv-x="458" 
d="M231 452q82 0 134.5 -47.5t52.5 -127.5v-47q0 -13 -8 -21.5t-20 -8.5h-236v-32q0 -33 21.5 -56t55.5 -23q46 0 85 47q12 13 24 5l49 -31q20 -13 13 -27q-50 -89 -169 -89q-85 0 -137 46.5t-52 123.5v113q0 78 52 126.5t135 48.5zM232 357q-34 0 -55 -20.5t-21 -50.5v-13
h152v18q0 30 -20.5 48t-55.5 18zM356 540q0 -9 -3 -11t-14 -2h-212q-9 0 -12 0.5t-5 3.5t-2 9v51q0 10 3.5 13.5t14.5 3.5h212q11 0 14.5 -3t3.5 -13v-52z" />
    <glyph glyph-name="Ebreve" unicode="&#x114;" horiz-adv-x="468" 
d="M433 17q0 -17 -16 -17h-339q-18 0 -18 17v583q0 17 18 17h333q16 0 16 -17v-65q0 -18 -16 -18h-238v-149h199q17 0 17 -18v-64q0 -18 -16 -18h-200v-169h244q16 0 16 -17v-65zM110 774q0 9 2.5 11.5t13.5 2.5h40q9 0 12 -2.5t3 -10.5q1 -26 15 -42t40 -16q50 0 59 59
q1 8 4 10.5t12 2.5h36q10 0 12.5 -2t2.5 -13q-3 -57 -35 -93t-92 -36q-57 0 -90 37.5t-35 91.5z" />
    <glyph glyph-name="ebreve" unicode="&#x115;" horiz-adv-x="458" 
d="M231 452q82 0 134.5 -47.5t52.5 -127.5v-47q0 -13 -8 -21.5t-20 -8.5h-236v-32q0 -33 21.5 -56t55.5 -23q46 0 85 47q12 13 24 5l49 -31q20 -13 13 -27q-50 -89 -169 -89q-85 0 -137 46.5t-52 123.5v113q0 78 52 126.5t135 48.5zM106 627q0 9 2.5 11.5t13.5 2.5h40
q9 0 12 -2.5t3 -10.5q1 -26 15 -42t40 -16q50 0 59 59q1 8 4 10.5t12 2.5h36q10 0 12.5 -2t2.5 -13q-3 -57 -35 -93t-92 -36q-57 0 -90 37.5t-35 91.5zM232 357q-34 0 -55 -20.5t-21 -50.5v-13h152v18q0 30 -20.5 48t-55.5 18z" />
    <glyph glyph-name="Edotaccent" unicode="&#x116;" horiz-adv-x="468" 
d="M433 17q0 -17 -16 -17h-339q-18 0 -18 17v583q0 17 18 17h333q16 0 16 -17v-65q0 -18 -16 -18h-238v-149h199q17 0 17 -18v-64q0 -18 -16 -18h-200v-169h244q16 0 16 -17v-65zM308 709q0 -25 -17.5 -42t-42.5 -17q-26 0 -43.5 16.5t-17.5 41.5q0 24 17.5 41.5t42.5 17.5
t43 -17t18 -41z" />
    <glyph glyph-name="edotaccent" unicode="&#x117;" horiz-adv-x="458" 
d="M231 452q82 0 134.5 -47.5t52.5 -127.5v-47q0 -13 -8 -21.5t-20 -8.5h-236v-32q0 -33 21.5 -56t55.5 -23q46 0 85 47q12 13 24 5l49 -31q20 -13 13 -27q-50 -89 -169 -89q-85 0 -137 46.5t-52 123.5v113q0 78 52 126.5t135 48.5zM232 357q-34 0 -55 -20.5t-21 -50.5v-13
h152v18q0 30 -20.5 48t-55.5 18zM297 559q0 -25 -17.5 -42t-42.5 -17q-26 0 -43.5 16.5t-17.5 41.5q0 24 17.5 41.5t42.5 17.5t43 -17t18 -41z" />
    <glyph glyph-name="Eogonek" unicode="&#x118;" horiz-adv-x="468" 
d="M433 17q0 -17 -16 -17h-40q-49 -52 -49 -108q0 -26 23 -26q19 0 51 17q13 7 15 7q5 0 8 -5l17 -22q6 -9 -9 -22q-42 -34 -93 -34q-84 0 -84 78q0 58 53 115h-231q-18 0 -18 17v583q0 17 18 17h333q16 0 16 -17v-65q0 -18 -16 -18h-238v-149h199q17 0 17 -18v-64
q0 -18 -16 -18h-200v-169h244q16 0 16 -17v-65z" />
    <glyph glyph-name="eogonek" unicode="&#x119;" horiz-adv-x="458" 
d="M231 452q82 0 134.5 -47.5t52.5 -127.5v-47q0 -13 -8 -21.5t-20 -8.5h-236v-32q0 -33 21.5 -56t55.5 -23q46 0 85 47q12 13 24 5l49 -31q20 -13 13 -27q-32 -55 -91 -76q-46 -51 -46 -105q0 -26 23 -26q19 0 51 17q13 7 15 7q5 0 8 -5l17 -22q6 -9 -9 -22
q-42 -34 -93 -34q-84 0 -84 78q0 46 40 99q-85 0 -137 46.5t-52 123.5v113q0 78 52 126.5t135 48.5zM232 357q-34 0 -55 -20.5t-21 -50.5v-13h152v18q0 30 -20.5 48t-55.5 18z" />
    <glyph glyph-name="Ecaron" unicode="&#x11a;" horiz-adv-x="468" 
d="M433 17q0 -17 -16 -17h-339q-18 0 -18 17v583q0 17 18 17h333q16 0 16 -17v-65q0 -18 -16 -18h-238v-149h199q17 0 17 -18v-64q0 -18 -16 -18h-200v-169h244q16 0 16 -17v-65zM395 771l-97 -109q-9 -11 -22 -11h-66q-13 0 -22 11l-98 108q-11 12 1 20l29 20q11 7 22 -1
l101 -77l100 76q12 9 21 3l31 -19q11 -8 0 -21z" />
    <glyph glyph-name="ecaron" unicode="&#x11b;" horiz-adv-x="458" 
d="M231 452q82 0 134.5 -47.5t52.5 -127.5v-47q0 -13 -8 -21.5t-20 -8.5h-236v-32q0 -33 21.5 -56t55.5 -23q46 0 85 47q12 13 24 5l49 -31q20 -13 13 -27q-50 -89 -169 -89q-85 0 -137 46.5t-52 123.5v113q0 78 52 126.5t135 48.5zM390 626l-99 -130q-11 -11 -22 -11h-67
q-12 0 -21 11l-100 130q-10 16 1 21l31 18q12 7 21 -2l101 -97l100 96q9 9 22 2l32 -17q11 -5 1 -21zM232 357q-34 0 -55 -20.5t-21 -50.5v-13h152v18q0 30 -20.5 48t-55.5 18z" />
    <glyph glyph-name="Gcircumflex" unicode="&#x11c;" horiz-adv-x="512" 
d="M257 627q136 0 189 -94q9 -15 -5 -25l-57 -41q-13 -6 -27 10q-36 49 -96 49q-40 0 -64.5 -23.5t-24.5 -59.5v-271q0 -34 25 -55.5t65 -21.5q37 0 61 21.5t24 59.5v73h-64q-18 0 -18 16v65q0 16 18 16h157q19 0 19 -16v-160q0 -81 -55.5 -128.5t-143.5 -47.5t-144 47.5
t-56 127.5v282q0 79 56 127.5t141 48.5zM409 684q11 -13 0 -21l-32 -19q-8 -5 -21 3l-101 77l-100 -78q-11 -8 -22 -1l-29 20q-10 7 -1 20l99 108q9 11 21 11h67q13 0 22 -11z" />
    <glyph glyph-name="gcircumflex" unicode="&#x11d;" horiz-adv-x="470" 
d="M100 149q-68 47 -68 135q0 70 54 118.5t128 48.5q76 0 125 -39q54 36 106 36q16 0 16 -16v-63q0 -7 -2 -9t-7 -1q-38 4 -68 -4q20 -36 20 -71q0 -71 -55.5 -119.5t-134.5 -48.5h-11q-27 0 -46.5 -16t-24.5 -40q58 11 107 11q87 0 148.5 -33t61.5 -103q0 -42 -31.5 -79.5
t-73.5 -57.5q-10 -5 -19.5 -4.5t-16.5 12.5l-27 42q-7 10 4 20l19 14q18 14 26.5 24.5t8.5 23.5q0 47 -97 47q-56 0 -159 -15q-14 -2 -23 3q-29 16 -29 85q0 25 19.5 54t49.5 45zM298 280q0 31 -23 53.5t-57 22.5q-35 0 -58.5 -22.5t-23.5 -53.5q0 -32 22.5 -54.5
t57.5 -22.5q36 0 59 22t23 55zM377 527q10 -16 -1 -21l-32 -17q-13 -7 -22 2l-102 96l-99 -97q-9 -9 -21 -2l-31 18q-11 5 -1 21l100 130q9 11 21 11h67q11 0 22 -11z" />
    <glyph glyph-name="Gbreve" unicode="&#x11e;" horiz-adv-x="512" 
d="M257 627q136 0 189 -94q9 -15 -5 -25l-57 -41q-13 -6 -27 10q-36 49 -96 49q-40 0 -64.5 -23.5t-24.5 -59.5v-271q0 -34 25 -55.5t65 -21.5q37 0 61 21.5t24 59.5v73h-64q-18 0 -18 16v65q0 16 18 16h157q19 0 19 -16v-160q0 -81 -55.5 -128.5t-143.5 -47.5t-144 47.5
t-56 127.5v282q0 79 56 127.5t141 48.5zM131 774q0 9 2.5 11.5t13.5 2.5h40q9 0 12 -2.5t3 -10.5q1 -26 15 -42t40 -16q50 0 59 59q1 8 4 10.5t12 2.5h36q10 0 12.5 -2t2.5 -13q-3 -57 -35 -93t-92 -36q-57 0 -90 37.5t-35 91.5z" />
    <glyph glyph-name="gbreve" unicode="&#x11f;" horiz-adv-x="470" 
d="M100 149q-68 47 -68 135q0 70 54 118.5t128 48.5q76 0 125 -39q54 36 106 36q16 0 16 -16v-63q0 -7 -2 -9t-7 -1q-38 4 -68 -4q20 -36 20 -71q0 -71 -55.5 -119.5t-134.5 -48.5h-11q-27 0 -46.5 -16t-24.5 -40q58 11 107 11q87 0 148.5 -33t61.5 -103q0 -42 -31.5 -79.5
t-73.5 -57.5q-10 -5 -19.5 -4.5t-16.5 12.5l-27 42q-7 10 4 20l19 14q18 14 26.5 24.5t8.5 23.5q0 47 -97 47q-56 0 -159 -15q-14 -2 -23 3q-29 16 -29 85q0 25 19.5 54t49.5 45zM96 627q0 9 2.5 11.5t13.5 2.5h40q9 0 12 -2.5t3 -10.5q1 -26 15 -42t40 -16q50 0 59 59
q1 8 4 10.5t12 2.5h36q10 0 12.5 -2t2.5 -13q-3 -57 -35 -93t-92 -36q-57 0 -90 37.5t-35 91.5zM298 280q0 31 -23 53.5t-57 22.5q-35 0 -58.5 -22.5t-23.5 -53.5q0 -32 22.5 -54.5t57.5 -22.5q36 0 59 22t23 55z" />
    <glyph glyph-name="Gdotaccent" unicode="&#x120;" horiz-adv-x="512" 
d="M257 627q136 0 189 -94q9 -15 -5 -25l-57 -41q-13 -6 -27 10q-36 49 -96 49q-40 0 -64.5 -23.5t-24.5 -59.5v-271q0 -34 25 -55.5t65 -21.5q37 0 61 21.5t24 59.5v73h-64q-18 0 -18 16v65q0 16 18 16h157q19 0 19 -16v-160q0 -81 -55.5 -128.5t-143.5 -47.5t-144 47.5
t-56 127.5v282q0 79 56 127.5t141 48.5zM319 709q0 -25 -17.5 -42t-42.5 -17q-26 0 -43.5 16.5t-17.5 41.5q0 24 17.5 41.5t42.5 17.5t43 -17t18 -41z" />
    <glyph glyph-name="gdotaccent" unicode="&#x121;" horiz-adv-x="470" 
d="M100 149q-68 47 -68 135q0 70 54 118.5t128 48.5q76 0 125 -39q54 36 106 36q16 0 16 -16v-63q0 -7 -2 -9t-7 -1q-38 4 -68 -4q20 -36 20 -71q0 -71 -55.5 -119.5t-134.5 -48.5h-11q-27 0 -46.5 -16t-24.5 -40q58 11 107 11q87 0 148.5 -33t61.5 -103q0 -42 -31.5 -79.5
t-73.5 -57.5q-10 -5 -19.5 -4.5t-16.5 12.5l-27 42q-7 10 4 20l19 14q18 14 26.5 24.5t8.5 23.5q0 47 -97 47q-56 0 -159 -15q-14 -2 -23 3q-29 16 -29 85q0 25 19.5 54t49.5 45zM298 280q0 31 -23 53.5t-57 22.5q-35 0 -58.5 -22.5t-23.5 -53.5q0 -32 22.5 -54.5
t57.5 -22.5q36 0 59 22t23 55zM288 559q0 -25 -17.5 -42t-42.5 -17q-26 0 -43.5 16.5t-17.5 41.5q0 24 17.5 41.5t42.5 17.5t43 -17t18 -41z" />
    <glyph glyph-name="Gcommaaccent" unicode="&#x122;" horiz-adv-x="512" 
d="M257 627q136 0 189 -94q9 -15 -5 -25l-57 -41q-13 -6 -27 10q-36 49 -96 49q-40 0 -64.5 -23.5t-24.5 -59.5v-271q0 -34 25 -55.5t65 -21.5q37 0 61 21.5t24 59.5v73h-64q-18 0 -18 16v65q0 16 18 16h157q19 0 19 -16v-160q0 -81 -55.5 -128.5t-143.5 -47.5t-144 47.5
t-56 127.5v282q0 79 56 127.5t141 48.5zM309 -69l-47 -136q-7 -21 -28 -21h-26q-19 0 -19 29l11 134q2 27 27 27h58q32 0 24 -33z" />
    <glyph glyph-name="gcommaaccent" unicode="&#x123;" horiz-adv-x="470" 
d="M168 533l47 136q7 21 28 21h26q19 0 19 -29l-11 -134q-2 -27 -27 -27h-58q-32 0 -24 33zM100 149q-68 47 -68 135q0 70 54 118.5t128 48.5q76 0 125 -39q54 36 106 36q16 0 16 -16v-63q0 -7 -2 -9t-7 -1q-38 4 -68 -4q20 -36 20 -71q0 -71 -55.5 -119.5t-134.5 -48.5h-11
q-27 0 -46.5 -16t-24.5 -40q58 11 107 11q87 0 148.5 -33t61.5 -103q0 -42 -31.5 -79.5t-73.5 -57.5q-10 -5 -19.5 -4.5t-16.5 12.5l-27 42q-7 10 4 20l19 14q18 14 26.5 24.5t8.5 23.5q0 47 -97 47q-56 0 -159 -15q-14 -2 -23 3q-29 16 -29 85q0 25 19.5 54t49.5 45z
M298 280q0 31 -23 53.5t-57 22.5q-35 0 -58.5 -22.5t-23.5 -53.5q0 -32 22.5 -54.5t57.5 -22.5q36 0 59 22t23 55z" />
    <glyph glyph-name="Hcircumflex" unicode="&#x124;" horiz-adv-x="550" 
d="M490 15q0 -15 -19 -15h-76q-19 0 -19 15v253h-200v-253q0 -15 -18 -15h-77q-18 0 -18 15v587q0 15 17 15h77q19 0 19 -14v-236h200v235q0 15 19 15h76q19 0 19 -14v-588zM422 684q11 -13 0 -21l-32 -19q-8 -5 -21 3l-101 77l-100 -78q-11 -8 -22 -1l-29 20q-10 7 -1 20
l99 108q9 11 21 11h67q13 0 22 -11z" />
    <glyph glyph-name="hcircumflex" unicode="&#x125;" horiz-adv-x="481" 
d="M429 16q0 -16 -16 -16h-78q-17 0 -17 15v264q0 35 -19 56t-57 21q-35 0 -56 -22.5t-21 -56.5v-261q0 -16 -17 -16h-77q-16 0 -16 15v606q0 16 15 16h78q16 0 16 -16v-200h4q36 30 101 30q80 0 119.5 -46.5t39.5 -125.5zM269 684q11 -13 0 -21l-32 -19q-8 -5 -21 3
l-101 77l-100 -78q-11 -8 -22 -1l-29 20q-10 7 -1 20l99 108q9 11 21 11h67q13 0 22 -11z" />
    <glyph glyph-name="Hbar" unicode="&#x126;" horiz-adv-x="561" 
d="M493 15q0 -15 -18 -15h-77q-18 0 -18 15v253h-201v-253q0 -15 -18 -15h-77q-18 0 -18 15v461h-35q-15 0 -15 17v32q0 15 14 15h36v62q0 15 18 15h77q18 0 18 -14v-63h201v62q0 15 17 15h77q19 0 19 -14v-63h37q14 0 14 -15v-32q0 -17 -14 -17h-37v-461zM179 367h201v109
h-201v-109z" />
    <glyph glyph-name="hbar" unicode="&#x127;" horiz-adv-x="486" 
d="M434 16q0 -16 -15 -16h-79q-16 0 -16 15v255q0 35 -19.5 55.5t-58.5 20.5q-35 0 -55.5 -22.5t-20.5 -55.5v-252q0 -16 -16 -16h-78q-16 0 -16 15v480h-37q-14 0 -14 14v30q0 14 13 14h38v68q0 16 16 16h77q16 0 16 -16v-68h161q12 0 12 -13v-31q0 -14 -12 -14h-161v-82
l3 -1q38 30 103 30q79 0 119 -46.5t40 -124.5v-255z" />
    <glyph glyph-name="Itilde" unicode="&#x128;" horiz-adv-x="257" 
d="M184 15q0 -15 -18 -15h-78q-18 0 -18 15v586q0 16 18 16h78q18 0 18 -16v-586zM277 738q-15 -28 -40.5 -44.5t-50.5 -16.5q-24 0 -63 15.5t-59 15.5q-24 0 -46 -25q-9 -10 -20 0l-28 27q-8 8 -2 18q14 25 40 41.5t54 16.5q22 0 64 -16.5t57 -16.5q16 0 38 27q8 10 18 4
l34 -22q12 -8 4 -24z" />
    <glyph glyph-name="itilde" unicode="&#x129;" horiz-adv-x="268" 
d="M82 15v413q0 16 15 16h78q16 0 16 -16v-412q0 -16 -15 -16h-78q-16 0 -16 15zM292 568q-15 -28 -40.5 -44.5t-50.5 -16.5q-24 0 -63 15.5t-59 15.5q-24 0 -46 -25q-9 -10 -20 0l-28 27q-8 8 -2 18q14 25 40 41.5t54 16.5q22 0 64 -16.5t57 -16.5q16 0 38 27q8 10 18 4
l34 -22q12 -8 4 -24z" />
    <glyph glyph-name="Imacron" unicode="&#x12a;" horiz-adv-x="257" 
d="M184 15q0 -15 -18 -15h-78q-18 0 -18 15v586q0 16 18 16h78q18 0 18 -16v-586zM247 679q0 -9 -3 -11t-14 -2h-212q-9 0 -12 0.5t-5 3.5t-2 9v51q0 10 3.5 13.5t14.5 3.5h212q11 0 14.5 -3t3.5 -13v-52z" />
    <glyph glyph-name="imacron" unicode="&#x12b;" horiz-adv-x="246" 
d="M67 15v413q0 16 15 16h78q16 0 16 -16v-412q0 -16 -15 -16h-78q-16 0 -16 15zM248 540q0 -9 -3 -11t-14 -2h-212q-9 0 -12 0.5t-5 3.5t-2 9v51q0 10 3.5 13.5t14.5 3.5h212q11 0 14.5 -3t3.5 -13v-52z" />
    <glyph glyph-name="Ibreve" unicode="&#x12c;" horiz-adv-x="271" 
d="M200 15q0 -15 -18 -15h-78q-18 0 -18 15v586q0 16 18 16h78q18 0 18 -16v-586zM14 774q0 9 2.5 11.5t13.5 2.5h40q9 0 12 -2.5t3 -10.5q1 -26 15 -42t40 -16q50 0 59 59q1 8 4 10.5t12 2.5h36q10 0 12.5 -2t2.5 -13q-3 -57 -35 -93t-92 -36q-57 0 -90 37.5t-35 91.5z" />
    <glyph glyph-name="ibreve" unicode="&#x12d;" horiz-adv-x="249" 
d="M70 15v413q0 16 15 16h78q16 0 16 -16v-412q0 -16 -15 -16h-78q-16 0 -16 15zM1 633q0 9 2.5 11.5t13.5 2.5h40q9 0 12 -2.5t3 -10.5q1 -26 15 -42t40 -16q50 0 59 59q1 8 4 10.5t12 2.5h36q10 0 12.5 -2t2.5 -13q-3 -57 -35 -93t-92 -36q-57 0 -90 37.5t-35 91.5z" />
    <glyph glyph-name="Iogonek" unicode="&#x12e;" horiz-adv-x="257" 
d="M184 15q0 -15 -18 -15h-28q-49 -52 -49 -108q0 -26 23 -26q19 0 51 17q13 7 15 7q5 0 8 -5l17 -22q6 -9 -9 -22q-42 -34 -93 -34q-84 0 -84 78q0 29 16.5 62t40.5 57q-4 3 -4 11v586q0 16 18 16h78q18 0 18 -16v-586z" />
    <glyph glyph-name="iogonek" unicode="&#x12f;" horiz-adv-x="224" 
d="M57 15v413q0 16 15 16h78q16 0 16 -16v-412q0 -16 -15 -16h-26q-49 -52 -49 -108q0 -26 23 -26q19 0 51 17q13 7 15 7q5 0 8 -5l17 -22q6 -9 -9 -22q-42 -34 -93 -34q-84 0 -84 78q0 29 16.5 62t40.5 57q-4 3 -4 11zM177 564q0 -25 -19 -44t-45 -19q-27 0 -46 18.5
t-19 44.5t18.5 44t45.5 18t46 -18t19 -44z" />
    <glyph glyph-name="Idotaccent" unicode="&#x130;" horiz-adv-x="257" 
d="M184 15q0 -15 -18 -15h-78q-18 0 -18 15v586q0 16 18 16h78q18 0 18 -16v-586zM190 729q0 -25 -17.5 -42t-42.5 -17q-26 0 -43.5 16.5t-17.5 41.5q0 24 17.5 41.5t42.5 17.5t43 -17t18 -41z" />
    <glyph glyph-name="dotlessi" unicode="&#x131;" horiz-adv-x="224" 
d="M57 15v413q0 16 15 16h78q16 0 16 -16v-412q0 -16 -15 -16h-78q-16 0 -16 15z" />
    <glyph glyph-name="IJ" unicode="&#x132;" horiz-adv-x="501" 
d="M179 15q0 -15 -18 -15h-78q-18 0 -18 15v586q0 16 18 16h78q18 0 18 -16v-586zM219 -139l-20 62q-5 17 12 24q63 25 88 59t25 98v500q0 13 15 13h82q15 0 15 -13v-509q0 -98 -44 -159.5t-148 -87.5q-21 -6 -25 13z" />
    <glyph glyph-name="ij" unicode="&#x133;" horiz-adv-x="445" 
d="M177 564q0 -25 -19 -44t-45 -19q-27 0 -46 18.5t-19 44.5t18.5 44t45.5 18t46 -18t19 -44zM57 15v413q0 16 15 16h78q16 0 16 -16v-412q0 -16 -15 -16h-78q-16 0 -16 15zM398 564q0 -25 -19.5 -44t-45.5 -19q-27 0 -46 18t-19 45q0 26 19 44t46 18q26 0 45.5 -18.5
t19.5 -43.5zM387 -52q0 -59 -31.5 -96t-100.5 -37q-32 0 -62 7q-21 6 -18 24l10 58q4 17 27 13q18 -3 27 -3q39 1 39 47v467q0 16 16 16h78q15 0 15 -16v-480z" />
    <glyph glyph-name="Jcircumflex" unicode="&#x134;" horiz-adv-x="309" 
d="M16 -138l-20 62q-5 17 12 24q63 25 88 59t25 98v500q0 13 15 13h82q15 0 15 -13v-509q0 -98 -44 -159.5t-148 -87.5q-21 -6 -25 13zM326 686q11 -13 0 -21l-32 -19q-8 -5 -21 3l-101 77l-100 -78q-11 -8 -22 -1l-29 20q-10 7 -1 20l99 108q9 11 21 11h67q13 0 22 -11z
" />
    <glyph glyph-name="jcircumflex" unicode="&#x135;" horiz-adv-x="293" 
d="M201 -52q0 -59 -31.5 -96t-100.5 -37q-32 0 -62 7q-21 6 -18 24l10 58q4 17 27 13q18 -3 27 -3q39 1 39 47v467q0 16 16 16h78q15 0 15 -16v-480zM302 527q10 -16 -1 -21l-32 -17q-13 -7 -22 2l-102 96l-99 -97q-9 -9 -21 -2l-31 18q-11 5 -1 21l100 130q9 11 21 11h67
q11 0 22 -11z" />
    <glyph glyph-name="Kcommaaccent" unicode="&#x136;" horiz-adv-x="534" 
d="M273 288q-44 0 -70 -27t-26 -69q0 -30 -0.5 -89t-0.5 -88q0 -15 -14 -15h-84q-15 0 -15 15v586q0 16 17 16h81q15 0 15 -15v-219l2 -1h2l182 223q10 12 26 12h89q7 0 10 -4.5t2 -10.5t-5 -10l-179 -220l2 -4h7q147 0 159 -166l13 -178q1 -24 -16 -24h-80q-15 0 -17 26
l-12 184q-2 34 -24 56t-64 22zM316 -49l-47 -136q-7 -21 -28 -21h-26q-19 0 -19 29l11 134q2 27 27 27h58q32 0 24 -33z" />
    <glyph glyph-name="kcommaaccent" unicode="&#x137;" horiz-adv-x="475" 
d="M429 112l4 -94q0 -18 -16 -18h-76q-16 0 -17 16l-6 98q-3 38 -18.5 59.5t-57.5 21.5q-38 0 -58 -22.5t-20 -57.5v-101q0 -14 -15 -14h-81q-13 0 -13 14v607q0 16 15 16h78q15 0 15 -15v-330q1 0 2 -0.5t2 -0.5l126 142q9 9 26 9h95q11 0 11 -10q0 -6 -5 -13l-130 -143
q75 0 105 -44.5t34 -119.5zM296 -69l-47 -136q-7 -21 -28 -21h-26q-19 0 -19 29l11 134q2 27 27 27h58q32 0 24 -33z" />
    <glyph glyph-name="kgreenlandic" unicode="&#x138;" horiz-adv-x="475" 
d="M429 115l5 -96q1 -19 -16 -19h-77q-15 0 -17 17l-6 98q-4 81 -76 81q-38 0 -58 -23t-20 -57v-101q0 -15 -14 -15h-81q-14 0 -14 15v414q0 15 15 15h79q15 0 15 -15v-137l3 -1l126 142q8 10 27 10h97q7 0 9.5 -4.5t-0.5 -8.5l-124 -155q68 -5 96 -47.5t31 -112.5z" />
    <glyph glyph-name="Lacute" unicode="&#x139;" horiz-adv-x="451" 
d="M433 17q0 -17 -15 -17h-335q-17 0 -17 17v585q0 15 17 15h77q17 0 17 -14v-504h241q15 0 15 -15v-67zM277 746q14 -15 -6 -25l-154 -78q-12 -6 -24 7l-20 26q-10 12 3 22l121 92q26 20 41 3z" />
    <glyph glyph-name="lacute" unicode="&#x13a;" horiz-adv-x="251" 
d="M170 624v-482q0 -29 8 -39.5t32 -10.5h11q14 0 14 -18v-62q0 -16 -18 -18q-12 -2 -34 -2q-67 0 -94.5 32.5t-27.5 104.5v494q0 14 13 14h82q14 0 14 -13zM277 782q14 -15 -6 -25l-154 -78q-12 -6 -24 7l-20 26q-10 12 3 22l121 92q26 20 41 3z" />
    <glyph glyph-name="Lcommaaccent" unicode="&#x13b;" horiz-adv-x="451" 
d="M433 17q0 -17 -15 -17h-335q-17 0 -17 17v585q0 15 17 15h77q17 0 17 -14v-504h241q15 0 15 -15v-67zM286 -69l-47 -136q-7 -21 -28 -21h-26q-19 0 -19 29l11 134q2 27 27 27h58q32 0 24 -33z" />
    <glyph glyph-name="lcommaaccent" unicode="&#x13c;" horiz-adv-x="251" 
d="M170 624v-482q0 -29 8 -39.5t32 -10.5h11q14 0 14 -18v-62q0 -16 -18 -18q-12 -2 -34 -2q-67 0 -94.5 32.5t-27.5 104.5v494q0 14 13 14h82q14 0 14 -13zM193 -69l-47 -136q-7 -21 -28 -21h-26q-19 0 -19 29l11 134q2 27 27 27h58q32 0 24 -33z" />
    <glyph glyph-name="Lcaron" unicode="&#x13d;" horiz-adv-x="451" 
d="M433 17q0 -17 -15 -17h-335q-17 0 -17 17v585q0 15 17 15h77q17 0 17 -14v-504h241q15 0 15 -15v-67zM401 587l-47 -136q-7 -21 -28 -21h-26q-19 0 -19 29l11 134q2 27 27 27h58q32 0 24 -33z" />
    <glyph glyph-name="lcaron" unicode="&#x13e;" horiz-adv-x="346" 
d="M353 600l-47 -136q-7 -21 -28 -21h-26q-19 0 -19 29l11 134q2 27 27 27h58q32 0 24 -33zM170 624v-482q0 -29 8 -39.5t32 -10.5h11q14 0 14 -18v-62q0 -16 -18 -18q-12 -2 -34 -2q-67 0 -94.5 32.5t-27.5 104.5v494q0 14 13 14h82q14 0 14 -13z" />
    <glyph glyph-name="Ldot" unicode="&#x13f;" horiz-adv-x="451" 
d="M433 17q0 -17 -15 -17h-335q-17 0 -17 17v585q0 15 17 15h77q17 0 17 -14v-504h241q15 0 15 -15v-67zM362 309q0 -25 -17.5 -42t-42.5 -17q-26 0 -43.5 16.5t-17.5 41.5q0 24 17.5 41.5t42.5 17.5t43 -17t18 -41z" />
    <glyph glyph-name="ldot" unicode="&#x140;" horiz-adv-x="336" 
d="M342 349q0 -25 -17.5 -42t-42.5 -17q-26 0 -43.5 16.5t-17.5 41.5q0 24 17.5 41.5t42.5 17.5t43 -17t18 -41zM170 624v-482q0 -29 8 -39.5t32 -10.5h11q14 0 14 -18v-62q0 -16 -18 -18q-12 -2 -34 -2q-67 0 -94.5 32.5t-27.5 104.5v494q0 14 13 14h82q14 0 14 -13z" />
    <glyph glyph-name="Lslash" unicode="&#x141;" horiz-adv-x="473" 
d="M208 343l81 48q12 8 20 -5l19 -33q9 -13 -7 -21l-113 -65v-168h238q18 0 18 -15v-67q0 -17 -17 -17h-334q-18 0 -18 17v185q-50 -31 -57 -31t-12 8l-18 31q-3 4 -3 9t8 10l82 48v324q0 16 17 16h77q19 0 19 -16v-258z" />
    <glyph glyph-name="lslash" unicode="&#x142;" horiz-adv-x="323" 
d="M100 627q0 10 9 10h89q10 0 10 -9v-268l74 43q12 8 18 -3l21 -35q5 -13 -6 -17l-107 -62v-146q0 -29 8 -39t32 -10h12q12 0 12 -16v-64q0 -13 -10.5 -16t-39.5 -3q-64 0 -91 28t-31 93v110l-59 -35q-4 -3 -10 -2t-8 6l-20 34q-3 12 4 17l93 54v330z" />
    <glyph glyph-name="Nacute" unicode="&#x143;" horiz-adv-x="549" 
d="M488 21q0 -21 -23 -21h-50q-23 0 -32 16l-101.5 175.5t-106.5 187.5l-3 -1v-362q0 -16 -18 -16h-73q-18 0 -18 15v579q0 23 23 23h50q22 0 33 -18l208 -368l2 2v369q0 15 19 15h71q19 0 19 -15v-581zM430 746q14 -15 -6 -25l-154 -78q-12 -6 -24 7l-20 26q-10 12 3 22
l121 92q26 20 41 3z" />
    <glyph glyph-name="nacute" unicode="&#x144;" horiz-adv-x="480" 
d="M426 14q0 -14 -15 -14h-78q-16 0 -16 14v264q0 76 -77 76q-33 0 -55.5 -21.5t-22.5 -54.5v-264q0 -14 -16 -14h-77q-16 0 -16 14v414q0 15 15 15h79q13 0 13 -13v-18h1q1 -1 2 -1q39 38 108 38q75 0 115 -46.5t40 -123.5v-265zM336 618l-115 -128q-9 -11 -25 -2l-28 17
q-13 7 -6 21l87 143q9 16 24 8l60 -33q18 -11 3 -26z" />
    <glyph glyph-name="Ncommaaccent" unicode="&#x145;" horiz-adv-x="549" 
d="M488 21q0 -21 -23 -21h-50q-23 0 -32 16l-101.5 175.5t-106.5 187.5l-3 -1v-362q0 -16 -18 -16h-73q-18 0 -18 15v579q0 23 23 23h50q22 0 33 -18l208 -368l2 2v369q0 15 19 15h71q19 0 19 -15v-581zM325 -49l-47 -136q-7 -21 -28 -21h-26q-19 0 -19 29l11 134
q2 27 27 27h58q32 0 24 -33z" />
    <glyph glyph-name="ncommaaccent" unicode="&#x146;" horiz-adv-x="480" 
d="M426 14q0 -14 -15 -14h-78q-16 0 -16 14v264q0 76 -77 76q-33 0 -55.5 -21.5t-22.5 -54.5v-264q0 -14 -16 -14h-77q-16 0 -16 14v414q0 15 15 15h79q13 0 13 -13v-18h1q1 -1 2 -1q39 38 108 38q75 0 115 -46.5t40 -123.5v-265zM300 -69l-47 -136q-7 -21 -28 -21h-26
q-19 0 -19 29l11 134q2 27 27 27h58q32 0 24 -33z" />
    <glyph glyph-name="Ncaron" unicode="&#x147;" horiz-adv-x="549" 
d="M488 21q0 -21 -23 -21h-50q-23 0 -32 16l-101.5 175.5t-106.5 187.5l-3 -1v-362q0 -16 -18 -16h-73q-18 0 -18 15v579q0 23 23 23h50q22 0 33 -18l208 -368l2 2v369q0 15 19 15h71q19 0 19 -15v-581zM422 771l-97 -109q-9 -11 -22 -11h-66q-13 0 -22 11l-98 108
q-11 12 1 20l29 20q11 7 22 -1l101 -77l100 76q12 9 21 3l31 -19q11 -8 0 -21z" />
    <glyph glyph-name="ncaron" unicode="&#x148;" horiz-adv-x="480" 
d="M426 14q0 -14 -15 -14h-78q-16 0 -16 14v264q0 76 -77 76q-33 0 -55.5 -21.5t-22.5 -54.5v-264q0 -14 -16 -14h-77q-16 0 -16 14v414q0 15 15 15h79q13 0 13 -13v-18h1q1 -1 2 -1q39 38 108 38q75 0 115 -46.5t40 -123.5v-265zM371 626l-99 -130q-11 -11 -22 -11h-67
q-12 0 -21 11l-100 130q-10 16 1 21l31 18q12 7 21 -2l101 -97l100 96q9 9 22 2l32 -17q11 -5 1 -21z" />
    <glyph glyph-name="napostrophe" unicode="&#x149;" horiz-adv-x="534" 
d="M480 14q0 -14 -15 -14h-78q-16 0 -16 14v264q0 76 -77 76q-33 0 -55.5 -21.5t-22.5 -54.5v-264q0 -14 -16 -14h-77q-16 0 -16 14v414q0 15 15 15h79q13 0 13 -13v-18h1q1 -1 2 -1q39 38 108 38q75 0 115 -46.5t40 -123.5v-265zM118 590l-47 -136q-7 -21 -28 -21h-26
q-19 0 -19 29l11 134q2 27 27 27h58q32 0 24 -33z" />
    <glyph glyph-name="Eng" unicode="&#x14a;" horiz-adv-x="545" 
d="M482 -46q0 -72 -33.5 -110.5t-113.5 -38.5q-39 0 -68 12q-5 2 -7.5 4t-3 3t0 5.5t0.5 6.5t3.5 22t5.5 30q3 11 18 11h4q24 -3 41 -3q50 0 50 44v46q1 42 -33 101l-172 288h-3v-361q0 -14 -19 -14h-72q-19 0 -19 14v587q0 16 19 16h55q22 0 32 -18l204 -357h3v359
q0 16 18 16h71q19 0 19 -16v-647z" />
    <glyph glyph-name="eng" unicode="&#x14b;" horiz-adv-x="480" 
d="M426 -48q0 -148 -152 -148q-51 0 -66 15q-5 5 -3 19l7 43q1 8 4.5 11.5t8.5 2.5q32 -3 38 -3q31 0 42.5 15t11.5 51v320q0 29 -20.5 52.5t-56.5 23.5q-34 0 -56 -21.5t-22 -54.5v-264q0 -14 -16 -14h-77q-16 0 -16 14v414q0 15 15 15h79q13 0 13 -13v-18h1q1 -1 2 -1
q39 38 108 38q75 0 115 -46.5t40 -123.5v-327z" />
    <glyph glyph-name="Omacron" unicode="&#x14c;" horiz-adv-x="529" 
d="M469 176q0 -83 -57 -132.5t-147 -49.5t-148 49t-58 133v268q0 83 58 133t147 50q88 0 146.5 -49.5t58.5 -133.5v-268zM355 177v266q0 36 -23.5 59.5t-66.5 23.5t-68 -23.5t-25 -59.5v-266q0 -36 24.5 -59t67.5 -23q41 0 66 23t25 59zM382 679q0 -9 -3 -11t-14 -2h-212
q-9 0 -12 0.5t-5 3.5t-2 9v51q0 10 3.5 13.5t14.5 3.5h212q11 0 14.5 -3t3.5 -13v-52z" />
    <glyph glyph-name="omacron" unicode="&#x14d;" horiz-adv-x="468" 
d="M420 165q0 -82 -50 -126.5t-136 -44.5t-136.5 45t-50.5 123v120q0 76 51.5 123t134.5 47q86 0 136.5 -44.5t50.5 -125.5v-117zM311 166v113q0 36 -20.5 56.5t-57.5 20.5q-36 0 -56.5 -21.5t-20.5 -55.5v-113q0 -35 20 -56t57 -21q36 0 57 21t21 56zM361 540q0 -9 -3 -11
t-14 -2h-212q-9 0 -12 0.5t-5 3.5t-2 9v51q0 10 3.5 13.5t14.5 3.5h212q11 0 14.5 -3t3.5 -13v-52z" />
    <glyph glyph-name="Obreve" unicode="&#x14e;" horiz-adv-x="529" 
d="M469 176q0 -83 -57 -132.5t-147 -49.5t-148 49t-58 133v268q0 83 58 133t147 50q88 0 146.5 -49.5t58.5 -133.5v-268zM355 177v266q0 36 -23.5 59.5t-66.5 23.5t-68 -23.5t-25 -59.5v-266q0 -36 24.5 -59t67.5 -23q41 0 66 23t25 59zM131 774q0 9 2.5 11.5t13.5 2.5h40
q9 0 12 -2.5t3 -10.5q1 -26 15 -42t40 -16q50 0 59 59q1 8 4 10.5t12 2.5h36q10 0 12.5 -2t2.5 -13q-3 -57 -35 -93t-92 -36q-57 0 -90 37.5t-35 91.5z" />
    <glyph glyph-name="obreve" unicode="&#x14f;" horiz-adv-x="468" 
d="M420 165q0 -82 -50 -126.5t-136 -44.5t-136.5 45t-50.5 123v120q0 76 51.5 123t134.5 47q86 0 136.5 -44.5t50.5 -125.5v-117zM311 166v113q0 36 -20.5 56.5t-57.5 20.5q-36 0 -56.5 -21.5t-20.5 -55.5v-113q0 -35 20 -56t57 -21q36 0 57 21t21 56zM109 627q0 9 2.5 11.5
t13.5 2.5h40q9 0 12 -2.5t3 -10.5q1 -26 15 -42t40 -16q50 0 59 59q1 8 4 10.5t12 2.5h36q10 0 12.5 -2t2.5 -13q-3 -57 -35 -93t-92 -36q-57 0 -90 37.5t-35 91.5z" />
    <glyph glyph-name="Ohungarumlaut" unicode="&#x150;" horiz-adv-x="529" 
d="M469 176q0 -83 -57 -132.5t-147 -49.5t-148 49t-58 133v268q0 83 58 133t147 50q88 0 146.5 -49.5t58.5 -133.5v-268zM355 177v266q0 36 -23.5 59.5t-66.5 23.5t-68 -23.5t-25 -59.5v-266q0 -36 24.5 -59t67.5 -23q41 0 66 23t25 59zM333 777q17 -12 0 -26l-134 -109
q-12 -8 -25 2l-25 21q-13 9 -2 22l99 116q22 25 39 11zM483 777q17 -12 0 -26l-134 -109q-12 -8 -25 2l-25 21q-13 9 -2 22l99 116q22 25 39 11z" />
    <glyph glyph-name="ohungarumlaut" unicode="&#x151;" horiz-adv-x="468" 
d="M420 165q0 -82 -50 -126.5t-136 -44.5t-136.5 45t-50.5 123v120q0 76 51.5 123t134.5 47q86 0 136.5 -44.5t50.5 -125.5v-117zM311 166v113q0 36 -20.5 56.5t-57.5 20.5q-36 0 -56.5 -21.5t-20.5 -55.5v-113q0 -35 20 -56t57 -21q36 0 57 21t21 56zM266 526l86 143
q10 15 24 8l60 -33q17 -9 4 -26l-113 -123q-13 -14 -32 -4l-24 14q-14 7 -5 21zM124 526l86 143q10 15 24 8l60 -33q17 -9 4 -26l-113 -123q-13 -14 -32 -4l-24 14q-14 7 -5 21z" />
    <glyph glyph-name="OE" unicode="&#x152;" horiz-adv-x="703" 
d="M669 16q0 -16 -17 -16h-338q-26 -6 -58 -6q-91 0 -145 45.5t-54 130.5v279q0 83 54.5 129.5t143.5 46.5q35 0 69 -8h323q17 0 17 -16v-66q0 -18 -17 -18h-240v-153h200q17 0 17 -17v-66q0 -17 -17 -17h-200v-165h245q17 0 17 -16v-67zM257 93q18 0 37 7v420q-22 6 -36 6
q-41 0 -64.5 -22t-23.5 -57v-276q0 -35 23 -56.5t64 -21.5z" />
    <glyph glyph-name="oe" unicode="&#x153;" horiz-adv-x="723" 
d="M686 230q0 -13 -8 -21.5t-19 -8.5h-236l-1 -39q0 -29 20.5 -50.5t57.5 -21.5q46 0 85 47q11 14 24 5l49 -31q20 -13 12 -27q-50 -89 -169 -89q-95 0 -134 45h-4q-40 -45 -136 -45q-81 0 -130.5 45.5t-49.5 122.5v120q0 76 51.5 123t134.5 47q84 0 132 -48h6q47 48 129 48
t134 -47.5t52 -127.5v-47zM576 273v14q0 32 -22.5 51t-53.5 19q-32 0 -53.5 -21t-21.5 -50v-13h151zM311 279q0 34 -21.5 55.5t-56.5 21.5q-33 0 -55 -22t-22 -55v-113q0 -34 22 -55.5t55 -21.5q34 0 55.5 21t22.5 55v114z" />
    <glyph glyph-name="Racute" unicode="&#x154;" horiz-adv-x="513" 
d="M467 438q0 -44 -25 -93t-61 -81q-5 -5 -5 -10q0 -4 5 -12l103 -220q4 -8 0 -15t-14 -7h-76q-18 0 -25 5t-12 17l-97 215h-85q0 -37 0.5 -111t0.5 -111q0 -15 -18 -15h-77q-18 0 -18 15v585q0 17 16 17h198q90 0 140 -47t50 -132zM267 517h-92v-182h106q33 0 53 32.5
t20 63.5q0 40 -21.5 63t-65.5 23zM390 746q14 -15 -6 -25l-154 -78q-12 -6 -24 7l-20 26q-10 12 3 22l121 92q26 20 41 3z" />
    <glyph glyph-name="racute" unicode="&#x155;" horiz-adv-x="318" 
d="M323 426l-17 -70q-2 -11 -6 -13.5t-13 -1.5q-20 5 -33 5q-88 0 -88 -107v-223q0 -16 -17 -16h-77q-16 0 -16 15v413q0 16 16 16h68q16 0 16 -15v-41h3q19 29 50 46.5t66 17.5q23 0 36 -5q17 -5 12 -21zM300 618l-115 -128q-9 -11 -25 -2l-28 17q-13 7 -6 21l87 143
q9 16 24 8l60 -33q18 -11 3 -26z" />
    <glyph glyph-name="Rcommaaccent" unicode="&#x156;" horiz-adv-x="513" 
d="M467 438q0 -44 -25 -93t-61 -81q-5 -5 -5 -10q0 -4 5 -12l103 -220q4 -8 0 -15t-14 -7h-76q-18 0 -25 5t-12 17l-97 215h-85q0 -37 0.5 -111t0.5 -111q0 -15 -18 -15h-77q-18 0 -18 15v585q0 17 16 17h198q90 0 140 -47t50 -132zM267 517h-92v-182h106q33 0 53 32.5
t20 63.5q0 40 -21.5 63t-65.5 23zM312 -69l-47 -136q-7 -21 -28 -21h-26q-19 0 -19 29l11 134q2 27 27 27h58q32 0 24 -33z" />
    <glyph glyph-name="rcommaaccent" unicode="&#x157;" horiz-adv-x="318" 
d="M323 426l-17 -70q-2 -11 -6 -13.5t-13 -1.5q-20 5 -33 5q-88 0 -88 -107v-223q0 -16 -17 -16h-77q-16 0 -16 15v413q0 16 16 16h68q16 0 16 -15v-41h3q19 29 50 46.5t66 17.5q23 0 36 -5q17 -5 12 -21zM168 -69l-47 -136q-7 -21 -28 -21h-26q-19 0 -19 29l11 134
q2 27 27 27h58q32 0 24 -33z" />
    <glyph glyph-name="Rcaron" unicode="&#x158;" horiz-adv-x="513" 
d="M467 438q0 -44 -25 -93t-61 -81q-5 -5 -5 -10q0 -4 5 -12l103 -220q4 -8 0 -15t-14 -7h-76q-18 0 -25 5t-12 17l-97 215h-85q0 -37 0.5 -111t0.5 -111q0 -15 -18 -15h-77q-18 0 -18 15v585q0 17 16 17h198q90 0 140 -47t50 -132zM267 517h-92v-182h106q33 0 53 32.5
t20 63.5q0 40 -21.5 63t-65.5 23zM379 771l-97 -109q-9 -11 -22 -11h-66q-13 0 -22 11l-98 108q-11 12 1 20l29 20q11 7 22 -1l101 -77l100 76q12 9 21 3l31 -19q11 -8 0 -21z" />
    <glyph glyph-name="rcaron" unicode="&#x159;" horiz-adv-x="318" 
d="M323 426l-17 -70q-2 -11 -6 -13.5t-13 -1.5q-20 5 -33 5q-88 0 -88 -107v-223q0 -16 -17 -16h-77q-16 0 -16 15v413q0 16 16 16h68q16 0 16 -15v-41h3q19 29 50 46.5t66 17.5q23 0 36 -5q17 -5 12 -21zM323 626l-99 -130q-11 -11 -22 -11h-67q-12 0 -21 11l-100 130
q-10 16 1 21l31 18q12 7 21 -2l101 -97l100 96q9 9 22 2l32 -17q11 -5 1 -21z" />
    <glyph glyph-name="Sacute" unicode="&#x15a;" horiz-adv-x="487" 
d="M453 177q0 -85 -60 -133.5t-154 -48.5q-128 0 -200 75q-9 9 -10 15t8 18l39 44q11 9 16 8t16 -10q26 -23 62 -37t66 -14q52 0 77.5 21t25.5 57q0 37 -32 58.5t-98 44.5q-72 24 -116.5 63.5t-44.5 110.5q0 80 56 128t138 48q104 0 174 -46q15 -10 3 -32l-26 -48
q-9 -16 -30 -7q-67 35 -115 35q-88 0 -88 -77q0 -14 7.5 -26.5t15.5 -20t27 -16.5t26 -11.5l29 -10.5q37 -13 53.5 -20t48 -24t46.5 -34t27.5 -46t12.5 -64zM371 746q14 -15 -6 -25l-154 -78q-12 -6 -24 7l-20 26q-10 12 3 22l121 92q26 20 41 3z" />
    <glyph glyph-name="sacute" unicode="&#x15b;" horiz-adv-x="413" 
d="M381 129q0 -63 -48 -98.5t-122 -35.5q-132 0 -177 90q-8 15 4 22l56 31q14 8 23 -4q40 -50 97 -50q22 0 40.5 11.5t18.5 30.5q0 16 -11.5 26t-35.5 19q-11 4 -37 11.5t-34 10.5q-111 38 -111 123q0 64 46.5 99.5t114.5 35.5q96 0 154 -54q9 -9 -1 -24l-32 -47
q-5 -5 -11 -5q-3 0 -7.5 2.5l-11.5 6.5t-12 6q-49 23 -83 23q-23 0 -37.5 -10.5t-14.5 -28.5q0 -26 47 -42q5 -1 24 -7t25.5 -8.5l24.5 -9t25.5 -10.5l22 -11.5t21.5 -14.5l16.5 -17t14 -20t8 -23t3.5 -28zM327 618l-115 -128q-9 -11 -25 -2l-28 17q-13 7 -6 21l87 143
q9 16 24 8l60 -33q18 -11 3 -26z" />
    <glyph glyph-name="Scircumflex" unicode="&#x15c;" horiz-adv-x="487" 
d="M453 177q0 -85 -60 -133.5t-154 -48.5q-128 0 -200 75q-9 9 -10 15t8 18l39 44q11 9 16 8t16 -10q26 -23 62 -37t66 -14q52 0 77.5 21t25.5 57q0 37 -32 58.5t-98 44.5q-72 24 -116.5 63.5t-44.5 110.5q0 80 56 128t138 48q104 0 174 -46q15 -10 3 -32l-26 -48
q-9 -16 -30 -7q-67 35 -115 35q-88 0 -88 -77q0 -14 7.5 -26.5t15.5 -20t27 -16.5t26 -11.5l29 -10.5q37 -13 53.5 -20t48 -24t46.5 -34t27.5 -46t12.5 -64zM399 684q11 -13 0 -21l-32 -19q-8 -5 -21 3l-101 77l-100 -78q-11 -8 -22 -1l-29 20q-10 7 -1 20l99 108
q9 11 21 11h67q13 0 22 -11z" />
    <glyph glyph-name="scircumflex" unicode="&#x15d;" horiz-adv-x="413" 
d="M381 129q0 -63 -48 -98.5t-122 -35.5q-132 0 -177 90q-8 15 4 22l56 31q14 8 23 -4q40 -50 97 -50q22 0 40.5 11.5t18.5 30.5q0 16 -11.5 26t-35.5 19q-11 4 -37 11.5t-34 10.5q-111 38 -111 123q0 64 46.5 99.5t114.5 35.5q96 0 154 -54q9 -9 -1 -24l-32 -47
q-5 -5 -11 -5q-3 0 -7.5 2.5l-11.5 6.5t-12 6q-49 23 -83 23q-23 0 -37.5 -10.5t-14.5 -28.5q0 -26 47 -42q5 -1 24 -7t25.5 -8.5l24.5 -9t25.5 -10.5l22 -11.5t21.5 -14.5l16.5 -17t14 -20t8 -23t3.5 -28zM357 527q10 -16 -1 -21l-32 -17q-13 -7 -22 2l-102 96l-99 -97
q-9 -9 -21 -2l-31 18q-11 5 -1 21l100 130q9 11 21 11h67q11 0 22 -11z" />
    <glyph glyph-name="Scedilla" unicode="&#x15e;" horiz-adv-x="487" 
d="M343 -120q0 -34 -26.5 -59.5t-75.5 -25.5q-46 0 -81 24q-12 8 -3 17l20 25q8 8 16 3q23 -15 46 -15q43 0 43 30q0 28 -33 28h-31q-18 -1 -27.5 10t-5.5 28l13 52q-101 12 -159 73q-9 9 -10 15t8 18l39 44q11 9 16 8t16 -10q26 -23 62 -37t66 -14q52 0 77.5 21t25.5 57
q0 37 -32 58.5t-98 44.5q-72 24 -116.5 63.5t-44.5 110.5q0 80 56 128t138 48q104 0 174 -46q15 -10 3 -32l-26 -48q-9 -16 -30 -7q-67 35 -115 35q-88 0 -88 -77q0 -14 7.5 -26.5t15.5 -20t27 -16.5t26 -11.5l29 -10.5q37 -13 53.5 -20t48 -24t46.5 -34t27.5 -46t12.5 -64
q0 -81 -56 -129.5t-143 -51.5l-9 -36h15q39 0 61 -22t22 -58z" />
    <glyph glyph-name="scedilla" unicode="&#x15f;" horiz-adv-x="413" 
d="M304 -120q0 -34 -26.5 -59.5t-75.5 -25.5q-46 0 -81 24q-12 8 -3 17l20 25q8 8 16 3q22 -15 46 -15q43 0 43 30q0 28 -33 28h-31q-18 -1 -27.5 10t-5.5 28q3 16 14 55q-92 14 -126 85q-8 15 4 22l56 31q14 8 23 -4q40 -50 97 -50q22 0 40.5 11.5t18.5 30.5q0 16 -11.5 26
t-35.5 19q-11 4 -37 11.5t-34 10.5q-111 38 -111 123q0 64 46.5 99.5t114.5 35.5q96 0 154 -54q9 -9 -1 -24l-32 -47q-5 -5 -11 -5q-3 0 -7.5 2.5l-11.5 6.5t-12 6q-49 23 -83 23q-23 0 -37.5 -10.5t-14.5 -28.5q0 -26 47 -42q5 -1 24 -7t25.5 -8.5l24.5 -9t25.5 -10.5
l22 -11.5t21.5 -14.5l16.5 -17t14 -20t8 -23t3.5 -28q0 -62 -46.5 -97t-119.5 -37l-9 -35h15q39 0 61 -22t22 -58z" />
    <glyph glyph-name="Scaron" unicode="&#x160;" horiz-adv-x="487" 
d="M453 177q0 -85 -60 -133.5t-154 -48.5q-128 0 -200 75q-9 9 -10 15t8 18l39 44q11 9 16 8t16 -10q26 -23 62 -37t66 -14q52 0 77.5 21t25.5 57q0 37 -32 58.5t-98 44.5q-72 24 -116.5 63.5t-44.5 110.5q0 80 56 128t138 48q104 0 174 -46q15 -10 3 -32l-26 -48
q-9 -16 -30 -7q-67 35 -115 35q-88 0 -88 -77q0 -14 7.5 -26.5t15.5 -20t27 -16.5t26 -11.5l29 -10.5q37 -13 53.5 -20t48 -24t46.5 -34t27.5 -46t12.5 -64zM396 771l-97 -109q-9 -11 -22 -11h-66q-13 0 -22 11l-98 108q-11 12 1 20l29 20q11 7 22 -1l101 -77l100 76
q12 9 21 3l31 -19q11 -8 0 -21z" />
    <glyph glyph-name="scaron" unicode="&#x161;" horiz-adv-x="413" 
d="M381 129q0 -63 -48 -98.5t-122 -35.5q-132 0 -177 90q-8 15 4 22l56 31q14 8 23 -4q40 -50 97 -50q22 0 40.5 11.5t18.5 30.5q0 16 -11.5 26t-35.5 19q-11 4 -37 11.5t-34 10.5q-111 38 -111 123q0 64 46.5 99.5t114.5 35.5q96 0 154 -54q9 -9 -1 -24l-32 -47
q-5 -5 -11 -5q-3 0 -7.5 2.5l-11.5 6.5t-12 6q-49 23 -83 23q-23 0 -37.5 -10.5t-14.5 -28.5q0 -26 47 -42q5 -1 24 -7t25.5 -8.5l24.5 -9t25.5 -10.5l22 -11.5t21.5 -14.5l16.5 -17t14 -20t8 -23t3.5 -28zM366 626l-99 -130q-11 -11 -22 -11h-67q-12 0 -21 11l-100 130
q-10 16 1 21l31 18q12 7 21 -2l101 -97l100 96q9 9 22 2l32 -17q11 -5 1 -21z" />
    <glyph glyph-name="Tcommaaccent" unicode="&#x162;" horiz-adv-x="441" 
d="M423 536q0 -18 -15 -18h-134l-1 -502q0 -16 -18 -16h-77q-18 0 -18 15l1 503h-127q-17 0 -17 18v64q0 17 17 17h374q15 0 15 -16v-65zM263 -69l-47 -136q-7 -21 -28 -21h-26q-19 0 -19 29l11 134q2 27 27 27h58q32 0 24 -33z" />
    <glyph glyph-name="tcommaaccent" unicode="&#x163;" horiz-adv-x="330" 
d="M81 355h-49q-17 0 -17 15v58q0 16 16 16h50v89q0 16 16 20l72 16q20 4 20 -14v-111h93q16 0 16 -16v-57q0 -16 -16 -16h-93v-212q0 -50 43 -50q23 0 45 6q27 5 31 -16l10 -53q3 -18 -18 -26q-24 -8 -86 -10q-133 0 -133 130v231zM210 -69l-47 -136q-7 -21 -28 -21h-26
q-19 0 -19 29l11 134q2 27 27 27h58q32 0 24 -33z" />
    <glyph glyph-name="Tcaron" unicode="&#x164;" horiz-adv-x="441" 
d="M423 536q0 -18 -15 -18h-134l-1 -502q0 -16 -18 -16h-77q-18 0 -18 15l1 503h-127q-17 0 -17 18v64q0 17 17 17h374q15 0 15 -16v-65zM375 771l-97 -109q-9 -11 -22 -11h-66q-13 0 -22 11l-98 108q-11 12 1 20l29 20q11 7 22 -1l101 -77l100 76q12 9 21 3l31 -19
q11 -8 0 -21z" />
    <glyph glyph-name="tcaron" unicode="&#x165;" horiz-adv-x="377" 
d="M388 654l-47 -136q-7 -21 -28 -21h-26q-19 0 -19 29l11 134q2 27 27 27h58q32 0 24 -33zM81 355h-49q-17 0 -17 15v58q0 16 16 16h50v89q0 16 16 20l72 16q20 4 20 -14v-111h93q16 0 16 -16v-57q0 -16 -16 -16h-93v-212q0 -50 43 -50q23 0 45 6q27 5 31 -16l10 -53
q3 -18 -18 -26q-24 -8 -86 -10q-133 0 -133 130v231z" />
    <glyph glyph-name="Tbar" unicode="&#x166;" horiz-adv-x="430" 
d="M375 369q14 0 14 -16v-35q0 -17 -13 -17h-108v-285q0 -16 -18 -16h-77q-18 0 -18 15v286h-103q-13 0 -13 17v35q0 16 14 16h102v149h-124q-16 0 -16 18v64q0 17 16 17h369q16 0 16 -16v-65q0 -18 -16 -18h-132v-149h107z" />
    <glyph glyph-name="tbar" unicode="&#x167;" horiz-adv-x="330" 
d="M198 555v-112h94q15 0 15 -15v-58q0 -15 -15 -15h-94v-68h95q14 0 14 -13v-36q0 -14 -14 -14h-95v-95q5 -37 43 -37q8 0 22.5 1.5t26.5 2.5l11 2q13 0 17 -21l9 -48v-7q0 -28 -104 -28q-133 0 -133 129v101h-56q-14 0 -14 13v36q0 14 14 14h56v68h-54q-16 0 -16 15v58
q0 15 15 15h55v90q0 16 16 19l72 16q1 1 6 1q14 0 14 -14z" />
    <glyph glyph-name="Utilde" unicode="&#x168;" horiz-adv-x="529" 
d="M172 174q0 -34 25.5 -56.5t66.5 -22.5t66.5 23t25.5 57v427q0 15 18 15h77q19 0 19 -14v-429q0 -82 -58.5 -131t-146.5 -49t-147 49t-59 131v428q0 15 18 15h77q18 0 18 -14v-429zM410 718q-15 -28 -40.5 -44.5t-50.5 -16.5q-24 0 -63 15.5t-59 15.5q-24 0 -46 -25
q-9 -10 -20 0l-28 27q-8 8 -2 18q14 25 40 41.5t54 16.5q22 0 64 -16.5t57 -16.5q16 0 38 27q8 10 18 4l34 -22q12 -8 4 -24z" />
    <glyph glyph-name="utilde" unicode="&#x169;" horiz-adv-x="474" 
d="M47 428q0 15 14 15h78q17 0 17 -14v-265q0 -34 19 -55t58 -21q32 0 54.5 22t22.5 54v264q0 15 17 15h76q16 0 16 -14v-415q0 -14 -15 -14h-78q-14 0 -14 12v18l-1 1q-39 -36 -109 -36q-77 0 -116 45t-39 123v265zM389 568q-15 -28 -40.5 -44.5t-50.5 -16.5
q-24 0 -63 15.5t-59 15.5q-24 0 -46 -25q-9 -10 -20 0l-28 27q-8 8 -2 18q14 25 40 41.5t54 16.5q22 0 64 -16.5t57 -16.5q16 0 38 27q8 10 18 4l34 -22q12 -8 4 -24z" />
    <glyph glyph-name="Umacron" unicode="&#x16a;" horiz-adv-x="529" 
d="M172 174q0 -34 25.5 -56.5t66.5 -22.5t66.5 23t25.5 57v427q0 15 18 15h77q19 0 19 -14v-429q0 -82 -58.5 -131t-146.5 -49t-147 49t-59 131v428q0 15 18 15h77q18 0 18 -14v-429zM384 679q0 -9 -3 -11t-14 -2h-212q-9 0 -12 0.5t-5 3.5t-2 9v51q0 10 3.5 13.5t14.5 3.5
h212q11 0 14.5 -3t3.5 -13v-52z" />
    <glyph glyph-name="umacron" unicode="&#x16b;" horiz-adv-x="474" 
d="M47 428q0 15 14 15h78q17 0 17 -14v-265q0 -34 19 -55t58 -21q32 0 54.5 22t22.5 54v264q0 15 17 15h76q16 0 16 -14v-415q0 -14 -15 -14h-78q-14 0 -14 12v18l-1 1q-39 -36 -109 -36q-77 0 -116 45t-39 123v265zM358 540q0 -9 -3 -11t-14 -2h-212q-9 0 -12 0.5t-5 3.5
t-2 9v51q0 10 3.5 13.5t14.5 3.5h212q11 0 14.5 -3t3.5 -13v-52z" />
    <glyph glyph-name="Ubreve" unicode="&#x16c;" horiz-adv-x="529" 
d="M172 174q0 -34 25.5 -56.5t66.5 -22.5t66.5 23t25.5 57v427q0 15 18 15h77q19 0 19 -14v-429q0 -82 -58.5 -131t-146.5 -49t-147 49t-59 131v428q0 15 18 15h77q18 0 18 -14v-429zM136 777q0 9 2.5 11.5t13.5 2.5h40q9 0 12 -2.5t3 -10.5q1 -26 15 -42t40 -16q50 0 59 59
q1 8 4 10.5t12 2.5h36q10 0 12.5 -2t2.5 -13q-3 -57 -35 -93t-92 -36q-57 0 -90 37.5t-35 91.5z" />
    <glyph glyph-name="ubreve" unicode="&#x16d;" horiz-adv-x="474" 
d="M47 428q0 15 14 15h78q17 0 17 -14v-265q0 -34 19 -55t58 -21q32 0 54.5 22t22.5 54v264q0 15 17 15h76q16 0 16 -14v-415q0 -14 -15 -14h-78q-14 0 -14 12v18l-1 1q-39 -36 -109 -36q-77 0 -116 45t-39 123v265zM111 627q0 9 2.5 11.5t13.5 2.5h40q9 0 12 -2.5t3 -10.5
q1 -26 15 -42t40 -16q50 0 59 59q1 8 4 10.5t12 2.5h36q10 0 12.5 -2t2.5 -13q-3 -57 -35 -93t-92 -36q-57 0 -90 37.5t-35 91.5z" />
    <glyph glyph-name="Uring" unicode="&#x16e;" horiz-adv-x="529" 
d="M172 174q0 -34 25.5 -56.5t66.5 -22.5t66.5 23t25.5 57v427q0 15 18 15h77q19 0 19 -14v-429q0 -82 -58.5 -131t-146.5 -49t-147 49t-59 131v428q0 15 18 15h77q18 0 18 -14v-429zM350 739q0 -36 -26.5 -61.5t-63.5 -25.5q-36 0 -61.5 25.5t-25.5 61.5t25 62t62 26
t63.5 -25.5t26.5 -62.5zM298 739q0 15 -11.5 27t-26.5 12t-25.5 -11.5t-10.5 -27.5t10.5 -26.5t25.5 -10.5q16 0 27 11t11 26z" />
    <glyph glyph-name="uring" unicode="&#x16f;" horiz-adv-x="474" 
d="M47 428q0 15 14 15h78q17 0 17 -14v-265q0 -34 19 -55t58 -21q32 0 54.5 22t22.5 54v264q0 15 17 15h76q16 0 16 -14v-415q0 -14 -15 -14h-78q-14 0 -14 12v18l-1 1q-39 -36 -109 -36q-77 0 -116 45t-39 123v265zM328 577q0 -36 -26.5 -61.5t-63.5 -25.5
q-36 0 -61.5 25.5t-25.5 61.5t25 62t62 26t63.5 -25.5t26.5 -62.5zM276 577q0 15 -11.5 27t-26.5 12t-25.5 -11.5t-10.5 -27.5t10.5 -26.5t25.5 -10.5q16 0 27 11t11 26z" />
    <glyph glyph-name="Uhungarumlaut" unicode="&#x170;" horiz-adv-x="529" 
d="M172 174q0 -34 25.5 -56.5t66.5 -22.5t66.5 23t25.5 57v427q0 15 18 15h77q19 0 19 -14v-429q0 -82 -58.5 -131t-146.5 -49t-147 49t-59 131v428q0 15 18 15h77q18 0 18 -14v-429zM325 777q17 -12 0 -26l-134 -109q-12 -8 -25 2l-25 21q-13 9 -2 22l99 116q22 25 39 11z
M475 777q17 -12 0 -26l-134 -109q-12 -8 -25 2l-25 21q-13 9 -2 22l99 116q22 25 39 11z" />
    <glyph glyph-name="uhungarumlaut" unicode="&#x171;" horiz-adv-x="474" 
d="M47 428q0 15 14 15h78q17 0 17 -14v-265q0 -34 19 -55t58 -21q32 0 54.5 22t22.5 54v264q0 15 17 15h76q16 0 16 -14v-415q0 -14 -15 -14h-78q-14 0 -14 12v18l-1 1q-39 -36 -109 -36q-77 0 -116 45t-39 123v265zM132 526l86 143q10 15 24 8l60 -33q17 -9 4 -26
l-113 -123q-13 -14 -32 -4l-24 14q-14 7 -5 21zM274 526l86 143q10 15 24 8l60 -33q17 -9 4 -26l-113 -123q-13 -14 -32 -4l-24 14q-14 7 -5 21z" />
    <glyph glyph-name="Uogonek" unicode="&#x172;" horiz-adv-x="529" 
d="M172 174q0 -34 25.5 -56.5t66.5 -22.5t66.5 23t25.5 57v427q0 15 18 15h77q19 0 19 -14v-429q0 -78 -52.5 -126t-133.5 -53q-44 -51 -44 -103q0 -26 23 -26q19 0 51 17q13 7 15 7q5 0 8 -5l17 -22q6 -9 -9 -22q-42 -34 -93 -34q-84 0 -84 78q0 56 51 113
q-71 12 -115.5 58.5t-44.5 117.5v428q0 15 18 15h77q18 0 18 -14v-429z" />
    <glyph glyph-name="uogonek" unicode="&#x173;" horiz-adv-x="474" 
d="M47 428q0 15 14 15h78q17 0 17 -14v-265q0 -34 19 -55t58 -21q32 0 54.5 22t22.5 54v264q0 15 17 15h76q16 0 16 -14v-415q0 -14 -15 -14h-31q-49 -52 -49 -108q0 -26 23 -26q19 0 51 17q13 7 15 7q5 0 8 -5l17 -22q6 -9 -9 -22q-42 -34 -93 -34q-84 0 -84 78q0 30 18 64
t42 58v5v18l-1 1q-39 -36 -109 -36q-77 0 -116 45t-39 123v265z" />
    <glyph glyph-name="Wcircumflex" unicode="&#x174;" horiz-adv-x="720" 
d="M705 597l-132 -582q-3 -15 -23 -15h-80q-18 0 -21 13l-57 257l-31 146l-3 1q-1 -4 -15.5 -70t-16.5 -78l-55 -256q-4 -13 -24 -13h-79q-19 0 -23 12l-134 587q-3 18 18 18h82q16 0 19 -15l54 -270l26 -148l4 -2l30 149l60 273q4 13 19 13h73q15 0 19 -14q6 -31 34 -148.5
t30 -128.5l30 -143l3 -1q1 7 12.5 70.5t13.5 76.5l53 274q1 14 19 14h77q22 0 18 -20zM507 684q11 -13 0 -21l-32 -19q-8 -5 -21 3l-101 77l-100 -78q-11 -8 -22 -1l-29 20q-10 7 -1 20l99 108q9 11 21 11h67q13 0 22 -11z" />
    <glyph glyph-name="wcircumflex" unicode="&#x175;" horiz-adv-x="657" 
d="M641 423l-114 -405q-5 -18 -25 -18h-63q-12 0 -17 3t-9 14l-50 159l-35 130h-2l-39 -137l-47 -153q-5 -16 -25 -16h-64q-12 0 -17 3t-9 14l-113 406q-4 8 -0.5 14.5t14.5 6.5h76q22 0 26 -19l32 -140l30 -132h2l38 130l42 139q7 22 24 22h62q17 0 24 -20l48 -157l33 -114
h3l24 113l35 157q7 21 28 21h74q21 0 14 -21zM483 527q10 -16 -1 -21l-32 -17q-13 -7 -22 2l-102 96l-99 -97q-9 -9 -21 -2l-31 18q-11 5 -1 21l100 130q9 11 21 11h67q11 0 22 -11z" />
    <glyph glyph-name="Ycircumflex" unicode="&#x176;" horiz-adv-x="465" 
d="M108 617q22 0 29 -16l94 -245h3q8 20 45 119.5t47 123.5q8 18 31 18h74q26 0 17 -20l-154 -356q-6 -13 -6 -26v-197q0 -18 -18 -18h-77q-18 0 -18 17v200q0 12 -5 22l-155 357q-8 21 14 21h79zM382 684q11 -13 0 -21l-32 -19q-8 -5 -21 3l-101 77l-100 -78q-11 -8 -22 -1
l-29 20q-10 7 -1 20l99 108q9 11 21 11h67q13 0 22 -11z" />
    <glyph glyph-name="ycircumflex" unicode="&#x177;" horiz-adv-x="434" 
d="M108 443q18 0 23 -18l46 -183l34 -142h2l100 323q5 20 26 20h72q8 0 13 -7t2 -16l-187 -581q-6 -21 -29 -21h-65q-10 0 -15 8t-1 19l48 155h-24q-18 0 -24 20l-115 402q-6 21 14 21h80zM373 527q10 -16 -1 -21l-32 -17q-13 -7 -22 2l-102 96l-99 -97q-9 -9 -21 -2l-31 18
q-11 5 -1 21l100 130q9 11 21 11h67q11 0 22 -11z" />
    <glyph glyph-name="Ydieresis" unicode="&#x178;" horiz-adv-x="465" 
d="M108 617q22 0 29 -16l94 -245h3q8 20 45 119.5t47 123.5q8 18 31 18h74q26 0 17 -20l-154 -356q-6 -13 -6 -26v-197q0 -18 -18 -18h-77q-18 0 -18 17v200q0 12 -5 22l-155 357q-8 21 14 21h79zM378 709q0 -25 -17 -41.5t-43 -16.5t-43.5 16.5t-17.5 41.5t17.5 42t43.5 17
q25 0 42.5 -17t17.5 -42zM202 709q0 -25 -17 -41.5t-43 -16.5t-43 16.5t-17 41.5t17.5 42t42.5 17t42.5 -17t17.5 -42z" />
    <glyph glyph-name="Zacute" unicode="&#x179;" horiz-adv-x="441" 
d="M414 16q0 -16 -17 -16h-338q-29 0 -29 26v29q0 18 10 35l231 428h-206q-16 0 -16 18v66q0 15 18 15h311q26 0 26 -22v-35q0 -18 -13 -44q-178 -333 -226 -415h232q17 0 17 -17v-68zM352 746q14 -15 -6 -25l-154 -78q-12 -6 -24 7l-20 26q-10 12 3 22l121 92q26 20 41 3z
" />
    <glyph glyph-name="zacute" unicode="&#x17a;" horiz-adv-x="427" 
d="M395 16q0 -16 -16 -16h-320q-27 0 -27 24v29q0 20 11 34l192 262h-177q-16 0 -16 15v64q0 16 15 16h295q28 0 28 -23v-39q0 -21 -10 -35l-186 -253h195q16 0 16 -15v-63zM345 618l-115 -128q-9 -11 -25 -2l-28 17q-13 7 -6 21l87 143q9 16 24 8l60 -33q18 -11 3 -26z" />
    <glyph glyph-name="Zdotaccent" unicode="&#x17b;" horiz-adv-x="441" 
d="M414 16q0 -16 -17 -16h-338q-29 0 -29 26v29q0 18 10 35l231 428h-206q-16 0 -16 18v66q0 15 18 15h311q26 0 26 -22v-35q0 -18 -13 -44q-178 -333 -226 -415h232q17 0 17 -17v-68zM291 715q0 -25 -17.5 -42t-42.5 -17q-26 0 -43.5 16.5t-17.5 41.5q0 24 17.5 41.5
t42.5 17.5t43 -17t18 -41z" />
    <glyph glyph-name="zdotaccent" unicode="&#x17c;" horiz-adv-x="427" 
d="M395 16q0 -16 -16 -16h-320q-27 0 -27 24v29q0 20 11 34l192 262h-177q-16 0 -16 15v64q0 16 15 16h295q28 0 28 -23v-39q0 -21 -10 -35l-186 -253h195q16 0 16 -15v-63zM284 559q0 -25 -17.5 -42t-42.5 -17q-26 0 -43.5 16.5t-17.5 41.5q0 24 17.5 41.5t42.5 17.5
t43 -17t18 -41z" />
    <glyph glyph-name="Zcaron" unicode="&#x17d;" horiz-adv-x="441" 
d="M414 16q0 -16 -17 -16h-338q-29 0 -29 26v29q0 18 10 35l231 428h-206q-16 0 -16 18v66q0 15 18 15h311q26 0 26 -22v-35q0 -18 -13 -44q-178 -333 -226 -415h232q17 0 17 -17v-68zM391 774l-97 -109q-9 -11 -22 -11h-66q-13 0 -22 11l-98 108q-11 12 1 20l29 20
q11 7 22 -1l101 -77l100 76q12 9 21 3l31 -19q11 -8 0 -21z" />
    <glyph glyph-name="zcaron" unicode="&#x17e;" horiz-adv-x="427" 
d="M395 16q0 -16 -16 -16h-320q-27 0 -27 24v29q0 20 11 34l192 262h-177q-16 0 -16 15v64q0 16 15 16h295q28 0 28 -23v-39q0 -21 -10 -35l-186 -253h195q16 0 16 -15v-63zM370 626l-99 -130q-11 -11 -22 -11h-67q-12 0 -21 11l-100 130q-10 16 1 21l31 18q12 7 21 -2
l101 -97l100 96q9 9 22 2l32 -17q11 -5 1 -21z" />
    <glyph glyph-name="florin" unicode="&#x192;" horiz-adv-x="497" 
d="M140 280q-21 0 -21 16v58q1 17 22 17h67l17 96q22 161 160 161q31 0 69 -10q22 -6 17 -24l-21 -61q-4 -11 -10.5 -13t-21.5 1q-75 21 -87 -63l-14 -87h66q22 0 22 -17v-58q0 -16 -21 -16h-81l-29 -211q-13 -92 -57 -133t-108 -41q-34 0 -67 11q-22 6 -17 24l21 60
q4 11 10.5 13.5t21.5 -1.5q39 -8 59.5 5.5t26.5 57.5l32 215h-56z" />
    <glyph glyph-name="AEacute" unicode="&#x1fc;" horiz-adv-x="759" 
d="M723 82v-65q0 -17 -16 -17h-340q-17 0 -17 14v125h-180l-48 -126q-4 -13 -21 -13h-76q-15 0 -15 11q0 4 2 10l223 580q7 16 24 16h442q17 0 17 -17v-65q0 -18 -16 -18h-239v-152h200q16 0 16 -18v-64q0 -17 -15 -17h-201v-167h244q16 0 16 -17zM350 517h-49l-99 -283h148
v283zM602 746q14 -15 -6 -25l-154 -78q-12 -6 -24 7l-20 26q-10 12 3 22l121 92q26 20 41 3z" />
    <glyph glyph-name="aeacute" unicode="&#x1fd;" horiz-adv-x="715" 
d="M673 276v-47q0 -13 -8 -21.5t-20 -8.5h-236v-42q0 -32 20 -50.5t58 -18.5q47 0 91 50q8 12 21 2l50 -32q21 -11 12 -26q-30 -52 -70 -70t-103 -18q-95 0 -142 53h-2q-46 -52 -138 -52q-74 0 -120 41t-46 112q0 70 46 113.5t123 43.5q54 0 87 -27h3v26q0 30 -23 46t-62 16
q-37 0 -97 -24q-16 -5 -23 9l-17 49q-1 2 -1 6q0 18 55 31.5t95 13.5q91 0 130 -46h2q46 46 129 46q84 0 135 -48t51 -127zM291 151q0 30 -20.5 51.5t-51.5 21.5q-32 0 -52.5 -21t-20.5 -52t19.5 -51.5t52.5 -20.5t53 22t20 50zM566 273v14q0 30 -22 50.5t-57 20.5
q-33 0 -54.5 -21t-21.5 -51v-13h155zM493 618l-115 -128q-9 -11 -25 -2l-28 17q-13 7 -6 21l87 143q9 16 24 8l60 -33q18 -11 3 -26z" />
    <glyph glyph-name="Oslashacute" unicode="&#x1fe;" horiz-adv-x="529" 
d="M469 176q0 -83 -57 -132.5t-147 -49.5q-77 0 -130 35q-1 -2 -4.5 -8.5l-6.5 -12.5l-4 -6q-7 -12 -17 -6l-31 18q-11 5 -3 19l22 37q-32 43 -32 106v268q0 83 58 133t147 50q76 0 131 -38l18 32q8 11 19 5l31 -17q10 -6 1 -19l-25 -44q30 -44 30 -102v-268zM172 443v-236
l166 287q-25 32 -73 32q-43 0 -68 -23.5t-25 -59.5zM355 177v226l-88.5 -151.5t-75.5 -128.5q25 -28 73 -28q41 0 66 23t25 59zM417 761q14 -15 -6 -25l-154 -78q-12 -6 -24 7l-20 26q-10 12 3 22l121 92q26 20 41 3z" />
    <glyph glyph-name="oslashacute" unicode="&#x1ff;" horiz-adv-x="468" 
d="M420 165q0 -82 -50 -126.5t-136 -44.5q-71 0 -119 31l-22 -27q-6 -8 -17 1l-28 22q-8 8 0 18l24 30q-25 41 -25 93v120q0 76 51.5 123t134.5 47q72 0 121 -33l23 28q6 10 17 -1l26 -20q12 -8 2 -15l-27 -35q25 -39 25 -94v-117zM156 279v-106l132 164q-21 19 -55 19
q-36 0 -56.5 -21.5t-20.5 -55.5zM311 166v104l-132 -164q20 -17 54 -17q36 0 57 21t21 56zM370 618l-115 -128q-9 -11 -25 -2l-28 17q-13 7 -6 21l87 143q9 16 24 8l60 -33q18 -11 3 -26z" />
    <glyph glyph-name="Scommaaccent" unicode="&#x218;" horiz-adv-x="487" 
d="M453 177q0 -85 -60 -133.5t-154 -48.5q-128 0 -200 75q-9 9 -10 15t8 18l39 44q11 9 16 8t16 -10q26 -23 62 -37t66 -14q52 0 77.5 21t25.5 57q0 37 -32 58.5t-98 44.5q-72 24 -116.5 63.5t-44.5 110.5q0 80 56 128t138 48q104 0 174 -46q15 -10 3 -32l-26 -48
q-9 -16 -30 -7q-67 35 -115 35q-88 0 -88 -77q0 -14 7.5 -26.5t15.5 -20t27 -16.5t26 -11.5l29 -10.5q37 -13 53.5 -20t48 -24t46.5 -34t27.5 -46t12.5 -64zM292 -69l-47 -136q-7 -21 -28 -21h-26q-19 0 -19 29l11 134q2 27 27 27h58q32 0 24 -33z" />
    <glyph glyph-name="scommaaccent" unicode="&#x219;" horiz-adv-x="413" 
d="M381 129q0 -63 -48 -98.5t-122 -35.5q-132 0 -177 90q-8 15 4 22l56 31q14 8 23 -4q40 -50 97 -50q22 0 40.5 11.5t18.5 30.5q0 16 -11.5 26t-35.5 19q-11 4 -37 11.5t-34 10.5q-111 38 -111 123q0 64 46.5 99.5t114.5 35.5q96 0 154 -54q9 -9 -1 -24l-32 -47
q-5 -5 -11 -5q-3 0 -7.5 2.5l-11.5 6.5t-12 6q-49 23 -83 23q-23 0 -37.5 -10.5t-14.5 -28.5q0 -26 47 -42q5 -1 24 -7t25.5 -8.5l24.5 -9t25.5 -10.5l22 -11.5t21.5 -14.5l16.5 -17t14 -20t8 -23t3.5 -28zM265 -69l-47 -136q-7 -21 -28 -21h-26q-19 0 -19 29l11 134
q2 27 27 27h58q32 0 24 -33z" />
    <glyph glyph-name="schwa" unicode="&#x259;" horiz-adv-x="458" 
d="M228 -6q-82 0 -134.5 47.5t-52.5 127.5v47q0 13 8 21.5t20 8.5h236v32q0 33 -21.5 56t-55.5 23q-46 0 -85 -47q-12 -13 -24 -5l-49 31q-20 13 -13 27q50 89 169 89q85 0 137 -46.5t52 -123.5v-113q0 -78 -52 -126.5t-135 -48.5zM227 89q34 0 55 20.5t21 50.5v13h-152v-18
q0 -30 20.5 -48t55.5 -18z" />
    <glyph glyph-name="primemod" unicode="&#x2b9;" horiz-adv-x="231" 
d="M211 577l-127 -198q-10 -16 -29 -5l-33 16q-14 9 -7 29l95 214q4 10 13.5 13.5t16.5 -0.5l65 -34q22 -11 6 -35z" />
    <glyph glyph-name="circumflex" unicode="&#x2c6;" horiz-adv-x="457" 
d="M387 527q10 -16 -1 -21l-32 -17q-13 -7 -22 2l-102 96l-99 -97q-9 -9 -21 -2l-31 18q-11 5 -1 21l100 130q9 11 21 11h67q11 0 22 -11z" />
    <glyph glyph-name="caron" unicode="&#x2c7;" horiz-adv-x="427" 
d="M401 626l-99 -130q-11 -11 -22 -11h-67q-12 0 -21 11l-100 130q-10 16 1 21l31 18q12 7 21 -2l101 -97l100 96q9 9 22 2l32 -17q11 -5 1 -21z" />
    <glyph glyph-name="breve" unicode="&#x2d8;" horiz-adv-x="470" 
d="M122 627q0 9 2.5 11.5t13.5 2.5h40q9 0 12 -2.5t3 -10.5q1 -26 15 -42t40 -16q50 0 59 59q1 8 4 10.5t12 2.5h36q10 0 12.5 -2t2.5 -13q-3 -57 -35 -93t-92 -36q-57 0 -90 37.5t-35 91.5z" />
    <glyph glyph-name="dotaccent" unicode="&#x2d9;" horiz-adv-x="461" 
d="M313 559q0 -25 -17.5 -42t-42.5 -17q-26 0 -43.5 16.5t-17.5 41.5q0 24 17.5 41.5t42.5 17.5t43 -17t18 -41z" />
    <glyph glyph-name="ring" unicode="&#x2da;" horiz-adv-x="462" 
d="M346 577q0 -36 -26.5 -61.5t-63.5 -25.5q-36 0 -61.5 25.5t-25.5 61.5t25 62t62 26t63.5 -25.5t26.5 -62.5zM294 577q0 15 -11.5 27t-26.5 12t-25.5 -11.5t-10.5 -27.5t10.5 -26.5t25.5 -10.5q16 0 27 11t11 26z" />
    <glyph glyph-name="ogonek" unicode="&#x2db;" horiz-adv-x="453" 
d="M274 21q8 0 8 -7q0 -4 -3 -5q-25 -23 -41.5 -56.5t-16.5 -60.5q0 -26 23 -26q19 0 51 17q13 7 15 7q5 0 8 -5l17 -22q6 -9 -9 -22q-42 -34 -93 -34q-84 0 -84 78q0 30 18.5 65t43.5 59q13 12 23 12h40z" />
    <glyph glyph-name="tilde" unicode="&#x2dc;" horiz-adv-x="457" 
d="M384 568q-15 -28 -40.5 -44.5t-50.5 -16.5q-24 0 -63 15.5t-59 15.5q-24 0 -46 -25q-9 -10 -20 0l-28 27q-8 8 -2 18q14 25 40 41.5t54 16.5q22 0 64 -16.5t57 -16.5q16 0 38 27q8 10 18 4l34 -22q12 -8 4 -24z" />
    <glyph glyph-name="hungarumlaut" unicode="&#x2dd;" horiz-adv-x="468" 
d="M258 526l86 143q10 15 24 8l60 -33q17 -9 4 -26l-113 -123q-13 -14 -32 -4l-24 14q-14 7 -5 21zM116 526l86 143q10 15 24 8l60 -33q17 -9 4 -26l-113 -123q-13 -14 -32 -4l-24 14q-14 7 -5 21z" />
    <glyph glyph-name="tonos" unicode="&#x384;" horiz-adv-x="455" 
d="M370 618l-115 -128q-9 -11 -25 -2l-28 17q-13 7 -6 21l87 143q9 16 24 8l60 -33q18 -11 3 -26z" />
    <glyph glyph-name="dieresistonos" unicode="&#x385;" horiz-adv-x="462" 
d="M451 563q0 -25 -17.5 -42t-42.5 -17q-26 0 -44 16.5t-18 41.5t17.5 42t43.5 17q25 0 43 -17t18 -41zM339 618l-115 -128q-9 -11 -25 -2l-29 17q-12 7 -5 21l86 143q10 15 25 8l60 -33q18 -11 3 -26zM163 563q0 -25 -17.5 -42t-42.5 -17q-26 0 -43.5 16.5t-17.5 41.5
t17.5 42t42.5 17t43 -17t18 -41z" />
    <glyph glyph-name="Alphatonos" unicode="&#x386;" horiz-adv-x="482" 
d="M453 0h-87q-13 0 -16 11t-12.5 52l-14.5 63h-169q-17 -72 -26 -115q-2 -11 -16 -11h-82q-16 0 -16 11q0 2 2 8l146 584q5 14 20 14h113q17 0 21 -14l149 -583q1 -2 1 -8q0 -12 -13 -12zM236 491q-22 -111 -24 -119l-34 -153h122q-4 18 -12 50.5t-14 59.5l-11 50l-24 112
h-3zM96 581l-115 -128q-9 -11 -25 -2l-28 17q-13 7 -6 21l87 143q9 16 24 8l60 -33q18 -11 3 -26z" />
    <glyph glyph-name="anoteleia" unicode="&#x387;" horiz-adv-x="229" 
d="M181 330q0 -26 -19.5 -46t-46.5 -20q-28 0 -47.5 19.5t-19.5 45.5t19.5 45t46.5 19t47 -19t20 -44z" />
    <glyph glyph-name="Epsilontonos" unicode="&#x388;" horiz-adv-x="468" 
d="M433 17q0 -17 -16 -17h-339q-18 0 -18 17v583q0 17 18 17h333q16 0 16 -17v-65q0 -18 -16 -18h-238v-149h199q17 0 17 -18v-64q0 -18 -16 -18h-200v-169h244q16 0 16 -17v-65zM14 581l-115 -128q-9 -11 -25 -2l-28 17q-13 7 -6 21l87 143q9 16 24 8l60 -33q18 -11 3 -26z
" />
    <glyph glyph-name="Etatonos" unicode="&#x389;" horiz-adv-x="550" 
d="M490 15q0 -15 -19 -15h-76q-19 0 -19 15v253h-200v-253q0 -15 -18 -15h-77q-18 0 -18 15v587q0 15 17 15h77q19 0 19 -14v-236h200v235q0 15 19 15h76q19 0 19 -14v-588zM14 581l-115 -128q-9 -11 -25 -2l-28 17q-13 7 -6 21l87 143q9 16 24 8l60 -33q18 -11 3 -26z" />
    <glyph glyph-name="Iotatonos" unicode="&#x38a;" horiz-adv-x="257" 
d="M184 15q0 -15 -18 -15h-78q-18 0 -18 15v586q0 16 18 16h78q18 0 18 -16v-586zM34 581l-115 -128q-9 -11 -25 -2l-28 17q-13 7 -6 21l87 143q9 16 24 8l60 -33q18 -11 3 -26z" />
    <glyph glyph-name="Omicrontonos" unicode="&#x38c;" horiz-adv-x="529" 
d="M469 176q0 -83 -57 -132.5t-147 -49.5t-148 49t-58 133v268q0 83 58 133t147 50q88 0 146.5 -49.5t58.5 -133.5v-268zM355 177v266q0 36 -23.5 59.5t-66.5 23.5t-68 -23.5t-25 -59.5v-266q0 -36 24.5 -59t67.5 -23q41 0 66 23t25 59zM56 581l-115 -128q-9 -11 -25 -2
l-28 17q-13 7 -6 21l87 143q9 16 24 8l60 -33q18 -11 3 -26z" />
    <glyph glyph-name="Upsilontonos" unicode="&#x38e;" horiz-adv-x="465" 
d="M108 617q22 0 29 -16l94 -245h3q8 20 45 119.5t47 123.5q8 18 31 18h74q26 0 17 -20l-154 -356q-6 -13 -6 -26v-197q0 -18 -18 -18h-77q-18 0 -18 17v200q0 12 -5 22l-155 357q-8 21 14 21h79zM-13 581l-115 -128q-9 -11 -25 -2l-28 17q-13 7 -6 21l87 143q9 16 24 8
l60 -33q18 -11 3 -26z" />
    <glyph glyph-name="Omegatonos" unicode="&#x38f;" horiz-adv-x="556" 
d="M488 0h-157q-12 0 -16 3t-4 12v78q0 15 14 24q21 4 35 26t14 52v242q0 38 -23.5 64t-73.5 26q-46 0 -71.5 -27t-25.5 -63v-242q0 -57 50 -79q12 -8 12 -25v-75q0 -10 -3.5 -13t-15.5 -3h-155q-17 0 -17 14v67q0 16 17 16h38q-40 30 -40 111v231q0 81 59 134t152 53
q100 0 155.5 -50.5t55.5 -136.5v-230q0 -75 -41 -111q1 0 1 -0.5t1 -0.5h38q16 0 16 -16v-67q0 -14 -15 -14zM54 581l-115 -128q-9 -11 -25 -2l-28 17q-13 7 -6 21l87 143q9 16 24 8l60 -33q18 -11 3 -26z" />
    <glyph glyph-name="iotadieresistonos" unicode="&#x390;" horiz-adv-x="220" 
d="M167 16q0 -16 -16 -16h-78q-16 0 -16 15v413q0 16 15 16h78q17 0 17 -16v-412zM318 563q0 -25 -17.5 -42t-42.5 -17q-26 0 -44 16.5t-18 41.5t17.5 42t43.5 17q25 0 43 -17t18 -41zM206 618l-115 -128q-9 -11 -25 -2l-29 17q-12 7 -5 21l86 143q10 15 25 8l60 -33
q18 -11 3 -26zM30 563q0 -25 -17.5 -42t-42.5 -17q-26 0 -43.5 16.5t-17.5 41.5t17.5 42t42.5 17t43 -17t18 -41z" />
    <glyph glyph-name="Alpha" unicode="&#x391;" horiz-adv-x="482" 
d="M453 0h-87q-13 0 -16 11t-12.5 52l-14.5 63h-169q-17 -72 -26 -115q-2 -11 -16 -11h-82q-16 0 -16 11q0 2 2 8l146 584q5 14 20 14h113q17 0 21 -14l149 -583q1 -2 1 -8q0 -12 -13 -12zM236 491q-22 -111 -24 -119l-34 -153h122q-4 18 -12 50.5t-14 59.5l-11 50l-24 112
h-3z" />
    <glyph glyph-name="Beta" unicode="&#x392;" horiz-adv-x="516" 
d="M480 186q0 -84 -51 -135t-140 -51h-211q-19 0 -19 17v583q0 17 18 17h202q84 0 132.5 -42.5t48.5 -120.5q0 -34 -19.5 -69t-50.5 -52v-4q46 -17 68 -56.5t22 -86.5zM365 185q0 42 -24 67t-75 25h-94v-178h101q43 0 67.5 22.5t24.5 63.5zM346 448q0 69 -84 69h-90v-143h96
q37 0 57.5 20t20.5 54z" />
    <glyph glyph-name="Gamma" unicode="&#x393;" horiz-adv-x="451" 
d="M186 16q0 -16 -17 -16h-78q-18 0 -18 15v587q0 15 18 15h333q16 0 16 -14v-69q0 -16 -16 -16h-238v-502z" />
    <glyph glyph-name="Delta" unicode="&#x394;" horiz-adv-x="489" 
d="M457 0h-428q-16 0 -16 13q0 4 1 6l156 584q3 14 19 14h109q16 0 18 -13l156 -582q1 -3 1 -8q0 -14 -16 -14zM333 93l-58 242l-33 149h-2q-24 -101 -33 -150l-55 -241h181z" />
    <glyph glyph-name="Delta" unicode="&#x2206;" horiz-adv-x="489" 
d="M457 0h-428q-16 0 -16 13q0 4 1 6l156 584q3 14 19 14h109q16 0 18 -13l156 -582q1 -3 1 -8q0 -14 -16 -14zM333 93l-58 242l-33 149h-2q-24 -101 -33 -150l-55 -241h181z" />
    <glyph glyph-name="Epsilon" unicode="&#x395;" horiz-adv-x="468" 
d="M433 17q0 -17 -16 -17h-339q-18 0 -18 17v583q0 17 18 17h333q16 0 16 -17v-65q0 -18 -16 -18h-238v-149h199q17 0 17 -18v-64q0 -18 -16 -18h-200v-169h244q16 0 16 -17v-65z" />
    <glyph glyph-name="Zeta" unicode="&#x396;" horiz-adv-x="441" 
d="M414 16q0 -16 -17 -16h-338q-29 0 -29 26v29q0 18 10 35l231 428h-206q-16 0 -16 18v66q0 15 18 15h311q26 0 26 -22v-35q0 -18 -13 -44q-178 -333 -226 -415h232q17 0 17 -17v-68z" />
    <glyph glyph-name="Eta" unicode="&#x397;" horiz-adv-x="550" 
d="M490 15q0 -15 -19 -15h-76q-19 0 -19 15v253h-200v-253q0 -15 -18 -15h-77q-18 0 -18 15v587q0 15 17 15h77q19 0 19 -14v-236h200v235q0 15 19 15h76q19 0 19 -14v-588z" />
    <glyph glyph-name="Theta" unicode="&#x398;" horiz-adv-x="547" 
d="M488 178q0 -84 -59.5 -134t-154.5 -50q-97 0 -156 49t-59 135v263q0 83 60.5 134.5t153.5 51.5q100 0 157.5 -50t57.5 -136v-263zM375 179v260q0 36 -27 61.5t-74 25.5q-48 0 -75 -25t-27 -62v-260q0 -36 27 -60.5t74 -24.5q48 0 75 24.5t27 60.5zM214 265q-16 0 -16 16
v66q0 16 16 16h120q15 0 15 -16v-66q0 -16 -15 -16h-120z" />
    <glyph glyph-name="Iota" unicode="&#x399;" horiz-adv-x="257" 
d="M184 15q0 -15 -18 -15h-78q-18 0 -18 15v586q0 16 18 16h78q18 0 18 -16v-586z" />
    <glyph glyph-name="Kappa" unicode="&#x39a;" horiz-adv-x="534" 
d="M273 288q-44 0 -70 -27t-26 -69q0 -30 -0.5 -89t-0.5 -88q0 -15 -14 -15h-84q-15 0 -15 15v586q0 16 17 16h81q15 0 15 -15v-219l2 -1h2l182 223q10 12 26 12h89q7 0 10 -4.5t2 -10.5t-5 -10l-179 -220l2 -4h7q147 0 159 -166l13 -178q1 -24 -16 -24h-80q-15 0 -17 26
l-12 184q-2 34 -24 56t-64 22z" />
    <glyph glyph-name="Lambda" unicode="&#x39b;" horiz-adv-x="484" 
d="M205 330l-73 -311q-5 -19 -26 -19h-76q-18 0 -18 14q0 4 1 7l156 583q3 13 19 13h105q17 0 19 -12l157 -583q0 -8 -0.5 -11t-4.5 -7t-13 -4h-80q-16 0 -20 13l-41.5 168l-38.5 154q-9 37 -31 138h-4z" />
    <glyph glyph-name="Mu" unicode="&#x39c;" horiz-adv-x="656" 
d="M609 17q0 -17 -19 -17h-73q-17 0 -17 15v321l-3 1l-43 -112l-73 -189q-9 -18 -24 -18h-46q-20 0 -27 15l-71 187l-41 114h-3v-319q0 -15 -18 -15h-73q-18 0 -18 17v580q0 20 21 20h62q14 0 19.5 -2.5t11.5 -14.5q5 -11 53.5 -137t55.5 -143l49 -134h5l52 135l108 279
q7 17 31 17h59q22 0 22 -20v-580z" />
    <glyph glyph-name="Nu" unicode="&#x39d;" horiz-adv-x="549" 
d="M488 21q0 -21 -23 -21h-50q-23 0 -32 16l-101.5 175.5t-106.5 187.5l-3 -1v-362q0 -16 -18 -16h-73q-18 0 -18 15v579q0 23 23 23h50q22 0 33 -18l208 -368l2 2v369q0 15 19 15h71q19 0 19 -15v-581z" />
    <glyph glyph-name="Xi" unicode="&#x39e;" horiz-adv-x="508" 
d="M463 17q0 -17 -16 -17h-386q-16 0 -16 17v65q0 17 16 17h138v165h-93q-15 0 -15 18v64q0 18 16 18h92v153h-130q-16 0 -16 18v65q0 17 16 17h371q17 0 17 -17v-65q0 -18 -16 -18h-135v-153h95q16 0 16 -18v-64q0 -18 -15 -18h-96v-165h141q16 0 16 -17v-65z" />
    <glyph glyph-name="Omicron" unicode="&#x39f;" horiz-adv-x="529" 
d="M469 176q0 -83 -57 -132.5t-147 -49.5t-148 49t-58 133v268q0 83 58 133t147 50q88 0 146.5 -49.5t58.5 -133.5v-268zM355 177v266q0 36 -23.5 59.5t-66.5 23.5t-68 -23.5t-25 -59.5v-266q0 -36 24.5 -59t67.5 -23q41 0 66 23t25 59z" />
    <glyph glyph-name="Pi" unicode="&#x3a0;" horiz-adv-x="570" 
d="M483 617q18 0 18 -16v-585q0 -16 -18 -16h-77q-18 0 -18 15v503h-204v-502q0 -16 -19 -16h-77q-19 0 -19 15v585q0 17 19 17h395z" />
    <glyph glyph-name="Rho" unicode="&#x3a1;" horiz-adv-x="486" 
d="M460 432q0 -77 -54.5 -128.5t-137.5 -51.5h-93l1 -236q0 -16 -18 -16h-77q-19 0 -19 16v586q0 15 19 15h186q88 0 140.5 -51.5t52.5 -133.5zM347 434q0 34 -21.5 59t-58.5 25h-92v-167h92q36 0 58 23t22 60z" />
    <glyph glyph-name="Sigma" unicode="&#x3a3;" horiz-adv-x="446" 
d="M421 17q0 -17 -16 -17h-342q-25 0 -25 25v24q0 1 -0.5 2.5t-0.5 2.5q2 22 10 37l119 229l-114 198q-10 20 -10 35v39q0 25 28 25h318q16 0 16 -17v-65q0 -18 -16 -18h-213l103 -171q9 -15 9 -24q0 -12 -12 -34l-102 -189h232q16 0 16 -17v-65z" />
    <glyph glyph-name="Tau" unicode="&#x3a4;" horiz-adv-x="441" 
d="M423 536q0 -18 -15 -18h-134l-1 -502q0 -16 -18 -16h-77q-18 0 -18 15l1 503h-127q-17 0 -17 18v64q0 17 17 17h374q15 0 15 -16v-65z" />
    <glyph glyph-name="Upsilon" unicode="&#x3a5;" horiz-adv-x="465" 
d="M108 617q22 0 29 -16l94 -245h3q8 20 45 119.5t47 123.5q8 18 31 18h74q26 0 17 -20l-154 -356q-6 -13 -6 -26v-197q0 -18 -18 -18h-77q-18 0 -18 17v200q0 12 -5 22l-155 357q-8 21 14 21h79z" />
    <glyph glyph-name="Phi" unicode="&#x3a6;" horiz-adv-x="615" 
d="M558 237q0 -72 -55.5 -121t-140.5 -55v-45q0 -16 -17 -16h-77q-17 0 -17 16v45q-84 4 -139 53t-54 123v162q-1 73 54.5 123t138.5 55v25q0 15 17 15h77q17 0 17 -14v-26q88 -4 142 -53t54 -124v-163zM451 235v171q0 75 -89 79v-331q41 3 65 25.5t24 55.5zM251 154v331
q-42 -1 -64 -24.5t-22 -55.5v-172q0 -32 22 -54t64 -25z" />
    <glyph glyph-name="Chi" unicode="&#x3a7;" horiz-adv-x="480" 
d="M344 15l-100 205h-3l-100 -205q-8 -15 -30 -15h-82q-16 0 -16 10q0 5 3 14l162 298l-147 273q-3 5 -3 11q0 11 16 11h88q20 0 28 -16l81 -171h3l84 171q7 16 27 16h83q14 0 14 -10q0 -9 -3 -12l-141 -273l162 -301q3 -6 3 -10q0 -11 -17 -11h-83q-9 0 -13 0.5t-8.5 4
t-7.5 10.5z" />
    <glyph glyph-name="Psi" unicode="&#x3a8;" horiz-adv-x="611" 
d="M444 602q0 16 19 16h75q17 0 17 -15v-289q1 -74 -53.5 -124.5t-141.5 -55.5v-118q0 -16 -17 -16h-77q-17 0 -17 16v116q-86 5 -140 55t-53 126v289q0 16 17 16h74q18 0 18 -15v-294q0 -31 22 -54t61 -24v380q0 16 18 16h76q18 0 18 -16v-380q42 1 63 24.5t21 56.5v290z
" />
    <glyph glyph-name="Omega" unicode="&#x3a9;" horiz-adv-x="556" 
d="M488 0h-157q-12 0 -16 3t-4 12v78q0 15 14 24q21 4 35 26t14 52v242q0 38 -23.5 64t-73.5 26q-46 0 -71.5 -27t-25.5 -63v-242q0 -57 50 -79q12 -8 12 -25v-75q0 -10 -3.5 -13t-15.5 -3h-155q-17 0 -17 14v67q0 16 17 16h38q-40 30 -40 111v231q0 81 59 134t152 53
q100 0 155.5 -50.5t55.5 -136.5v-230q0 -75 -41 -111q1 0 1 -0.5t1 -0.5h38q16 0 16 -16v-67q0 -14 -15 -14z" />
    <glyph glyph-name="Iotadieresis" unicode="&#x3aa;" horiz-adv-x="257" 
d="M184 15q0 -15 -18 -15h-78q-18 0 -18 15v586q0 16 18 16h78q18 0 18 -16v-586zM269 709q0 -25 -17 -41.5t-43 -16.5t-43.5 16.5t-17.5 41.5t17.5 42t43.5 17q25 0 42.5 -17t17.5 -42zM93 709q0 -25 -17 -41.5t-43 -16.5t-43 16.5t-17 41.5t17.5 42t42.5 17t42.5 -17
t17.5 -42z" />
    <glyph glyph-name="Upsilondieresis" unicode="&#x3ab;" horiz-adv-x="465" 
d="M108 617q22 0 29 -16l94 -245h3q8 20 45 119.5t47 123.5q8 18 31 18h74q26 0 17 -20l-154 -356q-6 -13 -6 -26v-197q0 -18 -18 -18h-77q-18 0 -18 17v200q0 12 -5 22l-155 357q-8 21 14 21h79zM376 709q0 -25 -17 -41.5t-43 -16.5t-43.5 16.5t-17.5 41.5t17.5 42t43.5 17
q25 0 42.5 -17t17.5 -42zM200 709q0 -25 -17 -41.5t-43 -16.5t-43 16.5t-17 41.5t17.5 42t42.5 17t42.5 -17t17.5 -42z" />
    <glyph glyph-name="alphatonos" unicode="&#x3ac;" horiz-adv-x="455" 
d="M44 276q0 75 43 123.5t122 48.5q67 0 103 -36l2 2v16q0 13 14 13h74q15 0 15 -14v-414q0 -15 -17 -15h-78q-14 0 -14 13v11q-1 0 -2 1q-31 -31 -99 -31q-83 0 -123 46.5t-40 122.5v113zM153 271v-88q0 -98 77 -98q35 0 56.5 22.5t21.5 55.5v99q0 92 -78 92
q-37 0 -57 -23.5t-20 -59.5zM370 618l-115 -128q-9 -11 -25 -2l-28 17q-13 7 -6 21l87 143q9 16 24 8l60 -33q18 -11 3 -26z" />
    <glyph glyph-name="epsilontonos" unicode="&#x3ad;" horiz-adv-x="416" 
d="M218 88q49 0 86 39q11 10 16 11.5t16 -5.5l43 -41q15 -14 6 -27q-59 -72 -172 -72q-78 0 -127 36.5t-49 103.5q0 66 56 93v5q-24 8 -37.5 29.5t-13.5 47.5q0 67 49.5 105.5t121.5 38.5q113 0 165 -72q12 -16 -1 -26l-46 -39q-14 -13 -32 5q-30 36 -80 36q-27 0 -47 -13
t-20 -35q0 -39 52 -39h60q14 0 14 -13v-56q0 -13 -14 -13h-62q-22 0 -37 -11.5t-15 -33.5q0 -25 21 -39.5t47 -14.5zM354 618l-115 -128q-9 -11 -25 -2l-28 17q-13 7 -6 21l87 143q9 16 24 8l60 -33q18 -11 3 -26z" />
    <glyph glyph-name="etatonos" unicode="&#x3ae;" horiz-adv-x="480" 
d="M426 14q0 -14 -15 -14h-78q-16 0 -16 14v264q0 76 -77 76q-33 0 -55.5 -21.5t-22.5 -54.5v-264q0 -14 -16 -14h-77q-16 0 -16 14v414q0 15 15 15h79q13 0 13 -13v-18h1q1 -1 2 -1q39 38 108 38q75 0 115 -46.5t40 -123.5v-265zM343 618l-115 -128q-9 -11 -25 -2l-28 17
q-13 7 -6 21l87 143q9 16 24 8l60 -33q18 -11 3 -26z" />
    <glyph glyph-name="iotatonos" unicode="&#x3af;" horiz-adv-x="213" 
d="M167 16q0 -16 -16 -16h-78q-16 0 -16 15v413q0 16 15 16h78q17 0 17 -16v-412zM243 618l-115 -128q-9 -11 -25 -2l-28 17q-13 7 -6 21l87 143q9 16 24 8l60 -33q18 -11 3 -26z" />
    <glyph glyph-name="upsilondieresistonos" unicode="&#x3b0;" horiz-adv-x="454" 
d="M420 164q0 -77 -51 -124.5t-135 -47.5q-85 0 -136.5 47t-51.5 125v264q0 16 16 16h77q17 0 17 -16v-264q0 -32 21.5 -54.5t55.5 -22.5t55.5 22.5t21.5 54.5v264q0 16 16 16h78q16 0 16 -16v-264zM441 563q0 -25 -17.5 -42t-42.5 -17q-26 0 -44 16.5t-18 41.5t17.5 42
t43.5 17q25 0 43 -17t18 -41zM329 618l-115 -128q-9 -11 -25 -2l-29 17q-12 7 -5 21l86 143q10 15 25 8l60 -33q18 -11 3 -26zM153 563q0 -25 -17.5 -42t-42.5 -17q-26 0 -43.5 16.5t-17.5 41.5t17.5 42t42.5 17t43 -17t18 -41z" />
    <glyph glyph-name="alpha" unicode="&#x3b1;" horiz-adv-x="474" 
d="M44 276q0 75 43 123.5t122 48.5q67 0 103 -36l2 2v16q0 13 14 13h74q15 0 15 -14v-414q0 -15 -17 -15h-78q-14 0 -14 13v11q-1 0 -2 1q-31 -31 -99 -31q-83 0 -123 46.5t-40 122.5v113zM153 271v-88q0 -98 77 -98q35 0 56.5 22.5t21.5 55.5v99q0 92 -78 92
q-37 0 -57 -23.5t-20 -59.5z" />
    <glyph glyph-name="beta" unicode="&#x3b2;" horiz-adv-x="480" 
d="M433 163q0 -74 -48 -122t-124 -48q-62 0 -89 28h-4v-151q0 -16 -15 -16h-78q-16 0 -16 16v586q0 78 49.5 130t131.5 52q88 0 135.5 -47t47.5 -128q0 -32 -13.5 -61t-38.5 -43v-3q29 -14 45.5 -44t16.5 -64v-85zM323 164v82q0 32 -22 51.5t-55 19.5h-27q-14 0 -14 14v55
q0 14 14 14h30q27 0 45.5 19.5t18.5 47.5q0 33 -18 55t-53 22q-32 0 -53 -23.5t-21 -56.5v-300q0 -32 22.5 -54.5t55.5 -22.5t55 22.5t22 54.5z" />
    <glyph glyph-name="gamma" unicode="&#x3b3;" horiz-adv-x="433" 
d="M166 363l53 -195h3l42.5 138l36.5 118q8 18 28 18h73q16 0 16 -13q0 -6 -1 -8q-110 -304 -128 -358q-15 -45 -15 -74v-154q0 -16 -17 -16h-77q-16 0 -16 15v151q-1 20 -7 41l-89 296l-6 13.5t-8 9.5t-15 5h-6q-8 0 -11 1.5t-5 9.5l-11 57v4q0 13 31 20.5t45 7.5
q37 0 54 -19t30 -68z" />
    <glyph glyph-name="delta" unicode="&#x3b4;" horiz-adv-x="462" 
d="M246 544q-30 0 -45 -11.5t-15 -28.5q0 -7 3 -13t10 -12l13 -11t17.5 -10.5l18 -8.5l19.5 -9t17 -8q75 -34 104.5 -75.5t29.5 -119.5v-76q0 -78 -53.5 -123.5t-135.5 -45.5q-81 0 -133 45.5t-52 119.5v99q0 102 82 149q-54 36 -54 94q0 68 46 103t121 35q85 -2 143 -29
q18 -8 11 -25l-19 -49q-7 -17 -24 -12q-8 2 -29 8.5t-39 10t-36 3.5zM308 161v101q0 68 -85 92q-31 -8 -50.5 -34.5t-19.5 -58.5v-100q0 -31 21.5 -53t54.5 -22q37 0 58 20.5t21 54.5z" />
    <glyph glyph-name="epsilon" unicode="&#x3b5;" horiz-adv-x="403" 
d="M218 88q49 0 86 39q11 10 16 11.5t16 -5.5l43 -41q15 -14 6 -27q-59 -72 -172 -72q-78 0 -127 36.5t-49 103.5q0 66 56 93v5q-24 8 -37.5 29.5t-13.5 47.5q0 67 49.5 105.5t121.5 38.5q113 0 165 -72q12 -16 -1 -26l-46 -39q-14 -13 -32 5q-30 36 -80 36q-27 0 -47 -13
t-20 -35q0 -39 52 -39h60q14 0 14 -13v-56q0 -13 -14 -13h-62q-22 0 -37 -11.5t-15 -33.5q0 -25 21 -39.5t47 -14.5z" />
    <glyph glyph-name="zeta" unicode="&#x3b6;" horiz-adv-x="406" 
d="M34 179q0 87 71 181t162 159q0 2 -1 3h-178q-19 0 -19 20v59q0 17 19 17h318q27 0 27 -27v-35q0 -15 -6 -23.5t-22 -19.5q-99 -72 -178 -160t-79 -160q0 -20 11 -38t24 -30t40 -25.5t43 -19.5l50 -18q7 -3 11 -4q46 -17 65 -36t19 -51q0 -50 -63 -140q-12 -15 -27 -9
l-43 21q-16 9 -10 22q0 1 5.5 13t6.5 13q19 38 19 50q0 20 -30 30q-41 13 -61 20t-59 26.5t-59.5 38.5t-38 51.5t-17.5 71.5z" />
    <glyph glyph-name="eta" unicode="&#x3b7;" horiz-adv-x="480" 
d="M426 14q0 -14 -15 -14h-78q-16 0 -16 14v264q0 76 -77 76q-33 0 -55.5 -21.5t-22.5 -54.5v-264q0 -14 -16 -14h-77q-16 0 -16 14v414q0 15 15 15h79q13 0 13 -13v-18h1q1 -1 2 -1q39 38 108 38q75 0 115 -46.5t40 -123.5v-265z" />
    <glyph glyph-name="theta" unicode="&#x3b8;" horiz-adv-x="463" 
d="M420 167q0 -77 -51.5 -125t-135.5 -48q-85 0 -136 47.5t-51 124.5v298q0 77 51 124.5t136 47.5q84 0 135.5 -47t51.5 -124v-298zM310 370v94q0 32 -22.5 54t-54.5 22q-34 0 -56 -21.5t-22 -53.5v-95h155zM310 166v116h-155l1 -116q0 -33 21.5 -54.5t55.5 -21.5
q32 0 54.5 22t22.5 54z" />
    <glyph glyph-name="iota" unicode="&#x3b9;" horiz-adv-x="224" 
d="M167 16q0 -16 -16 -16h-78q-16 0 -16 15v413q0 16 15 16h78q17 0 17 -16v-412z" />
    <glyph glyph-name="kappa" unicode="&#x3ba;" horiz-adv-x="468" 
d="M429 115l5 -96q1 -19 -16 -19h-77q-15 0 -17 17l-6 98q-4 81 -76 81q-38 0 -58 -23t-20 -57v-101q0 -15 -14 -15h-81q-14 0 -14 15v414q0 15 15 15h79q15 0 15 -15v-137l3 -1l126 142q8 10 27 10h97q7 0 9.5 -4.5t-0.5 -8.5l-124 -155q68 -5 96 -47.5t31 -112.5z" />
    <glyph glyph-name="lambda" unicode="&#x3bb;" horiz-adv-x="482" 
d="M422 16q0 -16 -16 -16h-77q-16 0 -16 15v253q0 32 -22 53.5t-55 21.5t-55 -21.5t-22 -53.5v-252q0 -16 -16 -16h-78q-16 0 -16 15v252q0 75 46 122.5t123 47.5q61 0 92 -31h3v62q0 33 -22 55t-62 22q-39 0 -81 -17q-1 0 -3 -1q-30 -10 -35 2l-19 51q-7 19 11 29
q67 30 139 30q83 0 132 -46.5t49 -123.5v-453z" />
    <glyph glyph-name="nu" unicode="&#x3bd;" horiz-adv-x="432" 
d="M419 423l-144 -410q-4 -13 -24 -13h-70q-12 0 -16.5 3t-8.5 14l-142 405q-4 8 -0.5 15t14.5 7h73q24 0 28 -19l50 -170l37 -131h3l33 127l50 170q6 23 27 23h75q10 0 14 -7t1 -14z" />
    <glyph glyph-name="xi" unicode="&#x3be;" horiz-adv-x="396" 
d="M141 169q0 -36 31.5 -56.5t105.5 -39.5q62 -16 86 -39t24 -53q0 -44 -59 -143q-11 -22 -30 -13l-49 24q-17 9 -9 27q31 61 31 75q0 4 -1 7t-3.5 5t-5.5 4t-9 4t-11 3.5t-14 4.5t-17 6q-94 23 -140.5 62.5t-46.5 108.5q0 48 26.5 89t77.5 61v5q-39 15 -58 42.5t-19 59.5
q0 37 25.5 66t66.5 46q0 1 -1 3h-94q-20 0 -20 20v59q0 17 20 17h319q31 0 31 -24v-33q0 -28 -19 -32q-206 -45 -206 -120q0 -29 25.5 -45.5t62.5 -16.5h88q20 0 20 -15v-53q0 -18 -20 -18h-92q-40 0 -78 -27.5t-38 -70.5z" />
    <glyph glyph-name="omicron" unicode="&#x3bf;" horiz-adv-x="468" 
d="M420 165q0 -82 -50 -126.5t-136 -44.5t-136.5 45t-50.5 123v120q0 76 51.5 123t134.5 47q86 0 136.5 -44.5t50.5 -125.5v-117zM311 166v113q0 36 -20.5 56.5t-57.5 20.5q-36 0 -56.5 -21.5t-20.5 -55.5v-113q0 -35 20 -56t57 -21q36 0 57 21t21 56z" />
    <glyph glyph-name="pi" unicode="&#x3c0;" horiz-adv-x="479" 
d="M425 16q0 -16 -16 -16h-76q-17 0 -17 15v334h-154v-333q0 -16 -16 -16h-77q-16 0 -16 15v413q0 16 16 16h340q16 0 16 -15v-413z" />
    <glyph glyph-name="rho" unicode="&#x3c1;" horiz-adv-x="465" 
d="M421 285l-1 -116q-1 -79 -45.5 -127.5t-121.5 -48.5q-63 0 -93 27h-3v-185q0 -16 -16 -16h-77q-16 0 -18 15v446q0 77 53 124.5t135 47.5t134.5 -44.5t52.5 -122.5zM311 166v113q-1 35 -21.5 56t-56.5 21q-33 0 -55 -22t-22 -56v-112q0 -34 20.5 -55.5t57.5 -21.5
q35 0 56 22t21 55z" />
    <glyph glyph-name="sigma1" unicode="&#x3c2;" horiz-adv-x="425" 
d="M382 130q0 -65 -49.5 -100.5t-122.5 -35.5q-122 0 -170 91q-9 16 5 23l57 32q14 9 26 -8q33 -47 84 -47q26 0 43 11t17 31q0 6 -2 11.5t-7 10l-8.5 7.5t-13 7t-15 6l-18.5 6.5l-19 6.5q-31 11 -47.5 19t-42 23.5t-38 37.5t-12.5 50q0 64 47 102.5t117 38.5q83 0 137 -26
q22 -9 16 -27l-17 -51q-7 -21 -35 -10q-55 21 -97 21q-28 0 -45 -11t-17 -28q0 -27 47 -42q91 -31 120 -49q60 -39 60 -100z" />
    <glyph glyph-name="sigma" unicode="&#x3c3;" horiz-adv-x="472" 
d="M461 366q0 -15 -17 -15h-58l-2 -3q31 -21 31 -74v-109q0 -77 -51.5 -124t-134.5 -47q-85 0 -136.5 46.5t-51.5 124.5v107q0 76 49.5 124t131.5 48h222q17 0 17 -15v-63zM304 165v107q0 33 -20.5 55t-54.5 22q-35 0 -57 -22t-22 -55v-107q0 -32 21.5 -54t56.5 -22
q36 0 56 21.5t20 54.5z" />
    <glyph glyph-name="tau" unicode="&#x3c4;" horiz-adv-x="348" 
d="M330 28q3 -18 -18 -25q-40 -9 -82 -9q-63 0 -95.5 36t-32.5 94v226h-73q-16 0 -16 15v63q0 16 15 16h281q16 0 16 -15v-63q0 -16 -16 -16h-99v-208q0 -50 44 -50q23 0 41 5q11 3 16 1t8 -11z" />
    <glyph glyph-name="upsilon" unicode="&#x3c5;" horiz-adv-x="463" 
d="M420 164q0 -77 -51 -124.5t-135 -47.5q-85 0 -136.5 47t-51.5 125v264q0 16 16 16h77q17 0 17 -16v-264q0 -32 21.5 -54.5t55.5 -22.5t55.5 22.5t21.5 54.5v264q0 16 16 16h78q16 0 16 -16v-264z" />
    <glyph glyph-name="phi" unicode="&#x3c6;" horiz-adv-x="588" 
d="M45 285q0 52 27.5 93.5t74.5 59.5q17 7 23 -6l32 -59q9 -16 -10 -25q-37 -16 -37 -62v-121q0 -32 20.5 -55t63.5 -24v350q0 14 17 14h70q95 0 156 -43.5t61 -126.5v-114q0 -74 -54.5 -123t-139.5 -53v-154q0 -16 -16 -16h-77q-16 0 -16 15v155q-88 2 -141.5 49t-53.5 122
v124zM433 164v113q0 31 -21.5 53t-62.5 22v-266q39 1 61.5 24t22.5 54z" />
    <glyph glyph-name="chi" unicode="&#x3c7;" horiz-adv-x="408" 
d="M270 232l133 -211q5 -7 1.5 -14t-12.5 -7h-75q-21 0 -31 16l-79 140h-2l-78 -140q-11 -16 -31 -16h-72q-9 0 -13.5 5t1.5 16l132 211l-120 188q-4 2 -4 10q0 13 16 13h74q13 0 18 -2t11 -13l67 -117h3l66 117q4 7 8 10.5t8 4t13 0.5h74q16 0 16 -12q0 -8 -3 -11z" />
    <glyph glyph-name="psi" unicode="&#x3c8;" horiz-adv-x="583" 
d="M346 86q39 2 60.5 25.5t21.5 53.5v263q0 16 16 16h76q17 0 17 -15v-264q0 -73 -52 -123.5t-138 -53.5v-153q0 -16 -16 -16h-77q-15 0 -15 15v155q-89 2 -140.5 52t-51.5 124v263q0 16 16 16h77q16 0 16 -15v-264q0 -32 20.5 -54t61.5 -25v363q0 16 16 16h77q15 0 15 -16
v-363z" />
    <glyph glyph-name="omega" unicode="&#x3c9;" horiz-adv-x="652" 
d="M607 281v-118q0 -79 -43.5 -124t-119.5 -45q-85 0 -120 60q-41 -60 -119 -60q-76 0 -119 43t-43 120v127q0 75 50.5 121t131.5 46q18 0 18 -16v-61q0 -14 -15 -15q-33 -3 -54.5 -25t-21.5 -53v-115q0 -38 17 -58.5t43 -20.5t43.5 22t17.5 53v133q0 15 15 15h72
q16 0 16 -14v-134q0 -32 16.5 -53t45.5 -21q26 0 43 18t17 50v123q0 33 -21.5 55.5t-53.5 24.5q-16 2 -16 15v61q0 16 18 16q80 0 131 -47.5t51 -122.5z" />
    <glyph glyph-name="iotadieresis" unicode="&#x3ca;" horiz-adv-x="224" 
d="M167 16q0 -16 -16 -16h-78q-16 0 -16 15v413q0 16 15 16h78q17 0 17 -16v-412zM262 555q0 -25 -17 -42t-42 -17q-26 0 -44 16.5t-18 41.5t17.5 42t43.5 17q25 0 42.5 -17t17.5 -41zM26 496q-26 0 -43 16.5t-17 41.5t17.5 42t42.5 17t42.5 -17t18.5 -41q0 -25 -17.5 -42
t-43.5 -17z" />
    <glyph glyph-name="upsilondieresis" unicode="&#x3cb;" horiz-adv-x="463" 
d="M420 164q0 -77 -51 -124.5t-135 -47.5q-85 0 -136.5 47t-51.5 125v264q0 16 16 16h77q17 0 17 -16v-264q0 -32 21.5 -54.5t55.5 -22.5t55.5 22.5t21.5 54.5v264q0 16 16 16h78q16 0 16 -16v-264zM381 555q0 -25 -17 -42t-42 -17q-26 0 -44 16.5t-18 41.5t17.5 42t43.5 17
q25 0 42.5 -17t17.5 -41zM145 496q-26 0 -43 16.5t-17 41.5t17.5 42t42.5 17t42.5 -17t18.5 -41q0 -25 -17.5 -42t-43.5 -17z" />
    <glyph glyph-name="omicrontonos" unicode="&#x3cc;" horiz-adv-x="468" 
d="M420 165q0 -82 -50 -126.5t-136 -44.5t-136.5 45t-50.5 123v120q0 76 51.5 123t134.5 47q86 0 136.5 -44.5t50.5 -125.5v-117zM311 166v113q0 36 -20.5 56.5t-57.5 20.5q-36 0 -56.5 -21.5t-20.5 -55.5v-113q0 -35 20 -56t57 -21q36 0 57 21t21 56zM361 618l-115 -128
q-9 -11 -25 -2l-28 17q-13 7 -6 21l87 143q9 16 24 8l60 -33q18 -11 3 -26z" />
    <glyph glyph-name="upsilontonos" unicode="&#x3cd;" horiz-adv-x="463" 
d="M420 164q0 -77 -51 -124.5t-135 -47.5q-85 0 -136.5 47t-51.5 125v264q0 16 16 16h77q17 0 17 -16v-264q0 -32 21.5 -54.5t55.5 -22.5t55.5 22.5t21.5 54.5v264q0 16 16 16h78q16 0 16 -16v-264zM359 618l-115 -128q-9 -11 -25 -2l-28 17q-13 7 -6 21l87 143q9 16 24 8
l60 -33q18 -11 3 -26z" />
    <glyph glyph-name="omegatonos" unicode="&#x3ce;" horiz-adv-x="652" 
d="M607 281v-118q0 -79 -43.5 -124t-119.5 -45q-85 0 -120 60q-41 -60 -119 -60q-76 0 -119 43t-43 120v127q0 75 50.5 121t131.5 46q18 0 18 -16v-61q0 -14 -15 -15q-33 -3 -54.5 -25t-21.5 -53v-115q0 -38 17 -58.5t43 -20.5t43.5 22t17.5 53v133q0 15 15 15h72
q16 0 16 -14v-134q0 -32 16.5 -53t45.5 -21q26 0 43 18t17 50v123q0 33 -21.5 55.5t-53.5 24.5q-16 2 -16 15v61q0 16 18 16q80 0 131 -47.5t51 -122.5zM438 618l-115 -128q-9 -11 -25 -2l-28 17q-13 7 -6 21l87 143q9 16 24 8l60 -33q18 -11 3 -26z" />
    <glyph glyph-name="afii10023" unicode="&#x401;" horiz-adv-x="468" 
d="M433 17q0 -17 -16 -17h-339q-18 0 -18 17v583q0 17 18 17h333q16 0 16 -17v-65q0 -18 -16 -18h-238v-149h199q17 0 17 -18v-64q0 -18 -16 -18h-200v-169h244q16 0 16 -17v-65zM391 709q0 -25 -17 -41.5t-43 -16.5t-43.5 16.5t-17.5 41.5t17.5 42t43.5 17q25 0 42.5 -17
t17.5 -42zM215 709q0 -25 -17 -41.5t-43 -16.5t-43 16.5t-17 41.5t17.5 42t42.5 17t42.5 -17t17.5 -42z" />
    <glyph glyph-name="afii10051" unicode="&#x402;" horiz-adv-x="635" 
d="M394 36q39 9 53.5 33t14.5 67v69q0 99 -96 99q-51 0 -95 -29v-259q0 -16 -18 -16h-77q-19 0 -19 16l1 502h-120q-16 0 -16 18v64q0 17 16 17h421q16 0 16 -16v-65q0 -18 -16 -18h-189l1 -138l2 -1q53 25 120 25q84 0 134 -48t50 -130v-87q0 -181 -174 -199q-22 -2 -23 14
l-8 61q-1 9 4 13.5t18 7.5z" />
    <glyph glyph-name="afii10052" unicode="&#x403;" horiz-adv-x="441" 
d="M186 16q0 -16 -17 -16h-78q-18 0 -18 15v587q0 15 18 15h333q16 0 16 -14v-69q0 -16 -16 -16h-238v-502zM365 746q14 -15 -6 -25l-154 -78q-12 -6 -24 7l-20 26q-10 12 3 22l121 92q26 20 41 3z" />
    <glyph glyph-name="afii10053" unicode="&#x404;" horiz-adv-x="477" 
d="M256 526q-37 0 -60.5 -21t-23.5 -54v-88h176q15 0 15 -18v-58q0 -18 -15 -18h-176v-99q0 -33 24 -54t63 -21q53 0 89 45q1 1 4 4.5t4.5 4.5t4.5 2.5t6 1t7 -2.5q6 -3 30.5 -18t30.5 -17q16 -9 8 -24q-61 -97 -187 -97q-86 0 -141 47.5t-55 127.5v282q0 79 54.5 127.5
t139.5 48.5q124 0 184 -92q9 -15 -5 -26l-58 -40q-15 -7 -27 8q-37 49 -92 49z" />
    <glyph glyph-name="afii10054" unicode="&#x405;" horiz-adv-x="487" 
d="M453 177q0 -85 -60 -133.5t-154 -48.5q-128 0 -200 75q-9 9 -10 15t8 18l39 44q11 9 16 8t16 -10q26 -23 62 -37t66 -14q52 0 77.5 21t25.5 57q0 37 -32 58.5t-98 44.5q-72 24 -116.5 63.5t-44.5 110.5q0 80 56 128t138 48q104 0 174 -46q15 -10 3 -32l-26 -48
q-9 -16 -30 -7q-67 35 -115 35q-88 0 -88 -77q0 -14 7.5 -26.5t15.5 -20t27 -16.5t26 -11.5l29 -10.5q37 -13 53.5 -20t48 -24t46.5 -34t27.5 -46t12.5 -64z" />
    <glyph glyph-name="afii10055" unicode="&#x406;" horiz-adv-x="257" 
d="M184 15q0 -15 -18 -15h-78q-18 0 -18 15v586q0 16 18 16h78q18 0 18 -16v-586z" />
    <glyph glyph-name="afii10056" unicode="&#x407;" horiz-adv-x="257" 
d="M184 15q0 -15 -18 -15h-78q-18 0 -18 15v586q0 16 18 16h78q18 0 18 -16v-586zM269 709q0 -25 -17 -41.5t-43 -16.5t-43.5 16.5t-17.5 41.5t17.5 42t43.5 17q25 0 42.5 -17t17.5 -42zM93 709q0 -25 -17 -41.5t-43 -16.5t-43 16.5t-17 41.5t17.5 42t42.5 17t42.5 -17
t17.5 -42z" />
    <glyph glyph-name="afii10057" unicode="&#x408;" horiz-adv-x="309" 
d="M16 -139l-20 62q-5 17 12 24q63 25 88 59t25 98v500q0 13 15 13h82q15 0 15 -13v-509q0 -98 -44 -159.5t-148 -87.5q-21 -6 -25 13z" />
    <glyph glyph-name="afii10058" unicode="&#x409;" horiz-adv-x="829" 
d="M471 617q18 -1 18 -17v-225h115q85 0 140 -53.5t55 -132.5q0 -83 -54 -136t-142 -53h-208q-11 0 -14.5 3.5t-4.5 13.5v501h-139v-80q0 -237 -31 -325t-138 -127q-17 -9 -24 4l-32 63q-4 12 -1 16t17 12q67 40 83 103t16 251v165q0 17 19 17h325zM489 99h113q36 0 60 25.5
t24 61.5q0 41 -23 65.5t-62 24.5h-112v-177z" />
    <glyph glyph-name="afii10059" unicode="&#x40a;" horiz-adv-x="793" 
d="M652 187q0 41 -24 65t-60 24h-114v-176h114q37 0 60.5 24.5t23.5 62.5zM762 189q0 -82 -53.5 -135.5t-140.5 -53.5h-209q-18 0 -18 16v260h-164v-260q0 -16 -17 -16h-77q-19 0 -19 16v586q0 15 19 15h76q18 0 18 -14v-227h164v227q0 14 18 14h77q18 0 18 -14v-227h120
q85 0 136.5 -53.5t51.5 -133.5z" />
    <glyph glyph-name="afii10060" unicode="&#x40b;" horiz-adv-x="629" 
d="M576 16q0 -16 -17 -16h-78q-19 0 -19 16v189q0 99 -96 99q-51 0 -95 -29v-259q0 -16 -19 -16h-76q-19 0 -19 16v502h-119q-17 0 -17 18v64q0 17 17 17h420q16 0 16 -16v-65q0 -18 -16 -18h-188v-139l2 -1q51 26 121 26q84 0 133.5 -48t49.5 -130v-210z" />
    <glyph glyph-name="afii10061" unicode="&#x40c;" horiz-adv-x="534" 
d="M273 288q-44 0 -70 -27t-26 -69q0 -30 -0.5 -89t-0.5 -88q0 -15 -14 -15h-84q-15 0 -15 15v586q0 16 17 16h81q15 0 15 -15v-224h2l2 -1l182 228q10 12 26 12h89q9 0 11.5 -6t-2.5 -12l-181 -227l2 -4q154 0 165 -166l12 -190q0 -12 -14 -12h-80q-14 0 -16 15l-13 195
q-2 34 -24 56t-64 22zM393 749q14 -15 -6 -25l-154 -78q-12 -6 -24 7l-20 26q-10 12 3 22l121 92q26 20 41 3z" />
    <glyph glyph-name="afii10062" unicode="&#x40e;" horiz-adv-x="463" 
d="M33 618h73q13 0 18.5 -3t8.5 -13l100 -320h4l101 319q5 17 31 17h67q19 0 19 -13q0 -8 -2 -11l-162 -456q-30 -86 -59.5 -119.5t-99.5 -33.5h-43q-11 0 -14.5 3.5t-3.5 14.5v58q0 10 3 13t12 3h22q44 0 56 28l14 35l-162 453q0 1 -1 5t-1 6q0 14 19 14zM109 759
q0 9 2.5 11.5t13.5 2.5h40q9 0 12 -2.5t3 -10.5q1 -26 15 -42t40 -16q50 0 59 59q1 8 4 10.5t12 2.5h36q10 0 12.5 -2t2.5 -13q-3 -57 -35 -93t-92 -36q-57 0 -90 37.5t-35 91.5z" />
    <glyph glyph-name="afii10145" unicode="&#x40f;" horiz-adv-x="570" 
d="M339 0v-133q-1 -23 -22 -23h-64q-11 0 -14.5 4.5t-3.5 18.5v133h-148q-18 0 -18 17v583q0 17 18 17h80q15 0 15 -17v-502h205v502q0 17 17 17h81q16 0 16 -17v-583q0 -17 -19 -17h-143z" />
    <glyph glyph-name="afii10017" unicode="&#x410;" horiz-adv-x="482" 
d="M453 0h-87q-13 0 -16 11t-12.5 52l-14.5 63h-169q-17 -72 -26 -115q-2 -11 -16 -11h-82q-16 0 -16 11q0 2 2 8l146 584q5 14 20 14h113q17 0 21 -14l149 -583q1 -2 1 -8q0 -12 -13 -12zM236 491q-22 -111 -24 -119l-34 -153h122q-4 18 -12 50.5t-14 59.5l-11 50l-24 112
h-3z" />
    <glyph glyph-name="afii10018" unicode="&#x411;" horiz-adv-x="508" 
d="M173 519v-145h113q90 0 142.5 -52.5t52.5 -133.5q0 -83 -53.5 -135.5t-141.5 -52.5h-207q-17 0 -17 16v583q0 18 18 18h326q17 0 17 -16v-65q0 -17 -17 -17h-233zM173 97h113q37 0 60.5 26.5t23.5 62.5q0 42 -23.5 66.5t-63.5 24.5h-110v-180z" />
    <glyph glyph-name="afii10019" unicode="&#x412;" horiz-adv-x="516" 
d="M480 186q0 -84 -51 -135t-140 -51h-211q-19 0 -19 17v583q0 17 18 17h202q84 0 132.5 -42.5t48.5 -120.5q0 -34 -19.5 -69t-50.5 -52v-4q46 -17 68 -56.5t22 -86.5zM365 185q0 42 -24 67t-75 25h-94v-178h101q43 0 67.5 22.5t24.5 63.5zM346 448q0 69 -84 69h-90v-143h96
q37 0 57.5 20t20.5 54z" />
    <glyph glyph-name="afii10020" unicode="&#x413;" horiz-adv-x="441" 
d="M186 16q0 -16 -17 -16h-78q-18 0 -18 15v587q0 15 18 15h333q16 0 16 -14v-69q0 -16 -16 -16h-238v-502z" />
    <glyph glyph-name="afii10021" unicode="&#x414;" horiz-adv-x="585" 
d="M386 99q0 69 0.5 209t0.5 209h-148l-10 -179q0 -5 -1.5 -24t-1.5 -26t-1.5 -25t-2.5 -26l-3 -24t-4 -25.5l-5 -23t-6 -22.5t-7.5 -19.5t-9.5 -19.5v-4h199zM113 0v-121q-2 -19 -21 -19h-64q-10 0 -14 3t-5 14v183q0 26 20 33l18 7q36 14 53.5 78t24.5 185l15 231
q1 14 6 18.5t17 4.5h315q22 0 22 -23v-495h31q18 0 18 -23v-196q-1 -20 -19 -20h-67q-11 0 -15.5 3.5t-5.5 16.5v120h-329z" />
    <glyph glyph-name="afii10022" unicode="&#x415;" horiz-adv-x="468" 
d="M433 17q0 -17 -16 -17h-339q-18 0 -18 17v583q0 17 18 17h333q16 0 16 -17v-65q0 -18 -16 -18h-238v-149h199q17 0 17 -18v-64q0 -18 -16 -18h-200v-169h244q16 0 16 -17v-65z" />
    <glyph glyph-name="afii10024" unicode="&#x416;" horiz-adv-x="803" 
d="M361 617h80q16 0 16 -16v-216h4l174 220q8 12 26 12h88q12 0 12 -11q0 -5 -2 -7l-180 -228q0 -1 0.5 -2.5t0.5 -2.5q154 0 164 -169q12 -174 12 -182q0 -15 -14 -15h-81q-13 0 -15 15q-1 24 -3 51.5t-5 60.5t-4 52q-8 107 -89 107q-45 0 -66.5 -32t-21.5 -79v-160
q0 -15 -15 -15h-83q-14 0 -14 15v166q0 105 -87 105q-81 0 -88 -88l-14 -183q-2 -15 -16 -15h-80q-15 0 -15 19l15 188q5 75 46 117.5t116 46.5l-178 228q-3 3 -3 9q0 9 11 9h79q18 0 25.5 -4.5t17.5 -16.5l167 -211h4v217q0 15 16 15z" />
    <glyph glyph-name="afii10025" unicode="&#x417;" horiz-adv-x="497" 
d="M242 627q92 0 143.5 -46t51.5 -121q0 -40 -23 -76t-57 -49v-3q38 -13 65 -52t27 -88q0 -92 -60 -145t-156 -53q-145 0 -200 90q-8 16 5 25q3 3 27 20t27 19q16 10 29 -5q15 -20 44.5 -34t62.5 -14q46 0 74.5 25t28.5 67q0 45 -29 70.5t-74 25.5h-64q-16 0 -16 17v58
q0 18 16 18h75q36 0 59.5 21.5t23.5 55.5q0 30 -23 51t-68 21q-53 0 -97 -41q-21 -16 -30 -9l-48 42q-14 10 -4 24q64 86 190 86z" />
    <glyph glyph-name="afii10026" unicode="&#x418;" horiz-adv-x="549" 
d="M377 386l-3 2l-205 -371q-6 -11 -12 -14t-20 -3h-56q-19 0 -19 17v583q0 17 19 17h74q18 0 18 -17v-375h2l205 372q11 20 33 20h56q18 0 18 -17v-583q0 -17 -18 -17h-74q-18 0 -18 17v369z" />
    <glyph glyph-name="afii10027" unicode="&#x419;" horiz-adv-x="549" 
d="M377 386l-3 2l-205 -371q-6 -11 -12 -14t-20 -3h-56q-19 0 -19 17v583q0 17 19 17h74q18 0 18 -17v-375h2l205 372q11 20 33 20h56q18 0 18 -17v-583q0 -17 -18 -17h-74q-18 0 -18 17v369zM151 759q0 9 2.5 11.5t13.5 2.5h40q9 0 12 -2.5t3 -10.5q1 -26 15 -42t40 -16
q50 0 59 59q1 8 4 10.5t12 2.5h36q10 0 12.5 -2t2.5 -13q-3 -57 -35 -93t-92 -36q-57 0 -90 37.5t-35 91.5z" />
    <glyph glyph-name="afii10028" unicode="&#x41a;" horiz-adv-x="533" 
d="M273 288q-44 0 -70 -27t-26 -69q0 -30 -0.5 -89t-0.5 -88q0 -15 -14 -15h-84q-15 0 -15 15v586q0 16 17 16h81q15 0 15 -15v-224h2l2 -1l182 228q10 12 26 12h89q9 0 11.5 -6t-2.5 -12l-181 -227l2 -4q154 0 165 -166l12 -190q0 -12 -14 -12h-80q-14 0 -16 15l-13 195
q-2 34 -24 56t-64 22z" />
    <glyph glyph-name="afii10029" unicode="&#x41b;" horiz-adv-x="561" 
d="M132 600q0 17 18 17h331q18 0 18 -17v-584q0 -16 -18 -16h-77q-18 0 -18 16v502h-148v-109q0 -151 -14 -231t-51 -126t-111 -70q-18 -6 -27 13l-21 54q-5 14 13 23q66 36 85.5 100t19.5 237v191z" />
    <glyph glyph-name="afii10030" unicode="&#x41c;" horiz-adv-x="656" 
d="M609 17q0 -17 -19 -17h-73q-17 0 -17 15v321l-3 1l-43 -112l-73 -189q-9 -18 -24 -18h-46q-20 0 -27 15l-71 187l-41 114h-3v-319q0 -15 -18 -15h-73q-18 0 -18 17v580q0 20 21 20h62q14 0 19.5 -2.5t11.5 -14.5q5 -11 53.5 -137t55.5 -143l49 -134h5l52 135l108 279
q7 17 31 17h59q22 0 22 -20v-580z" />
    <glyph glyph-name="afii10031" unicode="&#x41d;" horiz-adv-x="550" 
d="M490 15q0 -15 -19 -15h-76q-19 0 -19 15v253h-200v-253q0 -15 -18 -15h-77q-18 0 -18 15v587q0 15 17 15h77q19 0 19 -14v-236h200v235q0 15 19 15h76q19 0 19 -14v-588z" />
    <glyph glyph-name="afii10032" unicode="&#x41e;" horiz-adv-x="529" 
d="M469 176q0 -83 -57 -132.5t-147 -49.5t-148 49t-58 133v268q0 83 58 133t147 50q88 0 146.5 -49.5t58.5 -133.5v-268zM355 177v266q0 36 -23.5 59.5t-66.5 23.5t-68 -23.5t-25 -59.5v-266q0 -36 24.5 -59t67.5 -23q41 0 66 23t25 59z" />
    <glyph glyph-name="afii10033" unicode="&#x41f;" horiz-adv-x="570" 
d="M483 617q18 0 18 -16v-585q0 -16 -18 -16h-77q-18 0 -18 15v503h-204v-502q0 -16 -19 -16h-77q-19 0 -19 15v585q0 17 19 17h395z" />
    <glyph glyph-name="afii10034" unicode="&#x420;" horiz-adv-x="486" 
d="M460 432q0 -77 -54.5 -128.5t-137.5 -51.5h-93l1 -236q0 -16 -18 -16h-77q-19 0 -19 16v586q0 15 19 15h186q88 0 140.5 -51.5t52.5 -133.5zM347 434q0 34 -21.5 59t-58.5 25h-92v-167h92q36 0 58 23t22 60z" />
    <glyph glyph-name="afii10035" unicode="&#x421;" horiz-adv-x="472" 
d="M256 -6q-88 0 -142.5 48.5t-54.5 129.5v277q0 80 54.5 129t139.5 49q122 0 185 -91q11 -15 -5 -26l-54 -41q-17 -9 -27 8q-34 50 -95 50q-40 0 -62.5 -23.5t-22.5 -58.5v-273q0 -33 23 -55t63 -22q53 0 93 47q1 1 4 4.5t4.5 4.5t4.5 2.5t6 1t7 -2.5l60 -37q16 -9 8 -24
q-64 -97 -189 -97z" />
    <glyph glyph-name="afii10036" unicode="&#x422;" horiz-adv-x="441" 
d="M423 536q0 -18 -15 -18h-134l-1 -502q0 -16 -18 -16h-77q-18 0 -18 15l1 503h-127q-17 0 -17 18v64q0 17 17 17h374q15 0 15 -16v-65z" />
    <glyph glyph-name="afii10037" unicode="&#x423;" horiz-adv-x="469" 
d="M33 618h73q13 0 18.5 -3t8.5 -13l100 -320h4l101 319q5 17 31 17h67q19 0 19 -13q0 -8 -2 -11l-162 -456q-30 -86 -59.5 -119.5t-99.5 -33.5h-43q-11 0 -14.5 3.5t-3.5 14.5v58q0 10 3 13t12 3h22q44 0 56 28l14 35l-162 453q0 1 -1 5t-1 6q0 14 19 14z" />
    <glyph glyph-name="afii10038" unicode="&#x424;" horiz-adv-x="616" 
d="M558 237q0 -72 -55.5 -121t-140.5 -55v-45q0 -16 -17 -16h-77q-17 0 -17 16v45q-84 4 -139 53t-54 123v162q-1 73 54.5 123t138.5 55v25q0 15 17 15h77q17 0 17 -14v-26q88 -4 142 -53t54 -124v-163zM451 235v171q0 75 -89 79v-331q41 3 65 25.5t24 55.5zM251 154v331
q-42 -1 -64 -24.5t-22 -55.5v-172q0 -32 22 -54t64 -25z" />
    <glyph glyph-name="afii10039" unicode="&#x425;" horiz-adv-x="480" 
d="M344 15l-100 205h-3l-100 -205q-8 -15 -30 -15h-82q-16 0 -16 10q0 5 3 14l162 298l-147 273q-3 5 -3 11q0 11 16 11h88q20 0 28 -16l81 -171h3l84 171q7 16 27 16h83q14 0 14 -10q0 -9 -3 -12l-141 -273l162 -301q3 -6 3 -10q0 -11 -17 -11h-83q-9 0 -13 0.5t-8.5 4
t-7.5 10.5z" />
    <glyph glyph-name="afii10040" unicode="&#x426;" horiz-adv-x="588" 
d="M501 600v-502h44q20 0 20 -25v-193q-2 -20 -22 -20h-62q-9 0 -12.5 0.5t-7.5 5t-5 14.5v120h-368q-18 0 -18 17v583q0 17 18 17h77q19 0 19 -17v-502h205v502q0 17 17 17h77q18 0 18 -17z" />
    <glyph glyph-name="afii10041" unicode="&#x427;" horiz-adv-x="521" 
d="M346 14v245h-2q-55 -28 -121 -28q-82 0 -133.5 48.5t-51.5 129.5v194q0 15 18 15h78q19 0 19 -15v-177q0 -43 24 -68.5t73 -25.5q50 0 96 31v240q0 15 18 15h76q19 0 19 -15v-589q0 -14 -19 -14h-76q-18 0 -18 14z" />
    <glyph glyph-name="afii10042" unicode="&#x428;" horiz-adv-x="797" 
d="M726 602v-585q0 -17 -18 -17h-620q-18 0 -18 17v586q0 14 18 14h76q19 0 19 -15v-504h160v505q0 14 17 14h78q18 0 18 -15v-504h159v505q0 14 17 14h76q18 0 18 -15z" />
    <glyph glyph-name="afii10043" unicode="&#x429;" horiz-adv-x="815" 
d="M684 0h-595q-19 0 -19 18v585q0 14 19 14h77q18 0 18 -15v-502h160v503q0 14 17 14h77q19 0 19 -15v-502h158v501q0 16 19 16h76q18 0 18 -17v-500h46q18 0 18 -26v-194q0 -21 -20 -21h-63q-8 0 -12 0.5t-8 5.5t-5 15v120z" />
    <glyph glyph-name="afii10044" unicode="&#x42a;" horiz-adv-x="633" 
d="M492 187q0 40 -23 64.5t-62 24.5h-112v-176h112q38 0 61.5 26t23.5 61zM183 18v500h-150q-16 0 -16 17v65q0 17 16 17h244q18 0 18 -18v-223h114q92 0 143 -52.5t51 -134.5t-53.5 -135.5t-142.5 -53.5h-206q-18 0 -18 18z" />
    <glyph glyph-name="afii10045" unicode="&#x42b;" horiz-adv-x="722" 
d="M177 603v-228h119q87 0 138 -53t51 -133q0 -84 -53.5 -136.5t-142.5 -52.5h-207q-17 0 -17 17v586q0 14 17 14h76q19 0 19 -14zM659 16q0 -16 -18 -16h-77q-19 0 -19 15v587q0 15 19 15h77q18 0 18 -14v-587zM177 99h112q38 0 61 26t23 61q0 41 -22.5 65.5t-61.5 24.5
h-112v-177z" />
    <glyph glyph-name="afii10046" unicode="&#x42c;" horiz-adv-x="516" 
d="M375 187q0 40 -23.5 64.5t-61.5 24.5h-113v-176h113q38 0 61.5 26t23.5 61zM486 189q0 -82 -54 -135.5t-142 -53.5h-207q-18 0 -18 18v585q0 14 18 14h76q18 0 18 -14v-227h120q87 0 138 -53t51 -134z" />
    <glyph glyph-name="afii10047" unicode="&#x42d;" horiz-adv-x="477" 
d="M310 372v79q0 33 -22.5 53.5t-65.5 20.5q-51 0 -94 -49q-13 -13 -25 -6l-54 41q-15 10 -5 26q58 90 190 90q90 0 139 -47.5t49 -128.5v-282q0 -80 -57 -127.5t-144 -47.5q-128 0 -186 95q-8 15 7 24q6 3 30.5 18.5t30.5 18.5q4 2 7 2.5t6 -1t4.5 -2.5t4.5 -4.5t4 -4.5
q36 -45 90 -45q39 0 64.5 21.5t25.5 53.5l1 107h-177q-15 0 -15 17v60q0 18 16 18h176z" />
    <glyph glyph-name="afii10048" unicode="&#x42e;" horiz-adv-x="714" 
d="M654 171q0 -83 -54.5 -130t-139.5 -47q-86 0 -140.5 46.5t-54.5 130.5l-1 96h-87v-251q0 -16 -17 -16h-78q-18 0 -18 15v587q0 15 18 15h77q18 0 18 -15v-236h87l1 83q0 82 55 130t139 48t139.5 -47.5t55.5 -130.5v-278zM541 172v276q0 35 -22 56.5t-59 21.5
q-38 0 -60.5 -22t-22.5 -56v-276q0 -35 22.5 -56t59.5 -21q38 0 60 21t22 56z" />
    <glyph glyph-name="afii10049" unicode="&#x42f;" horiz-adv-x="521" 
d="M230 337h114v181h-91q-38 0 -62 -24.5t-24 -61.5q0 -59 40 -89q9 -6 23 -6zM344 238h-93l-100 -217q-4 -8 -6.5 -11.5t-10 -6.5t-19.5 -3h-72q-8 0 -14 5t0 17l106 225q4 9 -2 15q-80 73 -80 175q0 83 52 131.5t134 48.5h201q18 0 18 -17v-584q0 -16 -18 -16h-77
q-19 0 -19 16v222z" />
    <glyph glyph-name="afii10065" unicode="&#x430;" horiz-adv-x="462" 
d="M235 453q93 0 133.5 -44t40.5 -129v-266q0 -14 -13 -14h-79q-11 0 -11 12v20h-3q-38 -38 -106 -38q-74 0 -115.5 42t-41.5 112q0 68 43.5 112t120.5 44q58 0 91 -24h3v22q0 62 -80 62q-52 0 -98 -20q-18 -6 -22 6l-17 54q-3 16 8 20q64 29 146 29zM141 151
q0 -32 18.5 -52t56.5 -20q33 0 53.5 20.5t20.5 51.5q0 32 -19 52.5t-55 20.5q-34 0 -54.5 -20.5t-20.5 -52.5z" />
    <glyph glyph-name="afii10066" unicode="&#x431;" horiz-adv-x="468" 
d="M420 255v-86q0 -84 -51 -129.5t-139 -45.5q-93 0 -137.5 52.5t-44.5 146.5v159q0 105 53.5 168t160.5 94q92 25 95 26q8 2 11 2q8 0 11 -11l14 -54q5 -16 -15 -22q-15 -5 -48.5 -14t-38.5 -11q-136 -39 -141 -139h4q42 33 101 33q80 0 122.5 -45t42.5 -124zM311 164v91
q0 34 -21 56t-56 22t-56.5 -21t-21.5 -55v-93q0 -31 21.5 -53.5t54.5 -22.5t56 21.5t23 54.5z" />
    <glyph glyph-name="afii10067" unicode="&#x432;" horiz-adv-x="471" 
d="M427 133q0 -61 -39.5 -97t-105.5 -36h-210q-19 0 -19 17v408q0 17 18 17h191q71 0 111.5 -31.5t40.5 -90.5q0 -24 -13.5 -48.5t-35.5 -36.5v-3q28 -13 45 -41t17 -58zM316 140q0 50 -67 50h-90v-96h103q25 0 39.5 13.5t14.5 32.5zM302 307q0 42 -60 42h-83v-87h84
q29 0 44 12.5t15 32.5z" />
    <glyph glyph-name="afii10068" unicode="&#x433;" horiz-adv-x="369" 
d="M362 366q0 -17 -19 -17h-189v-333q0 -16 -19 -16h-70q-19 0 -19 16v410q0 16 19 16h278q19 0 19 -16v-60z" />
    <glyph glyph-name="afii10069" unicode="&#x434;" horiz-adv-x="499" 
d="M322 92v259h-107l-13 -145q-8 -83 -30 -111l2 -3h148zM146 444h261q11 0 15 -4t4 -16v-333h29q16 0 16 -21v-160q-1 -13 -5 -16t-12 -3h-55q-7 0 -10 0.5t-6.5 5t-3.5 13.5v90h-274v-90q0 -13 -4.5 -16t-13.5 -3h-57q-16 0 -17 18v152q0 15 7 21t24 11q46 13 64 153
l18 176q1 9 2.5 13.5t5.5 6.5t12 2z" />
    <glyph glyph-name="afii10070" unicode="&#x435;" horiz-adv-x="458" 
d="M231 452q82 0 134.5 -47.5t52.5 -127.5v-47q0 -13 -8 -21.5t-20 -8.5h-236v-32q0 -33 21.5 -56t55.5 -23q46 0 85 47q12 13 24 5l49 -31q20 -13 13 -27q-50 -89 -169 -89q-85 0 -137 46.5t-52 123.5v113q0 78 52 126.5t135 48.5zM232 357q-34 0 -55 -20.5t-21 -50.5v-13
h152v18q0 30 -20.5 48t-55.5 18z" />
    <glyph glyph-name="afii10072" unicode="&#x436;" horiz-adv-x="715" 
d="M43 18l4 88q3 74 30.5 115.5t97.5 49.5l-121 151q0 2 -2 5t-2 6q0 9 12 9h90q20 0 26 -9l120 -153l4 2v148q0 14 15 14h78q15 0 15 -15v-151h2l2 -1l119 154q9 11 28 11h90q9 0 10.5 -7.5t-3.5 -12.5l-126 -151l1 -1q67 -4 95 -38.5t33 -98.5l9 -115q0 -18 -16 -18h-77
q-16 0 -16 16l-9 111q-5 64 -72 64q-69 0 -69 -83v-90q0 -18 -17 -18h-79q-14 0 -14 14v106q0 31 -19 51t-51 20q-70 0 -74 -77l-5 -98q-1 -16 -18 -16h-76q-16 0 -15 18z" />
    <glyph glyph-name="afii10073" unicode="&#x437;" horiz-adv-x="404" 
d="M182 89q32 0 51.5 14t19.5 40q0 22 -13 33.5t-35 11.5h-61q-15 0 -15 13v56q0 13 15 13h59q50 0 50 38q0 22 -19 35t-50 13q-46 0 -79 -37q-17 -17 -32 -5l-40 37q-16 13 -4 27q61 72 168 74q70 0 117.5 -35t47.5 -100q0 -27 -13.5 -54t-35.5 -36v-3q52 -25 52 -86
q0 -69 -49.5 -106.5t-129.5 -37.5q-101 0 -162 74q-11 15 5 28l44 39q12 12 28 -2q23 -24 39.5 -34t41.5 -10z" />
    <glyph glyph-name="afii10074" unicode="&#x438;" horiz-adv-x="475" 
d="M55 17v409q0 17 19 17h70q19 0 19 -17v-240h5l145 240q10 17 30 17h58q19 0 19 -17v-409q0 -17 -18 -17h-71q-20 0 -20 17v237h-3l-149 -240q-8 -14 -27 -14h-58q-19 0 -19 17z" />
    <glyph glyph-name="afii10075" unicode="&#x439;" horiz-adv-x="467" 
d="M55 17v409q0 17 19 17h70q19 0 19 -17v-240h5l145 240q10 17 30 17h58q19 0 19 -17v-409q0 -17 -18 -17h-71q-20 0 -20 17v237h-3l-149 -240q-8 -14 -27 -14h-58q-19 0 -19 17zM116 626q-1 9 2 12.5t13 2.5h33h7.5t4.5 -2t2.5 -3t1.5 -5t2 -6q15 -59 63 -59q27 0 41 14.5
t22 44.5q1 2 2 6t1.5 5t2 3t5 2h8.5h32q10 1 13.5 -2t2.5 -13q-4 -58 -39 -97.5t-92 -39.5q-55 0 -89.5 39.5t-38.5 97.5z" />
    <glyph glyph-name="afii10076" unicode="&#x43a;" horiz-adv-x="475" 
d="M429 115l5 -96q1 -19 -16 -19h-77q-15 0 -17 17l-6 98q-4 81 -76 81q-38 0 -58 -23t-20 -57v-101q0 -15 -14 -15h-81q-14 0 -14 15v414q0 15 15 15h79q15 0 15 -15v-137l3 -1l126 142q8 10 27 10h97q7 0 9.5 -4.5t-0.5 -8.5l-124 -155q68 -5 96 -47.5t31 -112.5z" />
    <glyph glyph-name="afii10077" unicode="&#x43b;" horiz-adv-x="452" 
d="M88 429q0 14 17 14h277q16 0 16 -14v-415q0 -14 -16 -14h-78q-15 0 -15 13v336h-99v-104q-4 -122 -32.5 -174.5t-100.5 -88.5q-15 -6 -22 8l-26 51q-6 12 9 20q44 25 57 66.5t13 142.5v159z" />
    <glyph glyph-name="afii10078" unicode="&#x43c;" horiz-adv-x="586" 
d="M424 219l-3 1l-37 -75l-44 -92q-12 -25 -30 -25h-38q-18 0 -25 15l-29 61q-10 19 -56 123h-2v-209q0 -18 -19 -18h-68q-20 0 -20 17v405q0 20 21 20h62q21 0 29 -18l83 -172l45 -98h2l50 108l79 163q10 17 28 17h60q21 0 21 -19v-405q0 -18 -20 -18h-69q-20 0 -20 17v202
z" />
    <glyph glyph-name="afii10079" unicode="&#x43d;" horiz-adv-x="472" 
d="M419 16q0 -16 -21 -16h-69q-19 0 -19 16v171h-149v-171q0 -16 -20 -16h-69q-20 0 -20 16v409q0 17 18 17h71q20 0 20 -17v-156h149v156q0 17 18 17h70q21 0 21 -17v-409z" />
    <glyph glyph-name="afii10080" unicode="&#x43e;" horiz-adv-x="468" 
d="M420 165q0 -82 -50 -126.5t-136 -44.5t-136.5 45t-50.5 123v120q0 76 51.5 123t134.5 47q86 0 136.5 -44.5t50.5 -125.5v-117zM311 166v113q0 36 -20.5 56.5t-57.5 20.5q-36 0 -56.5 -21.5t-20.5 -55.5v-113q0 -35 20 -56t57 -21q36 0 57 21t21 56z" />
    <glyph glyph-name="afii10081" unicode="&#x43f;" horiz-adv-x="479" 
d="M425 16q0 -16 -16 -16h-76q-17 0 -17 15v334h-154v-333q0 -16 -16 -16h-77q-16 0 -16 15v413q0 16 16 16h340q16 0 16 -15v-413z" />
    <glyph glyph-name="afii10082" unicode="&#x440;" horiz-adv-x="470" 
d="M52 429q0 14 14 14h75q15 0 15 -13v-19h3q37 37 110 37q74 0 115 -45.5t41 -121.5v-117q0 -75 -43 -122.5t-123 -47.5q-63 0 -95 24q-1 -1 -3 -1v-182q0 -16 -16 -16h-77q-16 0 -16 15v595zM161 277v-97q0 -41 18.5 -67.5t58.5 -26.5t59.5 21.5t19.5 56.5v99
q0 40 -18.5 65t-58.5 25q-35 0 -57 -21.5t-22 -54.5z" />
    <glyph glyph-name="afii10083" unicode="&#x441;" horiz-adv-x="422" 
d="M398 87q-58 -93 -167 -93q-86 0 -138 46.5t-52 124.5v113q0 79 53 126.5t137 46.5q110 0 167 -93q9 -17 -7 -26l-56 -32q-18 -11 -30 13q-26 44 -75 44q-34 0 -56.5 -22t-22.5 -54v-117q0 -32 22.5 -53t55.5 -21q52 0 75 42q7 12 12 15t19 -2l56 -31q18 -10 7 -27z" />
    <glyph glyph-name="afii10084" unicode="&#x442;" horiz-adv-x="372" 
d="M362 368q0 -19 -20 -19h-104v-331q0 -18 -20 -18h-68q-20 0 -20 18v331h-98q-20 0 -20 19v57q0 19 20 19h310q20 0 20 -18v-58z" />
    <glyph glyph-name="afii10085" unicode="&#x443;" horiz-adv-x="434" 
d="M108 443q18 0 23 -18l46 -183l34 -142h2l100 323q5 20 26 20h72q8 0 13 -7t2 -16l-187 -581q-6 -21 -29 -21h-65q-10 0 -15 8t-1 19l48 155h-24q-18 0 -24 20l-115 402q-6 21 14 21h80z" />
    <glyph glyph-name="afii10086" unicode="&#x444;" horiz-adv-x="580" 
d="M532 180q0 -75 -50.5 -128t-143.5 -59v-158q0 -16 -15 -16h-72q-15 0 -15 15v161q-95 6 -143 56.5t-48 126.5v84q0 76 50 130t141 59v170q0 16 15 16h72q16 0 16 -16v-169q96 -4 144.5 -57.5t48.5 -132.5v-82zM424 181v80q0 85 -85 92v-263q44 5 64.5 30.5t20.5 60.5z
M155 181q0 -82 81 -92v263q-43 -6 -62 -31t-19 -60v-80z" />
    <glyph glyph-name="afii10087" unicode="&#x445;" horiz-adv-x="408" 
d="M270 232l133 -211q5 -7 1.5 -14t-12.5 -7h-75q-21 0 -31 16l-79 140h-2l-78 -140q-11 -16 -31 -16h-72q-9 0 -13.5 5t1.5 16l132 211l-120 188q-4 2 -4 10q0 13 16 13h74q13 0 18 -2t11 -13l67 -117h3l66 117q4 7 8 10.5t8 4t13 0.5h74q16 0 16 -12q0 -8 -3 -11z" />
    <glyph glyph-name="afii10088" unicode="&#x446;" horiz-adv-x="502" 
d="M387 0h-315q-19 0 -19 18v408q0 18 19 18h72q19 0 19 -18v-332h150v331q0 19 17 19h73q20 0 20 -18v-334h40q15 0 15 -22v-159q0 -20 -15 -20h-58q-9 0 -13.5 4t-4.5 17v88z" />
    <glyph glyph-name="afii10089" unicode="&#x447;" horiz-adv-x="454" 
d="M28 430q0 16 15 16h78q17 0 17 -15v-111q0 -35 19.5 -56.5t57.5 -21.5q39 0 64 19q13 10 13 22v147q0 16 16 16h77q16 0 16 -15v-415q0 -15 -15 -15h-77q-16 0 -16 15v154l-4 1q-38 -23 -102 -23q-79 0 -119 46.5t-40 124.5v111z" />
    <glyph glyph-name="afii10090" unicode="&#x448;" horiz-adv-x="694" 
d="M530 94v331q0 17 19 17h71q19 0 19 -17v-409q0 -16 -20 -16h-545q-21 0 -21 16v409q0 17 19 17h72q19 0 19 -17v-331h129v331q0 17 20 17h71q19 0 19 -17v-331h128z" />
    <glyph glyph-name="afii10091" unicode="&#x449;" horiz-adv-x="716" 
d="M602 0h-529q-20 0 -20 16v409q0 17 19 17h72q18 0 18 -17v-331h129v331q0 17 20 17h71q19 0 19 -17v-331h128v331q0 17 20 17h70q19 0 19 -17v-331h39q16 -2 16 -22v-160q0 -21 -16 -21h-57q-10 0 -14 4t-4 17v88z" />
    <glyph glyph-name="afii10092" unicode="&#x44a;" horiz-adv-x="545" 
d="M419 152q0 28 -15.5 44t-44.5 16h-108v-120h108q28 0 44 18t16 42zM251 426v-123h107q78 0 120 -44t42 -106q0 -64 -42 -108.5t-121 -44.5h-196q-20 0 -20 18v333h-110q-19 0 -19 19v56q0 18 19 18h200q20 0 20 -18z" />
    <glyph glyph-name="afii10093" unicode="&#x44b;" horiz-adv-x="636" 
d="M583 18q0 -18 -19 -18h-71q-18 0 -18 17v409q0 17 18 17h71q19 0 19 -17v-408zM331 152q0 27 -15.5 43.5t-43.5 16.5h-109v-120h109q28 0 43.5 18t15.5 42zM432 153q0 -64 -42 -108.5t-121 -44.5h-196q-8 0 -13.5 5t-5.5 13v408q0 8 5.5 13t13.5 5h70q20 0 20 -18v-123
h108q77 0 119 -44t42 -106z" />
    <glyph glyph-name="afii10094" unicode="&#x44c;" horiz-adv-x="458" 
d="M331 152q0 27 -15.5 43.5t-43.5 16.5h-109v-120h109q28 0 43.5 18t15.5 42zM432 153q0 -64 -42 -108.5t-121 -44.5h-196q-8 0 -13.5 5t-5.5 13v408q0 8 5.5 13t13.5 5h70q20 0 20 -18v-123h108q77 0 119 -44t42 -106z" />
    <glyph glyph-name="afii10095" unicode="&#x44d;" horiz-adv-x="415" 
d="M129 202v56q0 11 14 11h119v12q0 34 -20 54.5t-60 20.5q-43 0 -74 -35q-17 -17 -23 -17t-10 4l-45 36q-8 7 -8 17q0 8 4 13q65 77 165 77q90 0 135 -45.5t45 -127.5v-113q0 -79 -51.5 -125t-136.5 -46q-106 0 -163 78q-4 5 -4 11q0 9 11 16l46 36q14 11 33 -14
q32 -32 74 -32t62 24.5t20 63.5v11h-120q-13 0 -13 14z" />
    <glyph glyph-name="afii10096" unicode="&#x44e;" horiz-adv-x="633" 
d="M231 160v23h-70v-166q0 -17 -19 -17h-70q-19 0 -19 16v409q0 17 18 17h71q19 0 19 -16v-156h70v15q0 75 47.5 120.5t127.5 45.5q81 0 129.5 -44.5t48.5 -125.5v-116q0 -82 -48 -126.5t-129 -44.5t-128.5 44.5t-47.5 121.5zM475 164v101q0 90 -68 90q-32 0 -50 -21.5
t-18 -56.5v-99q0 -90 67 -90q33 0 51 20.5t18 55.5z" />
    <glyph glyph-name="afii10097" unicode="&#x44f;" horiz-adv-x="470" 
d="M306 356h-101q-23 0 -36 -17t-13 -38q0 -60 74 -60h76v115zM50 307q0 62 38 100t98 38h209q20 0 20 -20v-407q0 -18 -18 -18h-72q-19 0 -19 19v139h-89q-5 -9 -66 -140q-8 -18 -32 -18h-65q-17 0 -17 12q0 6 4 13l71 140q2 6 2 7q0 2 -3 7q-61 54 -61 128z" />
    <glyph glyph-name="afii10071" unicode="&#x451;" horiz-adv-x="458" 
d="M231 452q82 0 134.5 -47.5t52.5 -127.5v-47q0 -13 -8 -21.5t-20 -8.5h-236v-32q0 -33 21.5 -56t55.5 -23q46 0 85 47q12 13 24 5l49 -31q20 -13 13 -27q-50 -89 -169 -89q-85 0 -137 46.5t-52 123.5v113q0 78 52 126.5t135 48.5zM232 357q-34 0 -55 -20.5t-21 -50.5v-13
h152v18q0 30 -20.5 48t-55.5 18zM383 562q0 -25 -17 -42t-42 -17q-26 0 -44 16.5t-18 41.5t17.5 42t43.5 17q25 0 42.5 -17t17.5 -41zM147 503q-26 0 -43 16.5t-17 41.5t17.5 42t42.5 17t42.5 -17t18.5 -41q0 -25 -17.5 -42t-43.5 -17z" />
    <glyph glyph-name="afii10099" unicode="&#x452;" horiz-adv-x="503" 
d="M450 159q0 -193 -171 -204q-23 -2 -25 17l-6 54q-3 18 21 19q71 8 71 100v117q0 35 -19 55.5t-58 20.5q-35 0 -56 -22.5t-21 -56.5v-243q0 -16 -16 -16h-77q-16 0 -16 15v480h-38q-13 0 -13 14v30q0 14 13 14h38v68q0 16 15 16h78q15 0 15 -16v-68h161q12 0 12 -13v-31
q0 -14 -11 -14h-162v-91h4q37 29 102 29q80 0 119.5 -46t39.5 -125v-103z" />
    <glyph glyph-name="afii10100" unicode="&#x453;" horiz-adv-x="369" 
d="M312 618l-116 -128q-9 -11 -25 -2l-28 16q-14 8 -5 22l85 143q10 15 25 8l60 -33q17 -10 4 -26zM362 366q0 -17 -19 -17h-189v-333q0 -16 -19 -16h-70q-19 0 -19 16v410q0 16 19 16h278q19 0 19 -16v-60z" />
    <glyph glyph-name="afii10101" unicode="&#x454;" horiz-adv-x="416" 
d="M390 72q-32 -41 -71 -59.5t-96 -18.5q-85 0 -136.5 46.5t-51.5 124.5v113q0 79 52.5 126.5t136.5 47.5q103 -1 163 -80q11 -15 -7 -26l-48 -36q-6 -3 -11 -2.5t-7.5 1.5t-7 6.5t-6.5 6.5q-31 35 -76 35q-35 0 -57.5 -21.5t-22.5 -54.5v-11h130q13 0 13 -12v-56
q0 -14 -12 -14h-131v-28q1 -32 22.5 -51t59.5 -19q48 0 85 43q11 10 22 3l50 -37q18 -13 7 -27z" />
    <glyph glyph-name="afii10102" unicode="&#x455;" horiz-adv-x="413" 
d="M381 129q0 -63 -48 -98.5t-122 -35.5q-132 0 -177 90q-8 15 4 22l56 31q14 8 23 -4q40 -50 97 -50q22 0 40.5 11.5t18.5 30.5q0 16 -11.5 26t-35.5 19q-11 4 -37 11.5t-34 10.5q-111 38 -111 123q0 64 46.5 99.5t114.5 35.5q96 0 154 -54q9 -9 -1 -24l-32 -47
q-5 -5 -11 -5q-3 0 -7.5 2.5l-11.5 6.5t-12 6q-49 23 -83 23q-23 0 -37.5 -10.5t-14.5 -28.5q0 -26 47 -42q5 -1 24 -7t25.5 -8.5l24.5 -9t25.5 -10.5l22 -11.5t21.5 -14.5l16.5 -17t14 -20t8 -23t3.5 -28z" />
    <glyph glyph-name="afii10103" unicode="&#x456;" horiz-adv-x="224" 
d="M177 564q0 -25 -19 -44t-45 -19q-27 0 -46 18.5t-19 44.5t18.5 44t45.5 18t46 -18t19 -44zM57 15v413q0 16 15 16h78q16 0 16 -16v-412q0 -16 -15 -16h-78q-16 0 -16 15z" />
    <glyph glyph-name="afii10104" unicode="&#x457;" horiz-adv-x="224" 
d="M263 555q0 -25 -17 -42t-42 -17q-26 0 -44 16.5t-18 41.5t17.5 42t43.5 17q25 0 42.5 -17t17.5 -41zM27 496q-26 0 -43 16.5t-17 41.5t17.5 42t42.5 17t42.5 -17t18.5 -41q0 -25 -17.5 -42t-43.5 -17zM57 15v413q0 16 15 16h78q16 0 16 -16v-412q0 -16 -15 -16h-78
q-16 0 -16 15z" />
    <glyph glyph-name="afii10105" unicode="&#x458;" horiz-adv-x="231" 
d="M184 564q0 -25 -19.5 -44t-45.5 -19q-27 0 -46 18t-19 45q0 26 19 44t46 18q26 0 45.5 -18.5t19.5 -43.5zM173 -52q0 -59 -31.5 -96t-100.5 -37q-32 0 -62 7q-21 6 -18 24l10 58q4 17 27 13q18 -3 27 -3q39 1 39 47v467q0 16 16 16h78q15 0 15 -16v-480z" />
    <glyph glyph-name="afii10106" unicode="&#x459;" horiz-adv-x="693" 
d="M289 349h-99v-89q-2 -91 -15.5 -145t-41 -84t-77.5 -51q-14 -6 -21 8l-26 51q-4 9 -3 12.5t12 11.5q46 27 58 66t12 139v161q0 14 17 14h270q24 0 24 -17v-126h107q78 0 120 -43t42 -105q0 -2 -0.5 -6t-0.5 -5q-4 -61 -46 -101t-117 -40h-195q-20 0 -20 18v100.5v122
v108.5zM507 90q27 0 43 17.5t16 41.5q0 28 -15.5 44.5t-43.5 16.5h-108v-120h108z" />
    <glyph glyph-name="afii10107" unicode="&#x45a;" horiz-adv-x="678" 
d="M273 18v173h-110v-173q0 -18 -19 -18h-70q-19 0 -19 17v408q0 17 19 17h69q20 0 20 -17v-138h110v138q0 18 21 18h70q20 0 20 -18v-138h110q76 0 117.5 -41t41.5 -102q0 -62 -41 -103t-119 -41h-199q-21 0 -21 18zM384 90h111q26 0 41 16.5t15 37.5q0 53 -56 53h-111
v-107z" />
    <glyph glyph-name="afii10108" unicode="&#x45b;" horiz-adv-x="503" 
d="M452 16q0 -16 -15 -16h-79q-16 0 -16 15v255q0 35 -19.5 55.5t-58.5 20.5q-35 0 -55.5 -22.5t-20.5 -55.5v-252q0 -16 -16 -16h-78q-16 0 -16 15v480h-37q-14 0 -14 14v30q0 14 13 14h38v68q0 16 16 16h77q16 0 16 -16v-68h161q12 0 12 -13v-31q0 -14 -12 -14h-161v-82
l3 -1q38 30 103 30q79 0 119 -46.5t40 -124.5v-255z" />
    <glyph glyph-name="afii10109" unicode="&#x45c;" horiz-adv-x="475" 
d="M429 115l5 -96q1 -19 -16 -19h-77q-15 0 -17 17l-6 98q-4 81 -76 81q-38 0 -58 -23t-20 -57v-101q0 -15 -14 -15h-81q-14 0 -14 15v414q0 15 15 15h79q15 0 15 -15v-137l3 -1l126 142q8 10 27 10h97q7 0 9.5 -4.5t-0.5 -8.5l-124 -155q68 -5 96 -47.5t31 -112.5zM347 618
l-115 -128q-9 -11 -25 -2l-28 17q-13 7 -6 21l87 143q9 16 24 8l60 -33q18 -11 3 -26z" />
    <glyph glyph-name="afii10110" unicode="&#x45e;" horiz-adv-x="434" 
d="M108 443q18 0 23 -18l46 -183l34 -142h2l100 323q5 20 26 20h72q8 0 13 -7t2 -16l-187 -581q-6 -21 -29 -21h-65q-10 0 -15 8t-1 19l48 155h-24q-18 0 -24 20l-115 402q-6 21 14 21h80zM97 627q0 9 2.5 11.5t13.5 2.5h40q9 0 12 -2.5t3 -10.5q1 -26 15 -42t40 -16
q50 0 59 59q1 8 4 10.5t12 2.5h36q10 0 12.5 -2t2.5 -13q-3 -57 -35 -93t-92 -36q-57 0 -90 37.5t-35 91.5z" />
    <glyph glyph-name="afii10193" unicode="&#x45f;" horiz-adv-x="482" 
d="M286 0v-105q0 -20 -22 -20h-47q-23 0 -23 20v105h-121q-20 0 -20 18v407q0 17 20 17h69q21 0 21 -18v-340h155v341q0 17 19 17h71q19 0 19 -18v-407q0 -17 -19 -17h-122z" />
    <glyph glyph-name="afii10050" unicode="&#x490;" horiz-adv-x="451" 
d="M440 540q0 -22 -19 -22h-236v-504q0 -14 -16 -14h-81q-16 0 -16 14v587q0 16 16 16h254l20 104q4 21 25 21h35q9 0 14 -4t5.5 -8.5t0.5 -14.5q0 -57 -2 -175z" />
    <glyph glyph-name="afii10098" unicode="&#x491;" horiz-adv-x="373" 
d="M360 366q0 -17 -20 -17h-184q0 -55 -0.5 -166t-0.5 -167q0 -16 -17 -16h-74q-18 0 -18 16v411q0 15 18 15h206l16 92q3 18 24 18h33q20 0 20 -23q0 -81 -3 -163z" />
    <glyph glyph-name="schwacyrillic" unicode="&#x4d9;" horiz-adv-x="458" 
d="M228 -6q-82 0 -134.5 47.5t-52.5 127.5v47q0 13 8 21.5t20 8.5h236v32q0 33 -21.5 56t-55.5 23q-46 0 -85 -47q-12 -13 -24 -5l-49 31q-20 13 -13 27q50 89 169 89q85 0 137 -46.5t52 -123.5v-113q0 -78 -52 -126.5t-135 -48.5zM227 89q34 0 55 20.5t21 50.5v13h-152v-18
q0 -30 20.5 -48t55.5 -18z" />
    <glyph glyph-name="Wgrave" unicode="&#x1e80;" horiz-adv-x="720" 
d="M705 597l-132 -582q-3 -15 -23 -15h-80q-18 0 -21 13l-57 257l-31 146l-3 1q-1 -4 -15.5 -70t-16.5 -78l-55 -256q-4 -13 -24 -13h-79q-19 0 -23 12l-134 587q-3 18 18 18h82q16 0 19 -15l54 -270l26 -148l4 -2l30 149l60 273q4 13 19 13h73q15 0 19 -14q6 -31 34 -148.5
t30 -128.5l30 -143l3 -1q1 7 12.5 70.5t13.5 76.5l53 274q1 14 19 14h77q22 0 18 -20zM189 746l39 47q15 17 41 -3l121 -92q13 -10 3 -22l-20 -26q-12 -13 -24 -7l-154 78q-20 10 -6 25z" />
    <glyph glyph-name="wgrave" unicode="&#x1e81;" horiz-adv-x="657" 
d="M641 423l-114 -405q-5 -18 -25 -18h-63q-12 0 -17 3t-9 14l-50 159l-35 130h-2l-39 -137l-47 -153q-5 -16 -25 -16h-64q-12 0 -17 3t-9 14l-113 406q-4 8 -0.5 14.5t14.5 6.5h76q22 0 26 -19l32 -140l30 -132h2l38 130l42 139q7 22 24 22h62q17 0 24 -20l48 -157l33 -114
h3l24 113l35 157q7 21 28 21h74q21 0 14 -21zM374 526q9 -14 -5 -21l-24 -14q-19 -10 -32 4l-113 123q-13 17 4 26l60 33q14 7 24 -8z" />
    <glyph glyph-name="Wacute" unicode="&#x1e82;" horiz-adv-x="720" 
d="M705 597l-132 -582q-3 -15 -23 -15h-80q-18 0 -21 13l-57 257l-31 146l-3 1q-1 -4 -15.5 -70t-16.5 -78l-55 -256q-4 -13 -24 -13h-79q-19 0 -23 12l-134 587q-3 18 18 18h82q16 0 19 -15l54 -270l26 -148l4 -2l30 149l60 273q4 13 19 13h73q15 0 19 -14q6 -31 34 -148.5
t30 -128.5l30 -143l3 -1q1 7 12.5 70.5t13.5 76.5l53 274q1 14 19 14h77q22 0 18 -20zM527 746q14 -15 -6 -25l-154 -78q-12 -6 -24 7l-20 26q-10 12 3 22l121 92q26 20 41 3z" />
    <glyph glyph-name="wacute" unicode="&#x1e83;" horiz-adv-x="657" 
d="M641 423l-114 -405q-5 -18 -25 -18h-63q-12 0 -17 3t-9 14l-50 159l-35 130h-2l-39 -137l-47 -153q-5 -16 -25 -16h-64q-12 0 -17 3t-9 14l-113 406q-4 8 -0.5 14.5t14.5 6.5h76q22 0 26 -19l32 -140l30 -132h2l38 130l42 139q7 22 24 22h62q17 0 24 -20l48 -157l33 -114
h3l24 113l35 157q7 21 28 21h74q21 0 14 -21zM466 618l-115 -128q-9 -11 -25 -2l-28 17q-13 7 -6 21l87 143q9 16 24 8l60 -33q18 -11 3 -26z" />
    <glyph glyph-name="Wdieresis" unicode="&#x1e84;" horiz-adv-x="720" 
d="M705 597l-132 -582q-3 -15 -23 -15h-80q-18 0 -21 13l-57 257l-31 146l-3 1q-1 -4 -15.5 -70t-16.5 -78l-55 -256q-4 -13 -24 -13h-79q-19 0 -23 12l-134 587q-3 18 18 18h82q16 0 19 -15l54 -270l26 -148l4 -2l30 149l60 273q4 13 19 13h73q15 0 19 -14q6 -31 34 -148.5
t30 -128.5l30 -143l3 -1q1 7 12.5 70.5t13.5 76.5l53 274q1 14 19 14h77q22 0 18 -20zM502 709q0 -25 -17 -41.5t-43 -16.5t-43.5 16.5t-17.5 41.5t17.5 42t43.5 17q25 0 42.5 -17t17.5 -42zM326 709q0 -25 -17 -41.5t-43 -16.5t-43 16.5t-17 41.5t17.5 42t42.5 17t42.5 -17
t17.5 -42z" />
    <glyph glyph-name="wdieresis" unicode="&#x1e85;" horiz-adv-x="657" 
d="M641 423l-114 -405q-5 -18 -25 -18h-63q-12 0 -17 3t-9 14l-50 159l-35 130h-2l-39 -137l-47 -153q-5 -16 -25 -16h-64q-12 0 -17 3t-9 14l-113 406q-4 8 -0.5 14.5t14.5 6.5h76q22 0 26 -19l32 -140l30 -132h2l38 130l42 139q7 22 24 22h62q17 0 24 -20l48 -157l33 -114
h3l24 113l35 157q7 21 28 21h74q21 0 14 -21zM474 555q0 -25 -17 -42t-42 -17q-26 0 -44 16.5t-18 41.5t17.5 42t43.5 17q25 0 42.5 -17t17.5 -41zM238 496q-26 0 -43 16.5t-17 41.5t17.5 42t42.5 17t42.5 -17t18.5 -41q0 -25 -17.5 -42t-43.5 -17z" />
    <glyph glyph-name="Ygrave" unicode="&#x1ef2;" horiz-adv-x="465" 
d="M108 617q22 0 29 -16l94 -245h3q8 20 45 119.5t47 123.5q8 18 31 18h74q26 0 17 -20l-154 -356q-6 -13 -6 -26v-197q0 -18 -18 -18h-77q-18 0 -18 17v200q0 12 -5 22l-155 357q-8 21 14 21h79zM66 746l39 47q15 17 41 -3l121 -92q13 -10 3 -22l-20 -26q-12 -13 -24 -7
l-154 78q-20 10 -6 25z" />
    <glyph glyph-name="ygrave" unicode="&#x1ef3;" horiz-adv-x="434" 
d="M108 443q18 0 23 -18l46 -183l34 -142h2l100 323q5 20 26 20h72q8 0 13 -7t2 -16l-187 -581q-6 -21 -29 -21h-65q-10 0 -15 8t-1 19l48 155h-24q-18 0 -24 20l-115 402q-6 21 14 21h80zM267 521q9 -14 -5 -21l-24 -14q-19 -10 -32 4l-113 123q-13 17 4 26l60 33
q14 7 24 -8z" />
    <glyph glyph-name="endash" unicode="&#x2013;" horiz-adv-x="500" 
d="M470 213q0 -14 -15 -14h-409q-16 0 -16 14v45q0 14 15 14h409q16 0 16 -14v-45z" />
    <glyph glyph-name="emdash" unicode="&#x2014;" horiz-adv-x="1000" 
d="M970 213q0 -14 -16 -14h-908q-16 0 -16 14v45q0 14 15 14h909q16 0 16 -14v-45z" />
    <glyph glyph-name="afii00208" unicode="&#x2015;" horiz-adv-x="1000" 
d="M980 213q0 -14 -16 -14h-928q-16 0 -16 14v45q0 14 15 14h929q16 0 16 -14v-45z" />
    <glyph glyph-name="quoteleft" unicode="&#x2018;" horiz-adv-x="218" 
d="M169 624l-12 -172q-2 -31 -31 -31h-66q-36 0 -26 36l53 177q7 23 31 23h29q24 0 22 -33z" />
    <glyph glyph-name="quoteright" unicode="&#x2019;" horiz-adv-x="221" 
d="M184 621l-52 -177q-7 -23 -32 -23h-29q-23 0 -21 32l11 173q4 31 31 31h66q36 0 26 -36z" />
    <glyph glyph-name="quotesinglbase" unicode="&#x201a;" horiz-adv-x="229" 
d="M184 83l-53 -176q-8 -24 -31 -24h-30q-21 0 -21 33l12 173q2 31 31 31h65q37 0 27 -37z" />
    <glyph glyph-name="quotedblleft" unicode="&#x201c;" horiz-adv-x="358" 
d="M320 624l-12 -172q-2 -31 -31 -31h-65q-36 0 -26 36l53 177q7 23 31 23h29q23 0 21 -33zM166 624l-11 -172q-4 -31 -31 -31h-66q-36 0 -26 36l53 177q7 23 31 23h29q23 0 21 -33z" />
    <glyph glyph-name="quotedblright" unicode="&#x201d;" horiz-adv-x="358" 
d="M327 621l-52 -177q-7 -23 -32 -23h-29q-23 0 -21 32l11 173q4 31 31 31h65q37 0 27 -36zM173 621l-52 -177q-7 -23 -31 -23h-30q-23 0 -21 32l12 173q4 31 31 31h65q37 0 26 -36z" />
    <glyph glyph-name="quotedblbase" unicode="&#x201e;" horiz-adv-x="395" 
d="M131 -93q-8 -24 -31 -24h-30q-23 0 -21 33l12 173q2 31 31 31h66q38 0 26 -37zM297 -93q-8 -24 -31 -24h-30q-22 0 -20 33l11 173q4 31 31 31h66q38 0 26 -37z" />
    <glyph glyph-name="dagger" unicode="&#x2020;" horiz-adv-x="474" 
d="M436 441q0 -17 -18 -17h-139v-549q0 -17 -19 -17h-48q-9 0 -14 4.5t-4 12.5v549h-135q-19 0 -19 17v43q0 18 18 18h136v149q0 17 18 17h48q19 0 19 -17v-149h139q18 0 18 -17v-44z" />
    <glyph glyph-name="daggerdbl" unicode="&#x2021;" horiz-adv-x="474" 
d="M58 220h136v204h-135q-19 0 -19 17v43q0 18 18 18h136v149q0 17 18 17h48q19 0 19 -17v-149h139q18 0 18 -17v-44q0 -17 -18 -17h-139v-204h139q18 0 18 -18v-43q0 -18 -18 -18h-139v-266q0 -17 -19 -17h-48q-9 0 -14 4.5t-4 12.5v266h-135q-19 0 -19 18v42q0 19 18 19z
" />
    <glyph glyph-name="bullet" unicode="&#x2022;" horiz-adv-x="384" 
d="M193 110q-52 0 -88.5 36.5t-36.5 87.5q0 52 36.5 89t88.5 37t88.5 -37t36.5 -88q0 -52 -36.5 -88.5t-88.5 -36.5z" />
    <glyph glyph-name="trianglebullet" unicode="&#x2023;" horiz-adv-x="525" 
d="M73 484l403 -206l-403 -217v423z" />
    <glyph glyph-name="ellipsis" unicode="&#x2026;" horiz-adv-x="734" 
d="M677 55q0 -26 -19.5 -45.5t-46.5 -19.5q-28 0 -47.5 19.5t-19.5 45.5t19.5 45t46.5 19t47 -18.5t20 -45.5zM437 55h1q0 -26 -19.5 -45.5t-47.5 -19.5q-27 0 -46.5 19.5t-19.5 45.5t19.5 45t45.5 19q28 0 47.5 -18.5t19.5 -45.5zM193 55h1q0 -26 -19.5 -45.5t-47.5 -19.5
q-27 0 -46.5 19.5t-19.5 45.5t19.5 45t45.5 19q28 0 47.5 -18.5t19.5 -45.5z" />
    <glyph glyph-name="perthousand" unicode="&#x2030;" horiz-adv-x="1055" 
d="M266 -21q-4 -9 -15 -9h-41q-18 0 -12 18l284 648q5 11 18 11h36q22 0 14 -19zM306 347q0 -52 -35 -81t-93 -29t-93.5 28.5t-35.5 81.5v166q0 52 35.5 81t92.5 29t93 -29t36 -81v-166zM223 347v166q0 19 -13 30.5t-32 11.5q-20 0 -33 -11.5t-13 -30.5v-166q0 -18 13 -29.5
t32 -11.5q20 0 33 11t13 30zM706 105q0 -52 -35 -81t-93 -29t-93.5 28.5t-35.5 81.5v166q0 52 35.5 81t92.5 29t93 -29t36 -81v-166zM623 105v166q0 19 -13 30.5t-32 11.5q-20 0 -33 -11.5t-13 -30.5v-166q0 -18 13 -29.5t32 -11.5q20 0 33 11t13 30zM1003 105
q0 -52 -35 -81t-93 -29t-93.5 28.5t-35.5 81.5v166q0 52 35.5 81t92.5 29t93 -29t36 -81v-166zM920 105v166q0 19 -13 30.5t-32 11.5q-20 0 -33 -11.5t-13 -30.5v-166q0 -18 13 -29.5t32 -11.5q20 0 33 11t13 30z" />
    <glyph glyph-name="guilsinglleft" unicode="&#x2039;" horiz-adv-x="349" 
d="M209 383h65q12 0 16 -8t-3 -18l-128 -154l128 -158q7 -10 3 -18t-16 -8h-65q-20 0 -36 19l-103 125q-16 20 -14 43q2 20 17 37l100 121q15 19 36 19z" />
    <glyph glyph-name="guilsinglright" unicode="&#x203a;" horiz-adv-x="345" 
d="M288 178l-115 -140q-16 -19 -36 -19h-64q-12 0 -16 8.5t3 18.5l129 155l-129 156q-8 9 -3.5 17.5t16.5 8.5h65q22 0 35 -19l116 -140q19 -23 -1 -46z" />
    <glyph glyph-name="fraction" unicode="&#x2044;" horiz-adv-x="132" 
d="M-42 -21q-4 -9 -15 -9h-41q-18 0 -12 18l284 648q5 11 18 11h36q22 0 14 -19z" />
    <glyph glyph-name="fraction" unicode="&#x2215;" horiz-adv-x="132" 
d="M-42 -21q-4 -9 -15 -9h-41q-18 0 -12 18l284 648q5 11 18 11h36q22 0 14 -19z" />
    <glyph glyph-name="zerosuperior" unicode="&#x2070;" horiz-adv-x="312" 
d="M284 437q0 -52 -35 -81t-93 -29t-93.5 28.5t-35.5 81.5v166q0 52 35.5 81t92.5 29t93 -29t36 -81v-166zM201 437v166q0 19 -13 30.5t-32 11.5q-20 0 -33 -11.5t-13 -30.5v-166q0 -18 13 -29.5t32 -11.5q20 0 33 11t13 30z" />
    <glyph glyph-name="foursuperior" unicode="&#x2074;" horiz-adv-x="323" 
d="M156 709h56q11 0 11 -6q0 -5 -5 -13l-113 -211h72v73q0 10 12 10h56q11 0 11 -11v-72h41q12 0 12 -10v-46q0 -12 -11 -12h-42v-68q0 -12 -11 -12h-57q-11 0 -11 12v68h-152q-13 0 -13 12v17q0 26 17 58q18 36 54 101.5l50 92.5q10 17 23 17z" />
    <glyph glyph-name="fivesuperior" unicode="&#x2075;" horiz-adv-x="312" 
d="M197 438v40q0 18 -13 28t-35 10q-18 0 -34 -10q-13 -7 -29 -1l-32 14q-13 4 -13 21v153q0 15 18 15h193q17 0 17 -15v-38q0 -16 -17 -16h-127v-57l2 -1q14 7 37 7q54 0 84.5 -29t30.5 -77v-45q0 -50 -36 -80.5t-94 -30.5q-81 0 -119 63q-10 14 6 21l36 21q12 7 22 -5
q21 -28 53 -28q22 0 36 11t14 29z" />
    <glyph glyph-name="sixsuperior" unicode="&#x2076;" horiz-adv-x="312" 
d="M286 471v-35q0 -51 -36.5 -80t-92.5 -29q-58 0 -94.5 29t-36.5 79v161q0 52 35.5 84.5t91.5 32.5q83 0 121 -52q6 -10 -4 -17l-38 -32q-4 -2 -7 -2.5t-4.5 0.5t-4.5 4l-4 4q-24 24 -52 24q-23 0 -37.5 -14t-14.5 -33v-29h1q24 14 54 14q57 0 90 -28.5t33 -80.5zM203 437
v30q0 19 -13.5 30.5t-35.5 11.5q-20 0 -33 -12t-13 -29v-31q0 -18 14 -29.5t33 -11.5q20 0 34 11.5t14 29.5z" />
    <glyph glyph-name="sevensuperior" unicode="&#x2077;" horiz-adv-x="291" 
d="M281 670q0 -11 -5 -21l-77 -152l-77 -152q-8 -14 -21 -14h-56q-8 0 -12.5 5t-0.5 14l147 290h-85v-25q0 -15 -17 -15h-40q-16 0 -16 15v79q0 16 16 16h221q23 0 23 -19v-21z" />
    <glyph glyph-name="eightsuperior" unicode="&#x2078;" horiz-adv-x="312" 
d="M156 715q55 0 90.5 -30t35.5 -81q0 -48 -39 -73v-1q21 -11 33 -34t12 -49q0 -55 -38 -87t-96 -32q-55 0 -92.5 29.5t-37.5 84.5q0 26 12 51.5t34 36.5v2q-39 18 -39 72q0 49 36 80t89 31zM156 500q-23 0 -36.5 -14.5t-13.5 -38.5q0 -23 13.5 -37t36.5 -14q22 0 35.5 14
t13.5 38q0 23 -14 37.5t-35 14.5zM202 605q0 18 -12.5 30t-33.5 12q-20 0 -33 -12.5t-13 -30.5q0 -16 12.5 -28t33.5 -12t33.5 12t12.5 29z" />
    <glyph glyph-name="ninesuperior" unicode="&#x2079;" horiz-adv-x="312" 
d="M25 569v29q0 51 38 83t94 32q58 0 93 -31t35 -83v-150q0 -57 -37 -89.5t-95 -32.5q-86 0 -121 56q-6 10 3 17l38 31q11 8 20 -6q25 -28 56 -28q22 0 37.5 14t15.5 39v23h-2q-20 -13 -51 -13q-57 0 -90.5 28.5t-33.5 80.5zM108 601v-29q0 -19 13.5 -30.5t34.5 -11.5
t33.5 11.5t12.5 28.5v30q0 18 -13.5 30.5t-32.5 12.5q-20 0 -34 -12.5t-14 -29.5z" />
    <glyph glyph-name="plussuperior" unicode="&#x207a;" horiz-adv-x="324" 
d="M130 463h-84q-18 0 -18 16v24q0 17 18 17h84v79q0 17 16 17h27q16 0 16 -17v-79h88q18 0 18 -17v-23q0 -17 -18 -17h-88v-80q0 -16 -16 -16h-26q-17 0 -17 16v80z" />
    <glyph glyph-name="hyphensuperior" unicode="&#x207b;" horiz-adv-x="210" 
d="M168 446h-129q-15 0 -15 12v34q0 14 15 14h128q15 0 15 -13v-35q0 -12 -14 -12z" />
    <glyph glyph-name="equalsuperior" unicode="&#x207c;" horiz-adv-x="323" 
d="M302 535q0 -17 -19 -17h-243q-18 0 -18 16v23q0 18 18 18h243q19 0 19 -18v-22zM302 429q0 -18 -19 -18h-243q-18 0 -18 17v24q0 16 18 16h243q19 0 19 -16v-23z" />
    <glyph glyph-name="parenleftsuperior" unicode="&#x207d;" horiz-adv-x="220" 
d="M201 714q-82 -120 -82 -220q0 -103 77 -209q14 -22 -2 -34l-24 -12q-18 -9 -32 7q-101 113 -101 248q0 124 100 247q15 20 30 11l27 -15q17 -9 7 -23z" />
    <glyph glyph-name="parenrightsuperior" unicode="&#x207e;" horiz-adv-x="220" 
d="M183 494q0 -133 -101 -248q-15 -18 -32 -7l-12 6t-11 6q-20 12 -3 34q76 99 76 209q0 100 -80 220q-11 14 6 23l28 15q14 10 30 -11q41 -49 70 -114.5t29 -132.5z" />
    <glyph glyph-name="nsuperior" unicode="&#x207f;" horiz-adv-x="320" 
d="M293 257q0 -17 -16 -17h-53q-16 0 -16 16v165q0 15 -13 29t-33 14t-32.5 -12.5t-12.5 -30.5v-164q0 -17 -17 -17h-52q-16 0 -16 16v260q0 15 15 15h54q14 0 14 -11v-8q30 23 75 23q50 0 76.5 -30.5t26.5 -81.5v-166z" />
    <glyph glyph-name="zeroinferior" unicode="&#x2080;" horiz-adv-x="312" 
d="M279 15q0 -52 -35 -81t-93 -29t-93.5 28.5t-35.5 81.5v166q0 52 35.5 81t92.5 29t93 -29t36 -81v-166zM196 15v166q0 19 -13 30.5t-32 11.5q-20 0 -33 -11.5t-13 -30.5v-166q0 -18 13 -29.5t32 -11.5q20 0 33 11t13 30z" />
    <glyph glyph-name="oneinferior" unicode="&#x2081;" horiz-adv-x="264" 
d="M64 170q-22 -12 -22 9v40q0 16 12 24l71 40q8 5 17 5h36q17 0 17 -18v-345q0 -16 -16 -16h-51q-17 0 -17 16v265l-2 2z" />
    <glyph glyph-name="twoinferior" unicode="&#x2082;" horiz-adv-x="312" 
d="M272 -76q0 -14 -15 -14h-225q-15 0 -15 14v29q0 17 10 30l125 147q32 37 32 55q0 17 -12 27.5t-30 10.5q-29 0 -52 -28q-14 -16 -27 -4l-31 24q-13 11 -1 23q41 55 114 55q55 0 89.5 -27t34.5 -74q0 -40 -49 -97l-95 -112l2 -3h130q15 0 15 -14v-42z" />
    <glyph glyph-name="threeinferior" unicode="&#x2083;" horiz-adv-x="312" 
d="M265 16q0 -52 -35 -82t-93 -30q-86 3 -119 61q-2 6 -2 10q0 8 8 12l37 19q7 3 12 3q8 0 12 -8q19 -29 52 -29q22 0 34 11.5t12 28.5v24q0 17 -10.5 29t-29.5 12h-45q-17 0 -17 15v36q0 16 16 16h41q20 0 32.5 11t12.5 27q0 18 -11.5 28.5t-32.5 10.5q-27 0 -48 -24
q-11 -11 -18 -11t-10 2l-34 19q-7 4 -7 13q0 7 4 15q37 55 114 55q57 0 90.5 -28t33.5 -77q0 -46 -40 -71v-2q41 -15 41 -66v-30z" />
    <glyph glyph-name="fourinferior" unicode="&#x2084;" horiz-adv-x="312" 
d="M151 287h56q11 0 11 -6q0 -5 -5 -13l-113 -211h72v73q0 10 12 10h56q11 0 11 -11v-72h41q12 0 12 -10v-46q0 -12 -11 -12h-42v-68q0 -12 -11 -12h-57q-11 0 -11 12v68h-152q-13 0 -13 12v17q0 26 17 58q18 36 54 101.5l50 92.5q10 17 23 17z" />
    <glyph glyph-name="fiveinferior" unicode="&#x2085;" horiz-adv-x="312" 
d="M192 16v40q0 18 -13 28t-35 10q-18 0 -34 -10q-13 -7 -29 -1l-32 14q-13 4 -13 21v153q0 15 18 15h193q17 0 17 -15v-38q0 -16 -17 -16h-127v-57l2 -1q14 7 37 7q54 0 84.5 -29t30.5 -77v-45q0 -50 -36 -80.5t-94 -30.5q-81 0 -119 63q-10 14 6 21l36 21q12 7 22 -5
q21 -28 53 -28q22 0 36 11t14 29z" />
    <glyph glyph-name="sixinferior" unicode="&#x2086;" horiz-adv-x="312" 
d="M281 49v-35q0 -51 -36.5 -80t-92.5 -29q-58 0 -94.5 29t-36.5 79v161q0 52 35.5 84.5t91.5 32.5q83 0 121 -52q6 -10 -4 -17l-38 -32q-4 -2 -7 -2.5t-4.5 0.5t-4.5 4l-4 4q-24 24 -52 24q-23 0 -37.5 -14t-14.5 -33v-29h1q24 14 54 14q57 0 90 -28.5t33 -80.5zM198 15v30
q0 19 -13.5 30.5t-35.5 11.5q-20 0 -33 -12t-13 -29v-31q0 -18 14 -29.5t33 -11.5q20 0 34 11.5t14 29.5z" />
    </font>
</defs>
</svg>
